%TF.GenerationSoftware,KiCad,Pcbnew,8.0.8*%
%TF.CreationDate,2025-04-26T14:11:05+03:00*%
%TF.ProjectId,rpi_pico_media_board,7270695f-7069-4636-9f5f-6d656469615f,rev?*%
%TF.SameCoordinates,Original*%
%TF.FileFunction,Copper,L1,Top*%
%TF.FilePolarity,Positive*%
%FSLAX46Y46*%
G04 Gerber Fmt 4.6, Leading zero omitted, Abs format (unit mm)*
G04 Created by KiCad (PCBNEW 8.0.8) date 2025-04-26 14:11:05*
%MOMM*%
%LPD*%
G01*
G04 APERTURE LIST*
G04 Aperture macros list*
%AMRoundRect*
0 Rectangle with rounded corners*
0 $1 Rounding radius*
0 $2 $3 $4 $5 $6 $7 $8 $9 X,Y pos of 4 corners*
0 Add a 4 corners polygon primitive as box body*
4,1,4,$2,$3,$4,$5,$6,$7,$8,$9,$2,$3,0*
0 Add four circle primitives for the rounded corners*
1,1,$1+$1,$2,$3*
1,1,$1+$1,$4,$5*
1,1,$1+$1,$6,$7*
1,1,$1+$1,$8,$9*
0 Add four rect primitives between the rounded corners*
20,1,$1+$1,$2,$3,$4,$5,0*
20,1,$1+$1,$4,$5,$6,$7,0*
20,1,$1+$1,$6,$7,$8,$9,0*
20,1,$1+$1,$8,$9,$2,$3,0*%
%AMFreePoly0*
4,1,28,0.605014,0.794986,0.644504,0.794986,0.724698,0.756366,0.780194,0.686777,0.800000,0.600000,0.800000,-0.600000,0.780194,-0.686777,0.724698,-0.756366,0.644504,-0.794986,0.605014,-0.794986,0.600000,-0.800000,0.000000,-0.800000,-0.178017,-0.779942,-0.347107,-0.720775,-0.498792,-0.625465,-0.625465,-0.498792,-0.720775,-0.347107,-0.779942,-0.178017,-0.800000,0.000000,-0.779942,0.178017,
-0.720775,0.347107,-0.625465,0.498792,-0.498792,0.625465,-0.347107,0.720775,-0.178017,0.779942,0.000000,0.800000,0.600000,0.800000,0.605014,0.794986,0.605014,0.794986,$1*%
%AMFreePoly1*
4,1,28,0.178017,0.779942,0.347107,0.720775,0.498792,0.625465,0.625465,0.498792,0.720775,0.347107,0.779942,0.178017,0.800000,0.000000,0.779942,-0.178017,0.720775,-0.347107,0.625465,-0.498792,0.498792,-0.625465,0.347107,-0.720775,0.178017,-0.779942,0.000000,-0.800000,-0.600000,-0.800000,-0.605014,-0.794986,-0.644504,-0.794986,-0.724698,-0.756366,-0.780194,-0.686777,-0.800000,-0.600000,
-0.800000,0.600000,-0.780194,0.686777,-0.724698,0.756366,-0.644504,0.794986,-0.605014,0.794986,-0.600000,0.800000,0.000000,0.800000,0.178017,0.779942,0.178017,0.779942,$1*%
%AMFreePoly2*
4,1,9,3.862500,-0.866500,0.737500,-0.866500,0.737500,-0.450000,-0.737500,-0.450000,-0.737500,0.450000,0.737500,0.450000,0.737500,0.866500,3.862500,0.866500,3.862500,-0.866500,3.862500,-0.866500,$1*%
G04 Aperture macros list end*
%TA.AperFunction,SMDPad,CuDef*%
%ADD10RoundRect,0.225000X-0.225000X-0.375000X0.225000X-0.375000X0.225000X0.375000X-0.225000X0.375000X0*%
%TD*%
%TA.AperFunction,SMDPad,CuDef*%
%ADD11RoundRect,0.150000X-0.587500X-0.150000X0.587500X-0.150000X0.587500X0.150000X-0.587500X0.150000X0*%
%TD*%
%TA.AperFunction,ComponentPad*%
%ADD12O,2.500000X2.000000*%
%TD*%
%TA.AperFunction,ComponentPad*%
%ADD13O,2.500000X1.850000*%
%TD*%
%TA.AperFunction,SMDPad,CuDef*%
%ADD14RoundRect,0.200000X-0.275000X0.200000X-0.275000X-0.200000X0.275000X-0.200000X0.275000X0.200000X0*%
%TD*%
%TA.AperFunction,SMDPad,CuDef*%
%ADD15RoundRect,0.225000X-0.250000X0.225000X-0.250000X-0.225000X0.250000X-0.225000X0.250000X0.225000X0*%
%TD*%
%TA.AperFunction,SMDPad,CuDef*%
%ADD16RoundRect,0.225000X0.250000X-0.225000X0.250000X0.225000X-0.250000X0.225000X-0.250000X-0.225000X0*%
%TD*%
%TA.AperFunction,SMDPad,CuDef*%
%ADD17RoundRect,0.112500X-0.187500X-0.112500X0.187500X-0.112500X0.187500X0.112500X-0.187500X0.112500X0*%
%TD*%
%TA.AperFunction,SMDPad,CuDef*%
%ADD18RoundRect,0.200000X0.275000X-0.200000X0.275000X0.200000X-0.275000X0.200000X-0.275000X-0.200000X0*%
%TD*%
%TA.AperFunction,SMDPad,CuDef*%
%ADD19RoundRect,0.225000X-0.225000X-0.250000X0.225000X-0.250000X0.225000X0.250000X-0.225000X0.250000X0*%
%TD*%
%TA.AperFunction,ComponentPad*%
%ADD20R,4.600000X2.000000*%
%TD*%
%TA.AperFunction,ComponentPad*%
%ADD21O,4.200000X2.000000*%
%TD*%
%TA.AperFunction,ComponentPad*%
%ADD22O,2.000000X4.200000*%
%TD*%
%TA.AperFunction,SMDPad,CuDef*%
%ADD23RoundRect,0.200000X0.200000X0.275000X-0.200000X0.275000X-0.200000X-0.275000X0.200000X-0.275000X0*%
%TD*%
%TA.AperFunction,SMDPad,CuDef*%
%ADD24RoundRect,0.200000X-0.200000X-0.275000X0.200000X-0.275000X0.200000X0.275000X-0.200000X0.275000X0*%
%TD*%
%TA.AperFunction,SMDPad,CuDef*%
%ADD25RoundRect,0.225000X-0.375000X0.225000X-0.375000X-0.225000X0.375000X-0.225000X0.375000X0.225000X0*%
%TD*%
%TA.AperFunction,SMDPad,CuDef*%
%ADD26RoundRect,0.112500X0.112500X-0.187500X0.112500X0.187500X-0.112500X0.187500X-0.112500X-0.187500X0*%
%TD*%
%TA.AperFunction,ComponentPad*%
%ADD27C,2.000000*%
%TD*%
%TA.AperFunction,SMDPad,CuDef*%
%ADD28R,0.650000X0.300000*%
%TD*%
%TA.AperFunction,SMDPad,CuDef*%
%ADD29R,1.100000X1.700000*%
%TD*%
%TA.AperFunction,ComponentPad*%
%ADD30C,1.524000*%
%TD*%
%TA.AperFunction,SMDPad,CuDef*%
%ADD31RoundRect,0.250000X0.325000X0.650000X-0.325000X0.650000X-0.325000X-0.650000X0.325000X-0.650000X0*%
%TD*%
%TA.AperFunction,ComponentPad*%
%ADD32R,1.700000X1.700000*%
%TD*%
%TA.AperFunction,ComponentPad*%
%ADD33O,1.700000X1.700000*%
%TD*%
%TA.AperFunction,SMDPad,CuDef*%
%ADD34RoundRect,0.225000X0.225000X0.250000X-0.225000X0.250000X-0.225000X-0.250000X0.225000X-0.250000X0*%
%TD*%
%TA.AperFunction,SMDPad,CuDef*%
%ADD35RoundRect,0.250000X-0.325000X-0.650000X0.325000X-0.650000X0.325000X0.650000X-0.325000X0.650000X0*%
%TD*%
%TA.AperFunction,SMDPad,CuDef*%
%ADD36RoundRect,0.250000X0.450000X-0.262500X0.450000X0.262500X-0.450000X0.262500X-0.450000X-0.262500X0*%
%TD*%
%TA.AperFunction,ComponentPad*%
%ADD37R,1.600000X2.000000*%
%TD*%
%TA.AperFunction,ComponentPad*%
%ADD38O,1.600000X2.000000*%
%TD*%
%TA.AperFunction,SMDPad,CuDef*%
%ADD39RoundRect,0.100000X-0.100000X0.712500X-0.100000X-0.712500X0.100000X-0.712500X0.100000X0.712500X0*%
%TD*%
%TA.AperFunction,SMDPad,CuDef*%
%ADD40RoundRect,0.218750X-0.218750X-0.256250X0.218750X-0.256250X0.218750X0.256250X-0.218750X0.256250X0*%
%TD*%
%TA.AperFunction,SMDPad,CuDef*%
%ADD41RoundRect,0.218750X-0.256250X0.218750X-0.256250X-0.218750X0.256250X-0.218750X0.256250X0.218750X0*%
%TD*%
%TA.AperFunction,SMDPad,CuDef*%
%ADD42RoundRect,0.250000X0.450000X0.425000X-0.450000X0.425000X-0.450000X-0.425000X0.450000X-0.425000X0*%
%TD*%
%TA.AperFunction,SMDPad,CuDef*%
%ADD43R,1.200000X1.400000*%
%TD*%
%TA.AperFunction,ComponentPad*%
%ADD44RoundRect,0.200000X-0.600000X-0.600000X0.600000X-0.600000X0.600000X0.600000X-0.600000X0.600000X0*%
%TD*%
%TA.AperFunction,ComponentPad*%
%ADD45C,1.600000*%
%TD*%
%TA.AperFunction,ComponentPad*%
%ADD46FreePoly0,0.000000*%
%TD*%
%TA.AperFunction,ComponentPad*%
%ADD47FreePoly1,0.000000*%
%TD*%
%TA.AperFunction,SMDPad,CuDef*%
%ADD48RoundRect,0.225000X0.375000X-0.225000X0.375000X0.225000X-0.375000X0.225000X-0.375000X-0.225000X0*%
%TD*%
%TA.AperFunction,SMDPad,CuDef*%
%ADD49R,4.000000X2.300000*%
%TD*%
%TA.AperFunction,SMDPad,CuDef*%
%ADD50R,4.400000X2.300000*%
%TD*%
%TA.AperFunction,SMDPad,CuDef*%
%ADD51RoundRect,0.125000X0.125000X0.125000X-0.125000X0.125000X-0.125000X-0.125000X0.125000X-0.125000X0*%
%TD*%
%TA.AperFunction,SMDPad,CuDef*%
%ADD52R,0.700000X1.300000*%
%TD*%
%TA.AperFunction,ComponentPad*%
%ADD53C,0.500000*%
%TD*%
%TA.AperFunction,SMDPad,CuDef*%
%ADD54R,1.200000X2.000000*%
%TD*%
%TA.AperFunction,SMDPad,CuDef*%
%ADD55RoundRect,0.250000X0.650000X-0.325000X0.650000X0.325000X-0.650000X0.325000X-0.650000X-0.325000X0*%
%TD*%
%TA.AperFunction,SMDPad,CuDef*%
%ADD56RoundRect,0.250000X-0.425000X0.450000X-0.425000X-0.450000X0.425000X-0.450000X0.425000X0.450000X0*%
%TD*%
%TA.AperFunction,SMDPad,CuDef*%
%ADD57RoundRect,0.225000X0.425000X0.225000X-0.425000X0.225000X-0.425000X-0.225000X0.425000X-0.225000X0*%
%TD*%
%TA.AperFunction,SMDPad,CuDef*%
%ADD58FreePoly2,180.000000*%
%TD*%
%TA.AperFunction,SMDPad,CuDef*%
%ADD59R,2.000000X1.500000*%
%TD*%
%TA.AperFunction,SMDPad,CuDef*%
%ADD60RoundRect,0.250000X0.425000X-0.450000X0.425000X0.450000X-0.425000X0.450000X-0.425000X-0.450000X0*%
%TD*%
%TA.AperFunction,SMDPad,CuDef*%
%ADD61RoundRect,0.250000X-0.375000X-0.850000X0.375000X-0.850000X0.375000X0.850000X-0.375000X0.850000X0*%
%TD*%
%TA.AperFunction,SMDPad,CuDef*%
%ADD62RoundRect,0.250000X-0.450000X-0.425000X0.450000X-0.425000X0.450000X0.425000X-0.450000X0.425000X0*%
%TD*%
%TA.AperFunction,SMDPad,CuDef*%
%ADD63RoundRect,0.100000X-0.100000X0.637500X-0.100000X-0.637500X0.100000X-0.637500X0.100000X0.637500X0*%
%TD*%
%TA.AperFunction,ViaPad*%
%ADD64C,0.700000*%
%TD*%
%TA.AperFunction,Conductor*%
%ADD65C,0.300000*%
%TD*%
%TA.AperFunction,Conductor*%
%ADD66C,0.500000*%
%TD*%
G04 APERTURE END LIST*
D10*
%TO.P,D504,1,K*%
%TO.N,Net-(D504-K)*%
X111100000Y-115750000D03*
%TO.P,D504,2,A*%
%TO.N,Net-(D504-A)*%
X114400000Y-115750000D03*
%TD*%
D11*
%TO.P,Q501,1,G*%
%TO.N,Net-(Q501-G)*%
X120812500Y-93800000D03*
%TO.P,Q501,2,S*%
%TO.N,GND*%
X120812500Y-95700000D03*
%TO.P,Q501,3,D*%
%TO.N,/[5]Macro_Pad/USR_LED_1_K*%
X122687500Y-94750000D03*
%TD*%
%TO.P,Q500,1,G*%
%TO.N,Net-(Q500-G)*%
X110812500Y-93800000D03*
%TO.P,Q500,2,S*%
%TO.N,GND*%
X110812500Y-95700000D03*
%TO.P,Q500,3,D*%
%TO.N,/[5]Macro_Pad/USR_LED_0_K*%
X112687500Y-94750000D03*
%TD*%
D12*
%TO.P,SW200,1*%
%TO.N,unconnected-(SW200-Pad1)*%
X108250000Y-72490000D03*
D13*
%TO.P,SW200,2*%
%TO.N,+RPI_VBUS*%
X108250000Y-69750000D03*
D12*
%TO.P,SW200,3*%
%TO.N,Net-(D200-A)*%
X108250000Y-67010000D03*
%TO.P,SW200,4*%
X102250000Y-67010000D03*
D13*
%TO.P,SW200,5*%
%TO.N,+RPI_VBUS*%
X102250000Y-69750000D03*
D12*
%TO.P,SW200,6*%
%TO.N,unconnected-(SW200-Pad6)*%
X102250000Y-72490000D03*
%TD*%
D14*
%TO.P,R402,1*%
%TO.N,+3.3V*%
X84250000Y-106175000D03*
%TO.P,R402,2*%
%TO.N,SPI1_SD_CARD_SCK*%
X84250000Y-107825000D03*
%TD*%
D15*
%TO.P,C101,1*%
%TO.N,+5V*%
X115250000Y-62225000D03*
%TO.P,C101,2*%
%TO.N,GND*%
X115250000Y-63775000D03*
%TD*%
D14*
%TO.P,R401,1*%
%TO.N,+3.3V*%
X89250000Y-106175000D03*
%TO.P,R401,2*%
%TO.N,SPI1_SD_CARD_MOSI*%
X89250000Y-107825000D03*
%TD*%
D16*
%TO.P,C301,1*%
%TO.N,/[3]PCM5102/VNEG*%
X60975000Y-73412500D03*
%TO.P,C301,2*%
%TO.N,GND*%
X60975000Y-71862500D03*
%TD*%
D17*
%TO.P,D201,1,A1*%
%TO.N,+3.3V*%
X71225000Y-59500000D03*
%TO.P,D201,2,A2*%
%TO.N,GND*%
X73325000Y-59500000D03*
%TD*%
D10*
%TO.P,D507,1,K*%
%TO.N,Net-(D504-K)*%
X141100000Y-115750000D03*
%TO.P,D507,2,A*%
%TO.N,Net-(D507-A)*%
X144400000Y-115750000D03*
%TD*%
D18*
%TO.P,R104,1*%
%TO.N,/[1]Power/FB_3V3*%
X118250000Y-54825000D03*
%TO.P,R104,2*%
%TO.N,GND*%
X118250000Y-53175000D03*
%TD*%
D19*
%TO.P,C500,1*%
%TO.N,MACRO_PAD_BTN_ROW_0*%
X98975000Y-79500000D03*
%TO.P,C500,2*%
%TO.N,GND*%
X100525000Y-79500000D03*
%TD*%
D20*
%TO.P,J100,1*%
%TO.N,VDC*%
X105000000Y-64000000D03*
D21*
%TO.P,J100,2*%
%TO.N,GND*%
X105000000Y-57700000D03*
D22*
%TO.P,J100,3*%
X100200000Y-61100000D03*
%TD*%
D23*
%TO.P,R103,1*%
%TO.N,+3.3V*%
X121750000Y-53250000D03*
%TO.P,R103,2*%
%TO.N,/[1]Power/FB_3V3*%
X120100000Y-53250000D03*
%TD*%
D24*
%TO.P,R501,1*%
%TO.N,MACRO_PAD_BTN_COL_2*%
X98925000Y-92250000D03*
%TO.P,R501,2*%
%TO.N,Net-(R501-Pad2)*%
X100575000Y-92250000D03*
%TD*%
D25*
%TO.P,D601,1,K*%
%TO.N,/[6]I2C_Peripherals/PCF_VDD*%
X145750000Y-77600000D03*
%TO.P,D601,2,A*%
%TO.N,+3.3V*%
X145750000Y-80900000D03*
%TD*%
D26*
%TO.P,D401,1,A1*%
%TO.N,SPI1_SD_CARD_MISO*%
X82250000Y-111800000D03*
%TO.P,D401,2,A2*%
%TO.N,GND*%
X82250000Y-109700000D03*
%TD*%
D27*
%TO.P,U511,1,1*%
%TO.N,Net-(R500-Pad2)*%
X139500000Y-118500000D03*
X146000000Y-118500000D03*
%TO.P,U511,2,2*%
%TO.N,Net-(D511-A)*%
X139500000Y-123000000D03*
X146000000Y-123000000D03*
%TD*%
D28*
%TO.P,PS100,1,FB*%
%TO.N,/[1]Power/FB_3V3*%
X118450000Y-56500000D03*
%TO.P,PS100,2,PG*%
%TO.N,PG_3V3*%
X118450000Y-57000000D03*
%TO.P,PS100,3,IN*%
%TO.N,+5V*%
X118450000Y-57500000D03*
%TO.P,PS100,4,PGND_1*%
%TO.N,GND*%
X118450000Y-58000000D03*
%TO.P,PS100,5,NC*%
%TO.N,unconnected-(PS100-NC-Pad5)*%
X120550000Y-58000000D03*
%TO.P,PS100,6,LX*%
%TO.N,/[1]Power/SW_3V3*%
X120550000Y-57500000D03*
%TO.P,PS100,7,EN*%
%TO.N,/[1]Power/EN_3V3*%
X120550000Y-57000000D03*
%TO.P,PS100,8,SGND*%
%TO.N,GND*%
X120550000Y-56500000D03*
D29*
%TO.P,PS100,9,PGND_2*%
X119500000Y-57250000D03*
%TD*%
D27*
%TO.P,U503,1,1*%
%TO.N,Net-(R500-Pad2)*%
X139500000Y-98500000D03*
X146000000Y-98500000D03*
%TO.P,U503,2,2*%
%TO.N,Net-(D503-A)*%
X139500000Y-103000000D03*
X146000000Y-103000000D03*
%TD*%
D14*
%TO.P,R108,1*%
%TO.N,Net-(Q100-G)*%
X138750000Y-93925000D03*
%TO.P,R108,2*%
%TO.N,PG_3V3*%
X138750000Y-95575000D03*
%TD*%
D27*
%TO.P,U509,1,1*%
%TO.N,Net-(R502-Pad2)*%
X119500000Y-118500000D03*
X126000000Y-118500000D03*
%TO.P,U509,2,2*%
%TO.N,Net-(D509-A)*%
X119500000Y-123000000D03*
X126000000Y-123000000D03*
%TD*%
D18*
%TO.P,R107,1*%
%TO.N,/[1]Power/LED_PWR_A*%
X146500000Y-95575000D03*
%TO.P,R107,2*%
%TO.N,+5V*%
X146500000Y-93925000D03*
%TD*%
D30*
%TO.P,U203,1,3V*%
%TO.N,+3.3VA_INMP*%
X63810000Y-120000000D03*
%TO.P,U203,2,GND*%
%TO.N,GND*%
X63810000Y-117460000D03*
%TO.P,U203,3,BCLK*%
%TO.N,I2S_INMP441_SCK*%
X56190000Y-122540000D03*
%TO.P,U203,4,DOUT*%
%TO.N,I2S_INMP441_DATA*%
X63810000Y-122540000D03*
%TO.P,U203,5,LRCLK*%
%TO.N,I2S_INMP441_SCL*%
X56190000Y-120000000D03*
%TO.P,U203,6,SEL*%
%TO.N,GND*%
X56190000Y-117460000D03*
%TD*%
D31*
%TO.P,C108,1*%
%TO.N,+3.3VA_PCM*%
X69975000Y-90000000D03*
%TO.P,C108,2*%
%TO.N,GND*%
X67025000Y-90000000D03*
%TD*%
D26*
%TO.P,D404,1,A1*%
%TO.N,SPI1_SD_CARD_CS*%
X91250000Y-111800000D03*
%TO.P,D404,2,A2*%
%TO.N,GND*%
X91250000Y-109700000D03*
%TD*%
D32*
%TO.P,J301,1,Pin_1*%
%TO.N,GND*%
X52500000Y-55000000D03*
D33*
%TO.P,J301,2,Pin_2*%
%TO.N,/[3]PCM5102/OUT_L*%
X52500000Y-57540000D03*
%TO.P,J301,3,Pin_3*%
%TO.N,/[3]PCM5102/OUT_R*%
X52500000Y-60080000D03*
%TD*%
D34*
%TO.P,C104,1*%
%TO.N,+3.3V*%
X121700000Y-55000000D03*
%TO.P,C104,2*%
%TO.N,/[1]Power/FB_3V3*%
X120150000Y-55000000D03*
%TD*%
D18*
%TO.P,R509,1*%
%TO.N,/[5]Macro_Pad/USR_LED_1_A*%
X126500000Y-95575000D03*
%TO.P,R509,2*%
%TO.N,+5V*%
X126500000Y-93925000D03*
%TD*%
D35*
%TO.P,C106,1*%
%TO.N,+3.3V*%
X123775000Y-54750000D03*
%TO.P,C106,2*%
%TO.N,GND*%
X126725000Y-54750000D03*
%TD*%
D27*
%TO.P,U507,1,1*%
%TO.N,Net-(R500-Pad2)*%
X139500000Y-108500000D03*
X146000000Y-108500000D03*
%TO.P,U507,2,2*%
%TO.N,Net-(D507-A)*%
X139500000Y-113000000D03*
X146000000Y-113000000D03*
%TD*%
D36*
%TO.P,R106,1*%
%TO.N,/[1]Power/+5V_FILT_2*%
X60750000Y-93912500D03*
%TO.P,R106,2*%
%TO.N,+5V*%
X60750000Y-92087500D03*
%TD*%
D37*
%TO.P,Brd600,1,GND*%
%TO.N,GND*%
X121630000Y-67150000D03*
%TO.P,Brd600,2,VCC*%
%TO.N,+3.3V*%
X124170000Y-67150000D03*
D38*
%TO.P,Brd600,3,SCL*%
%TO.N,I2C1_SCL*%
X126710000Y-67150000D03*
%TO.P,Brd600,4,SDA*%
%TO.N,I2C1_SDA*%
X129250000Y-67150000D03*
%TD*%
D19*
%TO.P,C302,1*%
%TO.N,/[3]PCM5102/LDO*%
X62700000Y-83362500D03*
%TO.P,C302,2*%
%TO.N,GND*%
X64250000Y-83362500D03*
%TD*%
D18*
%TO.P,R507,1*%
%TO.N,/[5]Macro_Pad/USR_LED_0_A*%
X116500000Y-95575000D03*
%TO.P,R507,2*%
%TO.N,+5V*%
X116500000Y-93925000D03*
%TD*%
D10*
%TO.P,D509,1,K*%
%TO.N,Net-(D508-K)*%
X121200000Y-125750000D03*
%TO.P,D509,2,A*%
%TO.N,Net-(D509-A)*%
X124500000Y-125750000D03*
%TD*%
D24*
%TO.P,R502,1*%
%TO.N,MACRO_PAD_BTN_COL_1*%
X98925000Y-97500000D03*
%TO.P,R502,2*%
%TO.N,Net-(R502-Pad2)*%
X100575000Y-97500000D03*
%TD*%
D10*
%TO.P,D503,1,K*%
%TO.N,Net-(D500-K)*%
X141100000Y-105750000D03*
%TO.P,D503,2,A*%
%TO.N,Net-(D503-A)*%
X144400000Y-105750000D03*
%TD*%
D36*
%TO.P,R308,1*%
%TO.N,/[3]PCM5102/OUTR*%
X58500000Y-68162500D03*
%TO.P,R308,2*%
%TO.N,/[3]PCM5102/OUT_R*%
X58500000Y-66337500D03*
%TD*%
D39*
%TO.P,U600,1,OSCI*%
%TO.N,/[6]I2C_Peripherals/OSCI*%
X142950000Y-72500000D03*
%TO.P,U600,2,OSCO*%
%TO.N,/[6]I2C_Peripherals/OSCO*%
X142300000Y-72500000D03*
%TO.P,U600,3,~{INT}*%
%TO.N,PCF8563_INT*%
X141650000Y-72500000D03*
%TO.P,U600,4,VSS*%
%TO.N,GND*%
X141000000Y-72500000D03*
%TO.P,U600,5,SDA*%
%TO.N,I2C1_SDA*%
X141000000Y-76725000D03*
%TO.P,U600,6,SCL*%
%TO.N,I2C1_SCL*%
X141650000Y-76725000D03*
%TO.P,U600,7,CLKO*%
%TO.N,unconnected-(U600-CLKO-Pad7)*%
X142300000Y-76725000D03*
%TO.P,U600,8,VDD*%
%TO.N,/[6]I2C_Peripherals/PCF_VDD*%
X142950000Y-76725000D03*
%TD*%
D24*
%TO.P,R505,1*%
%TO.N,MACRO_PAD_BTN_ROW_1*%
X98925000Y-84750000D03*
%TO.P,R505,2*%
%TO.N,Net-(D504-K)*%
X100575000Y-84750000D03*
%TD*%
D16*
%TO.P,C306,1*%
%TO.N,+3.3VA_PCM*%
X64750000Y-81275000D03*
%TO.P,C306,2*%
%TO.N,GND*%
X64750000Y-79725000D03*
%TD*%
D26*
%TO.P,D405,1,A1*%
%TO.N,SPI1_SD_CARD_CARD_DETECT*%
X80000000Y-111800000D03*
%TO.P,D405,2,A2*%
%TO.N,GND*%
X80000000Y-109700000D03*
%TD*%
D40*
%TO.P,L100,1,1*%
%TO.N,VCC*%
X113462500Y-60500000D03*
%TO.P,L100,2,2*%
%TO.N,+5V*%
X115037500Y-60500000D03*
%TD*%
D16*
%TO.P,C308,1*%
%TO.N,+3.3V*%
X57975000Y-73412500D03*
%TO.P,C308,2*%
%TO.N,GND*%
X57975000Y-71862500D03*
%TD*%
D36*
%TO.P,R601,1*%
%TO.N,+3.3V*%
X143325000Y-80862500D03*
%TO.P,R601,2*%
%TO.N,I2C1_SCL*%
X143325000Y-79037500D03*
%TD*%
D34*
%TO.P,C300,1*%
%TO.N,Net-(U300-CAPP)*%
X64250000Y-73137500D03*
%TO.P,C300,2*%
%TO.N,Net-(U300-CAPM)*%
X62700000Y-73137500D03*
%TD*%
D24*
%TO.P,R101,1*%
%TO.N,+5V*%
X118675000Y-60250000D03*
%TO.P,R101,2*%
%TO.N,/[1]Power/EN_3V3*%
X120325000Y-60250000D03*
%TD*%
D27*
%TO.P,U501,1,1*%
%TO.N,Net-(R502-Pad2)*%
X119500000Y-98500000D03*
X126000000Y-98500000D03*
%TO.P,U501,2,2*%
%TO.N,Net-(D501-A)*%
X119500000Y-103000000D03*
X126000000Y-103000000D03*
%TD*%
D16*
%TO.P,C600,1*%
%TO.N,+3.3V*%
X148000000Y-77525000D03*
%TO.P,C600,2*%
%TO.N,GND*%
X148000000Y-75975000D03*
%TD*%
D11*
%TO.P,Q100,1,G*%
%TO.N,Net-(Q100-G)*%
X140812500Y-93800000D03*
%TO.P,Q100,2,S*%
%TO.N,GND*%
X140812500Y-95700000D03*
%TO.P,Q100,3,D*%
%TO.N,/[1]Power/LED_PWR_K*%
X142687500Y-94750000D03*
%TD*%
D32*
%TO.P,J200,1,Pin_1*%
%TO.N,GND*%
X68525000Y-52000000D03*
D33*
%TO.P,J200,2,Pin_2*%
%TO.N,UART0_TX*%
X68525000Y-54540000D03*
%TO.P,J200,3,Pin_3*%
%TO.N,UART0_RX*%
X68525000Y-57080000D03*
%TO.P,J200,4,Pin_4*%
%TO.N,+3.3V*%
X68525000Y-59620000D03*
%TD*%
D41*
%TO.P,D513,1,K*%
%TO.N,/[5]Macro_Pad/USR_LED_1_K*%
X124750000Y-93962500D03*
%TO.P,D513,2,A*%
%TO.N,/[5]Macro_Pad/USR_LED_1_A*%
X124750000Y-95537500D03*
%TD*%
D42*
%TO.P,C309,1*%
%TO.N,+3.3V*%
X55825000Y-73137500D03*
%TO.P,C309,2*%
%TO.N,GND*%
X53125000Y-73137500D03*
%TD*%
D36*
%TO.P,R600,1*%
%TO.N,+3.3V*%
X140500000Y-80862500D03*
%TO.P,R600,2*%
%TO.N,I2C1_SDA*%
X140500000Y-79037500D03*
%TD*%
D27*
%TO.P,U502,1,1*%
%TO.N,Net-(R501-Pad2)*%
X129500000Y-98500000D03*
X136000000Y-98500000D03*
%TO.P,U502,2,2*%
%TO.N,Net-(D502-A)*%
X129500000Y-103000000D03*
X136000000Y-103000000D03*
%TD*%
%TO.P,U504,1,1*%
%TO.N,Net-(R503-Pad2)*%
X109500000Y-108500000D03*
X116000000Y-108500000D03*
%TO.P,U504,2,2*%
%TO.N,Net-(D504-A)*%
X109500000Y-113000000D03*
X116000000Y-113000000D03*
%TD*%
D15*
%TO.P,C304,1*%
%TO.N,+3.3VA_PCM*%
X64725000Y-75337500D03*
%TO.P,C304,2*%
%TO.N,GND*%
X64725000Y-76887500D03*
%TD*%
D10*
%TO.P,D510,1,K*%
%TO.N,Net-(D508-K)*%
X131200000Y-125750000D03*
%TO.P,D510,2,A*%
%TO.N,Net-(D510-A)*%
X134500000Y-125750000D03*
%TD*%
D26*
%TO.P,D403,1,A1*%
%TO.N,SPI1_SD_CARD_SCK*%
X84500000Y-111800000D03*
%TO.P,D403,2,A2*%
%TO.N,GND*%
X84500000Y-109700000D03*
%TD*%
D24*
%TO.P,R307,1*%
%TO.N,GND*%
X52425000Y-79750000D03*
%TO.P,R307,2*%
%TO.N,/[3]PCM5102/FMT*%
X54075000Y-79750000D03*
%TD*%
D10*
%TO.P,D506,1,K*%
%TO.N,Net-(D504-K)*%
X131100000Y-115750000D03*
%TO.P,D506,2,A*%
%TO.N,Net-(D506-A)*%
X134400000Y-115750000D03*
%TD*%
D19*
%TO.P,C502,1*%
%TO.N,MACRO_PAD_BTN_ROW_2*%
X98975000Y-86500000D03*
%TO.P,C502,2*%
%TO.N,GND*%
X100525000Y-86500000D03*
%TD*%
D43*
%TO.P,Y600,1,1*%
%TO.N,/[6]I2C_Peripherals/OSCI*%
X142500000Y-69750000D03*
%TO.P,Y600,2,2*%
%TO.N,GND*%
X142500000Y-67550000D03*
%TO.P,Y600,3,3*%
%TO.N,/[6]I2C_Peripherals/OSCO*%
X140800000Y-67550000D03*
%TO.P,Y600,4,4*%
%TO.N,GND*%
X140800000Y-69750000D03*
%TD*%
D24*
%TO.P,R303,1*%
%TO.N,GND*%
X52425000Y-83250000D03*
%TO.P,R303,2*%
%TO.N,/[3]PCM5102/SCK*%
X54075000Y-83250000D03*
%TD*%
D31*
%TO.P,C102,1*%
%TO.N,+5V*%
X115975000Y-57500000D03*
%TO.P,C102,2*%
%TO.N,GND*%
X113025000Y-57500000D03*
%TD*%
D10*
%TO.P,D505,1,K*%
%TO.N,Net-(D504-K)*%
X121100000Y-115750000D03*
%TO.P,D505,2,A*%
%TO.N,Net-(D505-A)*%
X124400000Y-115750000D03*
%TD*%
D17*
%TO.P,D202,1,A1*%
%TO.N,UART0_RX*%
X71225000Y-57000000D03*
%TO.P,D202,2,A2*%
%TO.N,GND*%
X73325000Y-57000000D03*
%TD*%
D10*
%TO.P,D500,1,K*%
%TO.N,Net-(D500-K)*%
X111100000Y-105750000D03*
%TO.P,D500,2,A*%
%TO.N,Net-(D500-A)*%
X114400000Y-105750000D03*
%TD*%
D17*
%TO.P,D206,1,A1*%
%TO.N,I2C1_SDA*%
X71225000Y-66000000D03*
%TO.P,D206,2,A2*%
%TO.N,GND*%
X73325000Y-66000000D03*
%TD*%
D14*
%TO.P,R508,1*%
%TO.N,Net-(Q500-G)*%
X108750000Y-93925000D03*
%TO.P,R508,2*%
%TO.N,USR_LED_0*%
X108750000Y-95575000D03*
%TD*%
D35*
%TO.P,C105,1*%
%TO.N,+3.3V*%
X123775000Y-60250000D03*
%TO.P,C105,2*%
%TO.N,GND*%
X126725000Y-60250000D03*
%TD*%
D16*
%TO.P,C602,1*%
%TO.N,/[6]I2C_Peripherals/OSCI*%
X144500000Y-69275000D03*
%TO.P,C602,2*%
%TO.N,GND*%
X144500000Y-67725000D03*
%TD*%
D44*
%TO.P,U200,1,GPIO0*%
%TO.N,UART0_TX*%
X77610000Y-51670000D03*
D45*
%TO.P,U200,2,GPIO1*%
%TO.N,UART0_RX*%
X77610000Y-54210000D03*
D46*
%TO.P,U200,3,GND*%
%TO.N,GND*%
X77610000Y-56750000D03*
D45*
%TO.P,U200,4,GPIO2*%
%TO.N,I2C1_SDA*%
X77610000Y-59290000D03*
%TO.P,U200,5,GPIO3*%
%TO.N,I2C1_SCL*%
X77610000Y-61830000D03*
%TO.P,U200,6,GPIO4*%
%TO.N,I2S_PCM5102_DATA*%
X77610000Y-64370000D03*
%TO.P,U200,7,GPIO5*%
%TO.N,I2S_PCM5102_SCK*%
X77610000Y-66910000D03*
D46*
%TO.P,U200,8,GND*%
%TO.N,GND*%
X77610000Y-69450000D03*
D45*
%TO.P,U200,9,GPIO6*%
%TO.N,I2S_PCM5102_SCL*%
X77610000Y-71990000D03*
%TO.P,U200,10,GPIO7*%
%TO.N,PCF8563_INT*%
X77610000Y-74530000D03*
%TO.P,U200,11,GPIO8*%
%TO.N,SPI1_SD_CARD_MISO*%
X77610000Y-77070000D03*
%TO.P,U200,12,GPIO9*%
%TO.N,SPI1_SD_CARD_CS*%
X77610000Y-79610000D03*
D46*
%TO.P,U200,13,GND*%
%TO.N,GND*%
X77610000Y-82150000D03*
D45*
%TO.P,U200,14,GPIO10*%
%TO.N,SPI1_SD_CARD_SCK*%
X77610000Y-84690000D03*
%TO.P,U200,15,GPIO11*%
%TO.N,SPI1_SD_CARD_MOSI*%
X77610000Y-87230000D03*
%TO.P,U200,16,GPIO12*%
%TO.N,SPI1_SD_CARD_CARD_DETECT*%
X77610000Y-89770000D03*
%TO.P,U200,17,GPIO13*%
%TO.N,I2S_INMP441_DATA*%
X77610000Y-92310000D03*
D46*
%TO.P,U200,18,GND*%
%TO.N,GND*%
X77610000Y-94850000D03*
D45*
%TO.P,U200,19,GPIO14*%
%TO.N,I2S_INMP441_SCK*%
X77610000Y-97390000D03*
%TO.P,U200,20,GPIO15*%
%TO.N,I2S_INMP441_SCL*%
X77610000Y-99930000D03*
%TO.P,U200,21,GPIO16*%
%TO.N,MACRO_PAD_BTN_COL_0*%
X95390000Y-99930000D03*
%TO.P,U200,22,GPIO17*%
%TO.N,MACRO_PAD_BTN_COL_1*%
X95390000Y-97390000D03*
D47*
%TO.P,U200,23,GND*%
%TO.N,GND*%
X95390000Y-94850000D03*
D45*
%TO.P,U200,24,GPIO18*%
%TO.N,MACRO_PAD_BTN_COL_2*%
X95390000Y-92310000D03*
%TO.P,U200,25,GPIO19*%
%TO.N,MACRO_PAD_BTN_COL_3*%
X95390000Y-89770000D03*
%TO.P,U200,26,GPIO20*%
%TO.N,MACRO_PAD_BTN_ROW_2*%
X95390000Y-87230000D03*
%TO.P,U200,27,GPIO21*%
%TO.N,MACRO_PAD_BTN_ROW_1*%
X95390000Y-84690000D03*
D47*
%TO.P,U200,28,GND*%
%TO.N,GND*%
X95390000Y-82150000D03*
D45*
%TO.P,U200,29,GPIO22*%
%TO.N,MACRO_PAD_BTN_ROW_0*%
X95390000Y-79610000D03*
%TO.P,U200,30,RUN*%
%TO.N,unconnected-(U200-RUN-Pad30)*%
X95390000Y-77070000D03*
%TO.P,U200,31,GPIO26_ADC0*%
%TO.N,USR_LED_0*%
X95390000Y-74530000D03*
%TO.P,U200,32,GPIO27_ADC1*%
%TO.N,USR_LED_1*%
X95390000Y-71990000D03*
D47*
%TO.P,U200,33,AGND*%
%TO.N,unconnected-(U200-AGND-Pad33)*%
X95390000Y-69450000D03*
D45*
%TO.P,U200,34,GPIO28_ADC2*%
%TO.N,USR_LED_2*%
X95390000Y-66910000D03*
%TO.P,U200,35,ADC_VREF*%
%TO.N,unconnected-(U200-ADC_VREF-Pad35)*%
X95390000Y-64370000D03*
%TO.P,U200,36,3V3*%
%TO.N,unconnected-(U200-3V3-Pad36)*%
X95390000Y-61830000D03*
%TO.P,U200,37,3V3_EN*%
%TO.N,unconnected-(U200-3V3_EN-Pad37)*%
X95390000Y-59290000D03*
D47*
%TO.P,U200,38,GND*%
%TO.N,GND*%
X95390000Y-56750000D03*
D45*
%TO.P,U200,39,VSYS*%
%TO.N,unconnected-(U200-VSYS-Pad39)*%
X95390000Y-54210000D03*
%TO.P,U200,40,VBUS*%
%TO.N,+RPI_VBUS*%
X95390000Y-51670000D03*
%TD*%
D15*
%TO.P,C311,1*%
%TO.N,/[3]PCM5102/OUT_L*%
X62750000Y-66475000D03*
%TO.P,C311,2*%
%TO.N,GND*%
X62750000Y-68025000D03*
%TD*%
D14*
%TO.P,R510,1*%
%TO.N,Net-(Q501-G)*%
X118750000Y-93925000D03*
%TO.P,R510,2*%
%TO.N,USR_LED_1*%
X118750000Y-95575000D03*
%TD*%
D24*
%TO.P,R306,1*%
%TO.N,+3.3V*%
X52425000Y-78000000D03*
%TO.P,R306,2*%
%TO.N,/[3]PCM5102/XSMT*%
X54075000Y-78000000D03*
%TD*%
D48*
%TO.P,D600,1,K*%
%TO.N,/[6]I2C_Peripherals/PCF_VDD*%
X145750000Y-75650000D03*
%TO.P,D600,2,A*%
%TO.N,/[6]I2C_Peripherals/VBAT*%
X145750000Y-72350000D03*
%TD*%
D18*
%TO.P,R301,1*%
%TO.N,I2S_PCM5102_DATA*%
X57750000Y-85325000D03*
%TO.P,R301,2*%
%TO.N,/[3]PCM5102/DIN*%
X57750000Y-83675000D03*
%TD*%
D49*
%TO.P,BT600,1,+*%
%TO.N,/[6]I2C_Peripherals/VBAT*%
X146750000Y-57750000D03*
D50*
%TO.P,BT600,2,-*%
%TO.N,GND*%
X130750000Y-57750000D03*
%TD*%
D17*
%TO.P,D203,1,A1*%
%TO.N,UART0_TX*%
X71225000Y-54500000D03*
%TO.P,D203,2,A2*%
%TO.N,GND*%
X73325000Y-54500000D03*
%TD*%
D27*
%TO.P,U508,1,1*%
%TO.N,Net-(R503-Pad2)*%
X109500000Y-118500000D03*
X116000000Y-118500000D03*
%TO.P,U508,2,2*%
%TO.N,Net-(D508-A)*%
X109500000Y-123000000D03*
X116000000Y-123000000D03*
%TD*%
D15*
%TO.P,C100,1*%
%TO.N,VCC*%
X113250000Y-62225000D03*
%TO.P,C100,2*%
%TO.N,GND*%
X113250000Y-63775000D03*
%TD*%
%TO.P,C601,1*%
%TO.N,+3.3V*%
X148000000Y-79225000D03*
%TO.P,C601,2*%
%TO.N,GND*%
X148000000Y-80775000D03*
%TD*%
D14*
%TO.P,R404,1*%
%TO.N,+3.3V*%
X80000000Y-106175000D03*
%TO.P,R404,2*%
%TO.N,SPI1_SD_CARD_CARD_DETECT*%
X80000000Y-107825000D03*
%TD*%
D41*
%TO.P,D101,1,K*%
%TO.N,/[1]Power/LED_PWR_K*%
X144750000Y-93962500D03*
%TO.P,D101,2,A*%
%TO.N,/[1]Power/LED_PWR_A*%
X144750000Y-95537500D03*
%TD*%
D51*
%TO.P,D100,1,K*%
%TO.N,VCC*%
X110350000Y-77500000D03*
%TO.P,D100,2,A*%
%TO.N,VDC*%
X108150000Y-77500000D03*
%TD*%
D52*
%TO.P,J400,1,D2/X*%
%TO.N,unconnected-(J400-D2{slash}X-Pad1)*%
X89500000Y-114500000D03*
%TO.P,J400,2,D3/CS*%
%TO.N,SPI1_SD_CARD_CS*%
X88400000Y-114500000D03*
%TO.P,J400,3,CMD/DI*%
%TO.N,SPI1_SD_CARD_MOSI*%
X87300000Y-114500000D03*
%TO.P,J400,4,VDD*%
%TO.N,+3.3V*%
X86200000Y-114500000D03*
%TO.P,J400,5,CLK/SCLK*%
%TO.N,SPI1_SD_CARD_SCK*%
X85100000Y-114500000D03*
%TO.P,J400,6,VSS*%
%TO.N,GND*%
X84000000Y-114500000D03*
%TO.P,J400,7,D0/DO*%
%TO.N,SPI1_SD_CARD_MISO*%
X82900000Y-114500000D03*
%TO.P,J400,8,D1/X*%
%TO.N,unconnected-(J400-D1{slash}X-Pad8)*%
X81800000Y-114500000D03*
D53*
%TO.P,J400,14*%
%TO.N,N/C*%
X81990000Y-125050000D03*
%TO.P,J400,15*%
X89990000Y-125050000D03*
D52*
%TO.P,J400,CD1,CD1*%
%TO.N,SPI1_SD_CARD_CARD_DETECT*%
X80700000Y-114500000D03*
D43*
%TO.P,J400,MP1,MP1*%
%TO.N,GND*%
X79600000Y-115350000D03*
D54*
%TO.P,J400,MP2,MP2*%
X79180000Y-125050000D03*
%TO.P,J400,MP3,MP3*%
X94700000Y-125050000D03*
D43*
%TO.P,J400,MP4,MP4*%
X94280000Y-115350000D03*
%TD*%
D24*
%TO.P,R500,1*%
%TO.N,MACRO_PAD_BTN_COL_3*%
X98925000Y-90000000D03*
%TO.P,R500,2*%
%TO.N,Net-(R500-Pad2)*%
X100575000Y-90000000D03*
%TD*%
D31*
%TO.P,C110,1*%
%TO.N,+3.3VA_INMP*%
X58225000Y-90000000D03*
%TO.P,C110,2*%
%TO.N,GND*%
X55275000Y-90000000D03*
%TD*%
D55*
%TO.P,C107,1*%
%TO.N,/[1]Power/+5V_FILT_1*%
X64750000Y-94725000D03*
%TO.P,C107,2*%
%TO.N,GND*%
X64750000Y-91775000D03*
%TD*%
D36*
%TO.P,R105,1*%
%TO.N,/[1]Power/+5V_FILT_1*%
X72550000Y-93912500D03*
%TO.P,R105,2*%
%TO.N,+5V*%
X72550000Y-92087500D03*
%TD*%
D10*
%TO.P,D501,1,K*%
%TO.N,Net-(D500-K)*%
X121100000Y-105750000D03*
%TO.P,D501,2,A*%
%TO.N,Net-(D501-A)*%
X124400000Y-105750000D03*
%TD*%
D27*
%TO.P,U506,1,1*%
%TO.N,Net-(R501-Pad2)*%
X129500000Y-108500000D03*
X136000000Y-108500000D03*
%TO.P,U506,2,2*%
%TO.N,Net-(D506-A)*%
X129500000Y-113000000D03*
X136000000Y-113000000D03*
%TD*%
D24*
%TO.P,R304,1*%
%TO.N,GND*%
X52425000Y-81500000D03*
%TO.P,R304,2*%
%TO.N,/[3]PCM5102/FLT*%
X54075000Y-81500000D03*
%TD*%
D56*
%TO.P,C305,1*%
%TO.N,+3.3VA_PCM*%
X66725000Y-74512500D03*
%TO.P,C305,2*%
%TO.N,GND*%
X66725000Y-77212500D03*
%TD*%
D41*
%TO.P,D512,1,K*%
%TO.N,/[5]Macro_Pad/USR_LED_0_K*%
X114750000Y-93962500D03*
%TO.P,D512,2,A*%
%TO.N,/[5]Macro_Pad/USR_LED_0_A*%
X114750000Y-95537500D03*
%TD*%
D24*
%TO.P,R504,1*%
%TO.N,MACRO_PAD_BTN_ROW_0*%
X98925000Y-81250000D03*
%TO.P,R504,2*%
%TO.N,Net-(D500-K)*%
X100575000Y-81250000D03*
%TD*%
D15*
%TO.P,C310,1*%
%TO.N,/[3]PCM5102/OUT_R*%
X56500000Y-66475000D03*
%TO.P,C310,2*%
%TO.N,GND*%
X56500000Y-68025000D03*
%TD*%
D36*
%TO.P,R309,1*%
%TO.N,/[3]PCM5102/OUTL*%
X60750000Y-68162500D03*
%TO.P,R309,2*%
%TO.N,/[3]PCM5102/OUT_L*%
X60750000Y-66337500D03*
%TD*%
D27*
%TO.P,U500,1,1*%
%TO.N,Net-(R503-Pad2)*%
X109500000Y-98500000D03*
X116000000Y-98500000D03*
%TO.P,U500,2,2*%
%TO.N,Net-(D500-A)*%
X109500000Y-103000000D03*
X116000000Y-103000000D03*
%TD*%
D24*
%TO.P,R506,1*%
%TO.N,MACRO_PAD_BTN_ROW_2*%
X98925000Y-88250000D03*
%TO.P,R506,2*%
%TO.N,Net-(D508-K)*%
X100575000Y-88250000D03*
%TD*%
D14*
%TO.P,R512,1*%
%TO.N,Net-(Q502-G)*%
X128750000Y-93925000D03*
%TO.P,R512,2*%
%TO.N,USR_LED_2*%
X128750000Y-95575000D03*
%TD*%
D19*
%TO.P,C401,1*%
%TO.N,+3.3V*%
X85975000Y-107750000D03*
%TO.P,C401,2*%
%TO.N,GND*%
X87525000Y-107750000D03*
%TD*%
D26*
%TO.P,D402,1,A1*%
%TO.N,SPI1_SD_CARD_MOSI*%
X89000000Y-111800000D03*
%TO.P,D402,2,A2*%
%TO.N,GND*%
X89000000Y-109700000D03*
%TD*%
D23*
%TO.P,R102,1*%
%TO.N,PG_3V3*%
X114650000Y-53250000D03*
%TO.P,R102,2*%
%TO.N,GND*%
X113000000Y-53250000D03*
%TD*%
D57*
%TO.P,U100,1,GND*%
%TO.N,GND*%
X70250000Y-95500000D03*
D58*
%TO.P,U100,2,VIN*%
%TO.N,/[1]Power/+5V_FILT_1*%
X70162500Y-94000000D03*
D57*
%TO.P,U100,3,VOUT*%
%TO.N,+3.3VA_PCM*%
X70250000Y-92500000D03*
%TD*%
D10*
%TO.P,D511,1,K*%
%TO.N,Net-(D508-K)*%
X141200000Y-125750000D03*
%TO.P,D511,2,A*%
%TO.N,Net-(D511-A)*%
X144500000Y-125750000D03*
%TD*%
D14*
%TO.P,R403,1*%
%TO.N,+3.3V*%
X91250000Y-106175000D03*
%TO.P,R403,2*%
%TO.N,SPI1_SD_CARD_CS*%
X91250000Y-107825000D03*
%TD*%
D51*
%TO.P,D200,1,K*%
%TO.N,VCC*%
X110350000Y-75250000D03*
%TO.P,D200,2,A*%
%TO.N,Net-(D200-A)*%
X108150000Y-75250000D03*
%TD*%
D14*
%TO.P,R400,1*%
%TO.N,+3.3V*%
X82250000Y-106175000D03*
%TO.P,R400,2*%
%TO.N,SPI1_SD_CARD_MISO*%
X82250000Y-107825000D03*
%TD*%
D59*
%TO.P,J300,G*%
%TO.N,GND*%
X56000000Y-54540000D03*
%TO.P,J300,R*%
%TO.N,/[3]PCM5102/OUT_R*%
X56000000Y-57940000D03*
%TO.P,J300,RN*%
%TO.N,unconnected-(J300-PadRN)*%
X56000000Y-63440000D03*
%TO.P,J300,S*%
%TO.N,GND*%
X63000000Y-54540000D03*
%TO.P,J300,T*%
%TO.N,/[3]PCM5102/OUT_L*%
X63000000Y-61740000D03*
%TO.P,J300,TN*%
%TO.N,unconnected-(J300-PadTN)*%
X63000000Y-63940000D03*
%TD*%
D10*
%TO.P,D508,1,K*%
%TO.N,Net-(D508-K)*%
X111200000Y-125750000D03*
%TO.P,D508,2,A*%
%TO.N,Net-(D508-A)*%
X114500000Y-125750000D03*
%TD*%
D19*
%TO.P,C501,1*%
%TO.N,MACRO_PAD_BTN_ROW_1*%
X98975000Y-83000000D03*
%TO.P,C501,2*%
%TO.N,GND*%
X100525000Y-83000000D03*
%TD*%
D55*
%TO.P,C109,1*%
%TO.N,/[1]Power/+5V_FILT_2*%
X52800000Y-94725000D03*
%TO.P,C109,2*%
%TO.N,GND*%
X52800000Y-91775000D03*
%TD*%
D41*
%TO.P,D514,1,K*%
%TO.N,/[5]Macro_Pad/USR_LED_2_K*%
X134750000Y-93962500D03*
%TO.P,D514,2,A*%
%TO.N,/[5]Macro_Pad/USR_LED_2_A*%
X134750000Y-95537500D03*
%TD*%
D17*
%TO.P,D205,1,A1*%
%TO.N,I2C1_SCL*%
X71225000Y-68500000D03*
%TO.P,D205,2,A2*%
%TO.N,GND*%
X73325000Y-68500000D03*
%TD*%
D30*
%TO.P,U202,1,3V*%
%TO.N,+3.3VA_INMP*%
X63810000Y-105000000D03*
%TO.P,U202,2,GND*%
%TO.N,GND*%
X63810000Y-102460000D03*
%TO.P,U202,3,BCLK*%
%TO.N,I2S_INMP441_SCK*%
X56190000Y-107540000D03*
%TO.P,U202,4,DOUT*%
%TO.N,I2S_INMP441_DATA*%
X63810000Y-107540000D03*
%TO.P,U202,5,LRCLK*%
%TO.N,I2S_INMP441_SCL*%
X56190000Y-105000000D03*
%TO.P,U202,6,SEL*%
%TO.N,+3.3VA_INMP*%
X56190000Y-102460000D03*
%TD*%
D60*
%TO.P,C307,1*%
%TO.N,+3.3VA_PCM*%
X66725000Y-82212500D03*
%TO.P,C307,2*%
%TO.N,GND*%
X66725000Y-79512500D03*
%TD*%
D10*
%TO.P,D502,1,K*%
%TO.N,Net-(D500-K)*%
X131100000Y-105750000D03*
%TO.P,D502,2,A*%
%TO.N,Net-(D502-A)*%
X134400000Y-105750000D03*
%TD*%
D18*
%TO.P,R511,1*%
%TO.N,/[5]Macro_Pad/USR_LED_2_A*%
X136500000Y-95575000D03*
%TO.P,R511,2*%
%TO.N,+5V*%
X136500000Y-93925000D03*
%TD*%
D24*
%TO.P,R305,1*%
%TO.N,GND*%
X52425000Y-76250000D03*
%TO.P,R305,2*%
%TO.N,/[3]PCM5102/DEMP*%
X54075000Y-76250000D03*
%TD*%
D19*
%TO.P,C400,1*%
%TO.N,+3.3V*%
X85975000Y-106000000D03*
%TO.P,C400,2*%
%TO.N,GND*%
X87525000Y-106000000D03*
%TD*%
D61*
%TO.P,L101,1,1*%
%TO.N,/[1]Power/SW_3V3*%
X123925000Y-57500000D03*
%TO.P,L101,2,2*%
%TO.N,+3.3V*%
X126075000Y-57500000D03*
%TD*%
D27*
%TO.P,U510,1,1*%
%TO.N,Net-(R501-Pad2)*%
X129500000Y-118500000D03*
X136000000Y-118500000D03*
%TO.P,U510,2,2*%
%TO.N,Net-(D510-A)*%
X129500000Y-123000000D03*
X136000000Y-123000000D03*
%TD*%
%TO.P,U505,1,1*%
%TO.N,Net-(R502-Pad2)*%
X119500000Y-108500000D03*
X126000000Y-108500000D03*
%TO.P,U505,2,2*%
%TO.N,Net-(D505-A)*%
X119500000Y-113000000D03*
X126000000Y-113000000D03*
%TD*%
D18*
%TO.P,R100,1*%
%TO.N,PG_3V3*%
X116500000Y-54825000D03*
%TO.P,R100,2*%
%TO.N,+5V*%
X116500000Y-53175000D03*
%TD*%
%TO.P,R300,1*%
%TO.N,I2S_PCM5102_SCL*%
X59475000Y-85325000D03*
%TO.P,R300,2*%
%TO.N,/[3]PCM5102/LRCLK*%
X59475000Y-83675000D03*
%TD*%
D34*
%TO.P,C103,1*%
%TO.N,PG_3V3*%
X114600000Y-55000000D03*
%TO.P,C103,2*%
%TO.N,GND*%
X113050000Y-55000000D03*
%TD*%
D24*
%TO.P,R503,1*%
%TO.N,MACRO_PAD_BTN_COL_0*%
X98925000Y-100000000D03*
%TO.P,R503,2*%
%TO.N,Net-(R503-Pad2)*%
X100575000Y-100000000D03*
%TD*%
D57*
%TO.P,U101,1,GND*%
%TO.N,GND*%
X58500000Y-95500000D03*
D58*
%TO.P,U101,2,VIN*%
%TO.N,/[1]Power/+5V_FILT_2*%
X58412500Y-94000000D03*
D57*
%TO.P,U101,3,VOUT*%
%TO.N,+3.3VA_INMP*%
X58500000Y-92500000D03*
%TD*%
D17*
%TO.P,D4,1,A1*%
%TO.N,+3.3V*%
X71200000Y-71250000D03*
%TO.P,D4,2,A2*%
%TO.N,GND*%
X73300000Y-71250000D03*
%TD*%
D62*
%TO.P,C303,1*%
%TO.N,/[3]PCM5102/LDO*%
X62875000Y-85387500D03*
%TO.P,C303,2*%
%TO.N,GND*%
X65575000Y-85387500D03*
%TD*%
D18*
%TO.P,R302,1*%
%TO.N,I2S_PCM5102_SCK*%
X55975000Y-85325000D03*
%TO.P,R302,2*%
%TO.N,/[3]PCM5102/BCK*%
X55975000Y-83675000D03*
%TD*%
D63*
%TO.P,U300,1,CPVDD*%
%TO.N,+3.3VA_PCM*%
X62900000Y-75525000D03*
%TO.P,U300,2,CAPP*%
%TO.N,Net-(U300-CAPP)*%
X62250000Y-75525000D03*
%TO.P,U300,3,CPGND*%
%TO.N,GND*%
X61600000Y-75525000D03*
%TO.P,U300,4,CAPM*%
%TO.N,Net-(U300-CAPM)*%
X60950000Y-75525000D03*
%TO.P,U300,5,VNEG*%
%TO.N,/[3]PCM5102/VNEG*%
X60300000Y-75525000D03*
%TO.P,U300,6,OUTL*%
%TO.N,/[3]PCM5102/OUTL*%
X59650000Y-75525000D03*
%TO.P,U300,7,OUTR*%
%TO.N,/[3]PCM5102/OUTR*%
X59000000Y-75525000D03*
%TO.P,U300,8,AVDD*%
%TO.N,+3.3V*%
X58350000Y-75525000D03*
%TO.P,U300,9,AGND*%
%TO.N,GND*%
X57700000Y-75525000D03*
%TO.P,U300,10,DEMP*%
%TO.N,/[3]PCM5102/DEMP*%
X57050000Y-75525000D03*
%TO.P,U300,11,FLT*%
%TO.N,/[3]PCM5102/FLT*%
X57050000Y-81250000D03*
%TO.P,U300,12,SCK*%
%TO.N,/[3]PCM5102/SCK*%
X57700000Y-81250000D03*
%TO.P,U300,13,BCK*%
%TO.N,/[3]PCM5102/BCK*%
X58350000Y-81250000D03*
%TO.P,U300,14,DIN*%
%TO.N,/[3]PCM5102/DIN*%
X59000000Y-81250000D03*
%TO.P,U300,15,LRCK*%
%TO.N,/[3]PCM5102/LRCLK*%
X59650000Y-81250000D03*
%TO.P,U300,16,FMT*%
%TO.N,/[3]PCM5102/FMT*%
X60300000Y-81250000D03*
%TO.P,U300,17,XSMT*%
%TO.N,/[3]PCM5102/XSMT*%
X60950000Y-81250000D03*
%TO.P,U300,18,LDOO*%
%TO.N,/[3]PCM5102/LDO*%
X61600000Y-81250000D03*
%TO.P,U300,19,DGND*%
%TO.N,GND*%
X62250000Y-81250000D03*
%TO.P,U300,20,DVDD*%
%TO.N,+3.3VA_PCM*%
X62900000Y-81250000D03*
%TD*%
D32*
%TO.P,J201,1,Pin_1*%
%TO.N,GND*%
X68525000Y-63500000D03*
D33*
%TO.P,J201,2,Pin_2*%
%TO.N,I2C1_SDA*%
X68525000Y-66040000D03*
%TO.P,J201,3,Pin_3*%
%TO.N,I2C1_SCL*%
X68525000Y-68580000D03*
%TO.P,J201,4,Pin_4*%
%TO.N,+3.3V*%
X68525000Y-71120000D03*
%TD*%
D26*
%TO.P,D400,1,A1*%
%TO.N,+3.3V*%
X86750000Y-111800000D03*
%TO.P,D400,2,A2*%
%TO.N,GND*%
X86750000Y-109700000D03*
%TD*%
D11*
%TO.P,Q502,1,G*%
%TO.N,Net-(Q502-G)*%
X130812500Y-93800000D03*
%TO.P,Q502,2,S*%
%TO.N,GND*%
X130812500Y-95700000D03*
%TO.P,Q502,3,D*%
%TO.N,/[5]Macro_Pad/USR_LED_2_K*%
X132687500Y-94750000D03*
%TD*%
D64*
%TO.N,I2S_INMP441_DATA*%
X73000000Y-96250000D03*
%TO.N,GND*%
X68250000Y-83250000D03*
X74000000Y-54250000D03*
X114750000Y-65000000D03*
X87500000Y-105000000D03*
X129250000Y-54000000D03*
X112750000Y-65000000D03*
X68250000Y-77000000D03*
X57250000Y-78250000D03*
X130000000Y-59500000D03*
X73500000Y-89500000D03*
X129000000Y-59500000D03*
X101500000Y-80250000D03*
X55625000Y-68625000D03*
X89000000Y-110500000D03*
X118500000Y-52250000D03*
X74000000Y-70750000D03*
X64750000Y-89750000D03*
X93500000Y-125000000D03*
X113750000Y-92000000D03*
X76750000Y-106250000D03*
X131500000Y-59500000D03*
X66000000Y-60750000D03*
X137750000Y-80250000D03*
X80250000Y-125000000D03*
X109750000Y-96500000D03*
X115750000Y-65000000D03*
X61750000Y-89500000D03*
X121500000Y-56000000D03*
X145600003Y-83500000D03*
X143500000Y-129250000D03*
X123250000Y-129250000D03*
X52250000Y-90500000D03*
X55250000Y-77000000D03*
X148000000Y-82000000D03*
X81250000Y-104500000D03*
X67000000Y-85500000D03*
X82250000Y-110500000D03*
X122000000Y-59750000D03*
X86780331Y-110469669D03*
X72750000Y-72750000D03*
X62500000Y-77000000D03*
X143750000Y-92250000D03*
X74000000Y-68250000D03*
X51500000Y-76000000D03*
X61000000Y-77000000D03*
X57500000Y-71000000D03*
X55250000Y-80750000D03*
X83750000Y-56000000D03*
X129750000Y-96500000D03*
X65500000Y-83750000D03*
X85792893Y-104250000D03*
X119750000Y-96500000D03*
X57250000Y-77000000D03*
X105750000Y-66250000D03*
X65500000Y-90250000D03*
X74000000Y-56750000D03*
X148000000Y-74750000D03*
X57250000Y-79750000D03*
X90500000Y-104500000D03*
X101500000Y-83750000D03*
X80500000Y-116500000D03*
X62500000Y-78500000D03*
X61000000Y-79750000D03*
X59750000Y-95500000D03*
X91250000Y-110500000D03*
X93250000Y-116500000D03*
X60500000Y-85900000D03*
X61500000Y-71000000D03*
X84750000Y-62250000D03*
X139750000Y-96500000D03*
X80500000Y-88750000D03*
X74000000Y-59250000D03*
X80000000Y-110500000D03*
X57750000Y-54000000D03*
X84500000Y-110500000D03*
X61250000Y-54000000D03*
X53000000Y-89750000D03*
X58500000Y-77000000D03*
X73000000Y-62500000D03*
X133250000Y-129250000D03*
X112000000Y-53500000D03*
X111750000Y-57000000D03*
X73875000Y-65625000D03*
X59750000Y-77000000D03*
X112000000Y-55250000D03*
X87500000Y-108750000D03*
X101500000Y-87250000D03*
X68250000Y-79500000D03*
X51250000Y-80000000D03*
X132500000Y-59500000D03*
X73500000Y-97000000D03*
X120750000Y-63250000D03*
X65500000Y-89000000D03*
X53750000Y-89000000D03*
X62500000Y-79750000D03*
X112000000Y-129450000D03*
X140250000Y-72500000D03*
X64750000Y-78250000D03*
X73500000Y-99000000D03*
X51250000Y-81750000D03*
X68250000Y-78250000D03*
X133500000Y-92000000D03*
X64000000Y-90500000D03*
X123649997Y-92000000D03*
X144750000Y-66750000D03*
X143750000Y-66750000D03*
X119500000Y-58750000D03*
X73500000Y-101000000D03*
X117750000Y-58500000D03*
X128000000Y-54750000D03*
X113750000Y-65000000D03*
X84000000Y-115750000D03*
X51250000Y-83500000D03*
X139500000Y-69750000D03*
X53750000Y-90250000D03*
X51750000Y-73500000D03*
X72250000Y-86750000D03*
X63000000Y-69000000D03*
X59750000Y-79750000D03*
X54000000Y-69000000D03*
X71500000Y-95500000D03*
X128000000Y-60250000D03*
X58500000Y-79750000D03*
%TO.N,PCF8563_INT*%
X83750000Y-57000000D03*
X83750000Y-62250000D03*
%TO.N,Net-(D200-A)*%
X105750000Y-67210000D03*
%TO.N,I2S_INMP441_SCK*%
X73000000Y-98000000D03*
%TO.N,I2S_INMP441_SCL*%
X73250000Y-99930000D03*
%TO.N,SPI1_SD_CARD_CARD_DETECT*%
X80500000Y-89750000D03*
%TO.N,I2S_PCM5102_SCL*%
X73500000Y-73250000D03*
%TO.N,+3.3V*%
X129174717Y-54964700D03*
X91500000Y-104500000D03*
X82250000Y-105000000D03*
X66250000Y-61750000D03*
X144750000Y-83500000D03*
X136750000Y-80000000D03*
X86750000Y-104250000D03*
X77750000Y-106250000D03*
X53750000Y-70000000D03*
X73000000Y-61500000D03*
%TO.N,+5V*%
X60750000Y-89500000D03*
X114750000Y-92000000D03*
X124500000Y-92000000D03*
X144750000Y-92250000D03*
X119750000Y-63250000D03*
X134500000Y-92000000D03*
X72500000Y-89500000D03*
%TO.N,+3.3VA_PCM*%
X71250000Y-86750000D03*
X68750000Y-82500000D03*
%TO.N,Net-(R500-Pad2)*%
X142500000Y-129000000D03*
%TO.N,Net-(R501-Pad2)*%
X131975000Y-129225000D03*
%TO.N,Net-(R502-Pad2)*%
X121750000Y-129250000D03*
%TO.N,Net-(R503-Pad2)*%
X111000000Y-129250000D03*
%TO.N,/[1]Power/EN_3V3*%
X122500000Y-56250000D03*
X121500000Y-59000000D03*
%TO.N,/[3]PCM5102/XSMT*%
X55250000Y-78000000D03*
X61250000Y-85250000D03*
%TO.N,/[3]PCM5102/FMT*%
X60550000Y-84600000D03*
X55250000Y-79750000D03*
%TD*%
D65*
%TO.N,I2C1_SDA*%
X141000000Y-76725000D02*
X141000000Y-78000000D01*
X68565000Y-66000000D02*
X68525000Y-66040000D01*
X129250000Y-65750000D02*
X129250000Y-67150000D01*
X133500000Y-72500000D02*
X139000000Y-78000000D01*
X71225000Y-65675000D02*
X71225000Y-66000000D01*
X101000000Y-75000000D02*
X103250000Y-75000000D01*
X112000000Y-80250000D02*
X114500000Y-77750000D01*
X99250000Y-66250000D02*
X99250000Y-73250000D01*
X78710000Y-58190000D02*
X89940000Y-58190000D01*
X77610000Y-59290000D02*
X71225000Y-65675000D01*
X99250000Y-73250000D02*
X101000000Y-75000000D01*
X119000000Y-65000000D02*
X126100000Y-65000000D01*
X89940000Y-58190000D02*
X94750000Y-63000000D01*
X71225000Y-66000000D02*
X68565000Y-66000000D01*
X108500000Y-80250000D02*
X112000000Y-80250000D01*
X77610000Y-59290000D02*
X78710000Y-58190000D01*
X130000000Y-65000000D02*
X133500000Y-68500000D01*
X103250000Y-75000000D02*
X108500000Y-80250000D01*
X114500000Y-77750000D02*
X114500000Y-69500000D01*
X141000000Y-78537500D02*
X140500000Y-79037500D01*
X128500000Y-65000000D02*
X129250000Y-65750000D01*
X114500000Y-69500000D02*
X119000000Y-65000000D01*
X126100000Y-65000000D02*
X128500000Y-65000000D01*
X133500000Y-68500000D02*
X133500000Y-72500000D01*
X96000000Y-63000000D02*
X99250000Y-66250000D01*
X139000000Y-78000000D02*
X141000000Y-78000000D01*
X126100000Y-65000000D02*
X130000000Y-65000000D01*
X94750000Y-63000000D02*
X96000000Y-63000000D01*
X141000000Y-78000000D02*
X141000000Y-78537500D01*
%TO.N,I2S_INMP441_DATA*%
X67740000Y-103240000D02*
X67500000Y-103240000D01*
X67500000Y-101750000D02*
X67500000Y-102400000D01*
X65442500Y-109057500D02*
X63925000Y-107540000D01*
X68500000Y-105280000D02*
X68500000Y-105400000D01*
X67500000Y-105640000D02*
X66740000Y-105640000D01*
X67786737Y-101463262D02*
X67500000Y-101750000D01*
X67500000Y-103240000D02*
X66740000Y-103240000D01*
X68260000Y-103240000D02*
X67740000Y-103240000D01*
X67503894Y-100671302D02*
X67871589Y-101038997D01*
X65425000Y-109075000D02*
X65442500Y-109057500D01*
X67871589Y-101378408D02*
X67786737Y-101463262D01*
X68260000Y-105640000D02*
X67500000Y-105640000D01*
X68635267Y-100954147D02*
X67928158Y-100247038D01*
X73000000Y-96250000D02*
X69059530Y-100190470D01*
X68500000Y-102880000D02*
X68500000Y-103000000D01*
X63925000Y-107540000D02*
X63810000Y-107540000D01*
X66740000Y-107440000D02*
X67260000Y-107440000D01*
X67500000Y-103840000D02*
X68260000Y-103840000D01*
X65425000Y-120925000D02*
X65425000Y-109075000D01*
X67260000Y-106840000D02*
X66740000Y-106840000D01*
X69215093Y-101024858D02*
X69130242Y-101109710D01*
X65500000Y-109115000D02*
X65442500Y-109057500D01*
X67500000Y-104440000D02*
X66740000Y-104440000D01*
X66500000Y-107080000D02*
X66500000Y-107200000D01*
X69059530Y-100529882D02*
X69215094Y-100685446D01*
X68790830Y-101109710D02*
X68635267Y-100954147D01*
X66500000Y-105880000D02*
X66500000Y-106000000D01*
X63810000Y-122540000D02*
X64675000Y-121675000D01*
X66500000Y-104680000D02*
X66500000Y-104800000D01*
X67500000Y-106840000D02*
X67260000Y-106840000D01*
X68500000Y-104080000D02*
X68500000Y-104200000D01*
X64750000Y-121750000D02*
X64675000Y-121675000D01*
X67500000Y-120250000D02*
X66000000Y-121750000D01*
X68500000Y-106480000D02*
X68500000Y-106600000D01*
X66740000Y-105040000D02*
X67500000Y-105040000D01*
X68260000Y-104440000D02*
X67500000Y-104440000D01*
X67588747Y-100247038D02*
X67503894Y-100331890D01*
X66000000Y-121750000D02*
X64750000Y-121750000D01*
X67500000Y-108250000D02*
X67500000Y-120250000D01*
X67500000Y-107800000D02*
X67500000Y-108250000D01*
X67500000Y-106240000D02*
X68260000Y-106240000D01*
X64675000Y-121675000D02*
X65425000Y-120925000D01*
X67740000Y-102640000D02*
X68260000Y-102640000D01*
X66740000Y-106240000D02*
X67500000Y-106240000D01*
X66500000Y-103480000D02*
X66500000Y-103600000D01*
X67500000Y-107680000D02*
X67500000Y-107800000D01*
X67500000Y-105040000D02*
X68260000Y-105040000D01*
X66740000Y-103840000D02*
X67500000Y-103840000D01*
X68260000Y-106840000D02*
X67500000Y-106840000D01*
X69130242Y-101109710D02*
G75*
G02*
X68790830Y-101109710I-169706J169701D01*
G01*
X66500000Y-106000000D02*
G75*
G03*
X66740000Y-106240000I240000J0D01*
G01*
X66740000Y-105640000D02*
G75*
G03*
X66500000Y-105880000I0J-240000D01*
G01*
X68260000Y-105040000D02*
G75*
G02*
X68500000Y-105280000I0J-240000D01*
G01*
X67928158Y-100247038D02*
G75*
G03*
X67588748Y-100247038I-169705J-169703D01*
G01*
X66500000Y-107200000D02*
G75*
G03*
X66740000Y-107440000I240000J0D01*
G01*
X69059530Y-100190470D02*
G75*
G03*
X69059506Y-100529906I169670J-169730D01*
G01*
X67260000Y-107440000D02*
G75*
G02*
X67500000Y-107680000I0J-240000D01*
G01*
X67503894Y-100331890D02*
G75*
G03*
X67503890Y-100671306I169706J-169710D01*
G01*
X68260000Y-103840000D02*
G75*
G02*
X68500000Y-104080000I0J-240000D01*
G01*
X66740000Y-104440000D02*
G75*
G03*
X66500000Y-104680000I0J-240000D01*
G01*
X68500000Y-105400000D02*
G75*
G02*
X68260000Y-105640000I-240000J0D01*
G01*
X67871589Y-101038997D02*
G75*
G02*
X67871587Y-101378405I-169689J-169703D01*
G01*
X66740000Y-106840000D02*
G75*
G03*
X66500000Y-107080000I0J-240000D01*
G01*
X68500000Y-104200000D02*
G75*
G02*
X68260000Y-104440000I-240000J0D01*
G01*
X66740000Y-103240000D02*
G75*
G03*
X66500000Y-103480000I0J-240000D01*
G01*
X68500000Y-103000000D02*
G75*
G02*
X68260000Y-103240000I-240000J0D01*
G01*
X66500000Y-103600000D02*
G75*
G03*
X66740000Y-103840000I240000J0D01*
G01*
X69215094Y-100685446D02*
G75*
G02*
X69215142Y-101024906I-169694J-169754D01*
G01*
X66500000Y-104800000D02*
G75*
G03*
X66740000Y-105040000I240000J0D01*
G01*
X68260000Y-106240000D02*
G75*
G02*
X68500000Y-106480000I0J-240000D01*
G01*
X68260000Y-102640000D02*
G75*
G02*
X68500000Y-102880000I0J-240000D01*
G01*
X67500000Y-102400000D02*
G75*
G03*
X67740000Y-102640000I240000J0D01*
G01*
X68500000Y-106600000D02*
G75*
G02*
X68260000Y-106840000I-240000J0D01*
G01*
D66*
%TO.N,MACRO_PAD_BTN_COL_0*%
X95390000Y-99930000D02*
X98855000Y-99930000D01*
X98855000Y-99930000D02*
X98925000Y-100000000D01*
%TO.N,GND*%
X100750000Y-83000000D02*
X101500000Y-83750000D01*
X87525000Y-107750000D02*
X87525000Y-106000000D01*
X126725000Y-60250000D02*
X128000000Y-60250000D01*
X63000000Y-69000000D02*
X63000000Y-68275000D01*
X60975000Y-71525000D02*
X61500000Y-71000000D01*
X113000000Y-53250000D02*
X112250000Y-53250000D01*
D65*
X121000000Y-56000000D02*
X121500000Y-56000000D01*
D66*
X91250000Y-109700000D02*
X91250000Y-110500000D01*
X51500000Y-81500000D02*
X52425000Y-81500000D01*
X94700000Y-125050000D02*
X93550000Y-125050000D01*
X100525000Y-86500000D02*
X100750000Y-86500000D01*
X79600000Y-115600000D02*
X80500000Y-116500000D01*
X86750000Y-110439338D02*
X86780331Y-110469669D01*
X140812500Y-95700000D02*
X140550000Y-95700000D01*
X110550000Y-95700000D02*
X109750000Y-96500000D01*
X148000000Y-75975000D02*
X148000000Y-74750000D01*
X82250000Y-109700000D02*
X82250000Y-110500000D01*
D65*
X61600000Y-76400000D02*
X61000000Y-77000000D01*
D66*
X112250000Y-53250000D02*
X112000000Y-53500000D01*
X51500000Y-83250000D02*
X51250000Y-83500000D01*
X84000000Y-114500000D02*
X84000000Y-115750000D01*
X74000000Y-68250000D02*
X73750000Y-68500000D01*
D65*
X57700000Y-75525000D02*
X57700000Y-76200000D01*
D66*
X73875000Y-65625000D02*
X73500000Y-66000000D01*
X94280000Y-115350000D02*
X94280000Y-115470000D01*
X73325000Y-59500000D02*
X73750000Y-59500000D01*
X79180000Y-125050000D02*
X80200000Y-125050000D01*
X52425000Y-83250000D02*
X51500000Y-83250000D01*
X84500000Y-109700000D02*
X84500000Y-110500000D01*
D65*
X118450000Y-58000000D02*
X118250000Y-58000000D01*
D66*
X63000000Y-54540000D02*
X61790000Y-54540000D01*
X73500000Y-66000000D02*
X73325000Y-66000000D01*
X52425000Y-76250000D02*
X51750000Y-76250000D01*
X89000000Y-109700000D02*
X89000000Y-110500000D01*
X112250000Y-57500000D02*
X111750000Y-57000000D01*
X51500000Y-79750000D02*
X51250000Y-80000000D01*
D65*
X62250000Y-81250000D02*
X62250000Y-80000000D01*
D66*
X87525000Y-105025000D02*
X87500000Y-105000000D01*
X55625000Y-68625000D02*
X56225000Y-68025000D01*
X73750000Y-54500000D02*
X74000000Y-54250000D01*
X100525000Y-83000000D02*
X100750000Y-83000000D01*
D65*
X120550000Y-56450000D02*
X121000000Y-56000000D01*
D66*
X57975000Y-71862500D02*
X57975000Y-71475000D01*
X56000000Y-54540000D02*
X57210000Y-54540000D01*
X148000000Y-80775000D02*
X148000000Y-82000000D01*
X118250000Y-52500000D02*
X118500000Y-52250000D01*
D65*
X118250000Y-58000000D02*
X117750000Y-58500000D01*
D66*
X100525000Y-79500000D02*
X100750000Y-79500000D01*
X73325000Y-57000000D02*
X73750000Y-57000000D01*
X73325000Y-54500000D02*
X73750000Y-54500000D01*
X80200000Y-125050000D02*
X80250000Y-125000000D01*
X52112500Y-73137500D02*
X51750000Y-73500000D01*
X86750000Y-109700000D02*
X86750000Y-110439338D01*
X118250000Y-53175000D02*
X118250000Y-52500000D01*
X57210000Y-54540000D02*
X57750000Y-54000000D01*
X110812500Y-95700000D02*
X110550000Y-95700000D01*
X61790000Y-54540000D02*
X61250000Y-54000000D01*
X73750000Y-68500000D02*
X73325000Y-68500000D01*
X80000000Y-109700000D02*
X80000000Y-110500000D01*
D65*
X61600000Y-75525000D02*
X61600000Y-76400000D01*
D66*
X141000000Y-72500000D02*
X140250000Y-72500000D01*
X74000000Y-70750000D02*
X73500000Y-71250000D01*
X53125000Y-73137500D02*
X52112500Y-73137500D01*
X130550000Y-95700000D02*
X129750000Y-96500000D01*
X73750000Y-59500000D02*
X74000000Y-59250000D01*
X51750000Y-76250000D02*
X51500000Y-76000000D01*
X120550000Y-95700000D02*
X119750000Y-96500000D01*
X112250000Y-55000000D02*
X112000000Y-55250000D01*
X130812500Y-95700000D02*
X130550000Y-95700000D01*
D65*
X120550000Y-56500000D02*
X120550000Y-56450000D01*
D66*
X94280000Y-115470000D02*
X93250000Y-116500000D01*
X113025000Y-57500000D02*
X112250000Y-57500000D01*
X113050000Y-55000000D02*
X112250000Y-55000000D01*
X63000000Y-68275000D02*
X62750000Y-68025000D01*
X120812500Y-95700000D02*
X120550000Y-95700000D01*
X60975000Y-71862500D02*
X60975000Y-71525000D01*
X56225000Y-68025000D02*
X56500000Y-68025000D01*
X87525000Y-108725000D02*
X87525000Y-107750000D01*
X79600000Y-115350000D02*
X79600000Y-115600000D01*
X140550000Y-95700000D02*
X139750000Y-96500000D01*
X119500000Y-57250000D02*
X119500000Y-58750000D01*
D65*
X57700000Y-76200000D02*
X58500000Y-77000000D01*
D66*
X93550000Y-125050000D02*
X93500000Y-125000000D01*
D65*
X62250000Y-80000000D02*
X62500000Y-79750000D01*
D66*
X73500000Y-71250000D02*
X73300000Y-71250000D01*
X87525000Y-106000000D02*
X87525000Y-105025000D01*
X52425000Y-79750000D02*
X51500000Y-79750000D01*
X126725000Y-54750000D02*
X128000000Y-54750000D01*
X87500000Y-108750000D02*
X87525000Y-108725000D01*
X57975000Y-71475000D02*
X57500000Y-71000000D01*
X100750000Y-86500000D02*
X101500000Y-87250000D01*
X100750000Y-79500000D02*
X101500000Y-80250000D01*
X73750000Y-57000000D02*
X74000000Y-56750000D01*
X51250000Y-81750000D02*
X51500000Y-81500000D01*
D65*
%TO.N,SPI1_SD_CARD_MISO*%
X74250000Y-84459264D02*
X74250000Y-85000000D01*
X75250000Y-82875264D02*
X75250000Y-83019264D01*
X82900000Y-113000000D02*
X82250000Y-113000000D01*
X82250000Y-113000000D02*
X81500000Y-112250000D01*
X74962000Y-81867264D02*
X74538000Y-81867264D01*
X74250000Y-84315264D02*
X74250000Y-84459264D01*
X77500000Y-104750000D02*
X80500000Y-104750000D01*
X74250000Y-83307264D02*
X73962000Y-83307264D01*
X74962000Y-83307264D02*
X74250000Y-83307264D01*
X74250000Y-101500000D02*
X77500000Y-104750000D01*
X75250000Y-81435264D02*
X75250000Y-81579264D01*
X74250000Y-82587264D02*
X74962000Y-82587264D01*
X82900000Y-113000000D02*
X82900000Y-112450000D01*
X73250000Y-82155264D02*
X73250000Y-82299264D01*
X74538000Y-81867264D02*
X74250000Y-81867264D01*
X73538000Y-84027264D02*
X73962000Y-84027264D01*
X77610000Y-77070000D02*
X74250000Y-80430000D01*
X73250000Y-83595264D02*
X73250000Y-83739264D01*
X74250000Y-80430000D02*
X74250000Y-80859264D01*
X80500000Y-104750000D02*
X81250000Y-105500000D01*
X81250000Y-105500000D02*
X81250000Y-108325000D01*
X81250000Y-108325000D02*
X81500000Y-108575000D01*
X82900000Y-112450000D02*
X82250000Y-111800000D01*
X73538000Y-82587264D02*
X74250000Y-82587264D01*
X81500000Y-112250000D02*
X81500000Y-108575000D01*
X81500000Y-108575000D02*
X82250000Y-107825000D01*
X73962000Y-83307264D02*
X73538000Y-83307264D01*
X82900000Y-114500000D02*
X82900000Y-113000000D01*
X74250000Y-81867264D02*
X73538000Y-81867264D01*
X74250000Y-85000000D02*
X74250000Y-101500000D01*
X74538000Y-81147264D02*
X74962000Y-81147264D01*
X74962000Y-81147264D02*
G75*
G02*
X75250036Y-81435264I0J-288036D01*
G01*
X73538000Y-81867264D02*
G75*
G03*
X73249964Y-82155264I0J-288036D01*
G01*
X75250000Y-81579264D02*
G75*
G02*
X74962000Y-81867300I-288000J-36D01*
G01*
X73538000Y-83307264D02*
G75*
G03*
X73249964Y-83595264I0J-288036D01*
G01*
X73250000Y-83739264D02*
G75*
G03*
X73538000Y-84027300I288000J-36D01*
G01*
X74250000Y-80859264D02*
G75*
G03*
X74538000Y-81147300I288000J-36D01*
G01*
X73250000Y-82299264D02*
G75*
G03*
X73538000Y-82587300I288000J-36D01*
G01*
X73962000Y-84027264D02*
G75*
G02*
X74250036Y-84315264I0J-288036D01*
G01*
X74962000Y-82587264D02*
G75*
G02*
X75250036Y-82875264I0J-288036D01*
G01*
X75250000Y-83019264D02*
G75*
G02*
X74962000Y-83307300I-288000J-36D01*
G01*
D66*
%TO.N,Net-(U300-CAPM)*%
X61575000Y-74262500D02*
X62700000Y-73137500D01*
X61415122Y-74262500D02*
X61575000Y-74262500D01*
X60950000Y-75525000D02*
X60950000Y-74727622D01*
X60950000Y-74727622D02*
X61415122Y-74262500D01*
D65*
%TO.N,PCF8563_INT*%
X134750000Y-70250000D02*
X138500000Y-74000000D01*
X138500000Y-74000000D02*
X141250000Y-74000000D01*
X77610000Y-74530000D02*
X83750000Y-68390000D01*
X111500000Y-79500000D02*
X113750000Y-77250000D01*
X100000000Y-73000000D02*
X101250000Y-74250000D01*
X91250000Y-57000000D02*
X94980000Y-60730000D01*
X141650000Y-73600000D02*
X141650000Y-72500000D01*
X113750000Y-77250000D02*
X113750000Y-69000000D01*
X103500000Y-74250000D02*
X108750000Y-79500000D01*
X83750000Y-68390000D02*
X83750000Y-62250000D01*
X94980000Y-60730000D02*
X96230000Y-60730000D01*
X100000000Y-64500000D02*
X100000000Y-73000000D01*
X108750000Y-79500000D02*
X111500000Y-79500000D01*
X130500000Y-64000000D02*
X134750000Y-68250000D01*
X101250000Y-74250000D02*
X103500000Y-74250000D01*
X134750000Y-68250000D02*
X134750000Y-70250000D01*
X96230000Y-60730000D02*
X100000000Y-64500000D01*
X113750000Y-69000000D02*
X118750000Y-64000000D01*
X118750000Y-64000000D02*
X130500000Y-64000000D01*
X141250000Y-74000000D02*
X141650000Y-73600000D01*
X83750000Y-57000000D02*
X91250000Y-57000000D01*
D66*
%TO.N,USR_LED_2*%
X116750000Y-89500000D02*
X118000000Y-90750000D01*
X127750000Y-94575000D02*
X128750000Y-95575000D01*
X100000000Y-76750000D02*
X102750000Y-76750000D01*
X118000000Y-90750000D02*
X126000000Y-90750000D01*
X126000000Y-90750000D02*
X127750000Y-92500000D01*
X95390000Y-66910000D02*
X97750000Y-69270000D01*
X102750000Y-76750000D02*
X109000000Y-83000000D01*
X97750000Y-74500000D02*
X100000000Y-76750000D01*
X109000000Y-83000000D02*
X109000000Y-88750000D01*
X109750000Y-89500000D02*
X116750000Y-89500000D01*
X109000000Y-88750000D02*
X109750000Y-89500000D01*
X127750000Y-92500000D02*
X127750000Y-94575000D01*
X97750000Y-69270000D02*
X97750000Y-74500000D01*
%TO.N,USR_LED_0*%
X107825000Y-95575000D02*
X108750000Y-95575000D01*
X95390000Y-74530000D02*
X99110000Y-78250000D01*
X101500000Y-78250000D02*
X107000000Y-83750000D01*
X107000000Y-83750000D02*
X107000000Y-94750000D01*
X99110000Y-78250000D02*
X101500000Y-78250000D01*
X107000000Y-94750000D02*
X107825000Y-95575000D01*
%TO.N,Net-(U300-CAPP)*%
X63500000Y-74250000D02*
X64250000Y-73500000D01*
X62250000Y-74727622D02*
X62727622Y-74250000D01*
X62727622Y-74250000D02*
X63500000Y-74250000D01*
X64250000Y-73500000D02*
X64250000Y-73137500D01*
X62250000Y-75525000D02*
X62250000Y-74727622D01*
%TO.N,Net-(D200-A)*%
X108150000Y-75250000D02*
X107500000Y-75250000D01*
X107500000Y-75250000D02*
X105750000Y-73500000D01*
X105750000Y-73500000D02*
X105750000Y-67210000D01*
D65*
%TO.N,SPI1_SD_CARD_CS*%
X89800000Y-113250000D02*
X90300000Y-112750000D01*
X88400000Y-113600000D02*
X88750000Y-113250000D01*
X79250000Y-89080761D02*
X82250000Y-86080761D01*
X92000000Y-112250000D02*
X92000000Y-108575000D01*
X81500000Y-102000000D02*
X79250000Y-99750000D01*
X88400000Y-114500000D02*
X88400000Y-113600000D01*
X79250000Y-99750000D02*
X79250000Y-89080761D01*
X92750000Y-104000000D02*
X90750000Y-102000000D01*
X90750000Y-102000000D02*
X81500000Y-102000000D01*
X92000000Y-108575000D02*
X92750000Y-107825000D01*
X91475000Y-112775000D02*
X92000000Y-112250000D01*
X90300000Y-112750000D02*
X90325000Y-112775000D01*
X92000000Y-108575000D02*
X91250000Y-107825000D01*
X90325000Y-112775000D02*
X91475000Y-112775000D01*
X90300000Y-112750000D02*
X91250000Y-111800000D01*
X82250000Y-82750000D02*
X79110000Y-79610000D01*
X79110000Y-79610000D02*
X77610000Y-79610000D01*
X82250000Y-86080761D02*
X82250000Y-82750000D01*
X88750000Y-113250000D02*
X89800000Y-113250000D01*
X92750000Y-107825000D02*
X92750000Y-104000000D01*
D66*
%TO.N,MACRO_PAD_BTN_ROW_0*%
X98000000Y-81250000D02*
X98925000Y-81250000D01*
X97500000Y-80750000D02*
X98000000Y-81250000D01*
X97500000Y-79610000D02*
X98865000Y-79610000D01*
X95390000Y-79610000D02*
X97500000Y-79610000D01*
X97500000Y-79610000D02*
X97500000Y-80750000D01*
X98865000Y-79610000D02*
X98975000Y-79500000D01*
%TO.N,Net-(D500-K)*%
X113500000Y-107000000D02*
X119850000Y-107000000D01*
X106500000Y-105250000D02*
X109750000Y-105250000D01*
X111750000Y-104500000D02*
X112250000Y-105000000D01*
X105500000Y-86175000D02*
X105500000Y-104250000D01*
X100575000Y-81250000D02*
X105500000Y-86175000D01*
X110500000Y-104500000D02*
X111750000Y-104500000D01*
X105500000Y-104250000D02*
X106500000Y-105250000D01*
X111100000Y-105750000D02*
X112250000Y-105750000D01*
X119850000Y-107000000D02*
X129850000Y-107000000D01*
X119850000Y-107000000D02*
X121100000Y-105750000D01*
X111100000Y-105750000D02*
X111100000Y-105850000D01*
X109750000Y-105250000D02*
X110500000Y-104500000D01*
X112250000Y-105750000D02*
X113500000Y-107000000D01*
X139850000Y-107000000D02*
X141100000Y-105750000D01*
X129850000Y-107000000D02*
X139850000Y-107000000D01*
X112250000Y-105000000D02*
X112250000Y-105750000D01*
X129850000Y-107000000D02*
X131100000Y-105750000D01*
%TO.N,USR_LED_1*%
X108000000Y-83375000D02*
X108000000Y-89250000D01*
X102125000Y-77500000D02*
X108000000Y-83375000D01*
X109500000Y-90750000D02*
X116500000Y-90750000D01*
X99500000Y-77500000D02*
X102125000Y-77500000D01*
X117750000Y-94575000D02*
X118750000Y-95575000D01*
X117750000Y-92000000D02*
X117750000Y-94575000D01*
X97000000Y-75000000D02*
X99500000Y-77500000D01*
X116500000Y-90750000D02*
X117750000Y-92000000D01*
X108000000Y-89250000D02*
X109500000Y-90750000D01*
X95390000Y-71990000D02*
X97000000Y-73600000D01*
X97000000Y-73600000D02*
X97000000Y-75000000D01*
%TO.N,MACRO_PAD_BTN_ROW_2*%
X97520000Y-87230000D02*
X98250000Y-86500000D01*
X98500000Y-88250000D02*
X98925000Y-88250000D01*
X98250000Y-86500000D02*
X98975000Y-86500000D01*
X95390000Y-87230000D02*
X97520000Y-87230000D01*
X97520000Y-87270000D02*
X98500000Y-88250000D01*
X97520000Y-87230000D02*
X97520000Y-87270000D01*
D65*
%TO.N,I2S_PCM5102_DATA*%
X75250000Y-72750000D02*
X72000000Y-76000000D01*
X77610000Y-64370000D02*
X75250000Y-66730000D01*
X72000000Y-83500000D02*
X68250000Y-87250000D01*
X72000000Y-76000000D02*
X72000000Y-83500000D01*
X75250000Y-66730000D02*
X75250000Y-72750000D01*
X57750000Y-86150000D02*
X57750000Y-85325000D01*
X68250000Y-87250000D02*
X58850000Y-87250000D01*
X58850000Y-87250000D02*
X57750000Y-86150000D01*
%TO.N,SPI1_SD_CARD_SCK*%
X85100000Y-112400000D02*
X84500000Y-111800000D01*
X85100000Y-113000000D02*
X84500000Y-113000000D01*
X74700000Y-96132000D02*
X74700000Y-96010000D01*
X74700000Y-90032000D02*
X74700000Y-89910000D01*
X74700000Y-98572000D02*
X74700000Y-98450000D01*
X75256000Y-96376000D02*
X74944000Y-96376000D01*
X75500000Y-88250000D02*
X75500000Y-85250000D01*
X74944000Y-92106000D02*
X75256000Y-92106000D01*
X75256000Y-97596000D02*
X74944000Y-97596000D01*
X75256000Y-91496000D02*
X74944000Y-91496000D01*
X75500000Y-96742000D02*
X75500000Y-96620000D01*
X83500000Y-105737352D02*
X83500000Y-104500000D01*
X74944000Y-93326000D02*
X75256000Y-93326000D01*
X74700000Y-97352000D02*
X74700000Y-97230000D01*
X75500000Y-95522000D02*
X75500000Y-95400000D01*
X85100000Y-113000000D02*
X85100000Y-112400000D01*
X74944000Y-94546000D02*
X75256000Y-94546000D01*
X74700000Y-91252000D02*
X74700000Y-91130000D01*
X83750000Y-108325000D02*
X84250000Y-107825000D01*
X75256000Y-93936000D02*
X74944000Y-93936000D01*
X80980761Y-103850000D02*
X80830761Y-104000000D01*
X82850000Y-103850000D02*
X80980761Y-103850000D01*
X75500000Y-85250000D02*
X76060000Y-84690000D01*
X75256000Y-92716000D02*
X74944000Y-92716000D01*
X83500000Y-104500000D02*
X82850000Y-103850000D01*
X75256000Y-98816000D02*
X74944000Y-98816000D01*
X83750000Y-112250000D02*
X83750000Y-108325000D01*
X75500000Y-100402000D02*
X75500000Y-100280000D01*
X84500000Y-113000000D02*
X83750000Y-112250000D01*
X75500000Y-89300000D02*
X75500000Y-88250000D01*
X75500000Y-89422000D02*
X75500000Y-89300000D01*
X75500000Y-94302000D02*
X75500000Y-94180000D01*
X74944000Y-95766000D02*
X75256000Y-95766000D01*
X74944000Y-96986000D02*
X75256000Y-96986000D01*
X75500000Y-90642000D02*
X75500000Y-90520000D01*
X74944000Y-100646000D02*
X75256000Y-100646000D01*
X75256000Y-100036000D02*
X74944000Y-100036000D01*
X75256000Y-90276000D02*
X74944000Y-90276000D01*
X74944000Y-98206000D02*
X75256000Y-98206000D01*
X85100000Y-114500000D02*
X85100000Y-113000000D01*
X75500000Y-99182000D02*
X75500000Y-99060000D01*
X83250000Y-105987352D02*
X83500000Y-105737352D01*
X74700000Y-99792000D02*
X74700000Y-99670000D01*
X75500000Y-91862000D02*
X75500000Y-91740000D01*
X75500000Y-93082000D02*
X75500000Y-92960000D01*
X74700000Y-101012000D02*
X74700000Y-100890000D01*
X75256000Y-95156000D02*
X74944000Y-95156000D01*
X80830761Y-104000000D02*
X77750000Y-104000000D01*
X76060000Y-84690000D02*
X77610000Y-84690000D01*
X75256000Y-101256000D02*
X74944000Y-101256000D01*
X83750000Y-108325000D02*
X83250000Y-107825000D01*
X74700000Y-92472000D02*
X74700000Y-92350000D01*
X75500000Y-97962000D02*
X75500000Y-97840000D01*
X83250000Y-107825000D02*
X83250000Y-105987352D01*
X75500000Y-101750000D02*
X75500000Y-101500000D01*
X74944000Y-90886000D02*
X75256000Y-90886000D01*
X77750000Y-104000000D02*
X75500000Y-101750000D01*
X74944000Y-89666000D02*
X75256000Y-89666000D01*
X74700000Y-93692000D02*
X74700000Y-93570000D01*
X74700000Y-94912000D02*
X74700000Y-94790000D01*
X74944000Y-99426000D02*
X75256000Y-99426000D01*
X75500000Y-91740000D02*
G75*
G03*
X75256000Y-91496000I-244000J0D01*
G01*
X74700000Y-98450000D02*
G75*
G02*
X74944000Y-98206000I244000J0D01*
G01*
X74700000Y-94790000D02*
G75*
G02*
X74944000Y-94546000I244000J0D01*
G01*
X74700000Y-100890000D02*
G75*
G02*
X74944000Y-100646000I244000J0D01*
G01*
X75500000Y-100280000D02*
G75*
G03*
X75256000Y-100036000I-244000J0D01*
G01*
X75256000Y-92106000D02*
G75*
G03*
X75500000Y-91862000I0J244000D01*
G01*
X75500000Y-95400000D02*
G75*
G03*
X75256000Y-95156000I-244000J0D01*
G01*
X74944000Y-95156000D02*
G75*
G02*
X74700000Y-94912000I0J244000D01*
G01*
X75256000Y-94546000D02*
G75*
G03*
X75500000Y-94302000I0J244000D01*
G01*
X75256000Y-95766000D02*
G75*
G03*
X75500000Y-95522000I0J244000D01*
G01*
X75256000Y-98206000D02*
G75*
G03*
X75500000Y-97962000I0J244000D01*
G01*
X75500000Y-90520000D02*
G75*
G03*
X75256000Y-90276000I-244000J0D01*
G01*
X75256000Y-96986000D02*
G75*
G03*
X75500000Y-96742000I0J244000D01*
G01*
X74944000Y-91496000D02*
G75*
G02*
X74700000Y-91252000I0J244000D01*
G01*
X74944000Y-90276000D02*
G75*
G02*
X74700000Y-90032000I0J244000D01*
G01*
X75500000Y-96620000D02*
G75*
G03*
X75256000Y-96376000I-244000J0D01*
G01*
X75500000Y-94180000D02*
G75*
G03*
X75256000Y-93936000I-244000J0D01*
G01*
X74944000Y-93936000D02*
G75*
G02*
X74700000Y-93692000I0J244000D01*
G01*
X75256000Y-100646000D02*
G75*
G03*
X75500000Y-100402000I0J244000D01*
G01*
X74944000Y-92716000D02*
G75*
G02*
X74700000Y-92472000I0J244000D01*
G01*
X74700000Y-91130000D02*
G75*
G02*
X74944000Y-90886000I244000J0D01*
G01*
X75500000Y-101500000D02*
G75*
G03*
X75256000Y-101256000I-244000J0D01*
G01*
X74700000Y-89910000D02*
G75*
G02*
X74944000Y-89666000I244000J0D01*
G01*
X75256000Y-99426000D02*
G75*
G03*
X75500000Y-99182000I0J244000D01*
G01*
X74944000Y-96376000D02*
G75*
G02*
X74700000Y-96132000I0J244000D01*
G01*
X74700000Y-92350000D02*
G75*
G02*
X74944000Y-92106000I244000J0D01*
G01*
X75256000Y-90886000D02*
G75*
G03*
X75500000Y-90642000I0J244000D01*
G01*
X74700000Y-96010000D02*
G75*
G02*
X74944000Y-95766000I244000J0D01*
G01*
X74944000Y-100036000D02*
G75*
G02*
X74700000Y-99792000I0J244000D01*
G01*
X75256000Y-93326000D02*
G75*
G03*
X75500000Y-93082000I0J244000D01*
G01*
X74944000Y-101256000D02*
G75*
G02*
X74700000Y-101012000I0J244000D01*
G01*
X75500000Y-97840000D02*
G75*
G03*
X75256000Y-97596000I-244000J0D01*
G01*
X75500000Y-99060000D02*
G75*
G03*
X75256000Y-98816000I-244000J0D01*
G01*
X75256000Y-89666000D02*
G75*
G03*
X75500000Y-89422000I0J244000D01*
G01*
X74700000Y-99670000D02*
G75*
G02*
X74944000Y-99426000I244000J0D01*
G01*
X75500000Y-92960000D02*
G75*
G03*
X75256000Y-92716000I-244000J0D01*
G01*
X74944000Y-97596000D02*
G75*
G02*
X74700000Y-97352000I0J244000D01*
G01*
X74700000Y-97230000D02*
G75*
G02*
X74944000Y-96986000I244000J0D01*
G01*
X74944000Y-98816000D02*
G75*
G02*
X74700000Y-98572000I0J244000D01*
G01*
X74700000Y-93570000D02*
G75*
G02*
X74944000Y-93326000I244000J0D01*
G01*
D66*
%TO.N,Net-(D500-A)*%
X109500000Y-103000000D02*
X116000000Y-103000000D01*
X114750000Y-105750000D02*
X116000000Y-104500000D01*
X116000000Y-104500000D02*
X116000000Y-103000000D01*
X114400000Y-105750000D02*
X114750000Y-105750000D01*
%TO.N,Net-(D501-A)*%
X124400000Y-105750000D02*
X124750000Y-105750000D01*
X124750000Y-105750000D02*
X126000000Y-104500000D01*
X119500000Y-103000000D02*
X126000000Y-103000000D01*
X126000000Y-104500000D02*
X126000000Y-103000000D01*
%TO.N,MACRO_PAD_BTN_COL_2*%
X95390000Y-92310000D02*
X98865000Y-92310000D01*
X98865000Y-92310000D02*
X98925000Y-92250000D01*
D65*
%TO.N,UART0_TX*%
X68565000Y-54500000D02*
X68525000Y-54540000D01*
X71225000Y-54025000D02*
X71225000Y-54500000D01*
X77610000Y-51670000D02*
X73580000Y-51670000D01*
X71225000Y-54500000D02*
X68565000Y-54500000D01*
X73580000Y-51670000D02*
X71225000Y-54025000D01*
D66*
%TO.N,MACRO_PAD_BTN_COL_3*%
X95390000Y-89770000D02*
X98695000Y-89770000D01*
X98695000Y-89770000D02*
X98925000Y-90000000D01*
%TO.N,Net-(D502-A)*%
X129500000Y-103000000D02*
X136000000Y-103000000D01*
X136000000Y-104500000D02*
X136000000Y-103000000D01*
X134400000Y-105750000D02*
X134750000Y-105750000D01*
X134750000Y-105750000D02*
X136000000Y-104500000D01*
%TO.N,Net-(D503-A)*%
X144400000Y-105750000D02*
X144750000Y-105750000D01*
X146000000Y-104500000D02*
X146000000Y-103000000D01*
X139500000Y-103000000D02*
X146000000Y-103000000D01*
X144750000Y-105750000D02*
X146000000Y-104500000D01*
D65*
%TO.N,I2S_INMP441_SCK*%
X70442000Y-108008436D02*
X70058000Y-108008436D01*
X69750000Y-111396436D02*
X69750000Y-111550436D01*
X69750000Y-120000000D02*
X65250000Y-124500000D01*
X70058000Y-107238436D02*
X70442000Y-107238436D01*
X69750000Y-108008436D02*
X69058000Y-108008436D01*
X70750000Y-110626436D02*
X70750000Y-110780436D01*
X69750000Y-109548436D02*
X69058000Y-109548436D01*
X65250000Y-124500000D02*
X60000000Y-124500000D01*
X70442000Y-109548436D02*
X69750000Y-109548436D01*
X69750000Y-112500000D02*
X69750000Y-120000000D01*
X69058000Y-110318436D02*
X69750000Y-110318436D01*
X69058000Y-108778436D02*
X69750000Y-108778436D01*
X58250000Y-109600000D02*
X58250000Y-120480000D01*
X60000000Y-124500000D02*
X57115000Y-121615000D01*
X69750000Y-111550436D02*
X69750000Y-112500000D01*
X68750000Y-109856436D02*
X68750000Y-110010436D01*
X58250000Y-120480000D02*
X56190000Y-122540000D01*
X70442000Y-111088436D02*
X70058000Y-111088436D01*
X69750000Y-110318436D02*
X70058000Y-110318436D01*
X68750000Y-108316436D02*
X68750000Y-108470436D01*
X70750000Y-107546436D02*
X70750000Y-107700436D01*
X72750000Y-98000000D02*
X69750000Y-101000000D01*
X70058000Y-108008436D02*
X69750000Y-108008436D01*
X70058000Y-110318436D02*
X70442000Y-110318436D01*
X70750000Y-109086436D02*
X70750000Y-109240436D01*
X69750000Y-108778436D02*
X70442000Y-108778436D01*
X56190000Y-107540000D02*
X58250000Y-109600000D01*
X69750000Y-101000000D02*
X69750000Y-106930436D01*
X73000000Y-98000000D02*
X72750000Y-98000000D01*
X70442000Y-108778436D02*
G75*
G02*
X70749964Y-109086436I0J-307964D01*
G01*
X68750000Y-110010436D02*
G75*
G03*
X69058000Y-110318400I308000J36D01*
G01*
X69750000Y-106930436D02*
G75*
G03*
X70058000Y-107238400I308000J36D01*
G01*
X68750000Y-108470436D02*
G75*
G03*
X69058000Y-108778400I308000J36D01*
G01*
X69058000Y-109548436D02*
G75*
G03*
X68750036Y-109856436I0J-307964D01*
G01*
X70750000Y-107700436D02*
G75*
G02*
X70442000Y-108008400I-308000J36D01*
G01*
X70750000Y-110780436D02*
G75*
G02*
X70442000Y-111088400I-308000J36D01*
G01*
X69058000Y-108008436D02*
G75*
G03*
X68750036Y-108316436I0J-307964D01*
G01*
X70058000Y-111088436D02*
G75*
G03*
X69750036Y-111396436I0J-307964D01*
G01*
X70442000Y-110318436D02*
G75*
G02*
X70749964Y-110626436I0J-307964D01*
G01*
X70442000Y-107238436D02*
G75*
G02*
X70749964Y-107546436I0J-307964D01*
G01*
X70750000Y-109240436D02*
G75*
G02*
X70442000Y-109548400I-308000J36D01*
G01*
D66*
%TO.N,Net-(D504-K)*%
X109750000Y-115250000D02*
X110500000Y-114500000D01*
X107250000Y-115250000D02*
X109750000Y-115250000D01*
X110500000Y-114500000D02*
X111750000Y-114500000D01*
X139850000Y-117000000D02*
X141100000Y-115750000D01*
X100575000Y-84750000D02*
X104750000Y-88925000D01*
X112500000Y-115250000D02*
X112500000Y-116250000D01*
X104750000Y-112750000D02*
X107250000Y-115250000D01*
X111100000Y-115750000D02*
X112000000Y-115750000D01*
X112500000Y-116250000D02*
X113250000Y-117000000D01*
X104750000Y-88925000D02*
X104750000Y-112750000D01*
X119850000Y-117000000D02*
X129850000Y-117000000D01*
X129850000Y-117000000D02*
X131100000Y-115750000D01*
X111750000Y-114500000D02*
X112500000Y-115250000D01*
X112000000Y-115750000D02*
X112500000Y-116250000D01*
X119850000Y-117000000D02*
X121100000Y-115750000D01*
X129850000Y-117000000D02*
X139850000Y-117000000D01*
X113250000Y-117000000D02*
X119850000Y-117000000D01*
D65*
%TO.N,SPI1_SD_CARD_MOSI*%
X88000000Y-103000000D02*
X86000000Y-103000000D01*
X84014000Y-102700000D02*
X83774000Y-102700000D01*
X81854000Y-102700000D02*
X81614000Y-102700000D01*
X84164000Y-103000000D02*
X84164000Y-102850000D01*
X87300000Y-114500000D02*
X87300000Y-113500000D01*
X82344000Y-103400000D02*
X82204000Y-103400000D01*
X83408000Y-103550000D02*
X83300000Y-103550000D01*
X82934000Y-102700000D02*
X82694000Y-102700000D01*
X83624000Y-103000000D02*
X83624000Y-103334000D01*
X84704000Y-102850000D02*
X84704000Y-103000000D01*
X85244000Y-103000000D02*
X85244000Y-102850000D01*
X80708000Y-102000000D02*
X80600000Y-102000000D01*
X83084000Y-103000000D02*
X83084000Y-102850000D01*
X80924000Y-103200000D02*
X80924000Y-103000000D01*
X79628000Y-102000000D02*
X79520000Y-102000000D01*
X76000000Y-100500000D02*
X76000000Y-89000000D01*
X79844000Y-102784000D02*
X79844000Y-102216000D01*
X88250000Y-112750000D02*
X89250000Y-112750000D01*
X84704000Y-103000000D02*
X84704000Y-103784000D01*
X81264000Y-103400000D02*
X81124000Y-103400000D01*
X82004000Y-103200000D02*
X82004000Y-103000000D01*
X90250000Y-107825000D02*
X90250000Y-105250000D01*
X80384000Y-102216000D02*
X80384000Y-103000000D01*
X79088000Y-103000000D02*
X78980000Y-103000000D01*
X80168000Y-103550000D02*
X80060000Y-103550000D01*
X79844000Y-103000000D02*
X79844000Y-102784000D01*
X85094000Y-102700000D02*
X84854000Y-102700000D01*
X90250000Y-105250000D02*
X88000000Y-103000000D01*
X76000000Y-89000000D02*
X77610000Y-87390000D01*
X80924000Y-103000000D02*
X80924000Y-102216000D01*
X85244000Y-103384000D02*
X85244000Y-103216000D01*
X78500000Y-103000000D02*
X77625000Y-102125000D01*
X82544000Y-103000000D02*
X82544000Y-103200000D01*
X79844000Y-103334000D02*
X79844000Y-103000000D01*
X82004000Y-103000000D02*
X82004000Y-102850000D01*
X89750000Y-108325000D02*
X90250000Y-107825000D01*
X85784000Y-103216000D02*
X85784000Y-103384000D01*
X81464000Y-102850000D02*
X81464000Y-103000000D01*
X82544000Y-102850000D02*
X82544000Y-103000000D01*
X80384000Y-103000000D02*
X80384000Y-103334000D01*
X79304000Y-102216000D02*
X79304000Y-102784000D01*
X81464000Y-103000000D02*
X81464000Y-103200000D01*
X83624000Y-102850000D02*
X83624000Y-103000000D01*
X84488000Y-104000000D02*
X84380000Y-104000000D01*
X83084000Y-103334000D02*
X83084000Y-103000000D01*
X89250000Y-112750000D02*
X89750000Y-112250000D01*
X89750000Y-108325000D02*
X89250000Y-107825000D01*
X89750000Y-112250000D02*
X89750000Y-108325000D01*
X87300000Y-113500000D02*
X88150000Y-112650000D01*
X88150000Y-112650000D02*
X89000000Y-111800000D01*
X84164000Y-103784000D02*
X84164000Y-103000000D01*
X77625000Y-102125000D02*
X76000000Y-100500000D01*
X77610000Y-87390000D02*
X77610000Y-87230000D01*
X88150000Y-112650000D02*
X88250000Y-112750000D01*
X85244000Y-103216000D02*
X85244000Y-103000000D01*
X78980000Y-103000000D02*
X78500000Y-103000000D01*
X85568000Y-103600000D02*
X85460000Y-103600000D01*
X83084000Y-102850000D02*
G75*
G03*
X82934000Y-102700000I-150000J0D01*
G01*
X82204000Y-103400000D02*
G75*
G02*
X82004000Y-103200000I0J200000D01*
G01*
X85244000Y-102850000D02*
G75*
G03*
X85094000Y-102700000I-150000J0D01*
G01*
X79304000Y-102784000D02*
G75*
G02*
X79088000Y-103000000I-216000J0D01*
G01*
X85460000Y-103600000D02*
G75*
G02*
X85244000Y-103384000I0J216000D01*
G01*
X81464000Y-103200000D02*
G75*
G02*
X81264000Y-103400000I-200000J0D01*
G01*
X80924000Y-102216000D02*
G75*
G03*
X80708000Y-102000000I-216000J0D01*
G01*
X82544000Y-103200000D02*
G75*
G02*
X82344000Y-103400000I-200000J0D01*
G01*
X80060000Y-103550000D02*
G75*
G02*
X79844000Y-103334000I0J216000D01*
G01*
X84704000Y-103784000D02*
G75*
G02*
X84488000Y-104000000I-216000J0D01*
G01*
X84854000Y-102700000D02*
G75*
G03*
X84704000Y-102850000I0J-150000D01*
G01*
X83624000Y-103334000D02*
G75*
G02*
X83408000Y-103550000I-216000J0D01*
G01*
X84380000Y-104000000D02*
G75*
G02*
X84164000Y-103784000I0J216000D01*
G01*
X80600000Y-102000000D02*
G75*
G03*
X80384000Y-102216000I0J-216000D01*
G01*
X82694000Y-102700000D02*
G75*
G03*
X82544000Y-102850000I0J-150000D01*
G01*
X85784000Y-103384000D02*
G75*
G02*
X85568000Y-103600000I-216000J0D01*
G01*
X86000000Y-103000000D02*
G75*
G03*
X85784000Y-103216000I0J-216000D01*
G01*
X82004000Y-102850000D02*
G75*
G03*
X81854000Y-102700000I-150000J0D01*
G01*
X81614000Y-102700000D02*
G75*
G03*
X81464000Y-102850000I0J-150000D01*
G01*
X80384000Y-103334000D02*
G75*
G02*
X80168000Y-103550000I-216000J0D01*
G01*
X79844000Y-102216000D02*
G75*
G03*
X79628000Y-102000000I-216000J0D01*
G01*
X79520000Y-102000000D02*
G75*
G03*
X79304000Y-102216000I0J-216000D01*
G01*
X83300000Y-103550000D02*
G75*
G02*
X83084000Y-103334000I0J216000D01*
G01*
X83774000Y-102700000D02*
G75*
G03*
X83624000Y-102850000I0J-150000D01*
G01*
X81124000Y-103400000D02*
G75*
G02*
X80924000Y-103200000I0J200000D01*
G01*
X84164000Y-102850000D02*
G75*
G03*
X84014000Y-102700000I-150000J0D01*
G01*
%TO.N,UART0_RX*%
X75790000Y-54210000D02*
X74250000Y-55750000D01*
X77610000Y-54210000D02*
X75790000Y-54210000D01*
X74250000Y-55750000D02*
X72475000Y-55750000D01*
X72475000Y-55750000D02*
X71225000Y-57000000D01*
X68605000Y-57000000D02*
X68525000Y-57080000D01*
X71225000Y-57000000D02*
X68605000Y-57000000D01*
%TO.N,I2S_INMP441_SCL*%
X57000000Y-126250000D02*
X54500000Y-123750000D01*
X54970000Y-118780000D02*
X54000000Y-117810000D01*
X73180000Y-100000000D02*
X72250000Y-100000000D01*
X71500000Y-120250000D02*
X65500000Y-126250000D01*
X65500000Y-126250000D02*
X57000000Y-126250000D01*
X71500000Y-100750000D02*
X71500000Y-120250000D01*
X54000000Y-117810000D02*
X54000000Y-107190000D01*
X55345000Y-119155000D02*
X54000000Y-117810000D01*
X54000000Y-107190000D02*
X56190000Y-105000000D01*
X54500000Y-120000000D02*
X55345000Y-119155000D01*
X54500000Y-123750000D02*
X54500000Y-120000000D01*
X73250000Y-99930000D02*
X73180000Y-100000000D01*
X72250000Y-100000000D02*
X71500000Y-100750000D01*
X56190000Y-120000000D02*
X54970000Y-118780000D01*
%TO.N,SPI1_SD_CARD_CARD_DETECT*%
X94000000Y-92000000D02*
X91750000Y-89750000D01*
X79250000Y-108575000D02*
X80000000Y-107825000D01*
X80700000Y-113000000D02*
X80700000Y-112500000D01*
X79250000Y-108575000D02*
X78000000Y-109825000D01*
X89250000Y-117750000D02*
X94000000Y-113000000D01*
X80700000Y-112500000D02*
X80000000Y-111800000D01*
X78000000Y-116750000D02*
X79000000Y-117750000D01*
X91750000Y-89750000D02*
X80500000Y-89750000D01*
X79000000Y-117750000D02*
X89250000Y-117750000D01*
X80000000Y-113000000D02*
X79250000Y-112250000D01*
X80700000Y-113000000D02*
X80000000Y-113000000D01*
X80700000Y-114500000D02*
X80700000Y-113000000D01*
X78000000Y-109825000D02*
X78000000Y-116750000D01*
X79250000Y-112250000D02*
X79250000Y-108575000D01*
X94000000Y-113000000D02*
X94000000Y-92000000D01*
D66*
%TO.N,MACRO_PAD_BTN_ROW_1*%
X98250000Y-83000000D02*
X98975000Y-83000000D01*
X98865000Y-84690000D02*
X98925000Y-84750000D01*
X97000000Y-84250000D02*
X98250000Y-83000000D01*
X95390000Y-84690000D02*
X97000000Y-84690000D01*
X97000000Y-84690000D02*
X97000000Y-84250000D01*
X97000000Y-84690000D02*
X98865000Y-84690000D01*
D65*
%TO.N,I2S_PCM5102_SCL*%
X71550000Y-77650000D02*
X71550000Y-77950000D01*
X71512551Y-74162645D02*
X71880246Y-74530340D01*
X60000000Y-86750000D02*
X59475000Y-86225000D01*
X72474218Y-74275784D02*
X71936815Y-73738381D01*
X71400000Y-78100000D02*
X71250000Y-78100000D01*
X71250000Y-80260000D02*
X71250000Y-80696694D01*
X70540000Y-79900000D02*
X71010000Y-79900000D01*
X60250000Y-86750000D02*
X60075000Y-86750000D01*
X71795394Y-74954605D02*
X71250000Y-75500000D01*
X71250000Y-78700000D02*
X71400000Y-78700000D01*
X71400000Y-79300000D02*
X71250000Y-79300000D01*
X70300000Y-78340000D02*
X70300000Y-78460000D01*
X70540000Y-77500000D02*
X71250000Y-77500000D01*
X73500000Y-73250000D02*
X73039903Y-73710097D01*
X60250000Y-86750000D02*
X60000000Y-86750000D01*
X71250000Y-79300000D02*
X71010000Y-79300000D01*
X71250000Y-77500000D02*
X71400000Y-77500000D01*
X71250000Y-83250000D02*
X67750000Y-86750000D01*
X71250000Y-76900000D02*
X70540000Y-76900000D01*
X71880246Y-74869751D02*
X71795394Y-74954605D01*
X67750000Y-86750000D02*
X60250000Y-86750000D01*
X71550000Y-78850000D02*
X71550000Y-79150000D01*
X70540000Y-78700000D02*
X71250000Y-78700000D01*
X59475000Y-86225000D02*
X59475000Y-85325000D01*
X71550000Y-76450000D02*
X71550000Y-76750000D01*
X70300000Y-79540000D02*
X70300000Y-79660000D01*
X71250000Y-75500000D02*
X71250000Y-76150000D01*
X71597404Y-73738381D02*
X71512551Y-73823233D01*
X71400000Y-76900000D02*
X71250000Y-76900000D01*
X71250000Y-80140000D02*
X71250000Y-80260000D01*
X71250000Y-78100000D02*
X70540000Y-78100000D01*
X71010000Y-79300000D02*
X70540000Y-79300000D01*
X73039903Y-74275783D02*
X72898481Y-74417206D01*
X72615639Y-74417205D02*
X72474218Y-74275784D01*
X70300000Y-77140000D02*
X70300000Y-77260000D01*
X71250000Y-80696694D02*
X71250000Y-83250000D01*
X71400000Y-78700000D02*
G75*
G02*
X71550000Y-78850000I0J-150000D01*
G01*
X71400000Y-76300000D02*
G75*
G02*
X71550000Y-76450000I0J-150000D01*
G01*
X70300000Y-79660000D02*
G75*
G03*
X70540000Y-79900000I240000J0D01*
G01*
X73039902Y-73992941D02*
G75*
G02*
X73039941Y-74275820I-141402J-141459D01*
G01*
X71250000Y-76150000D02*
G75*
G03*
X71400000Y-76300000I150000J0D01*
G01*
X71512551Y-73823233D02*
G75*
G03*
X71512590Y-74162606I169749J-169667D01*
G01*
X71936815Y-73738381D02*
G75*
G03*
X71597405Y-73738381I-169705J-169703D01*
G01*
X70300000Y-78460000D02*
G75*
G03*
X70540000Y-78700000I240000J0D01*
G01*
X71550000Y-79150000D02*
G75*
G02*
X71400000Y-79300000I-150000J0D01*
G01*
X70540000Y-78100000D02*
G75*
G03*
X70300000Y-78340000I0J-240000D01*
G01*
X71550000Y-77950000D02*
G75*
G02*
X71400000Y-78100000I-150000J0D01*
G01*
X70540000Y-79300000D02*
G75*
G03*
X70300000Y-79540000I0J-240000D01*
G01*
X70540000Y-76900000D02*
G75*
G03*
X70300000Y-77140000I0J-240000D01*
G01*
X71400000Y-77500000D02*
G75*
G02*
X71550000Y-77650000I0J-150000D01*
G01*
X72898481Y-74417206D02*
G75*
G02*
X72615679Y-74417166I-141381J141406D01*
G01*
X73039903Y-73710097D02*
G75*
G03*
X73039921Y-73992921I141397J-141403D01*
G01*
X71010000Y-79900000D02*
G75*
G02*
X71250000Y-80140000I0J-240000D01*
G01*
X71880246Y-74530340D02*
G75*
G02*
X71880201Y-74869706I-169746J-169660D01*
G01*
X71550000Y-76750000D02*
G75*
G02*
X71400000Y-76900000I-150000J0D01*
G01*
X70300000Y-77260000D02*
G75*
G03*
X70540000Y-77500000I240000J0D01*
G01*
D66*
%TO.N,Net-(D504-A)*%
X115000000Y-115750000D02*
X116000000Y-114750000D01*
X114400000Y-115750000D02*
X115000000Y-115750000D01*
X116000000Y-114750000D02*
X116000000Y-113000000D01*
X109500000Y-113000000D02*
X116000000Y-113000000D01*
%TO.N,MACRO_PAD_BTN_COL_1*%
X98815000Y-97390000D02*
X98925000Y-97500000D01*
X95390000Y-97390000D02*
X98815000Y-97390000D01*
%TO.N,+RPI_VBUS*%
X102920000Y-51670000D02*
X110000000Y-58750000D01*
X95390000Y-51670000D02*
X102920000Y-51670000D01*
X110000000Y-68750000D02*
X109000000Y-69750000D01*
X109000000Y-69750000D02*
X108250000Y-69750000D01*
X110000000Y-58750000D02*
X110000000Y-68750000D01*
D65*
%TO.N,I2C1_SCL*%
X112500000Y-81000000D02*
X121960000Y-71540000D01*
X126710000Y-71540000D02*
X127040000Y-71540000D01*
X142537500Y-79037500D02*
X143325000Y-79037500D01*
X98500000Y-68000000D02*
X98500000Y-73500000D01*
X71225000Y-68500000D02*
X68605000Y-68500000D01*
X75000000Y-64440000D02*
X75000000Y-66000000D01*
X142000000Y-79000000D02*
X142250000Y-78750000D01*
X96000000Y-65500000D02*
X98500000Y-68000000D01*
X72000000Y-67250000D02*
X71225000Y-68025000D01*
X77610000Y-61830000D02*
X78940000Y-60500000D01*
X73750000Y-67250000D02*
X72000000Y-67250000D01*
X89500000Y-60500000D02*
X94500000Y-65500000D01*
X98500000Y-73500000D02*
X100750000Y-75750000D01*
X100750000Y-75750000D02*
X103000000Y-75750000D01*
X94500000Y-65500000D02*
X96000000Y-65500000D01*
X78940000Y-60500000D02*
X89500000Y-60500000D01*
X103000000Y-75750000D02*
X108250000Y-81000000D01*
X68605000Y-68500000D02*
X68525000Y-68580000D01*
X121960000Y-71540000D02*
X126710000Y-71540000D01*
X77610000Y-61830000D02*
X75000000Y-64440000D01*
X142000000Y-82250000D02*
X142000000Y-79000000D01*
X75000000Y-66000000D02*
X73750000Y-67250000D01*
X140750000Y-83500000D02*
X142000000Y-82250000D01*
X141650000Y-76725000D02*
X141650000Y-78150000D01*
X126710000Y-71540000D02*
X126710000Y-67150000D01*
X141650000Y-78150000D02*
X142250000Y-78750000D01*
X139000000Y-83500000D02*
X140750000Y-83500000D01*
X142250000Y-78750000D02*
X142537500Y-79037500D01*
X127040000Y-71540000D02*
X139000000Y-83500000D01*
X108250000Y-81000000D02*
X112500000Y-81000000D01*
X71225000Y-68025000D02*
X71225000Y-68500000D01*
%TO.N,I2S_PCM5102_SCK*%
X68750000Y-87750000D02*
X57575000Y-87750000D01*
X76250000Y-68270000D02*
X76250000Y-73000000D01*
X72750000Y-83750000D02*
X68750000Y-87750000D01*
X72750000Y-76500000D02*
X72750000Y-83750000D01*
X55975000Y-86150000D02*
X55975000Y-85325000D01*
X57575000Y-87750000D02*
X55975000Y-86150000D01*
X76250000Y-73000000D02*
X72750000Y-76500000D01*
X77610000Y-66910000D02*
X76250000Y-68270000D01*
D66*
%TO.N,Net-(D505-A)*%
X126000000Y-114750000D02*
X126000000Y-113000000D01*
X125000000Y-115750000D02*
X126000000Y-114750000D01*
X124400000Y-115750000D02*
X125000000Y-115750000D01*
X119500000Y-113000000D02*
X126000000Y-113000000D01*
%TO.N,Net-(D506-A)*%
X129500000Y-113000000D02*
X136000000Y-113000000D01*
X134400000Y-115750000D02*
X135000000Y-115750000D01*
X136000000Y-114750000D02*
X136000000Y-113000000D01*
X135000000Y-115750000D02*
X136000000Y-114750000D01*
%TO.N,+3.3V*%
X126075000Y-57950000D02*
X126075000Y-57500000D01*
X143325000Y-82075000D02*
X143325000Y-80862500D01*
X68655000Y-71250000D02*
X68525000Y-71120000D01*
X52250000Y-70000000D02*
X53750000Y-70000000D01*
X122500000Y-53250000D02*
X121750000Y-53250000D01*
X66250000Y-61750000D02*
X66750000Y-62250000D01*
X147000000Y-81500000D02*
X147000000Y-80000000D01*
X144750000Y-83250000D02*
X145750000Y-82250000D01*
X86750000Y-111800000D02*
X86750000Y-111750000D01*
X86750000Y-104250000D02*
X88030331Y-104250000D01*
X123775000Y-60250000D02*
X126075000Y-57950000D01*
X86200000Y-113300000D02*
X86750000Y-112750000D01*
X147225000Y-80000000D02*
X148000000Y-79225000D01*
X121700000Y-55000000D02*
X121700000Y-53300000D01*
X68000000Y-73000000D02*
X70000000Y-73000000D01*
X86500000Y-104500000D02*
X86750000Y-104250000D01*
X147000000Y-78000000D02*
X147475000Y-77525000D01*
D65*
X58350000Y-73787500D02*
X57975000Y-73412500D01*
D66*
X129174717Y-54964700D02*
X126639417Y-57500000D01*
X147000000Y-80000000D02*
X147000000Y-78000000D01*
X125250000Y-55500000D02*
X125250000Y-52750000D01*
X88030331Y-104250000D02*
X89250000Y-105469669D01*
X140500000Y-80862500D02*
X139862500Y-80862500D01*
X124887500Y-55862500D02*
X125250000Y-55500000D01*
X85975000Y-110975000D02*
X85975000Y-107750000D01*
X123250000Y-52500000D02*
X122500000Y-53250000D01*
X86500000Y-105000000D02*
X85000000Y-105000000D01*
X66750000Y-71750000D02*
X68000000Y-73000000D01*
X126075000Y-57050000D02*
X126075000Y-57500000D01*
X50750000Y-71500000D02*
X52250000Y-70000000D01*
X123775000Y-54750000D02*
X124887500Y-55862500D01*
X68645000Y-59500000D02*
X68525000Y-59620000D01*
X71200000Y-71800000D02*
X71200000Y-71250000D01*
D65*
X56100000Y-73412500D02*
X55825000Y-73137500D01*
D66*
X77825000Y-106175000D02*
X80000000Y-106175000D01*
X70000000Y-73000000D02*
X71200000Y-71800000D01*
X147475000Y-77525000D02*
X148000000Y-77525000D01*
X77750000Y-106250000D02*
X77825000Y-106175000D01*
X53750000Y-70000000D02*
X54750000Y-70000000D01*
X71200000Y-71250000D02*
X68655000Y-71250000D01*
X138500000Y-79500000D02*
X137250000Y-79500000D01*
X50750000Y-77250000D02*
X50750000Y-71500000D01*
X144750000Y-83500000D02*
X143325000Y-82075000D01*
X73000000Y-61275000D02*
X71225000Y-59500000D01*
X51500000Y-78000000D02*
X50750000Y-77250000D01*
X139862500Y-80862500D02*
X138500000Y-79500000D01*
X82250000Y-106175000D02*
X82250000Y-105000000D01*
X73000000Y-61500000D02*
X73000000Y-61275000D01*
X91500000Y-104500000D02*
X91250000Y-104750000D01*
X85975000Y-106000000D02*
X86500000Y-105475000D01*
X91250000Y-104750000D02*
X91250000Y-106175000D01*
X125000000Y-52500000D02*
X123250000Y-52500000D01*
X147000000Y-80000000D02*
X147225000Y-80000000D01*
X52425000Y-78000000D02*
X51500000Y-78000000D01*
X137250000Y-79500000D02*
X136750000Y-80000000D01*
X144750000Y-83500000D02*
X144750000Y-83250000D01*
X124887500Y-55862500D02*
X126075000Y-57050000D01*
X71225000Y-59500000D02*
X68645000Y-59500000D01*
X57975000Y-73412500D02*
X56100000Y-73412500D01*
X145750000Y-82250000D02*
X145750000Y-80900000D01*
X145750000Y-82250000D02*
X146250000Y-82250000D01*
X86200000Y-114500000D02*
X86200000Y-113300000D01*
X125250000Y-52750000D02*
X125000000Y-52500000D01*
X66750000Y-62250000D02*
X66750000Y-71750000D01*
X146250000Y-82250000D02*
X147000000Y-81500000D01*
X86500000Y-105475000D02*
X86500000Y-104500000D01*
X126639417Y-57500000D02*
X126075000Y-57500000D01*
X86750000Y-111750000D02*
X85975000Y-110975000D01*
X55825000Y-71075000D02*
X55825000Y-73137500D01*
X85000000Y-105000000D02*
X84250000Y-105750000D01*
D65*
X58350000Y-75525000D02*
X58350000Y-73787500D01*
D66*
X84250000Y-105750000D02*
X84250000Y-106175000D01*
X121700000Y-53300000D02*
X121750000Y-53250000D01*
X86750000Y-112750000D02*
X86750000Y-111800000D01*
X54750000Y-70000000D02*
X55825000Y-71075000D01*
X85975000Y-107750000D02*
X85975000Y-106000000D01*
X89250000Y-105469669D02*
X89250000Y-106175000D01*
%TO.N,/[6]I2C_Peripherals/VBAT*%
X147750000Y-61500000D02*
X147750000Y-70350000D01*
X146750000Y-60500000D02*
X147750000Y-61500000D01*
X147000000Y-57750000D02*
X146750000Y-58000000D01*
X147750000Y-70350000D02*
X145750000Y-72350000D01*
X146750000Y-58000000D02*
X146750000Y-60500000D01*
%TO.N,VCC*%
X110350000Y-76250000D02*
X110750000Y-76250000D01*
X112000000Y-61750000D02*
X112000000Y-61250000D01*
X110750000Y-76250000D02*
X111250000Y-75750000D01*
X111250000Y-64750000D02*
X111250000Y-62000000D01*
X111250000Y-65000000D02*
X111250000Y-64750000D01*
X111250000Y-75750000D02*
X111250000Y-64750000D01*
X112000000Y-61250000D02*
X112000000Y-61000000D01*
X110350000Y-77500000D02*
X110350000Y-76250000D01*
X110350000Y-76250000D02*
X110350000Y-75250000D01*
X113250000Y-62225000D02*
X112475000Y-62225000D01*
X112475000Y-62225000D02*
X112000000Y-61750000D01*
X112500000Y-60500000D02*
X113462500Y-60500000D01*
X111250000Y-62000000D02*
X112000000Y-61250000D01*
X112000000Y-61000000D02*
X112500000Y-60500000D01*
%TO.N,+5V*%
X115750000Y-60500000D02*
X116250000Y-61000000D01*
X115037500Y-60500000D02*
X115750000Y-60500000D01*
X146500000Y-93000000D02*
X146500000Y-93925000D01*
X115975000Y-59225000D02*
X111975000Y-59225000D01*
X116750000Y-60250000D02*
X118675000Y-60250000D01*
X115525000Y-62225000D02*
X115250000Y-62225000D01*
D65*
X118450000Y-57500000D02*
X117750000Y-57500000D01*
D66*
X116250000Y-61250000D02*
X116250000Y-61500000D01*
X60750000Y-89500000D02*
X60750000Y-92087500D01*
X134500000Y-92000000D02*
X135250000Y-92000000D01*
X116750000Y-60000000D02*
X115975000Y-59225000D01*
X112250000Y-51000000D02*
X116000000Y-51000000D01*
X116750000Y-60250000D02*
X116750000Y-60000000D01*
X116250000Y-61500000D02*
X116125000Y-61625000D01*
X116125000Y-61625000D02*
X115525000Y-62225000D01*
X125500000Y-92000000D02*
X126500000Y-93000000D01*
X119750000Y-63250000D02*
X119750000Y-63000000D01*
X72500000Y-92037500D02*
X72550000Y-92087500D01*
X119750000Y-63000000D02*
X118250000Y-61500000D01*
X115500000Y-92000000D02*
X116500000Y-93000000D01*
X116750000Y-60500000D02*
X116250000Y-61000000D01*
X145750000Y-92250000D02*
X146500000Y-93000000D01*
X126500000Y-93000000D02*
X126500000Y-93925000D01*
X124500000Y-92000000D02*
X125500000Y-92000000D01*
X135250000Y-92000000D02*
X136500000Y-93250000D01*
X115975000Y-59225000D02*
X115975000Y-57500000D01*
X116000000Y-51000000D02*
X116500000Y-51500000D01*
X110750000Y-58000000D02*
X110750000Y-52500000D01*
X110750000Y-52500000D02*
X112250000Y-51000000D01*
X118250000Y-61500000D02*
X116250000Y-61500000D01*
X136500000Y-93250000D02*
X136500000Y-93925000D01*
X72500000Y-89500000D02*
X72500000Y-92037500D01*
X116750000Y-60250000D02*
X116750000Y-60500000D01*
X116250000Y-61000000D02*
X116250000Y-61250000D01*
X144750000Y-92250000D02*
X145750000Y-92250000D01*
X111975000Y-59225000D02*
X110750000Y-58000000D01*
X116500000Y-93000000D02*
X116500000Y-93925000D01*
X114750000Y-92000000D02*
X115500000Y-92000000D01*
X116500000Y-51500000D02*
X116500000Y-53175000D01*
X115975000Y-57500000D02*
X117750000Y-57500000D01*
D65*
%TO.N,PG_3V3*%
X137750000Y-95000000D02*
X138325000Y-95575000D01*
X149300000Y-86200000D02*
X146500000Y-89000000D01*
X118450000Y-57000000D02*
X118400000Y-56950000D01*
X115750000Y-55750000D02*
X115350000Y-55750000D01*
X117500000Y-56750000D02*
X117250000Y-56500000D01*
X138325000Y-95575000D02*
X138750000Y-95575000D01*
X117700000Y-56950000D02*
X117500000Y-56750000D01*
X115750000Y-55750000D02*
X115500000Y-55500000D01*
X117250000Y-56500000D02*
X117250000Y-53612648D01*
X115350000Y-55750000D02*
X114775000Y-55175000D01*
X117500000Y-56750000D02*
X116500000Y-55750000D01*
X118400000Y-56950000D02*
X117700000Y-56950000D01*
X117275000Y-53587648D02*
X117275000Y-51725000D01*
X146500000Y-51000000D02*
X149300000Y-53800000D01*
X140000000Y-89000000D02*
X137750000Y-91250000D01*
X137750000Y-91250000D02*
X137750000Y-95000000D01*
X114775000Y-55175000D02*
X114775000Y-55000000D01*
X117250000Y-53612648D02*
X117275000Y-53587648D01*
X117275000Y-51725000D02*
X118000000Y-51000000D01*
X146500000Y-89000000D02*
X140000000Y-89000000D01*
X116500000Y-55750000D02*
X115750000Y-55750000D01*
X115500000Y-55500000D02*
X115500000Y-53925000D01*
X115500000Y-53925000D02*
X114825000Y-53250000D01*
X149300000Y-53800000D02*
X149300000Y-86200000D01*
X116500000Y-55750000D02*
X116500000Y-54825000D01*
X118000000Y-51000000D02*
X146500000Y-51000000D01*
%TO.N,/[1]Power/FB_3V3*%
X119000000Y-55750000D02*
X119400000Y-55750000D01*
X118450000Y-55750000D02*
X119000000Y-55750000D01*
X118450000Y-55750000D02*
X118450000Y-55025000D01*
X118450000Y-55025000D02*
X118250000Y-54825000D01*
X118450000Y-56500000D02*
X118450000Y-55750000D01*
X119400000Y-55750000D02*
X120150000Y-55000000D01*
X120100000Y-53250000D02*
X119925000Y-53250000D01*
X119250000Y-54100000D02*
X120100000Y-53250000D01*
X119000000Y-55750000D02*
X119250000Y-55500000D01*
X119250000Y-55500000D02*
X119250000Y-54100000D01*
D66*
%TO.N,/[1]Power/+5V_FILT_1*%
X65300000Y-94000000D02*
X70162500Y-94000000D01*
X70250000Y-93912500D02*
X70162500Y-94000000D01*
X72550000Y-93912500D02*
X70250000Y-93912500D01*
X64550000Y-94750000D02*
X65300000Y-94000000D01*
%TO.N,+3.3VA_PCM*%
X62925000Y-81275000D02*
X62900000Y-81250000D01*
X69975000Y-88025000D02*
X71250000Y-86750000D01*
X65525000Y-81275000D02*
X64750000Y-81275000D01*
X64750000Y-81275000D02*
X62925000Y-81275000D01*
X69750000Y-81500000D02*
X69750000Y-76750000D01*
X66725000Y-82212500D02*
X66462500Y-82212500D01*
X68250000Y-82000000D02*
X66937500Y-82000000D01*
X66937500Y-82000000D02*
X66725000Y-82212500D01*
X66462500Y-82212500D02*
X65525000Y-81275000D01*
X65550000Y-74512500D02*
X64725000Y-75337500D01*
X69750000Y-76750000D02*
X67512500Y-74512500D01*
X69975000Y-90300000D02*
X70275000Y-90000000D01*
X70250000Y-90275000D02*
X69975000Y-90000000D01*
X63087500Y-75337500D02*
X62900000Y-75525000D01*
X66725000Y-74512500D02*
X65550000Y-74512500D01*
X70250000Y-92500000D02*
X70250000Y-90275000D01*
X67512500Y-74512500D02*
X66725000Y-74512500D01*
X68750000Y-82500000D02*
X68250000Y-82000000D01*
X68750000Y-82500000D02*
X69750000Y-81500000D01*
X69975000Y-90000000D02*
X69975000Y-88025000D01*
X64725000Y-75337500D02*
X63087500Y-75337500D01*
D65*
%TO.N,/[3]PCM5102/OUT_R*%
X58500000Y-66337500D02*
X58500000Y-64000000D01*
X57750000Y-59690000D02*
X56000000Y-57940000D01*
X53860000Y-60080000D02*
X52500000Y-60080000D01*
X56637500Y-66337500D02*
X56500000Y-66475000D01*
X57750000Y-63250000D02*
X57750000Y-59690000D01*
X56000000Y-57940000D02*
X53860000Y-60080000D01*
X58500000Y-66337500D02*
X56637500Y-66337500D01*
X58500000Y-64000000D02*
X57750000Y-63250000D01*
%TO.N,/[3]PCM5102/OUT_L*%
X53290000Y-56750000D02*
X52500000Y-57540000D01*
X60750000Y-66337500D02*
X62612500Y-66337500D01*
X61000000Y-63740000D02*
X63000000Y-61740000D01*
X62612500Y-66337500D02*
X62750000Y-66475000D01*
X63000000Y-61740000D02*
X62740000Y-61740000D01*
X57750000Y-56750000D02*
X53290000Y-56750000D01*
X60750000Y-64000000D02*
X61000000Y-63750000D01*
X62740000Y-61740000D02*
X57750000Y-56750000D01*
X60750000Y-66337500D02*
X60750000Y-64000000D01*
X61000000Y-63750000D02*
X61000000Y-63740000D01*
D66*
%TO.N,Net-(D507-A)*%
X145000000Y-115750000D02*
X146000000Y-114750000D01*
X146000000Y-114750000D02*
X146000000Y-113000000D01*
X139500000Y-113000000D02*
X146000000Y-113000000D01*
X144400000Y-115750000D02*
X145000000Y-115750000D01*
%TO.N,Net-(D508-K)*%
X111200000Y-125750000D02*
X111450000Y-126000000D01*
X107500000Y-125250000D02*
X109750000Y-125250000D01*
X114259882Y-127000000D02*
X119950000Y-127000000D01*
X139950000Y-127000000D02*
X141200000Y-125750000D01*
X112500000Y-126000000D02*
X113259882Y-126000000D01*
X120200000Y-126750000D02*
X121200000Y-125750000D01*
X112500000Y-125000000D02*
X112500000Y-126000000D01*
X104000000Y-121750000D02*
X104000000Y-91675000D01*
X111450000Y-126000000D02*
X112500000Y-126000000D01*
X119950000Y-127000000D02*
X129950000Y-127000000D01*
X104000000Y-121750000D02*
X107500000Y-125250000D01*
X112000000Y-124500000D02*
X112500000Y-125000000D01*
X129950000Y-127000000D02*
X130200000Y-126750000D01*
X119950000Y-127000000D02*
X120200000Y-126750000D01*
X129950000Y-127000000D02*
X139950000Y-127000000D01*
X113259882Y-126000000D02*
X114259882Y-127000000D01*
X109750000Y-125250000D02*
X110500000Y-124500000D01*
X110500000Y-124500000D02*
X112000000Y-124500000D01*
X130200000Y-126750000D02*
X131200000Y-125750000D01*
X104000000Y-91675000D02*
X100575000Y-88250000D01*
%TO.N,/[3]PCM5102/VNEG*%
X60300000Y-75525000D02*
X60300000Y-74087500D01*
X60300000Y-74087500D02*
X60975000Y-73412500D01*
%TO.N,/[3]PCM5102/LDO*%
X61600000Y-81250000D02*
X61600000Y-82262500D01*
X62000000Y-82662500D02*
X62000000Y-84500000D01*
X61918750Y-82581250D02*
X62700000Y-83362500D01*
X62000000Y-84500000D02*
X62875000Y-85375000D01*
X61600000Y-82262500D02*
X61918750Y-82581250D01*
X62875000Y-85375000D02*
X62875000Y-85387500D01*
X61918750Y-82581250D02*
X62000000Y-82662500D01*
D65*
%TO.N,/[6]I2C_Peripherals/OSCI*%
X142300000Y-69950000D02*
X142500000Y-69750000D01*
X142950000Y-72500000D02*
X144500000Y-70950000D01*
X144500000Y-69275000D02*
X142975000Y-69275000D01*
X142975000Y-69275000D02*
X142500000Y-69750000D01*
X144500000Y-70950000D02*
X144500000Y-69275000D01*
D66*
%TO.N,VDC*%
X104500000Y-73750000D02*
X104500000Y-64500000D01*
X108150000Y-77400000D02*
X104500000Y-73750000D01*
X104500000Y-64500000D02*
X105000000Y-64000000D01*
X105000000Y-64000000D02*
X105000000Y-63750000D01*
X108150000Y-77500000D02*
X108150000Y-77400000D01*
%TO.N,/[1]Power/LED_PWR_K*%
X142687500Y-94750000D02*
X142687500Y-94312500D01*
X142687500Y-94312500D02*
X143037500Y-93962500D01*
X143037500Y-93962500D02*
X144750000Y-93962500D01*
%TO.N,/[1]Power/LED_PWR_A*%
X146462500Y-95537500D02*
X146500000Y-95575000D01*
X144750000Y-95537500D02*
X146462500Y-95537500D01*
%TO.N,Net-(D508-A)*%
X116000000Y-124750000D02*
X116000000Y-123000000D01*
X115000000Y-125750000D02*
X116000000Y-124750000D01*
X109500000Y-123000000D02*
X116000000Y-123000000D01*
X114500000Y-125750000D02*
X115000000Y-125750000D01*
%TO.N,/[6]I2C_Peripherals/PCF_VDD*%
X145750000Y-75650000D02*
X145750000Y-76500000D01*
X145750000Y-76500000D02*
X145750000Y-77600000D01*
X143725000Y-76725000D02*
X142950000Y-76725000D01*
X144000000Y-76500000D02*
X143750000Y-76750000D01*
X143750000Y-76750000D02*
X143725000Y-76725000D01*
X145750000Y-76500000D02*
X144000000Y-76500000D01*
%TO.N,Net-(D509-A)*%
X126000000Y-124750000D02*
X126000000Y-123000000D01*
X119500000Y-123000000D02*
X126000000Y-123000000D01*
X125000000Y-125750000D02*
X126000000Y-124750000D01*
X124500000Y-125750000D02*
X125000000Y-125750000D01*
%TO.N,Net-(D510-A)*%
X136000000Y-124750000D02*
X136000000Y-123000000D01*
X129500000Y-123000000D02*
X136000000Y-123000000D01*
X134500000Y-125750000D02*
X135000000Y-125750000D01*
X135000000Y-125750000D02*
X136000000Y-124750000D01*
%TO.N,Net-(D511-A)*%
X146000000Y-124750000D02*
X146000000Y-123000000D01*
X144500000Y-125750000D02*
X145000000Y-125750000D01*
X145000000Y-125750000D02*
X146000000Y-124750000D01*
X139500000Y-123000000D02*
X146000000Y-123000000D01*
D65*
%TO.N,/[3]PCM5102/FLT*%
X54075000Y-81500000D02*
X56800000Y-81500000D01*
D66*
%TO.N,Net-(Q100-G)*%
X138750000Y-93925000D02*
X140687500Y-93925000D01*
X140687500Y-93925000D02*
X140812500Y-93800000D01*
%TO.N,Net-(Q500-G)*%
X110687500Y-93925000D02*
X110812500Y-93800000D01*
X108750000Y-93925000D02*
X110687500Y-93925000D01*
%TO.N,Net-(Q501-G)*%
X120687500Y-93925000D02*
X120812500Y-93800000D01*
X118750000Y-93925000D02*
X120687500Y-93925000D01*
%TO.N,Net-(Q502-G)*%
X128750000Y-93925000D02*
X130687500Y-93925000D01*
X130687500Y-93925000D02*
X130812500Y-93800000D01*
%TO.N,Net-(R500-Pad2)*%
X135000000Y-129250000D02*
X142250000Y-129250000D01*
X108200000Y-127200000D02*
X113450000Y-127200000D01*
X100575000Y-90000000D02*
X101000000Y-90000000D01*
X101000000Y-90000000D02*
X103250000Y-92250000D01*
X113450000Y-127200000D02*
X114000000Y-127750000D01*
X124250000Y-127750000D02*
X124975000Y-128475000D01*
X142250000Y-129250000D02*
X142500000Y-129000000D01*
X103250000Y-92250000D02*
X103250000Y-122250000D01*
X134225000Y-128475000D02*
X135000000Y-129250000D01*
X114000000Y-127750000D02*
X124250000Y-127750000D01*
X103250000Y-122250000D02*
X108200000Y-127200000D01*
X124975000Y-128475000D02*
X134225000Y-128475000D01*
%TO.N,Net-(R501-Pad2)*%
X113500000Y-128500000D02*
X124000000Y-128500000D01*
X100575000Y-92250000D02*
X101250000Y-92250000D01*
X107600000Y-127850000D02*
X112850000Y-127850000D01*
X124650000Y-129150000D02*
X131900000Y-129150000D01*
X101250000Y-92250000D02*
X102500000Y-93500000D01*
X102500000Y-93500000D02*
X102500000Y-122750000D01*
X112850000Y-127850000D02*
X113500000Y-128500000D01*
X124000000Y-128500000D02*
X124650000Y-129150000D01*
X131900000Y-129150000D02*
X131975000Y-129225000D01*
X102500000Y-122750000D02*
X107600000Y-127850000D01*
%TO.N,/[5]Macro_Pad/USR_LED_0_K*%
X112687500Y-94750000D02*
X112687500Y-94312500D01*
X113037500Y-93962500D02*
X114750000Y-93962500D01*
X112687500Y-94312500D02*
X113037500Y-93962500D01*
%TO.N,/[5]Macro_Pad/USR_LED_0_A*%
X116650000Y-95587500D02*
X116687500Y-95625000D01*
X114750000Y-95537500D02*
X116462500Y-95537500D01*
X116462500Y-95537500D02*
X116500000Y-95575000D01*
%TO.N,/[5]Macro_Pad/USR_LED_1_A*%
X126462500Y-95537500D02*
X126500000Y-95575000D01*
X124750000Y-95537500D02*
X126462500Y-95537500D01*
%TO.N,/[5]Macro_Pad/USR_LED_1_K*%
X123037500Y-93962500D02*
X124750000Y-93962500D01*
X122687500Y-94312500D02*
X123037500Y-93962500D01*
X122687500Y-94750000D02*
X122687500Y-94312500D01*
%TO.N,/[5]Macro_Pad/USR_LED_2_K*%
X132687500Y-94312500D02*
X133037500Y-93962500D01*
X133037500Y-93962500D02*
X134750000Y-93962500D01*
X132687500Y-94750000D02*
X132687500Y-94312500D01*
%TO.N,/[5]Macro_Pad/USR_LED_2_A*%
X136462500Y-95537500D02*
X136500000Y-95575000D01*
X134750000Y-95537500D02*
X136462500Y-95537500D01*
%TO.N,Net-(R502-Pad2)*%
X112580762Y-128500000D02*
X113330762Y-129250000D01*
X107000000Y-128500000D02*
X112580762Y-128500000D01*
X113330762Y-129250000D02*
X121750000Y-129250000D01*
X101750000Y-98000000D02*
X101750000Y-123250000D01*
X101250000Y-97500000D02*
X101750000Y-98000000D01*
X101750000Y-123250000D02*
X107000000Y-128500000D01*
X100575000Y-97500000D02*
X101250000Y-97500000D01*
%TO.N,Net-(R503-Pad2)*%
X101000000Y-100425000D02*
X100575000Y-100000000D01*
X111000000Y-129250000D02*
X106500000Y-129250000D01*
X101000000Y-123750000D02*
X101000000Y-100425000D01*
X106500000Y-129250000D02*
X101000000Y-123750000D01*
D65*
%TO.N,/[1]Power/SW_3V3*%
X120550000Y-57500000D02*
X121250000Y-57500000D01*
D66*
X121250000Y-57500000D02*
X123925000Y-57500000D01*
D65*
%TO.N,/[1]Power/EN_3V3*%
X120325000Y-60175000D02*
X121500000Y-59000000D01*
X122500000Y-56250000D02*
X121800000Y-56950000D01*
X120325000Y-60250000D02*
X120325000Y-60175000D01*
X120600000Y-56950000D02*
X120550000Y-57000000D01*
X121800000Y-56950000D02*
X120600000Y-56950000D01*
%TO.N,/[3]PCM5102/OUTR*%
X59000000Y-75525000D02*
X59000000Y-70250000D01*
X58500000Y-69750000D02*
X58500000Y-68162500D01*
X59000000Y-70250000D02*
X58500000Y-69750000D01*
%TO.N,/[3]PCM5102/OUTL*%
X59650000Y-70350000D02*
X60750000Y-69250000D01*
X59650000Y-75525000D02*
X59650000Y-70350000D01*
X60750000Y-69250000D02*
X60750000Y-68162500D01*
%TO.N,/[3]PCM5102/LRCLK*%
X59475000Y-83675000D02*
X59650000Y-83500000D01*
X59650000Y-83500000D02*
X59650000Y-81250000D01*
%TO.N,/[3]PCM5102/DIN*%
X59000000Y-82425000D02*
X59000000Y-81250000D01*
X57750000Y-83675000D02*
X59000000Y-82425000D01*
%TO.N,/[3]PCM5102/BCK*%
X57525000Y-82975000D02*
X58350000Y-82150000D01*
X55975000Y-83675000D02*
X56675000Y-82975000D01*
X58350000Y-82150000D02*
X58350000Y-81250000D01*
X56675000Y-82975000D02*
X57525000Y-82975000D01*
%TO.N,/[3]PCM5102/SCK*%
X57399999Y-82287500D02*
X57700000Y-81987499D01*
X57700000Y-81987499D02*
X57700000Y-81250000D01*
X54075000Y-83250000D02*
X55037500Y-82287500D01*
X55037500Y-82287500D02*
X57399999Y-82287500D01*
%TO.N,/[6]I2C_Peripherals/OSCO*%
X138250000Y-70250000D02*
X139250000Y-71250000D01*
X141862499Y-71250000D02*
X142300000Y-71687501D01*
X139200000Y-67550000D02*
X138250000Y-68500000D01*
X138250000Y-68500000D02*
X138250000Y-70250000D01*
X142300000Y-71687501D02*
X142300000Y-72500000D01*
X140800000Y-67550000D02*
X139200000Y-67550000D01*
X139250000Y-71250000D02*
X141862499Y-71250000D01*
%TO.N,/[3]PCM5102/DEMP*%
X54075000Y-76250000D02*
X55000000Y-76250000D01*
X55000000Y-76250000D02*
X55725000Y-75525000D01*
X55725000Y-75525000D02*
X57050000Y-75525000D01*
%TO.N,/[3]PCM5102/XSMT*%
X61250000Y-85250000D02*
X61200000Y-85200000D01*
X54075000Y-78000000D02*
X55250000Y-78000000D01*
X60950000Y-80594044D02*
X60950000Y-81250000D01*
X60950000Y-82390318D02*
X60950000Y-81250000D01*
X61200000Y-82640318D02*
X60950000Y-82390318D01*
X61200000Y-85200000D02*
X61200000Y-82640318D01*
%TO.N,/[3]PCM5102/FMT*%
X54075000Y-79750000D02*
X54325000Y-79500000D01*
X60300000Y-82376714D02*
X60300000Y-81250000D01*
X60550000Y-84600000D02*
X60750000Y-84400000D01*
X54075000Y-79750000D02*
X55250000Y-79750000D01*
X60750000Y-84400000D02*
X60750000Y-82826714D01*
X60300000Y-80594044D02*
X60300000Y-81250000D01*
X60750000Y-82826714D02*
X60300000Y-82376714D01*
D66*
%TO.N,/[1]Power/+5V_FILT_2*%
X60750000Y-93912500D02*
X58500000Y-93912500D01*
X53525000Y-94000000D02*
X58412500Y-94000000D01*
X52800000Y-94725000D02*
X53525000Y-94000000D01*
X58500000Y-93912500D02*
X58412500Y-94000000D01*
%TO.N,+3.3VA_INMP*%
X60750000Y-102250000D02*
X60750000Y-116940000D01*
X59750000Y-89250000D02*
X60250000Y-88750000D01*
X58500000Y-91500000D02*
X58500000Y-90275000D01*
X61060000Y-102250000D02*
X60750000Y-102250000D01*
X59750000Y-90500000D02*
X59750000Y-89250000D01*
X60750000Y-98250000D02*
X60750000Y-102250000D01*
X62750000Y-96250000D02*
X60750000Y-98250000D01*
X62250000Y-88750000D02*
X62750000Y-89250000D01*
X62750000Y-89250000D02*
X62750000Y-96250000D01*
X60750000Y-116940000D02*
X63810000Y-120000000D01*
X60400000Y-98250000D02*
X60750000Y-98250000D01*
X58500000Y-90275000D02*
X58225000Y-90000000D01*
X63810000Y-105000000D02*
X61060000Y-102250000D01*
X58500000Y-92500000D02*
X58500000Y-91500000D01*
X58500000Y-91500000D02*
X58750000Y-91500000D01*
X56190000Y-102460000D02*
X60400000Y-98250000D01*
X58750000Y-91500000D02*
X59750000Y-90500000D01*
X60250000Y-88750000D02*
X62250000Y-88750000D01*
%TD*%
%TA.AperFunction,Conductor*%
%TO.N,GND*%
G36*
X67515677Y-88519685D02*
G01*
X67536319Y-88536319D01*
X67713681Y-88713681D01*
X67747166Y-88775004D01*
X67750000Y-88801362D01*
X67750000Y-90942968D01*
X67730315Y-91010007D01*
X67706698Y-91037116D01*
X66034827Y-92470148D01*
X65971116Y-92498831D01*
X65954129Y-92500000D01*
X63801362Y-92500000D01*
X63734323Y-92480315D01*
X63713681Y-92463681D01*
X63536819Y-92286819D01*
X63503334Y-92225496D01*
X63500500Y-92199138D01*
X63500500Y-90050862D01*
X63520185Y-89983823D01*
X63536819Y-89963181D01*
X64963681Y-88536319D01*
X65025004Y-88502834D01*
X65051362Y-88500000D01*
X67448638Y-88500000D01*
X67515677Y-88519685D01*
G37*
%TD.AperFunction*%
%TD*%
%TA.AperFunction,Conductor*%
%TO.N,GND*%
G36*
X55765677Y-88519685D02*
G01*
X55786319Y-88536319D01*
X55963681Y-88713681D01*
X55997166Y-88775004D01*
X56000000Y-88801362D01*
X56000000Y-90942968D01*
X55980315Y-91010007D01*
X55956698Y-91037116D01*
X54284827Y-92470148D01*
X54221116Y-92498831D01*
X54204129Y-92500000D01*
X52051362Y-92500000D01*
X51984323Y-92480315D01*
X51963681Y-92463681D01*
X51786319Y-92286319D01*
X51752834Y-92224996D01*
X51750000Y-92198638D01*
X51750000Y-90051362D01*
X51769685Y-89984323D01*
X51786319Y-89963681D01*
X53213681Y-88536319D01*
X53275004Y-88502834D01*
X53301362Y-88500000D01*
X55698638Y-88500000D01*
X55765677Y-88519685D01*
G37*
%TD.AperFunction*%
%TD*%
%TA.AperFunction,Conductor*%
%TO.N,GND*%
G36*
X65265677Y-82769685D02*
G01*
X65286319Y-82786319D01*
X67463681Y-84963681D01*
X67497166Y-85025004D01*
X67500000Y-85051362D01*
X67500000Y-85948638D01*
X67480315Y-86015677D01*
X67463681Y-86036319D01*
X67436819Y-86063181D01*
X67375496Y-86096666D01*
X67349138Y-86099500D01*
X64188602Y-86099500D01*
X64121563Y-86079815D01*
X64075808Y-86027011D01*
X64065244Y-85962897D01*
X64075499Y-85862516D01*
X64075500Y-85862509D01*
X64075499Y-84912492D01*
X64064999Y-84809703D01*
X64064361Y-84807778D01*
X64007543Y-84636311D01*
X64009123Y-84635787D01*
X64000000Y-84594628D01*
X64000000Y-84250000D01*
X63786319Y-84036319D01*
X63752834Y-83974996D01*
X63750000Y-83948638D01*
X63750000Y-83051362D01*
X63769685Y-82984323D01*
X63786319Y-82963681D01*
X63963681Y-82786319D01*
X64025004Y-82752834D01*
X64051362Y-82750000D01*
X65198638Y-82750000D01*
X65265677Y-82769685D01*
G37*
%TD.AperFunction*%
%TD*%
%TA.AperFunction,Conductor*%
%TO.N,GND*%
G36*
X68204309Y-76269685D02*
G01*
X68224951Y-76286319D01*
X68963181Y-77024549D01*
X68996666Y-77085872D01*
X68999500Y-77112230D01*
X68999500Y-79699138D01*
X68979815Y-79766177D01*
X68963181Y-79786819D01*
X68536319Y-80213681D01*
X68474996Y-80247166D01*
X68448638Y-80250000D01*
X64301362Y-80250000D01*
X64234323Y-80230315D01*
X64213681Y-80213681D01*
X63786319Y-79786319D01*
X63752834Y-79724996D01*
X63750000Y-79698638D01*
X63750000Y-76801361D01*
X63769685Y-76734322D01*
X63786314Y-76713685D01*
X64194240Y-76305759D01*
X64255559Y-76272277D01*
X64320917Y-76275736D01*
X64327292Y-76277849D01*
X64426655Y-76288000D01*
X65023344Y-76287999D01*
X65023352Y-76287998D01*
X65023355Y-76287998D01*
X65077760Y-76282440D01*
X65122708Y-76277849D01*
X65187757Y-76256293D01*
X65226761Y-76250000D01*
X68137270Y-76250000D01*
X68204309Y-76269685D01*
G37*
%TD.AperFunction*%
%TD*%
%TA.AperFunction,Conductor*%
%TO.N,GND*%
G36*
X71632558Y-94768461D02*
G01*
X71780659Y-94859810D01*
X71780660Y-94859810D01*
X71780666Y-94859814D01*
X71871143Y-94889795D01*
X71919820Y-94919820D01*
X71963681Y-94963681D01*
X71997166Y-95025004D01*
X72000000Y-95051362D01*
X72000000Y-95948638D01*
X71980315Y-96015677D01*
X71963681Y-96036319D01*
X71786319Y-96213681D01*
X71724996Y-96247166D01*
X71698638Y-96250000D01*
X70037544Y-96250000D01*
X69970505Y-96230315D01*
X69968761Y-96229174D01*
X69305217Y-95786811D01*
X69260356Y-95733246D01*
X69250000Y-95683637D01*
X69250000Y-95551362D01*
X69269685Y-95484323D01*
X69286318Y-95463682D01*
X69341761Y-95408238D01*
X69403082Y-95374754D01*
X69422800Y-95372279D01*
X69422792Y-95372158D01*
X69496940Y-95366855D01*
X69634992Y-95326319D01*
X69756032Y-95248531D01*
X69850254Y-95139794D01*
X69890640Y-95051362D01*
X69901315Y-95027988D01*
X69947070Y-94975184D01*
X70014109Y-94955500D01*
X70900000Y-94955500D01*
X70971940Y-94950355D01*
X71109992Y-94909819D01*
X71231032Y-94832031D01*
X71265030Y-94792796D01*
X71323809Y-94755022D01*
X71358742Y-94750000D01*
X71567462Y-94750000D01*
X71632558Y-94768461D01*
G37*
%TD.AperFunction*%
%TD*%
%TA.AperFunction,Conductor*%
%TO.N,GND*%
G36*
X145265677Y-66519685D02*
G01*
X145286319Y-66536319D01*
X145463681Y-66713681D01*
X145497166Y-66775004D01*
X145500000Y-66801362D01*
X145500000Y-67948638D01*
X145480315Y-68015677D01*
X145463681Y-68036319D01*
X145286319Y-68213681D01*
X145224996Y-68247166D01*
X145198638Y-68250000D01*
X142051362Y-68250000D01*
X141984323Y-68230315D01*
X141963681Y-68213681D01*
X141936818Y-68186818D01*
X141903333Y-68125495D01*
X141900499Y-68099145D01*
X141900499Y-66802128D01*
X141894091Y-66742517D01*
X141884829Y-66717684D01*
X141879845Y-66647993D01*
X141913330Y-66586670D01*
X141913331Y-66586669D01*
X141963683Y-66536318D01*
X142025006Y-66502834D01*
X142051363Y-66500000D01*
X145198638Y-66500000D01*
X145265677Y-66519685D01*
G37*
%TD.AperFunction*%
%TD*%
%TA.AperFunction,Conductor*%
%TO.N,GND*%
G36*
X116015677Y-63269685D02*
G01*
X116036319Y-63286319D01*
X116213681Y-63463681D01*
X116247166Y-63525004D01*
X116250000Y-63551362D01*
X116250000Y-65198638D01*
X116230315Y-65265677D01*
X116213681Y-65286319D01*
X116036319Y-65463681D01*
X115974996Y-65497166D01*
X115948638Y-65500000D01*
X112551362Y-65500000D01*
X112484323Y-65480315D01*
X112463681Y-65463681D01*
X112286319Y-65286319D01*
X112252834Y-65224996D01*
X112250000Y-65198638D01*
X112250000Y-63551362D01*
X112269685Y-63484323D01*
X112286319Y-63463681D01*
X112463681Y-63286319D01*
X112525004Y-63252834D01*
X112551362Y-63250000D01*
X115948638Y-63250000D01*
X116015677Y-63269685D01*
G37*
%TD.AperFunction*%
%TD*%
%TA.AperFunction,Conductor*%
%TO.N,GND*%
G36*
X141342539Y-69019685D02*
G01*
X141388294Y-69072489D01*
X141399500Y-69124000D01*
X141399501Y-70376000D01*
X141379816Y-70443039D01*
X141327013Y-70488794D01*
X141275501Y-70500000D01*
X139471308Y-70500000D01*
X139404269Y-70480315D01*
X139383627Y-70463681D01*
X138936819Y-70016873D01*
X138903334Y-69955550D01*
X138900500Y-69929192D01*
X138900500Y-69150862D01*
X138920185Y-69083823D01*
X138936819Y-69063181D01*
X138963681Y-69036319D01*
X139025004Y-69002834D01*
X139051362Y-69000000D01*
X141275500Y-69000000D01*
X141342539Y-69019685D01*
G37*
%TD.AperFunction*%
%TD*%
%TA.AperFunction,Conductor*%
%TO.N,GND*%
G36*
X132765677Y-56269685D02*
G01*
X132786319Y-56286319D01*
X133213681Y-56713681D01*
X133247166Y-56775004D01*
X133250000Y-56801362D01*
X133250000Y-59448638D01*
X133230315Y-59515677D01*
X133213681Y-59536319D01*
X132786319Y-59963681D01*
X132724996Y-59997166D01*
X132698638Y-60000000D01*
X128801362Y-60000000D01*
X128734323Y-59980315D01*
X128713681Y-59963681D01*
X128286319Y-59536319D01*
X128252834Y-59474996D01*
X128250000Y-59448638D01*
X128250000Y-57002146D01*
X128269685Y-56935107D01*
X128286316Y-56914467D01*
X128914465Y-56286318D01*
X128975788Y-56252834D01*
X129002146Y-56250000D01*
X132698638Y-56250000D01*
X132765677Y-56269685D01*
G37*
%TD.AperFunction*%
%TD*%
%TA.AperFunction,Conductor*%
%TO.N,GND*%
G36*
X59832558Y-94768461D02*
G01*
X59980659Y-94859810D01*
X59980660Y-94859810D01*
X59980666Y-94859814D01*
X60145923Y-94914575D01*
X60194599Y-94944599D01*
X60213681Y-94963681D01*
X60247166Y-95025004D01*
X60250000Y-95051362D01*
X60250000Y-95948638D01*
X60230315Y-96015677D01*
X60213681Y-96036319D01*
X60036319Y-96213681D01*
X59974996Y-96247166D01*
X59948638Y-96250000D01*
X58287544Y-96250000D01*
X58220505Y-96230315D01*
X58218761Y-96229174D01*
X57555217Y-95786811D01*
X57510356Y-95733246D01*
X57500000Y-95683637D01*
X57500000Y-95551362D01*
X57519685Y-95484323D01*
X57536318Y-95463682D01*
X57591761Y-95408238D01*
X57653082Y-95374754D01*
X57672800Y-95372279D01*
X57672792Y-95372158D01*
X57746940Y-95366855D01*
X57884992Y-95326319D01*
X58006032Y-95248531D01*
X58100254Y-95139794D01*
X58140640Y-95051362D01*
X58151315Y-95027988D01*
X58197070Y-94975184D01*
X58264109Y-94955500D01*
X59150000Y-94955500D01*
X59221940Y-94950355D01*
X59359992Y-94909819D01*
X59481032Y-94832031D01*
X59515030Y-94792796D01*
X59573809Y-94755022D01*
X59608742Y-94750000D01*
X59767462Y-94750000D01*
X59832558Y-94768461D01*
G37*
%TD.AperFunction*%
%TD*%
%TA.AperFunction,Conductor*%
%TO.N,GND*%
G36*
X61688718Y-76549214D02*
G01*
X61698368Y-76560351D01*
X61721718Y-76590782D01*
X61847159Y-76687036D01*
X61993238Y-76747544D01*
X62110639Y-76763000D01*
X62389360Y-76762999D01*
X62389361Y-76762999D01*
X62409809Y-76760307D01*
X62506762Y-76747544D01*
X62527545Y-76738934D01*
X62597014Y-76731465D01*
X62622453Y-76738934D01*
X62643238Y-76747544D01*
X62760639Y-76763000D01*
X63039360Y-76762999D01*
X63039361Y-76762999D01*
X63109816Y-76753724D01*
X63178851Y-76764490D01*
X63231106Y-76810870D01*
X63250000Y-76876663D01*
X63250000Y-79898336D01*
X63230315Y-79965375D01*
X63177511Y-80011130D01*
X63109815Y-80021275D01*
X63039361Y-80012000D01*
X62760636Y-80012000D01*
X62643246Y-80027453D01*
X62643237Y-80027456D01*
X62497160Y-80087963D01*
X62497159Y-80087964D01*
X62371718Y-80184218D01*
X62358465Y-80201488D01*
X62302040Y-80242689D01*
X62260092Y-80250000D01*
X62239908Y-80250000D01*
X62172869Y-80230315D01*
X62141535Y-80201489D01*
X62128282Y-80184218D01*
X62002841Y-80087964D01*
X61856762Y-80027456D01*
X61856760Y-80027455D01*
X61739361Y-80012000D01*
X61460636Y-80012000D01*
X61335179Y-80028516D01*
X61334900Y-80026400D01*
X61276313Y-80024995D01*
X61263834Y-80019717D01*
X61263755Y-80019910D01*
X61139744Y-79968543D01*
X61139738Y-79968541D01*
X61014071Y-79943544D01*
X61014069Y-79943544D01*
X60885931Y-79943544D01*
X60885929Y-79943544D01*
X60760261Y-79968541D01*
X60760251Y-79968544D01*
X60672452Y-80004912D01*
X60602983Y-80012381D01*
X60577548Y-80004912D01*
X60489748Y-79968544D01*
X60489738Y-79968541D01*
X60364071Y-79943544D01*
X60364069Y-79943544D01*
X60235931Y-79943544D01*
X60235929Y-79943544D01*
X60110261Y-79968541D01*
X60110255Y-79968543D01*
X59986245Y-80019910D01*
X59985495Y-80018099D01*
X59925936Y-80030490D01*
X59913563Y-80028351D01*
X59789361Y-80012000D01*
X59510636Y-80012000D01*
X59393246Y-80027453D01*
X59393234Y-80027457D01*
X59372450Y-80036066D01*
X59302981Y-80043533D01*
X59277550Y-80036066D01*
X59256765Y-80027457D01*
X59256760Y-80027455D01*
X59139361Y-80012000D01*
X58860636Y-80012000D01*
X58743246Y-80027453D01*
X58743234Y-80027457D01*
X58722450Y-80036066D01*
X58652981Y-80043533D01*
X58627550Y-80036066D01*
X58606765Y-80027457D01*
X58606760Y-80027455D01*
X58489361Y-80012000D01*
X58210636Y-80012000D01*
X58093246Y-80027453D01*
X58093234Y-80027457D01*
X58072450Y-80036066D01*
X58002981Y-80043533D01*
X57977550Y-80036066D01*
X57956765Y-80027457D01*
X57956760Y-80027455D01*
X57839361Y-80012000D01*
X57560636Y-80012000D01*
X57443246Y-80027453D01*
X57443234Y-80027457D01*
X57422450Y-80036066D01*
X57352981Y-80043533D01*
X57327550Y-80036066D01*
X57306765Y-80027457D01*
X57306760Y-80027455D01*
X57189361Y-80012000D01*
X56910641Y-80012000D01*
X56890181Y-80014694D01*
X56821146Y-80003926D01*
X56768892Y-79957544D01*
X56750000Y-79891754D01*
X56750000Y-76883246D01*
X56769685Y-76816207D01*
X56822489Y-76770452D01*
X56890185Y-76760307D01*
X56910639Y-76763000D01*
X57189360Y-76762999D01*
X57189363Y-76762999D01*
X57306753Y-76747546D01*
X57306757Y-76747544D01*
X57306762Y-76747544D01*
X57452841Y-76687036D01*
X57578282Y-76590782D01*
X57601625Y-76560360D01*
X57658051Y-76519158D01*
X57727797Y-76515003D01*
X57788718Y-76549214D01*
X57798368Y-76560351D01*
X57821718Y-76590782D01*
X57947159Y-76687036D01*
X58093238Y-76747544D01*
X58210639Y-76763000D01*
X58489360Y-76762999D01*
X58489361Y-76762999D01*
X58509809Y-76760307D01*
X58606762Y-76747544D01*
X58627545Y-76738934D01*
X58697014Y-76731465D01*
X58722453Y-76738934D01*
X58743238Y-76747544D01*
X58860639Y-76763000D01*
X59139360Y-76762999D01*
X59139361Y-76762999D01*
X59159809Y-76760307D01*
X59256762Y-76747544D01*
X59277545Y-76738934D01*
X59347014Y-76731465D01*
X59372453Y-76738934D01*
X59393238Y-76747544D01*
X59510639Y-76763000D01*
X59789360Y-76762999D01*
X59789361Y-76762999D01*
X59809809Y-76760307D01*
X59906762Y-76747544D01*
X59927545Y-76738934D01*
X59997014Y-76731465D01*
X60022453Y-76738934D01*
X60043238Y-76747544D01*
X60160639Y-76763000D01*
X60439360Y-76762999D01*
X60439361Y-76762999D01*
X60459809Y-76760307D01*
X60556762Y-76747544D01*
X60577545Y-76738934D01*
X60647014Y-76731465D01*
X60672453Y-76738934D01*
X60693238Y-76747544D01*
X60810639Y-76763000D01*
X61089360Y-76762999D01*
X61089363Y-76762999D01*
X61206753Y-76747546D01*
X61206757Y-76747544D01*
X61206762Y-76747544D01*
X61352841Y-76687036D01*
X61478282Y-76590782D01*
X61501625Y-76560360D01*
X61558051Y-76519158D01*
X61627797Y-76515003D01*
X61688718Y-76549214D01*
G37*
%TD.AperFunction*%
%TD*%
M02*
