%TF.GenerationSoftware,KiCad,Pcbnew,8.0.8*%
%TF.CreationDate,2025-04-26T14:11:06+03:00*%
%TF.ProjectId,rpi_pico_media_board,7270695f-7069-4636-9f5f-6d656469615f,rev?*%
%TF.SameCoordinates,Original*%
%TF.FileFunction,Legend,Top*%
%TF.FilePolarity,Positive*%
%FSLAX46Y46*%
G04 Gerber Fmt 4.6, Leading zero omitted, Abs format (unit mm)*
G04 Created by KiCad (PCBNEW 8.0.8) date 2025-04-26 14:11:06*
%MOMM*%
%LPD*%
G01*
G04 APERTURE LIST*
%ADD10C,0.150000*%
%ADD11C,0.100000*%
%ADD12C,0.254000*%
%ADD13C,0.120000*%
%ADD14C,0.250000*%
%ADD15C,0.500000*%
%ADD16C,0.200000*%
%ADD17C,0.500000*%
G04 APERTURE END LIST*
D10*
X141336779Y-89759875D02*
X141336779Y-88759875D01*
X141336779Y-88759875D02*
X141717731Y-88759875D01*
X141717731Y-88759875D02*
X141812969Y-88807494D01*
X141812969Y-88807494D02*
X141860588Y-88855113D01*
X141860588Y-88855113D02*
X141908207Y-88950351D01*
X141908207Y-88950351D02*
X141908207Y-89093208D01*
X141908207Y-89093208D02*
X141860588Y-89188446D01*
X141860588Y-89188446D02*
X141812969Y-89236065D01*
X141812969Y-89236065D02*
X141717731Y-89283684D01*
X141717731Y-89283684D02*
X141336779Y-89283684D01*
X142479636Y-89759875D02*
X142384398Y-89712256D01*
X142384398Y-89712256D02*
X142336779Y-89664636D01*
X142336779Y-89664636D02*
X142289160Y-89569398D01*
X142289160Y-89569398D02*
X142289160Y-89283684D01*
X142289160Y-89283684D02*
X142336779Y-89188446D01*
X142336779Y-89188446D02*
X142384398Y-89140827D01*
X142384398Y-89140827D02*
X142479636Y-89093208D01*
X142479636Y-89093208D02*
X142622493Y-89093208D01*
X142622493Y-89093208D02*
X142717731Y-89140827D01*
X142717731Y-89140827D02*
X142765350Y-89188446D01*
X142765350Y-89188446D02*
X142812969Y-89283684D01*
X142812969Y-89283684D02*
X142812969Y-89569398D01*
X142812969Y-89569398D02*
X142765350Y-89664636D01*
X142765350Y-89664636D02*
X142717731Y-89712256D01*
X142717731Y-89712256D02*
X142622493Y-89759875D01*
X142622493Y-89759875D02*
X142479636Y-89759875D01*
X143146303Y-89093208D02*
X143336779Y-89759875D01*
X143336779Y-89759875D02*
X143527255Y-89283684D01*
X143527255Y-89283684D02*
X143717731Y-89759875D01*
X143717731Y-89759875D02*
X143908207Y-89093208D01*
X144670112Y-89712256D02*
X144574874Y-89759875D01*
X144574874Y-89759875D02*
X144384398Y-89759875D01*
X144384398Y-89759875D02*
X144289160Y-89712256D01*
X144289160Y-89712256D02*
X144241541Y-89617017D01*
X144241541Y-89617017D02*
X144241541Y-89236065D01*
X144241541Y-89236065D02*
X144289160Y-89140827D01*
X144289160Y-89140827D02*
X144384398Y-89093208D01*
X144384398Y-89093208D02*
X144574874Y-89093208D01*
X144574874Y-89093208D02*
X144670112Y-89140827D01*
X144670112Y-89140827D02*
X144717731Y-89236065D01*
X144717731Y-89236065D02*
X144717731Y-89331303D01*
X144717731Y-89331303D02*
X144241541Y-89426541D01*
X145146303Y-89759875D02*
X145146303Y-89093208D01*
X145146303Y-89283684D02*
X145193922Y-89188446D01*
X145193922Y-89188446D02*
X145241541Y-89140827D01*
X145241541Y-89140827D02*
X145336779Y-89093208D01*
X145336779Y-89093208D02*
X145432017Y-89093208D01*
X141860588Y-90417438D02*
X141765350Y-90369819D01*
X141765350Y-90369819D02*
X141622493Y-90369819D01*
X141622493Y-90369819D02*
X141479636Y-90417438D01*
X141479636Y-90417438D02*
X141384398Y-90512676D01*
X141384398Y-90512676D02*
X141336779Y-90607914D01*
X141336779Y-90607914D02*
X141289160Y-90798390D01*
X141289160Y-90798390D02*
X141289160Y-90941247D01*
X141289160Y-90941247D02*
X141336779Y-91131723D01*
X141336779Y-91131723D02*
X141384398Y-91226961D01*
X141384398Y-91226961D02*
X141479636Y-91322200D01*
X141479636Y-91322200D02*
X141622493Y-91369819D01*
X141622493Y-91369819D02*
X141717731Y-91369819D01*
X141717731Y-91369819D02*
X141860588Y-91322200D01*
X141860588Y-91322200D02*
X141908207Y-91274580D01*
X141908207Y-91274580D02*
X141908207Y-90941247D01*
X141908207Y-90941247D02*
X141717731Y-90941247D01*
X142479636Y-91369819D02*
X142384398Y-91322200D01*
X142384398Y-91322200D02*
X142336779Y-91274580D01*
X142336779Y-91274580D02*
X142289160Y-91179342D01*
X142289160Y-91179342D02*
X142289160Y-90893628D01*
X142289160Y-90893628D02*
X142336779Y-90798390D01*
X142336779Y-90798390D02*
X142384398Y-90750771D01*
X142384398Y-90750771D02*
X142479636Y-90703152D01*
X142479636Y-90703152D02*
X142622493Y-90703152D01*
X142622493Y-90703152D02*
X142717731Y-90750771D01*
X142717731Y-90750771D02*
X142765350Y-90798390D01*
X142765350Y-90798390D02*
X142812969Y-90893628D01*
X142812969Y-90893628D02*
X142812969Y-91179342D01*
X142812969Y-91179342D02*
X142765350Y-91274580D01*
X142765350Y-91274580D02*
X142717731Y-91322200D01*
X142717731Y-91322200D02*
X142622493Y-91369819D01*
X142622493Y-91369819D02*
X142479636Y-91369819D01*
X143384398Y-91369819D02*
X143289160Y-91322200D01*
X143289160Y-91322200D02*
X143241541Y-91274580D01*
X143241541Y-91274580D02*
X143193922Y-91179342D01*
X143193922Y-91179342D02*
X143193922Y-90893628D01*
X143193922Y-90893628D02*
X143241541Y-90798390D01*
X143241541Y-90798390D02*
X143289160Y-90750771D01*
X143289160Y-90750771D02*
X143384398Y-90703152D01*
X143384398Y-90703152D02*
X143527255Y-90703152D01*
X143527255Y-90703152D02*
X143622493Y-90750771D01*
X143622493Y-90750771D02*
X143670112Y-90798390D01*
X143670112Y-90798390D02*
X143717731Y-90893628D01*
X143717731Y-90893628D02*
X143717731Y-91179342D01*
X143717731Y-91179342D02*
X143670112Y-91274580D01*
X143670112Y-91274580D02*
X143622493Y-91322200D01*
X143622493Y-91322200D02*
X143527255Y-91369819D01*
X143527255Y-91369819D02*
X143384398Y-91369819D01*
X144574874Y-91369819D02*
X144574874Y-90369819D01*
X144574874Y-91322200D02*
X144479636Y-91369819D01*
X144479636Y-91369819D02*
X144289160Y-91369819D01*
X144289160Y-91369819D02*
X144193922Y-91322200D01*
X144193922Y-91322200D02*
X144146303Y-91274580D01*
X144146303Y-91274580D02*
X144098684Y-91179342D01*
X144098684Y-91179342D02*
X144098684Y-90893628D01*
X144098684Y-90893628D02*
X144146303Y-90798390D01*
X144146303Y-90798390D02*
X144193922Y-90750771D01*
X144193922Y-90750771D02*
X144289160Y-90703152D01*
X144289160Y-90703152D02*
X144479636Y-90703152D01*
X144479636Y-90703152D02*
X144574874Y-90750771D01*
X50860588Y-54667438D02*
X50765350Y-54619819D01*
X50765350Y-54619819D02*
X50622493Y-54619819D01*
X50622493Y-54619819D02*
X50479636Y-54667438D01*
X50479636Y-54667438D02*
X50384398Y-54762676D01*
X50384398Y-54762676D02*
X50336779Y-54857914D01*
X50336779Y-54857914D02*
X50289160Y-55048390D01*
X50289160Y-55048390D02*
X50289160Y-55191247D01*
X50289160Y-55191247D02*
X50336779Y-55381723D01*
X50336779Y-55381723D02*
X50384398Y-55476961D01*
X50384398Y-55476961D02*
X50479636Y-55572200D01*
X50479636Y-55572200D02*
X50622493Y-55619819D01*
X50622493Y-55619819D02*
X50717731Y-55619819D01*
X50717731Y-55619819D02*
X50860588Y-55572200D01*
X50860588Y-55572200D02*
X50908207Y-55524580D01*
X50908207Y-55524580D02*
X50908207Y-55191247D01*
X50908207Y-55191247D02*
X50717731Y-55191247D01*
X64693922Y-54119819D02*
X65265350Y-54119819D01*
X64979636Y-55119819D02*
X64979636Y-54119819D01*
X65503446Y-54119819D02*
X66170112Y-55119819D01*
X66170112Y-54119819D02*
X65503446Y-55119819D01*
X64039160Y-69322200D02*
X64182017Y-69369819D01*
X64182017Y-69369819D02*
X64420112Y-69369819D01*
X64420112Y-69369819D02*
X64515350Y-69322200D01*
X64515350Y-69322200D02*
X64562969Y-69274580D01*
X64562969Y-69274580D02*
X64610588Y-69179342D01*
X64610588Y-69179342D02*
X64610588Y-69084104D01*
X64610588Y-69084104D02*
X64562969Y-68988866D01*
X64562969Y-68988866D02*
X64515350Y-68941247D01*
X64515350Y-68941247D02*
X64420112Y-68893628D01*
X64420112Y-68893628D02*
X64229636Y-68846009D01*
X64229636Y-68846009D02*
X64134398Y-68798390D01*
X64134398Y-68798390D02*
X64086779Y-68750771D01*
X64086779Y-68750771D02*
X64039160Y-68655533D01*
X64039160Y-68655533D02*
X64039160Y-68560295D01*
X64039160Y-68560295D02*
X64086779Y-68465057D01*
X64086779Y-68465057D02*
X64134398Y-68417438D01*
X64134398Y-68417438D02*
X64229636Y-68369819D01*
X64229636Y-68369819D02*
X64467731Y-68369819D01*
X64467731Y-68369819D02*
X64610588Y-68417438D01*
X65610588Y-69274580D02*
X65562969Y-69322200D01*
X65562969Y-69322200D02*
X65420112Y-69369819D01*
X65420112Y-69369819D02*
X65324874Y-69369819D01*
X65324874Y-69369819D02*
X65182017Y-69322200D01*
X65182017Y-69322200D02*
X65086779Y-69226961D01*
X65086779Y-69226961D02*
X65039160Y-69131723D01*
X65039160Y-69131723D02*
X64991541Y-68941247D01*
X64991541Y-68941247D02*
X64991541Y-68798390D01*
X64991541Y-68798390D02*
X65039160Y-68607914D01*
X65039160Y-68607914D02*
X65086779Y-68512676D01*
X65086779Y-68512676D02*
X65182017Y-68417438D01*
X65182017Y-68417438D02*
X65324874Y-68369819D01*
X65324874Y-68369819D02*
X65420112Y-68369819D01*
X65420112Y-68369819D02*
X65562969Y-68417438D01*
X65562969Y-68417438D02*
X65610588Y-68465057D01*
X66515350Y-69369819D02*
X66039160Y-69369819D01*
X66039160Y-69369819D02*
X66039160Y-68369819D01*
X65408207Y-57619819D02*
X65074874Y-57143628D01*
X64836779Y-57619819D02*
X64836779Y-56619819D01*
X64836779Y-56619819D02*
X65217731Y-56619819D01*
X65217731Y-56619819D02*
X65312969Y-56667438D01*
X65312969Y-56667438D02*
X65360588Y-56715057D01*
X65360588Y-56715057D02*
X65408207Y-56810295D01*
X65408207Y-56810295D02*
X65408207Y-56953152D01*
X65408207Y-56953152D02*
X65360588Y-57048390D01*
X65360588Y-57048390D02*
X65312969Y-57096009D01*
X65312969Y-57096009D02*
X65217731Y-57143628D01*
X65217731Y-57143628D02*
X64836779Y-57143628D01*
X65741541Y-56619819D02*
X66408207Y-57619819D01*
X66408207Y-56619819D02*
X65741541Y-57619819D01*
X69380180Y-74836779D02*
X70380180Y-74836779D01*
X70380180Y-74836779D02*
X70380180Y-75217731D01*
X70380180Y-75217731D02*
X70332561Y-75312969D01*
X70332561Y-75312969D02*
X70284942Y-75360588D01*
X70284942Y-75360588D02*
X70189704Y-75408207D01*
X70189704Y-75408207D02*
X70046847Y-75408207D01*
X70046847Y-75408207D02*
X69951609Y-75360588D01*
X69951609Y-75360588D02*
X69903990Y-75312969D01*
X69903990Y-75312969D02*
X69856371Y-75217731D01*
X69856371Y-75217731D02*
X69856371Y-74836779D01*
X69475419Y-76408207D02*
X69427800Y-76360588D01*
X69427800Y-76360588D02*
X69380180Y-76217731D01*
X69380180Y-76217731D02*
X69380180Y-76122493D01*
X69380180Y-76122493D02*
X69427800Y-75979636D01*
X69427800Y-75979636D02*
X69523038Y-75884398D01*
X69523038Y-75884398D02*
X69618276Y-75836779D01*
X69618276Y-75836779D02*
X69808752Y-75789160D01*
X69808752Y-75789160D02*
X69951609Y-75789160D01*
X69951609Y-75789160D02*
X70142085Y-75836779D01*
X70142085Y-75836779D02*
X70237323Y-75884398D01*
X70237323Y-75884398D02*
X70332561Y-75979636D01*
X70332561Y-75979636D02*
X70380180Y-76122493D01*
X70380180Y-76122493D02*
X70380180Y-76217731D01*
X70380180Y-76217731D02*
X70332561Y-76360588D01*
X70332561Y-76360588D02*
X70284942Y-76408207D01*
X69380180Y-76836779D02*
X70380180Y-76836779D01*
X70380180Y-76836779D02*
X69665895Y-77170112D01*
X69665895Y-77170112D02*
X70380180Y-77503445D01*
X70380180Y-77503445D02*
X69380180Y-77503445D01*
X70380180Y-78455826D02*
X70380180Y-77979636D01*
X70380180Y-77979636D02*
X69903990Y-77932017D01*
X69903990Y-77932017D02*
X69951609Y-77979636D01*
X69951609Y-77979636D02*
X69999228Y-78074874D01*
X69999228Y-78074874D02*
X69999228Y-78312969D01*
X69999228Y-78312969D02*
X69951609Y-78408207D01*
X69951609Y-78408207D02*
X69903990Y-78455826D01*
X69903990Y-78455826D02*
X69808752Y-78503445D01*
X69808752Y-78503445D02*
X69570657Y-78503445D01*
X69570657Y-78503445D02*
X69475419Y-78455826D01*
X69475419Y-78455826D02*
X69427800Y-78408207D01*
X69427800Y-78408207D02*
X69380180Y-78312969D01*
X69380180Y-78312969D02*
X69380180Y-78074874D01*
X69380180Y-78074874D02*
X69427800Y-77979636D01*
X69427800Y-77979636D02*
X69475419Y-77932017D01*
X69380180Y-79455826D02*
X69380180Y-78884398D01*
X69380180Y-79170112D02*
X70380180Y-79170112D01*
X70380180Y-79170112D02*
X70237323Y-79074874D01*
X70237323Y-79074874D02*
X70142085Y-78979636D01*
X70142085Y-78979636D02*
X70094466Y-78884398D01*
X70380180Y-80074874D02*
X70380180Y-80170112D01*
X70380180Y-80170112D02*
X70332561Y-80265350D01*
X70332561Y-80265350D02*
X70284942Y-80312969D01*
X70284942Y-80312969D02*
X70189704Y-80360588D01*
X70189704Y-80360588D02*
X69999228Y-80408207D01*
X69999228Y-80408207D02*
X69761133Y-80408207D01*
X69761133Y-80408207D02*
X69570657Y-80360588D01*
X69570657Y-80360588D02*
X69475419Y-80312969D01*
X69475419Y-80312969D02*
X69427800Y-80265350D01*
X69427800Y-80265350D02*
X69380180Y-80170112D01*
X69380180Y-80170112D02*
X69380180Y-80074874D01*
X69380180Y-80074874D02*
X69427800Y-79979636D01*
X69427800Y-79979636D02*
X69475419Y-79932017D01*
X69475419Y-79932017D02*
X69570657Y-79884398D01*
X69570657Y-79884398D02*
X69761133Y-79836779D01*
X69761133Y-79836779D02*
X69999228Y-79836779D01*
X69999228Y-79836779D02*
X70189704Y-79884398D01*
X70189704Y-79884398D02*
X70284942Y-79932017D01*
X70284942Y-79932017D02*
X70332561Y-79979636D01*
X70332561Y-79979636D02*
X70380180Y-80074874D01*
X70284942Y-80789160D02*
X70332561Y-80836779D01*
X70332561Y-80836779D02*
X70380180Y-80932017D01*
X70380180Y-80932017D02*
X70380180Y-81170112D01*
X70380180Y-81170112D02*
X70332561Y-81265350D01*
X70332561Y-81265350D02*
X70284942Y-81312969D01*
X70284942Y-81312969D02*
X70189704Y-81360588D01*
X70189704Y-81360588D02*
X70094466Y-81360588D01*
X70094466Y-81360588D02*
X69951609Y-81312969D01*
X69951609Y-81312969D02*
X69380180Y-80741541D01*
X69380180Y-80741541D02*
X69380180Y-81360588D01*
X69665895Y-81741541D02*
X69665895Y-82217731D01*
X69380180Y-81646303D02*
X70380180Y-81979636D01*
X70380180Y-81979636D02*
X69380180Y-82312969D01*
X64491541Y-59119819D02*
X65110588Y-59119819D01*
X65110588Y-59119819D02*
X64777255Y-59500771D01*
X64777255Y-59500771D02*
X64920112Y-59500771D01*
X64920112Y-59500771D02*
X65015350Y-59548390D01*
X65015350Y-59548390D02*
X65062969Y-59596009D01*
X65062969Y-59596009D02*
X65110588Y-59691247D01*
X65110588Y-59691247D02*
X65110588Y-59929342D01*
X65110588Y-59929342D02*
X65062969Y-60024580D01*
X65062969Y-60024580D02*
X65015350Y-60072200D01*
X65015350Y-60072200D02*
X64920112Y-60119819D01*
X64920112Y-60119819D02*
X64634398Y-60119819D01*
X64634398Y-60119819D02*
X64539160Y-60072200D01*
X64539160Y-60072200D02*
X64491541Y-60024580D01*
X65396303Y-59119819D02*
X65729636Y-60119819D01*
X65729636Y-60119819D02*
X66062969Y-59119819D01*
X66301065Y-59119819D02*
X66920112Y-59119819D01*
X66920112Y-59119819D02*
X66586779Y-59500771D01*
X66586779Y-59500771D02*
X66729636Y-59500771D01*
X66729636Y-59500771D02*
X66824874Y-59548390D01*
X66824874Y-59548390D02*
X66872493Y-59596009D01*
X66872493Y-59596009D02*
X66920112Y-59691247D01*
X66920112Y-59691247D02*
X66920112Y-59929342D01*
X66920112Y-59929342D02*
X66872493Y-60024580D01*
X66872493Y-60024580D02*
X66824874Y-60072200D01*
X66824874Y-60072200D02*
X66729636Y-60119819D01*
X66729636Y-60119819D02*
X66443922Y-60119819D01*
X66443922Y-60119819D02*
X66348684Y-60072200D01*
X66348684Y-60072200D02*
X66301065Y-60024580D01*
X50908207Y-60619819D02*
X50574874Y-60143628D01*
X50336779Y-60619819D02*
X50336779Y-59619819D01*
X50336779Y-59619819D02*
X50717731Y-59619819D01*
X50717731Y-59619819D02*
X50812969Y-59667438D01*
X50812969Y-59667438D02*
X50860588Y-59715057D01*
X50860588Y-59715057D02*
X50908207Y-59810295D01*
X50908207Y-59810295D02*
X50908207Y-59953152D01*
X50908207Y-59953152D02*
X50860588Y-60048390D01*
X50860588Y-60048390D02*
X50812969Y-60096009D01*
X50812969Y-60096009D02*
X50717731Y-60143628D01*
X50717731Y-60143628D02*
X50336779Y-60143628D01*
X65860588Y-51667438D02*
X65765350Y-51619819D01*
X65765350Y-51619819D02*
X65622493Y-51619819D01*
X65622493Y-51619819D02*
X65479636Y-51667438D01*
X65479636Y-51667438D02*
X65384398Y-51762676D01*
X65384398Y-51762676D02*
X65336779Y-51857914D01*
X65336779Y-51857914D02*
X65289160Y-52048390D01*
X65289160Y-52048390D02*
X65289160Y-52191247D01*
X65289160Y-52191247D02*
X65336779Y-52381723D01*
X65336779Y-52381723D02*
X65384398Y-52476961D01*
X65384398Y-52476961D02*
X65479636Y-52572200D01*
X65479636Y-52572200D02*
X65622493Y-52619819D01*
X65622493Y-52619819D02*
X65717731Y-52619819D01*
X65717731Y-52619819D02*
X65860588Y-52572200D01*
X65860588Y-52572200D02*
X65908207Y-52524580D01*
X65908207Y-52524580D02*
X65908207Y-52191247D01*
X65908207Y-52191247D02*
X65717731Y-52191247D01*
X64241541Y-70869819D02*
X64860588Y-70869819D01*
X64860588Y-70869819D02*
X64527255Y-71250771D01*
X64527255Y-71250771D02*
X64670112Y-71250771D01*
X64670112Y-71250771D02*
X64765350Y-71298390D01*
X64765350Y-71298390D02*
X64812969Y-71346009D01*
X64812969Y-71346009D02*
X64860588Y-71441247D01*
X64860588Y-71441247D02*
X64860588Y-71679342D01*
X64860588Y-71679342D02*
X64812969Y-71774580D01*
X64812969Y-71774580D02*
X64765350Y-71822200D01*
X64765350Y-71822200D02*
X64670112Y-71869819D01*
X64670112Y-71869819D02*
X64384398Y-71869819D01*
X64384398Y-71869819D02*
X64289160Y-71822200D01*
X64289160Y-71822200D02*
X64241541Y-71774580D01*
X65146303Y-70869819D02*
X65479636Y-71869819D01*
X65479636Y-71869819D02*
X65812969Y-70869819D01*
X66051065Y-70869819D02*
X66670112Y-70869819D01*
X66670112Y-70869819D02*
X66336779Y-71250771D01*
X66336779Y-71250771D02*
X66479636Y-71250771D01*
X66479636Y-71250771D02*
X66574874Y-71298390D01*
X66574874Y-71298390D02*
X66622493Y-71346009D01*
X66622493Y-71346009D02*
X66670112Y-71441247D01*
X66670112Y-71441247D02*
X66670112Y-71679342D01*
X66670112Y-71679342D02*
X66622493Y-71774580D01*
X66622493Y-71774580D02*
X66574874Y-71822200D01*
X66574874Y-71822200D02*
X66479636Y-71869819D01*
X66479636Y-71869819D02*
X66193922Y-71869819D01*
X66193922Y-71869819D02*
X66098684Y-71822200D01*
X66098684Y-71822200D02*
X66051065Y-71774580D01*
X65860588Y-63167438D02*
X65765350Y-63119819D01*
X65765350Y-63119819D02*
X65622493Y-63119819D01*
X65622493Y-63119819D02*
X65479636Y-63167438D01*
X65479636Y-63167438D02*
X65384398Y-63262676D01*
X65384398Y-63262676D02*
X65336779Y-63357914D01*
X65336779Y-63357914D02*
X65289160Y-63548390D01*
X65289160Y-63548390D02*
X65289160Y-63691247D01*
X65289160Y-63691247D02*
X65336779Y-63881723D01*
X65336779Y-63881723D02*
X65384398Y-63976961D01*
X65384398Y-63976961D02*
X65479636Y-64072200D01*
X65479636Y-64072200D02*
X65622493Y-64119819D01*
X65622493Y-64119819D02*
X65717731Y-64119819D01*
X65717731Y-64119819D02*
X65860588Y-64072200D01*
X65860588Y-64072200D02*
X65908207Y-64024580D01*
X65908207Y-64024580D02*
X65908207Y-63691247D01*
X65908207Y-63691247D02*
X65717731Y-63691247D01*
X64039160Y-66822200D02*
X64182017Y-66869819D01*
X64182017Y-66869819D02*
X64420112Y-66869819D01*
X64420112Y-66869819D02*
X64515350Y-66822200D01*
X64515350Y-66822200D02*
X64562969Y-66774580D01*
X64562969Y-66774580D02*
X64610588Y-66679342D01*
X64610588Y-66679342D02*
X64610588Y-66584104D01*
X64610588Y-66584104D02*
X64562969Y-66488866D01*
X64562969Y-66488866D02*
X64515350Y-66441247D01*
X64515350Y-66441247D02*
X64420112Y-66393628D01*
X64420112Y-66393628D02*
X64229636Y-66346009D01*
X64229636Y-66346009D02*
X64134398Y-66298390D01*
X64134398Y-66298390D02*
X64086779Y-66250771D01*
X64086779Y-66250771D02*
X64039160Y-66155533D01*
X64039160Y-66155533D02*
X64039160Y-66060295D01*
X64039160Y-66060295D02*
X64086779Y-65965057D01*
X64086779Y-65965057D02*
X64134398Y-65917438D01*
X64134398Y-65917438D02*
X64229636Y-65869819D01*
X64229636Y-65869819D02*
X64467731Y-65869819D01*
X64467731Y-65869819D02*
X64610588Y-65917438D01*
X65039160Y-66869819D02*
X65039160Y-65869819D01*
X65039160Y-65869819D02*
X65277255Y-65869819D01*
X65277255Y-65869819D02*
X65420112Y-65917438D01*
X65420112Y-65917438D02*
X65515350Y-66012676D01*
X65515350Y-66012676D02*
X65562969Y-66107914D01*
X65562969Y-66107914D02*
X65610588Y-66298390D01*
X65610588Y-66298390D02*
X65610588Y-66441247D01*
X65610588Y-66441247D02*
X65562969Y-66631723D01*
X65562969Y-66631723D02*
X65515350Y-66726961D01*
X65515350Y-66726961D02*
X65420112Y-66822200D01*
X65420112Y-66822200D02*
X65277255Y-66869819D01*
X65277255Y-66869819D02*
X65039160Y-66869819D01*
X65991541Y-66584104D02*
X66467731Y-66584104D01*
X65896303Y-66869819D02*
X66229636Y-65869819D01*
X66229636Y-65869819D02*
X66562969Y-66869819D01*
X53336779Y-97869819D02*
X53336779Y-96869819D01*
X53812969Y-97869819D02*
X53812969Y-96869819D01*
X53812969Y-96869819D02*
X54384397Y-97869819D01*
X54384397Y-97869819D02*
X54384397Y-96869819D01*
X54860588Y-97869819D02*
X54860588Y-96869819D01*
X54860588Y-96869819D02*
X55193921Y-97584104D01*
X55193921Y-97584104D02*
X55527254Y-96869819D01*
X55527254Y-96869819D02*
X55527254Y-97869819D01*
X56003445Y-97869819D02*
X56003445Y-96869819D01*
X56003445Y-96869819D02*
X56384397Y-96869819D01*
X56384397Y-96869819D02*
X56479635Y-96917438D01*
X56479635Y-96917438D02*
X56527254Y-96965057D01*
X56527254Y-96965057D02*
X56574873Y-97060295D01*
X56574873Y-97060295D02*
X56574873Y-97203152D01*
X56574873Y-97203152D02*
X56527254Y-97298390D01*
X56527254Y-97298390D02*
X56479635Y-97346009D01*
X56479635Y-97346009D02*
X56384397Y-97393628D01*
X56384397Y-97393628D02*
X56003445Y-97393628D01*
X57765350Y-97869819D02*
X57765350Y-96869819D01*
X57765350Y-96869819D02*
X58146302Y-96869819D01*
X58146302Y-96869819D02*
X58241540Y-96917438D01*
X58241540Y-96917438D02*
X58289159Y-96965057D01*
X58289159Y-96965057D02*
X58336778Y-97060295D01*
X58336778Y-97060295D02*
X58336778Y-97203152D01*
X58336778Y-97203152D02*
X58289159Y-97298390D01*
X58289159Y-97298390D02*
X58241540Y-97346009D01*
X58241540Y-97346009D02*
X58146302Y-97393628D01*
X58146302Y-97393628D02*
X57765350Y-97393628D01*
X58670112Y-96869819D02*
X58908207Y-97869819D01*
X58908207Y-97869819D02*
X59098683Y-97155533D01*
X59098683Y-97155533D02*
X59289159Y-97869819D01*
X59289159Y-97869819D02*
X59527255Y-96869819D01*
X60479635Y-97869819D02*
X60146302Y-97393628D01*
X59908207Y-97869819D02*
X59908207Y-96869819D01*
X59908207Y-96869819D02*
X60289159Y-96869819D01*
X60289159Y-96869819D02*
X60384397Y-96917438D01*
X60384397Y-96917438D02*
X60432016Y-96965057D01*
X60432016Y-96965057D02*
X60479635Y-97060295D01*
X60479635Y-97060295D02*
X60479635Y-97203152D01*
X60479635Y-97203152D02*
X60432016Y-97298390D01*
X60432016Y-97298390D02*
X60384397Y-97346009D01*
X60384397Y-97346009D02*
X60289159Y-97393628D01*
X60289159Y-97393628D02*
X59908207Y-97393628D01*
X65336779Y-97869819D02*
X65336779Y-96869819D01*
X65336779Y-96869819D02*
X65717731Y-96869819D01*
X65717731Y-96869819D02*
X65812969Y-96917438D01*
X65812969Y-96917438D02*
X65860588Y-96965057D01*
X65860588Y-96965057D02*
X65908207Y-97060295D01*
X65908207Y-97060295D02*
X65908207Y-97203152D01*
X65908207Y-97203152D02*
X65860588Y-97298390D01*
X65860588Y-97298390D02*
X65812969Y-97346009D01*
X65812969Y-97346009D02*
X65717731Y-97393628D01*
X65717731Y-97393628D02*
X65336779Y-97393628D01*
X66908207Y-97774580D02*
X66860588Y-97822200D01*
X66860588Y-97822200D02*
X66717731Y-97869819D01*
X66717731Y-97869819D02*
X66622493Y-97869819D01*
X66622493Y-97869819D02*
X66479636Y-97822200D01*
X66479636Y-97822200D02*
X66384398Y-97726961D01*
X66384398Y-97726961D02*
X66336779Y-97631723D01*
X66336779Y-97631723D02*
X66289160Y-97441247D01*
X66289160Y-97441247D02*
X66289160Y-97298390D01*
X66289160Y-97298390D02*
X66336779Y-97107914D01*
X66336779Y-97107914D02*
X66384398Y-97012676D01*
X66384398Y-97012676D02*
X66479636Y-96917438D01*
X66479636Y-96917438D02*
X66622493Y-96869819D01*
X66622493Y-96869819D02*
X66717731Y-96869819D01*
X66717731Y-96869819D02*
X66860588Y-96917438D01*
X66860588Y-96917438D02*
X66908207Y-96965057D01*
X67336779Y-97869819D02*
X67336779Y-96869819D01*
X67336779Y-96869819D02*
X67670112Y-97584104D01*
X67670112Y-97584104D02*
X68003445Y-96869819D01*
X68003445Y-96869819D02*
X68003445Y-97869819D01*
X69241541Y-97869819D02*
X69241541Y-96869819D01*
X69241541Y-96869819D02*
X69622493Y-96869819D01*
X69622493Y-96869819D02*
X69717731Y-96917438D01*
X69717731Y-96917438D02*
X69765350Y-96965057D01*
X69765350Y-96965057D02*
X69812969Y-97060295D01*
X69812969Y-97060295D02*
X69812969Y-97203152D01*
X69812969Y-97203152D02*
X69765350Y-97298390D01*
X69765350Y-97298390D02*
X69717731Y-97346009D01*
X69717731Y-97346009D02*
X69622493Y-97393628D01*
X69622493Y-97393628D02*
X69241541Y-97393628D01*
X70146303Y-96869819D02*
X70384398Y-97869819D01*
X70384398Y-97869819D02*
X70574874Y-97155533D01*
X70574874Y-97155533D02*
X70765350Y-97869819D01*
X70765350Y-97869819D02*
X71003446Y-96869819D01*
X71955826Y-97869819D02*
X71622493Y-97393628D01*
X71384398Y-97869819D02*
X71384398Y-96869819D01*
X71384398Y-96869819D02*
X71765350Y-96869819D01*
X71765350Y-96869819D02*
X71860588Y-96917438D01*
X71860588Y-96917438D02*
X71908207Y-96965057D01*
X71908207Y-96965057D02*
X71955826Y-97060295D01*
X71955826Y-97060295D02*
X71955826Y-97203152D01*
X71955826Y-97203152D02*
X71908207Y-97298390D01*
X71908207Y-97298390D02*
X71860588Y-97346009D01*
X71860588Y-97346009D02*
X71765350Y-97393628D01*
X71765350Y-97393628D02*
X71384398Y-97393628D01*
X140336779Y-85119819D02*
X140336779Y-84119819D01*
X140336779Y-84119819D02*
X140717731Y-84119819D01*
X140717731Y-84119819D02*
X140812969Y-84167438D01*
X140812969Y-84167438D02*
X140860588Y-84215057D01*
X140860588Y-84215057D02*
X140908207Y-84310295D01*
X140908207Y-84310295D02*
X140908207Y-84453152D01*
X140908207Y-84453152D02*
X140860588Y-84548390D01*
X140860588Y-84548390D02*
X140812969Y-84596009D01*
X140812969Y-84596009D02*
X140717731Y-84643628D01*
X140717731Y-84643628D02*
X140336779Y-84643628D01*
X141908207Y-85024580D02*
X141860588Y-85072200D01*
X141860588Y-85072200D02*
X141717731Y-85119819D01*
X141717731Y-85119819D02*
X141622493Y-85119819D01*
X141622493Y-85119819D02*
X141479636Y-85072200D01*
X141479636Y-85072200D02*
X141384398Y-84976961D01*
X141384398Y-84976961D02*
X141336779Y-84881723D01*
X141336779Y-84881723D02*
X141289160Y-84691247D01*
X141289160Y-84691247D02*
X141289160Y-84548390D01*
X141289160Y-84548390D02*
X141336779Y-84357914D01*
X141336779Y-84357914D02*
X141384398Y-84262676D01*
X141384398Y-84262676D02*
X141479636Y-84167438D01*
X141479636Y-84167438D02*
X141622493Y-84119819D01*
X141622493Y-84119819D02*
X141717731Y-84119819D01*
X141717731Y-84119819D02*
X141860588Y-84167438D01*
X141860588Y-84167438D02*
X141908207Y-84215057D01*
X142670112Y-84596009D02*
X142336779Y-84596009D01*
X142336779Y-85119819D02*
X142336779Y-84119819D01*
X142336779Y-84119819D02*
X142812969Y-84119819D01*
X143336779Y-84548390D02*
X143241541Y-84500771D01*
X143241541Y-84500771D02*
X143193922Y-84453152D01*
X143193922Y-84453152D02*
X143146303Y-84357914D01*
X143146303Y-84357914D02*
X143146303Y-84310295D01*
X143146303Y-84310295D02*
X143193922Y-84215057D01*
X143193922Y-84215057D02*
X143241541Y-84167438D01*
X143241541Y-84167438D02*
X143336779Y-84119819D01*
X143336779Y-84119819D02*
X143527255Y-84119819D01*
X143527255Y-84119819D02*
X143622493Y-84167438D01*
X143622493Y-84167438D02*
X143670112Y-84215057D01*
X143670112Y-84215057D02*
X143717731Y-84310295D01*
X143717731Y-84310295D02*
X143717731Y-84357914D01*
X143717731Y-84357914D02*
X143670112Y-84453152D01*
X143670112Y-84453152D02*
X143622493Y-84500771D01*
X143622493Y-84500771D02*
X143527255Y-84548390D01*
X143527255Y-84548390D02*
X143336779Y-84548390D01*
X143336779Y-84548390D02*
X143241541Y-84596009D01*
X143241541Y-84596009D02*
X143193922Y-84643628D01*
X143193922Y-84643628D02*
X143146303Y-84738866D01*
X143146303Y-84738866D02*
X143146303Y-84929342D01*
X143146303Y-84929342D02*
X143193922Y-85024580D01*
X143193922Y-85024580D02*
X143241541Y-85072200D01*
X143241541Y-85072200D02*
X143336779Y-85119819D01*
X143336779Y-85119819D02*
X143527255Y-85119819D01*
X143527255Y-85119819D02*
X143622493Y-85072200D01*
X143622493Y-85072200D02*
X143670112Y-85024580D01*
X143670112Y-85024580D02*
X143717731Y-84929342D01*
X143717731Y-84929342D02*
X143717731Y-84738866D01*
X143717731Y-84738866D02*
X143670112Y-84643628D01*
X143670112Y-84643628D02*
X143622493Y-84596009D01*
X143622493Y-84596009D02*
X143527255Y-84548390D01*
X144622493Y-84119819D02*
X144146303Y-84119819D01*
X144146303Y-84119819D02*
X144098684Y-84596009D01*
X144098684Y-84596009D02*
X144146303Y-84548390D01*
X144146303Y-84548390D02*
X144241541Y-84500771D01*
X144241541Y-84500771D02*
X144479636Y-84500771D01*
X144479636Y-84500771D02*
X144574874Y-84548390D01*
X144574874Y-84548390D02*
X144622493Y-84596009D01*
X144622493Y-84596009D02*
X144670112Y-84691247D01*
X144670112Y-84691247D02*
X144670112Y-84929342D01*
X144670112Y-84929342D02*
X144622493Y-85024580D01*
X144622493Y-85024580D02*
X144574874Y-85072200D01*
X144574874Y-85072200D02*
X144479636Y-85119819D01*
X144479636Y-85119819D02*
X144241541Y-85119819D01*
X144241541Y-85119819D02*
X144146303Y-85072200D01*
X144146303Y-85072200D02*
X144098684Y-85024580D01*
X145527255Y-84119819D02*
X145336779Y-84119819D01*
X145336779Y-84119819D02*
X145241541Y-84167438D01*
X145241541Y-84167438D02*
X145193922Y-84215057D01*
X145193922Y-84215057D02*
X145098684Y-84357914D01*
X145098684Y-84357914D02*
X145051065Y-84548390D01*
X145051065Y-84548390D02*
X145051065Y-84929342D01*
X145051065Y-84929342D02*
X145098684Y-85024580D01*
X145098684Y-85024580D02*
X145146303Y-85072200D01*
X145146303Y-85072200D02*
X145241541Y-85119819D01*
X145241541Y-85119819D02*
X145432017Y-85119819D01*
X145432017Y-85119819D02*
X145527255Y-85072200D01*
X145527255Y-85072200D02*
X145574874Y-85024580D01*
X145574874Y-85024580D02*
X145622493Y-84929342D01*
X145622493Y-84929342D02*
X145622493Y-84691247D01*
X145622493Y-84691247D02*
X145574874Y-84596009D01*
X145574874Y-84596009D02*
X145527255Y-84548390D01*
X145527255Y-84548390D02*
X145432017Y-84500771D01*
X145432017Y-84500771D02*
X145241541Y-84500771D01*
X145241541Y-84500771D02*
X145146303Y-84548390D01*
X145146303Y-84548390D02*
X145098684Y-84596009D01*
X145098684Y-84596009D02*
X145051065Y-84691247D01*
X145955827Y-84119819D02*
X146574874Y-84119819D01*
X146574874Y-84119819D02*
X146241541Y-84500771D01*
X146241541Y-84500771D02*
X146384398Y-84500771D01*
X146384398Y-84500771D02*
X146479636Y-84548390D01*
X146479636Y-84548390D02*
X146527255Y-84596009D01*
X146527255Y-84596009D02*
X146574874Y-84691247D01*
X146574874Y-84691247D02*
X146574874Y-84929342D01*
X146574874Y-84929342D02*
X146527255Y-85024580D01*
X146527255Y-85024580D02*
X146479636Y-85072200D01*
X146479636Y-85072200D02*
X146384398Y-85119819D01*
X146384398Y-85119819D02*
X146098684Y-85119819D01*
X146098684Y-85119819D02*
X146003446Y-85072200D01*
X146003446Y-85072200D02*
X145955827Y-85024580D01*
X146860589Y-84119819D02*
X147432017Y-84119819D01*
X147146303Y-85119819D02*
X147146303Y-84119819D01*
X147717732Y-85072200D02*
X147860589Y-85119819D01*
X147860589Y-85119819D02*
X148098684Y-85119819D01*
X148098684Y-85119819D02*
X148193922Y-85072200D01*
X148193922Y-85072200D02*
X148241541Y-85024580D01*
X148241541Y-85024580D02*
X148289160Y-84929342D01*
X148289160Y-84929342D02*
X148289160Y-84834104D01*
X148289160Y-84834104D02*
X148241541Y-84738866D01*
X148241541Y-84738866D02*
X148193922Y-84691247D01*
X148193922Y-84691247D02*
X148098684Y-84643628D01*
X148098684Y-84643628D02*
X147908208Y-84596009D01*
X147908208Y-84596009D02*
X147812970Y-84548390D01*
X147812970Y-84548390D02*
X147765351Y-84500771D01*
X147765351Y-84500771D02*
X147717732Y-84405533D01*
X147717732Y-84405533D02*
X147717732Y-84310295D01*
X147717732Y-84310295D02*
X147765351Y-84215057D01*
X147765351Y-84215057D02*
X147812970Y-84167438D01*
X147812970Y-84167438D02*
X147908208Y-84119819D01*
X147908208Y-84119819D02*
X148146303Y-84119819D01*
X148146303Y-84119819D02*
X148289160Y-84167438D01*
X50812969Y-58119819D02*
X50336779Y-58119819D01*
X50336779Y-58119819D02*
X50336779Y-57119819D01*
X101086779Y-74259875D02*
X101086779Y-75069398D01*
X101086779Y-75069398D02*
X101134398Y-75164636D01*
X101134398Y-75164636D02*
X101182017Y-75212256D01*
X101182017Y-75212256D02*
X101277255Y-75259875D01*
X101277255Y-75259875D02*
X101467731Y-75259875D01*
X101467731Y-75259875D02*
X101562969Y-75212256D01*
X101562969Y-75212256D02*
X101610588Y-75164636D01*
X101610588Y-75164636D02*
X101658207Y-75069398D01*
X101658207Y-75069398D02*
X101658207Y-74259875D01*
X102086779Y-75212256D02*
X102182017Y-75259875D01*
X102182017Y-75259875D02*
X102372493Y-75259875D01*
X102372493Y-75259875D02*
X102467731Y-75212256D01*
X102467731Y-75212256D02*
X102515350Y-75117017D01*
X102515350Y-75117017D02*
X102515350Y-75069398D01*
X102515350Y-75069398D02*
X102467731Y-74974160D01*
X102467731Y-74974160D02*
X102372493Y-74926541D01*
X102372493Y-74926541D02*
X102229636Y-74926541D01*
X102229636Y-74926541D02*
X102134398Y-74878922D01*
X102134398Y-74878922D02*
X102086779Y-74783684D01*
X102086779Y-74783684D02*
X102086779Y-74736065D01*
X102086779Y-74736065D02*
X102134398Y-74640827D01*
X102134398Y-74640827D02*
X102229636Y-74593208D01*
X102229636Y-74593208D02*
X102372493Y-74593208D01*
X102372493Y-74593208D02*
X102467731Y-74640827D01*
X103324874Y-75212256D02*
X103229636Y-75259875D01*
X103229636Y-75259875D02*
X103039160Y-75259875D01*
X103039160Y-75259875D02*
X102943922Y-75212256D01*
X102943922Y-75212256D02*
X102896303Y-75117017D01*
X102896303Y-75117017D02*
X102896303Y-74736065D01*
X102896303Y-74736065D02*
X102943922Y-74640827D01*
X102943922Y-74640827D02*
X103039160Y-74593208D01*
X103039160Y-74593208D02*
X103229636Y-74593208D01*
X103229636Y-74593208D02*
X103324874Y-74640827D01*
X103324874Y-74640827D02*
X103372493Y-74736065D01*
X103372493Y-74736065D02*
X103372493Y-74831303D01*
X103372493Y-74831303D02*
X102896303Y-74926541D01*
X101658207Y-76869819D02*
X101324874Y-76393628D01*
X101086779Y-76869819D02*
X101086779Y-75869819D01*
X101086779Y-75869819D02*
X101467731Y-75869819D01*
X101467731Y-75869819D02*
X101562969Y-75917438D01*
X101562969Y-75917438D02*
X101610588Y-75965057D01*
X101610588Y-75965057D02*
X101658207Y-76060295D01*
X101658207Y-76060295D02*
X101658207Y-76203152D01*
X101658207Y-76203152D02*
X101610588Y-76298390D01*
X101610588Y-76298390D02*
X101562969Y-76346009D01*
X101562969Y-76346009D02*
X101467731Y-76393628D01*
X101467731Y-76393628D02*
X101086779Y-76393628D01*
X102086779Y-76869819D02*
X102086779Y-75869819D01*
X102086779Y-75869819D02*
X102467731Y-75869819D01*
X102467731Y-75869819D02*
X102562969Y-75917438D01*
X102562969Y-75917438D02*
X102610588Y-75965057D01*
X102610588Y-75965057D02*
X102658207Y-76060295D01*
X102658207Y-76060295D02*
X102658207Y-76203152D01*
X102658207Y-76203152D02*
X102610588Y-76298390D01*
X102610588Y-76298390D02*
X102562969Y-76346009D01*
X102562969Y-76346009D02*
X102467731Y-76393628D01*
X102467731Y-76393628D02*
X102086779Y-76393628D01*
X103086779Y-76869819D02*
X103086779Y-75869819D01*
X104182017Y-75869819D02*
X104515350Y-76869819D01*
X104515350Y-76869819D02*
X104848683Y-75869819D01*
X105515350Y-76346009D02*
X105658207Y-76393628D01*
X105658207Y-76393628D02*
X105705826Y-76441247D01*
X105705826Y-76441247D02*
X105753445Y-76536485D01*
X105753445Y-76536485D02*
X105753445Y-76679342D01*
X105753445Y-76679342D02*
X105705826Y-76774580D01*
X105705826Y-76774580D02*
X105658207Y-76822200D01*
X105658207Y-76822200D02*
X105562969Y-76869819D01*
X105562969Y-76869819D02*
X105182017Y-76869819D01*
X105182017Y-76869819D02*
X105182017Y-75869819D01*
X105182017Y-75869819D02*
X105515350Y-75869819D01*
X105515350Y-75869819D02*
X105610588Y-75917438D01*
X105610588Y-75917438D02*
X105658207Y-75965057D01*
X105658207Y-75965057D02*
X105705826Y-76060295D01*
X105705826Y-76060295D02*
X105705826Y-76155533D01*
X105705826Y-76155533D02*
X105658207Y-76250771D01*
X105658207Y-76250771D02*
X105610588Y-76298390D01*
X105610588Y-76298390D02*
X105515350Y-76346009D01*
X105515350Y-76346009D02*
X105182017Y-76346009D01*
X106182017Y-75869819D02*
X106182017Y-76679342D01*
X106182017Y-76679342D02*
X106229636Y-76774580D01*
X106229636Y-76774580D02*
X106277255Y-76822200D01*
X106277255Y-76822200D02*
X106372493Y-76869819D01*
X106372493Y-76869819D02*
X106562969Y-76869819D01*
X106562969Y-76869819D02*
X106658207Y-76822200D01*
X106658207Y-76822200D02*
X106705826Y-76774580D01*
X106705826Y-76774580D02*
X106753445Y-76679342D01*
X106753445Y-76679342D02*
X106753445Y-75869819D01*
X107182017Y-76822200D02*
X107324874Y-76869819D01*
X107324874Y-76869819D02*
X107562969Y-76869819D01*
X107562969Y-76869819D02*
X107658207Y-76822200D01*
X107658207Y-76822200D02*
X107705826Y-76774580D01*
X107705826Y-76774580D02*
X107753445Y-76679342D01*
X107753445Y-76679342D02*
X107753445Y-76584104D01*
X107753445Y-76584104D02*
X107705826Y-76488866D01*
X107705826Y-76488866D02*
X107658207Y-76441247D01*
X107658207Y-76441247D02*
X107562969Y-76393628D01*
X107562969Y-76393628D02*
X107372493Y-76346009D01*
X107372493Y-76346009D02*
X107277255Y-76298390D01*
X107277255Y-76298390D02*
X107229636Y-76250771D01*
X107229636Y-76250771D02*
X107182017Y-76155533D01*
X107182017Y-76155533D02*
X107182017Y-76060295D01*
X107182017Y-76060295D02*
X107229636Y-75965057D01*
X107229636Y-75965057D02*
X107277255Y-75917438D01*
X107277255Y-75917438D02*
X107372493Y-75869819D01*
X107372493Y-75869819D02*
X107610588Y-75869819D01*
X107610588Y-75869819D02*
X107753445Y-75917438D01*
X103714285Y-60554819D02*
X103714285Y-61269104D01*
X103714285Y-61269104D02*
X103666666Y-61411961D01*
X103666666Y-61411961D02*
X103571428Y-61507200D01*
X103571428Y-61507200D02*
X103428571Y-61554819D01*
X103428571Y-61554819D02*
X103333333Y-61554819D01*
X104714285Y-61554819D02*
X104142857Y-61554819D01*
X104428571Y-61554819D02*
X104428571Y-60554819D01*
X104428571Y-60554819D02*
X104333333Y-60697676D01*
X104333333Y-60697676D02*
X104238095Y-60792914D01*
X104238095Y-60792914D02*
X104142857Y-60840533D01*
X105333333Y-60554819D02*
X105428571Y-60554819D01*
X105428571Y-60554819D02*
X105523809Y-60602438D01*
X105523809Y-60602438D02*
X105571428Y-60650057D01*
X105571428Y-60650057D02*
X105619047Y-60745295D01*
X105619047Y-60745295D02*
X105666666Y-60935771D01*
X105666666Y-60935771D02*
X105666666Y-61173866D01*
X105666666Y-61173866D02*
X105619047Y-61364342D01*
X105619047Y-61364342D02*
X105571428Y-61459580D01*
X105571428Y-61459580D02*
X105523809Y-61507200D01*
X105523809Y-61507200D02*
X105428571Y-61554819D01*
X105428571Y-61554819D02*
X105333333Y-61554819D01*
X105333333Y-61554819D02*
X105238095Y-61507200D01*
X105238095Y-61507200D02*
X105190476Y-61459580D01*
X105190476Y-61459580D02*
X105142857Y-61364342D01*
X105142857Y-61364342D02*
X105095238Y-61173866D01*
X105095238Y-61173866D02*
X105095238Y-60935771D01*
X105095238Y-60935771D02*
X105142857Y-60745295D01*
X105142857Y-60745295D02*
X105190476Y-60650057D01*
X105190476Y-60650057D02*
X105238095Y-60602438D01*
X105238095Y-60602438D02*
X105333333Y-60554819D01*
X106285714Y-60554819D02*
X106380952Y-60554819D01*
X106380952Y-60554819D02*
X106476190Y-60602438D01*
X106476190Y-60602438D02*
X106523809Y-60650057D01*
X106523809Y-60650057D02*
X106571428Y-60745295D01*
X106571428Y-60745295D02*
X106619047Y-60935771D01*
X106619047Y-60935771D02*
X106619047Y-61173866D01*
X106619047Y-61173866D02*
X106571428Y-61364342D01*
X106571428Y-61364342D02*
X106523809Y-61459580D01*
X106523809Y-61459580D02*
X106476190Y-61507200D01*
X106476190Y-61507200D02*
X106380952Y-61554819D01*
X106380952Y-61554819D02*
X106285714Y-61554819D01*
X106285714Y-61554819D02*
X106190476Y-61507200D01*
X106190476Y-61507200D02*
X106142857Y-61459580D01*
X106142857Y-61459580D02*
X106095238Y-61364342D01*
X106095238Y-61364342D02*
X106047619Y-61173866D01*
X106047619Y-61173866D02*
X106047619Y-60935771D01*
X106047619Y-60935771D02*
X106095238Y-60745295D01*
X106095238Y-60745295D02*
X106142857Y-60650057D01*
X106142857Y-60650057D02*
X106190476Y-60602438D01*
X106190476Y-60602438D02*
X106285714Y-60554819D01*
X141035714Y-120204819D02*
X141035714Y-121014342D01*
X141035714Y-121014342D02*
X141083333Y-121109580D01*
X141083333Y-121109580D02*
X141130952Y-121157200D01*
X141130952Y-121157200D02*
X141226190Y-121204819D01*
X141226190Y-121204819D02*
X141416666Y-121204819D01*
X141416666Y-121204819D02*
X141511904Y-121157200D01*
X141511904Y-121157200D02*
X141559523Y-121109580D01*
X141559523Y-121109580D02*
X141607142Y-121014342D01*
X141607142Y-121014342D02*
X141607142Y-120204819D01*
X142559523Y-120204819D02*
X142083333Y-120204819D01*
X142083333Y-120204819D02*
X142035714Y-120681009D01*
X142035714Y-120681009D02*
X142083333Y-120633390D01*
X142083333Y-120633390D02*
X142178571Y-120585771D01*
X142178571Y-120585771D02*
X142416666Y-120585771D01*
X142416666Y-120585771D02*
X142511904Y-120633390D01*
X142511904Y-120633390D02*
X142559523Y-120681009D01*
X142559523Y-120681009D02*
X142607142Y-120776247D01*
X142607142Y-120776247D02*
X142607142Y-121014342D01*
X142607142Y-121014342D02*
X142559523Y-121109580D01*
X142559523Y-121109580D02*
X142511904Y-121157200D01*
X142511904Y-121157200D02*
X142416666Y-121204819D01*
X142416666Y-121204819D02*
X142178571Y-121204819D01*
X142178571Y-121204819D02*
X142083333Y-121157200D01*
X142083333Y-121157200D02*
X142035714Y-121109580D01*
X143559523Y-121204819D02*
X142988095Y-121204819D01*
X143273809Y-121204819D02*
X143273809Y-120204819D01*
X143273809Y-120204819D02*
X143178571Y-120347676D01*
X143178571Y-120347676D02*
X143083333Y-120442914D01*
X143083333Y-120442914D02*
X142988095Y-120490533D01*
X144511904Y-121204819D02*
X143940476Y-121204819D01*
X144226190Y-121204819D02*
X144226190Y-120204819D01*
X144226190Y-120204819D02*
X144130952Y-120347676D01*
X144130952Y-120347676D02*
X144035714Y-120442914D01*
X144035714Y-120442914D02*
X143940476Y-120490533D01*
X141035714Y-100204819D02*
X141035714Y-101014342D01*
X141035714Y-101014342D02*
X141083333Y-101109580D01*
X141083333Y-101109580D02*
X141130952Y-101157200D01*
X141130952Y-101157200D02*
X141226190Y-101204819D01*
X141226190Y-101204819D02*
X141416666Y-101204819D01*
X141416666Y-101204819D02*
X141511904Y-101157200D01*
X141511904Y-101157200D02*
X141559523Y-101109580D01*
X141559523Y-101109580D02*
X141607142Y-101014342D01*
X141607142Y-101014342D02*
X141607142Y-100204819D01*
X142559523Y-100204819D02*
X142083333Y-100204819D01*
X142083333Y-100204819D02*
X142035714Y-100681009D01*
X142035714Y-100681009D02*
X142083333Y-100633390D01*
X142083333Y-100633390D02*
X142178571Y-100585771D01*
X142178571Y-100585771D02*
X142416666Y-100585771D01*
X142416666Y-100585771D02*
X142511904Y-100633390D01*
X142511904Y-100633390D02*
X142559523Y-100681009D01*
X142559523Y-100681009D02*
X142607142Y-100776247D01*
X142607142Y-100776247D02*
X142607142Y-101014342D01*
X142607142Y-101014342D02*
X142559523Y-101109580D01*
X142559523Y-101109580D02*
X142511904Y-101157200D01*
X142511904Y-101157200D02*
X142416666Y-101204819D01*
X142416666Y-101204819D02*
X142178571Y-101204819D01*
X142178571Y-101204819D02*
X142083333Y-101157200D01*
X142083333Y-101157200D02*
X142035714Y-101109580D01*
X143226190Y-100204819D02*
X143321428Y-100204819D01*
X143321428Y-100204819D02*
X143416666Y-100252438D01*
X143416666Y-100252438D02*
X143464285Y-100300057D01*
X143464285Y-100300057D02*
X143511904Y-100395295D01*
X143511904Y-100395295D02*
X143559523Y-100585771D01*
X143559523Y-100585771D02*
X143559523Y-100823866D01*
X143559523Y-100823866D02*
X143511904Y-101014342D01*
X143511904Y-101014342D02*
X143464285Y-101109580D01*
X143464285Y-101109580D02*
X143416666Y-101157200D01*
X143416666Y-101157200D02*
X143321428Y-101204819D01*
X143321428Y-101204819D02*
X143226190Y-101204819D01*
X143226190Y-101204819D02*
X143130952Y-101157200D01*
X143130952Y-101157200D02*
X143083333Y-101109580D01*
X143083333Y-101109580D02*
X143035714Y-101014342D01*
X143035714Y-101014342D02*
X142988095Y-100823866D01*
X142988095Y-100823866D02*
X142988095Y-100585771D01*
X142988095Y-100585771D02*
X143035714Y-100395295D01*
X143035714Y-100395295D02*
X143083333Y-100300057D01*
X143083333Y-100300057D02*
X143130952Y-100252438D01*
X143130952Y-100252438D02*
X143226190Y-100204819D01*
X143892857Y-100204819D02*
X144511904Y-100204819D01*
X144511904Y-100204819D02*
X144178571Y-100585771D01*
X144178571Y-100585771D02*
X144321428Y-100585771D01*
X144321428Y-100585771D02*
X144416666Y-100633390D01*
X144416666Y-100633390D02*
X144464285Y-100681009D01*
X144464285Y-100681009D02*
X144511904Y-100776247D01*
X144511904Y-100776247D02*
X144511904Y-101014342D01*
X144511904Y-101014342D02*
X144464285Y-101109580D01*
X144464285Y-101109580D02*
X144416666Y-101157200D01*
X144416666Y-101157200D02*
X144321428Y-101204819D01*
X144321428Y-101204819D02*
X144035714Y-101204819D01*
X144035714Y-101204819D02*
X143940476Y-101157200D01*
X143940476Y-101157200D02*
X143892857Y-101109580D01*
X121035714Y-120204819D02*
X121035714Y-121014342D01*
X121035714Y-121014342D02*
X121083333Y-121109580D01*
X121083333Y-121109580D02*
X121130952Y-121157200D01*
X121130952Y-121157200D02*
X121226190Y-121204819D01*
X121226190Y-121204819D02*
X121416666Y-121204819D01*
X121416666Y-121204819D02*
X121511904Y-121157200D01*
X121511904Y-121157200D02*
X121559523Y-121109580D01*
X121559523Y-121109580D02*
X121607142Y-121014342D01*
X121607142Y-121014342D02*
X121607142Y-120204819D01*
X122559523Y-120204819D02*
X122083333Y-120204819D01*
X122083333Y-120204819D02*
X122035714Y-120681009D01*
X122035714Y-120681009D02*
X122083333Y-120633390D01*
X122083333Y-120633390D02*
X122178571Y-120585771D01*
X122178571Y-120585771D02*
X122416666Y-120585771D01*
X122416666Y-120585771D02*
X122511904Y-120633390D01*
X122511904Y-120633390D02*
X122559523Y-120681009D01*
X122559523Y-120681009D02*
X122607142Y-120776247D01*
X122607142Y-120776247D02*
X122607142Y-121014342D01*
X122607142Y-121014342D02*
X122559523Y-121109580D01*
X122559523Y-121109580D02*
X122511904Y-121157200D01*
X122511904Y-121157200D02*
X122416666Y-121204819D01*
X122416666Y-121204819D02*
X122178571Y-121204819D01*
X122178571Y-121204819D02*
X122083333Y-121157200D01*
X122083333Y-121157200D02*
X122035714Y-121109580D01*
X123226190Y-120204819D02*
X123321428Y-120204819D01*
X123321428Y-120204819D02*
X123416666Y-120252438D01*
X123416666Y-120252438D02*
X123464285Y-120300057D01*
X123464285Y-120300057D02*
X123511904Y-120395295D01*
X123511904Y-120395295D02*
X123559523Y-120585771D01*
X123559523Y-120585771D02*
X123559523Y-120823866D01*
X123559523Y-120823866D02*
X123511904Y-121014342D01*
X123511904Y-121014342D02*
X123464285Y-121109580D01*
X123464285Y-121109580D02*
X123416666Y-121157200D01*
X123416666Y-121157200D02*
X123321428Y-121204819D01*
X123321428Y-121204819D02*
X123226190Y-121204819D01*
X123226190Y-121204819D02*
X123130952Y-121157200D01*
X123130952Y-121157200D02*
X123083333Y-121109580D01*
X123083333Y-121109580D02*
X123035714Y-121014342D01*
X123035714Y-121014342D02*
X122988095Y-120823866D01*
X122988095Y-120823866D02*
X122988095Y-120585771D01*
X122988095Y-120585771D02*
X123035714Y-120395295D01*
X123035714Y-120395295D02*
X123083333Y-120300057D01*
X123083333Y-120300057D02*
X123130952Y-120252438D01*
X123130952Y-120252438D02*
X123226190Y-120204819D01*
X124035714Y-121204819D02*
X124226190Y-121204819D01*
X124226190Y-121204819D02*
X124321428Y-121157200D01*
X124321428Y-121157200D02*
X124369047Y-121109580D01*
X124369047Y-121109580D02*
X124464285Y-120966723D01*
X124464285Y-120966723D02*
X124511904Y-120776247D01*
X124511904Y-120776247D02*
X124511904Y-120395295D01*
X124511904Y-120395295D02*
X124464285Y-120300057D01*
X124464285Y-120300057D02*
X124416666Y-120252438D01*
X124416666Y-120252438D02*
X124321428Y-120204819D01*
X124321428Y-120204819D02*
X124130952Y-120204819D01*
X124130952Y-120204819D02*
X124035714Y-120252438D01*
X124035714Y-120252438D02*
X123988095Y-120300057D01*
X123988095Y-120300057D02*
X123940476Y-120395295D01*
X123940476Y-120395295D02*
X123940476Y-120633390D01*
X123940476Y-120633390D02*
X123988095Y-120728628D01*
X123988095Y-120728628D02*
X124035714Y-120776247D01*
X124035714Y-120776247D02*
X124130952Y-120823866D01*
X124130952Y-120823866D02*
X124321428Y-120823866D01*
X124321428Y-120823866D02*
X124416666Y-120776247D01*
X124416666Y-120776247D02*
X124464285Y-120728628D01*
X124464285Y-120728628D02*
X124511904Y-120633390D01*
D11*
X64765004Y-121126028D02*
X65765004Y-120792695D01*
X65765004Y-120792695D02*
X64765004Y-120459362D01*
X65765004Y-120126028D02*
X64765004Y-120126028D01*
X64765004Y-120126028D02*
X64765004Y-119887933D01*
X64765004Y-119887933D02*
X64812623Y-119745076D01*
X64812623Y-119745076D02*
X64907861Y-119649838D01*
X64907861Y-119649838D02*
X65003099Y-119602219D01*
X65003099Y-119602219D02*
X65193575Y-119554600D01*
X65193575Y-119554600D02*
X65336432Y-119554600D01*
X65336432Y-119554600D02*
X65526908Y-119602219D01*
X65526908Y-119602219D02*
X65622146Y-119649838D01*
X65622146Y-119649838D02*
X65717385Y-119745076D01*
X65717385Y-119745076D02*
X65765004Y-119887933D01*
X65765004Y-119887933D02*
X65765004Y-120126028D01*
X65765004Y-119126028D02*
X64765004Y-119126028D01*
X64765004Y-119126028D02*
X64765004Y-118887933D01*
X64765004Y-118887933D02*
X64812623Y-118745076D01*
X64812623Y-118745076D02*
X64907861Y-118649838D01*
X64907861Y-118649838D02*
X65003099Y-118602219D01*
X65003099Y-118602219D02*
X65193575Y-118554600D01*
X65193575Y-118554600D02*
X65336432Y-118554600D01*
X65336432Y-118554600D02*
X65526908Y-118602219D01*
X65526908Y-118602219D02*
X65622146Y-118649838D01*
X65622146Y-118649838D02*
X65717385Y-118745076D01*
X65717385Y-118745076D02*
X65765004Y-118887933D01*
X65765004Y-118887933D02*
X65765004Y-119126028D01*
X58074628Y-123900376D02*
X58122247Y-123757519D01*
X58122247Y-123757519D02*
X58122247Y-123519424D01*
X58122247Y-123519424D02*
X58074628Y-123424186D01*
X58074628Y-123424186D02*
X58027008Y-123376567D01*
X58027008Y-123376567D02*
X57931770Y-123328948D01*
X57931770Y-123328948D02*
X57836532Y-123328948D01*
X57836532Y-123328948D02*
X57741294Y-123376567D01*
X57741294Y-123376567D02*
X57693675Y-123424186D01*
X57693675Y-123424186D02*
X57646056Y-123519424D01*
X57646056Y-123519424D02*
X57598437Y-123709900D01*
X57598437Y-123709900D02*
X57550818Y-123805138D01*
X57550818Y-123805138D02*
X57503199Y-123852757D01*
X57503199Y-123852757D02*
X57407961Y-123900376D01*
X57407961Y-123900376D02*
X57312723Y-123900376D01*
X57312723Y-123900376D02*
X57217485Y-123852757D01*
X57217485Y-123852757D02*
X57169866Y-123805138D01*
X57169866Y-123805138D02*
X57122247Y-123709900D01*
X57122247Y-123709900D02*
X57122247Y-123471805D01*
X57122247Y-123471805D02*
X57169866Y-123328948D01*
X58027008Y-122328948D02*
X58074628Y-122376567D01*
X58074628Y-122376567D02*
X58122247Y-122519424D01*
X58122247Y-122519424D02*
X58122247Y-122614662D01*
X58122247Y-122614662D02*
X58074628Y-122757519D01*
X58074628Y-122757519D02*
X57979389Y-122852757D01*
X57979389Y-122852757D02*
X57884151Y-122900376D01*
X57884151Y-122900376D02*
X57693675Y-122947995D01*
X57693675Y-122947995D02*
X57550818Y-122947995D01*
X57550818Y-122947995D02*
X57360342Y-122900376D01*
X57360342Y-122900376D02*
X57265104Y-122852757D01*
X57265104Y-122852757D02*
X57169866Y-122757519D01*
X57169866Y-122757519D02*
X57122247Y-122614662D01*
X57122247Y-122614662D02*
X57122247Y-122519424D01*
X57122247Y-122519424D02*
X57169866Y-122376567D01*
X57169866Y-122376567D02*
X57217485Y-122328948D01*
X58122247Y-121900376D02*
X57122247Y-121900376D01*
X58122247Y-121328948D02*
X57550818Y-121757519D01*
X57122247Y-121328948D02*
X57693675Y-121900376D01*
X62762564Y-123246906D02*
X62810183Y-123104049D01*
X62810183Y-123104049D02*
X62810183Y-122865954D01*
X62810183Y-122865954D02*
X62762564Y-122770716D01*
X62762564Y-122770716D02*
X62714944Y-122723097D01*
X62714944Y-122723097D02*
X62619706Y-122675478D01*
X62619706Y-122675478D02*
X62524468Y-122675478D01*
X62524468Y-122675478D02*
X62429230Y-122723097D01*
X62429230Y-122723097D02*
X62381611Y-122770716D01*
X62381611Y-122770716D02*
X62333992Y-122865954D01*
X62333992Y-122865954D02*
X62286373Y-123056430D01*
X62286373Y-123056430D02*
X62238754Y-123151668D01*
X62238754Y-123151668D02*
X62191135Y-123199287D01*
X62191135Y-123199287D02*
X62095897Y-123246906D01*
X62095897Y-123246906D02*
X62000659Y-123246906D01*
X62000659Y-123246906D02*
X61905421Y-123199287D01*
X61905421Y-123199287D02*
X61857802Y-123151668D01*
X61857802Y-123151668D02*
X61810183Y-123056430D01*
X61810183Y-123056430D02*
X61810183Y-122818335D01*
X61810183Y-122818335D02*
X61857802Y-122675478D01*
X62810183Y-122246906D02*
X61810183Y-122246906D01*
X61810183Y-122246906D02*
X61810183Y-122008811D01*
X61810183Y-122008811D02*
X61857802Y-121865954D01*
X61857802Y-121865954D02*
X61953040Y-121770716D01*
X61953040Y-121770716D02*
X62048278Y-121723097D01*
X62048278Y-121723097D02*
X62238754Y-121675478D01*
X62238754Y-121675478D02*
X62381611Y-121675478D01*
X62381611Y-121675478D02*
X62572087Y-121723097D01*
X62572087Y-121723097D02*
X62667325Y-121770716D01*
X62667325Y-121770716D02*
X62762564Y-121865954D01*
X62762564Y-121865954D02*
X62810183Y-122008811D01*
X62810183Y-122008811D02*
X62810183Y-122246906D01*
X61886214Y-117902307D02*
X61838595Y-117997545D01*
X61838595Y-117997545D02*
X61838595Y-118140402D01*
X61838595Y-118140402D02*
X61886214Y-118283259D01*
X61886214Y-118283259D02*
X61981452Y-118378497D01*
X61981452Y-118378497D02*
X62076690Y-118426116D01*
X62076690Y-118426116D02*
X62267166Y-118473735D01*
X62267166Y-118473735D02*
X62410023Y-118473735D01*
X62410023Y-118473735D02*
X62600499Y-118426116D01*
X62600499Y-118426116D02*
X62695737Y-118378497D01*
X62695737Y-118378497D02*
X62790976Y-118283259D01*
X62790976Y-118283259D02*
X62838595Y-118140402D01*
X62838595Y-118140402D02*
X62838595Y-118045164D01*
X62838595Y-118045164D02*
X62790976Y-117902307D01*
X62790976Y-117902307D02*
X62743356Y-117854688D01*
X62743356Y-117854688D02*
X62410023Y-117854688D01*
X62410023Y-117854688D02*
X62410023Y-118045164D01*
X62838595Y-117426116D02*
X61838595Y-117426116D01*
X61838595Y-117426116D02*
X62838595Y-116854688D01*
X62838595Y-116854688D02*
X61838595Y-116854688D01*
X62838595Y-116378497D02*
X61838595Y-116378497D01*
X61838595Y-116378497D02*
X61838595Y-116140402D01*
X61838595Y-116140402D02*
X61886214Y-115997545D01*
X61886214Y-115997545D02*
X61981452Y-115902307D01*
X61981452Y-115902307D02*
X62076690Y-115854688D01*
X62076690Y-115854688D02*
X62267166Y-115807069D01*
X62267166Y-115807069D02*
X62410023Y-115807069D01*
X62410023Y-115807069D02*
X62600499Y-115854688D01*
X62600499Y-115854688D02*
X62695737Y-115902307D01*
X62695737Y-115902307D02*
X62790976Y-115997545D01*
X62790976Y-115997545D02*
X62838595Y-116140402D01*
X62838595Y-116140402D02*
X62838595Y-116378497D01*
X53792419Y-121061353D02*
X54792419Y-120823258D01*
X54792419Y-120823258D02*
X54078133Y-120632782D01*
X54078133Y-120632782D02*
X54792419Y-120442306D01*
X54792419Y-120442306D02*
X53792419Y-120204211D01*
X54744800Y-119870877D02*
X54792419Y-119728020D01*
X54792419Y-119728020D02*
X54792419Y-119489925D01*
X54792419Y-119489925D02*
X54744800Y-119394687D01*
X54744800Y-119394687D02*
X54697180Y-119347068D01*
X54697180Y-119347068D02*
X54601942Y-119299449D01*
X54601942Y-119299449D02*
X54506704Y-119299449D01*
X54506704Y-119299449D02*
X54411466Y-119347068D01*
X54411466Y-119347068D02*
X54363847Y-119394687D01*
X54363847Y-119394687D02*
X54316228Y-119489925D01*
X54316228Y-119489925D02*
X54268609Y-119680401D01*
X54268609Y-119680401D02*
X54220990Y-119775639D01*
X54220990Y-119775639D02*
X54173371Y-119823258D01*
X54173371Y-119823258D02*
X54078133Y-119870877D01*
X54078133Y-119870877D02*
X53982895Y-119870877D01*
X53982895Y-119870877D02*
X53887657Y-119823258D01*
X53887657Y-119823258D02*
X53840038Y-119775639D01*
X53840038Y-119775639D02*
X53792419Y-119680401D01*
X53792419Y-119680401D02*
X53792419Y-119442306D01*
X53792419Y-119442306D02*
X53840038Y-119299449D01*
X58093835Y-118006749D02*
X58093835Y-118482939D01*
X58093835Y-118482939D02*
X57093835Y-118482939D01*
X57046216Y-116959130D02*
X58331930Y-117816272D01*
X58093835Y-116054368D02*
X57617644Y-116387701D01*
X58093835Y-116625796D02*
X57093835Y-116625796D01*
X57093835Y-116625796D02*
X57093835Y-116244844D01*
X57093835Y-116244844D02*
X57141454Y-116149606D01*
X57141454Y-116149606D02*
X57189073Y-116101987D01*
X57189073Y-116101987D02*
X57284311Y-116054368D01*
X57284311Y-116054368D02*
X57427168Y-116054368D01*
X57427168Y-116054368D02*
X57522406Y-116101987D01*
X57522406Y-116101987D02*
X57570025Y-116149606D01*
X57570025Y-116149606D02*
X57617644Y-116244844D01*
X57617644Y-116244844D02*
X57617644Y-116625796D01*
D10*
X141035714Y-110204819D02*
X141035714Y-111014342D01*
X141035714Y-111014342D02*
X141083333Y-111109580D01*
X141083333Y-111109580D02*
X141130952Y-111157200D01*
X141130952Y-111157200D02*
X141226190Y-111204819D01*
X141226190Y-111204819D02*
X141416666Y-111204819D01*
X141416666Y-111204819D02*
X141511904Y-111157200D01*
X141511904Y-111157200D02*
X141559523Y-111109580D01*
X141559523Y-111109580D02*
X141607142Y-111014342D01*
X141607142Y-111014342D02*
X141607142Y-110204819D01*
X142559523Y-110204819D02*
X142083333Y-110204819D01*
X142083333Y-110204819D02*
X142035714Y-110681009D01*
X142035714Y-110681009D02*
X142083333Y-110633390D01*
X142083333Y-110633390D02*
X142178571Y-110585771D01*
X142178571Y-110585771D02*
X142416666Y-110585771D01*
X142416666Y-110585771D02*
X142511904Y-110633390D01*
X142511904Y-110633390D02*
X142559523Y-110681009D01*
X142559523Y-110681009D02*
X142607142Y-110776247D01*
X142607142Y-110776247D02*
X142607142Y-111014342D01*
X142607142Y-111014342D02*
X142559523Y-111109580D01*
X142559523Y-111109580D02*
X142511904Y-111157200D01*
X142511904Y-111157200D02*
X142416666Y-111204819D01*
X142416666Y-111204819D02*
X142178571Y-111204819D01*
X142178571Y-111204819D02*
X142083333Y-111157200D01*
X142083333Y-111157200D02*
X142035714Y-111109580D01*
X143226190Y-110204819D02*
X143321428Y-110204819D01*
X143321428Y-110204819D02*
X143416666Y-110252438D01*
X143416666Y-110252438D02*
X143464285Y-110300057D01*
X143464285Y-110300057D02*
X143511904Y-110395295D01*
X143511904Y-110395295D02*
X143559523Y-110585771D01*
X143559523Y-110585771D02*
X143559523Y-110823866D01*
X143559523Y-110823866D02*
X143511904Y-111014342D01*
X143511904Y-111014342D02*
X143464285Y-111109580D01*
X143464285Y-111109580D02*
X143416666Y-111157200D01*
X143416666Y-111157200D02*
X143321428Y-111204819D01*
X143321428Y-111204819D02*
X143226190Y-111204819D01*
X143226190Y-111204819D02*
X143130952Y-111157200D01*
X143130952Y-111157200D02*
X143083333Y-111109580D01*
X143083333Y-111109580D02*
X143035714Y-111014342D01*
X143035714Y-111014342D02*
X142988095Y-110823866D01*
X142988095Y-110823866D02*
X142988095Y-110585771D01*
X142988095Y-110585771D02*
X143035714Y-110395295D01*
X143035714Y-110395295D02*
X143083333Y-110300057D01*
X143083333Y-110300057D02*
X143130952Y-110252438D01*
X143130952Y-110252438D02*
X143226190Y-110204819D01*
X143892857Y-110204819D02*
X144559523Y-110204819D01*
X144559523Y-110204819D02*
X144130952Y-111204819D01*
X123130952Y-77935009D02*
X123273809Y-77982628D01*
X123273809Y-77982628D02*
X123321428Y-78030247D01*
X123321428Y-78030247D02*
X123369047Y-78125485D01*
X123369047Y-78125485D02*
X123369047Y-78268342D01*
X123369047Y-78268342D02*
X123321428Y-78363580D01*
X123321428Y-78363580D02*
X123273809Y-78411200D01*
X123273809Y-78411200D02*
X123178571Y-78458819D01*
X123178571Y-78458819D02*
X122797619Y-78458819D01*
X122797619Y-78458819D02*
X122797619Y-77458819D01*
X122797619Y-77458819D02*
X123130952Y-77458819D01*
X123130952Y-77458819D02*
X123226190Y-77506438D01*
X123226190Y-77506438D02*
X123273809Y-77554057D01*
X123273809Y-77554057D02*
X123321428Y-77649295D01*
X123321428Y-77649295D02*
X123321428Y-77744533D01*
X123321428Y-77744533D02*
X123273809Y-77839771D01*
X123273809Y-77839771D02*
X123226190Y-77887390D01*
X123226190Y-77887390D02*
X123130952Y-77935009D01*
X123130952Y-77935009D02*
X122797619Y-77935009D01*
X123797619Y-78458819D02*
X123797619Y-77792152D01*
X123797619Y-77982628D02*
X123845238Y-77887390D01*
X123845238Y-77887390D02*
X123892857Y-77839771D01*
X123892857Y-77839771D02*
X123988095Y-77792152D01*
X123988095Y-77792152D02*
X124083333Y-77792152D01*
X124845238Y-78458819D02*
X124845238Y-77458819D01*
X124845238Y-78411200D02*
X124750000Y-78458819D01*
X124750000Y-78458819D02*
X124559524Y-78458819D01*
X124559524Y-78458819D02*
X124464286Y-78411200D01*
X124464286Y-78411200D02*
X124416667Y-78363580D01*
X124416667Y-78363580D02*
X124369048Y-78268342D01*
X124369048Y-78268342D02*
X124369048Y-77982628D01*
X124369048Y-77982628D02*
X124416667Y-77887390D01*
X124416667Y-77887390D02*
X124464286Y-77839771D01*
X124464286Y-77839771D02*
X124559524Y-77792152D01*
X124559524Y-77792152D02*
X124750000Y-77792152D01*
X124750000Y-77792152D02*
X124845238Y-77839771D01*
X125750000Y-77458819D02*
X125559524Y-77458819D01*
X125559524Y-77458819D02*
X125464286Y-77506438D01*
X125464286Y-77506438D02*
X125416667Y-77554057D01*
X125416667Y-77554057D02*
X125321429Y-77696914D01*
X125321429Y-77696914D02*
X125273810Y-77887390D01*
X125273810Y-77887390D02*
X125273810Y-78268342D01*
X125273810Y-78268342D02*
X125321429Y-78363580D01*
X125321429Y-78363580D02*
X125369048Y-78411200D01*
X125369048Y-78411200D02*
X125464286Y-78458819D01*
X125464286Y-78458819D02*
X125654762Y-78458819D01*
X125654762Y-78458819D02*
X125750000Y-78411200D01*
X125750000Y-78411200D02*
X125797619Y-78363580D01*
X125797619Y-78363580D02*
X125845238Y-78268342D01*
X125845238Y-78268342D02*
X125845238Y-78030247D01*
X125845238Y-78030247D02*
X125797619Y-77935009D01*
X125797619Y-77935009D02*
X125750000Y-77887390D01*
X125750000Y-77887390D02*
X125654762Y-77839771D01*
X125654762Y-77839771D02*
X125464286Y-77839771D01*
X125464286Y-77839771D02*
X125369048Y-77887390D01*
X125369048Y-77887390D02*
X125321429Y-77935009D01*
X125321429Y-77935009D02*
X125273810Y-78030247D01*
X126464286Y-77458819D02*
X126559524Y-77458819D01*
X126559524Y-77458819D02*
X126654762Y-77506438D01*
X126654762Y-77506438D02*
X126702381Y-77554057D01*
X126702381Y-77554057D02*
X126750000Y-77649295D01*
X126750000Y-77649295D02*
X126797619Y-77839771D01*
X126797619Y-77839771D02*
X126797619Y-78077866D01*
X126797619Y-78077866D02*
X126750000Y-78268342D01*
X126750000Y-78268342D02*
X126702381Y-78363580D01*
X126702381Y-78363580D02*
X126654762Y-78411200D01*
X126654762Y-78411200D02*
X126559524Y-78458819D01*
X126559524Y-78458819D02*
X126464286Y-78458819D01*
X126464286Y-78458819D02*
X126369048Y-78411200D01*
X126369048Y-78411200D02*
X126321429Y-78363580D01*
X126321429Y-78363580D02*
X126273810Y-78268342D01*
X126273810Y-78268342D02*
X126226191Y-78077866D01*
X126226191Y-78077866D02*
X126226191Y-77839771D01*
X126226191Y-77839771D02*
X126273810Y-77649295D01*
X126273810Y-77649295D02*
X126321429Y-77554057D01*
X126321429Y-77554057D02*
X126369048Y-77506438D01*
X126369048Y-77506438D02*
X126464286Y-77458819D01*
X127416667Y-77458819D02*
X127511905Y-77458819D01*
X127511905Y-77458819D02*
X127607143Y-77506438D01*
X127607143Y-77506438D02*
X127654762Y-77554057D01*
X127654762Y-77554057D02*
X127702381Y-77649295D01*
X127702381Y-77649295D02*
X127750000Y-77839771D01*
X127750000Y-77839771D02*
X127750000Y-78077866D01*
X127750000Y-78077866D02*
X127702381Y-78268342D01*
X127702381Y-78268342D02*
X127654762Y-78363580D01*
X127654762Y-78363580D02*
X127607143Y-78411200D01*
X127607143Y-78411200D02*
X127511905Y-78458819D01*
X127511905Y-78458819D02*
X127416667Y-78458819D01*
X127416667Y-78458819D02*
X127321429Y-78411200D01*
X127321429Y-78411200D02*
X127273810Y-78363580D01*
X127273810Y-78363580D02*
X127226191Y-78268342D01*
X127226191Y-78268342D02*
X127178572Y-78077866D01*
X127178572Y-78077866D02*
X127178572Y-77839771D01*
X127178572Y-77839771D02*
X127226191Y-77649295D01*
X127226191Y-77649295D02*
X127273810Y-77554057D01*
X127273810Y-77554057D02*
X127321429Y-77506438D01*
X127321429Y-77506438D02*
X127416667Y-77458819D01*
D11*
X129824800Y-71993734D02*
X129872419Y-71850877D01*
X129872419Y-71850877D02*
X129872419Y-71612782D01*
X129872419Y-71612782D02*
X129824800Y-71517544D01*
X129824800Y-71517544D02*
X129777180Y-71469925D01*
X129777180Y-71469925D02*
X129681942Y-71422306D01*
X129681942Y-71422306D02*
X129586704Y-71422306D01*
X129586704Y-71422306D02*
X129491466Y-71469925D01*
X129491466Y-71469925D02*
X129443847Y-71517544D01*
X129443847Y-71517544D02*
X129396228Y-71612782D01*
X129396228Y-71612782D02*
X129348609Y-71803258D01*
X129348609Y-71803258D02*
X129300990Y-71898496D01*
X129300990Y-71898496D02*
X129253371Y-71946115D01*
X129253371Y-71946115D02*
X129158133Y-71993734D01*
X129158133Y-71993734D02*
X129062895Y-71993734D01*
X129062895Y-71993734D02*
X128967657Y-71946115D01*
X128967657Y-71946115D02*
X128920038Y-71898496D01*
X128920038Y-71898496D02*
X128872419Y-71803258D01*
X128872419Y-71803258D02*
X128872419Y-71565163D01*
X128872419Y-71565163D02*
X128920038Y-71422306D01*
X129872419Y-70993734D02*
X128872419Y-70993734D01*
X128872419Y-70993734D02*
X128872419Y-70755639D01*
X128872419Y-70755639D02*
X128920038Y-70612782D01*
X128920038Y-70612782D02*
X129015276Y-70517544D01*
X129015276Y-70517544D02*
X129110514Y-70469925D01*
X129110514Y-70469925D02*
X129300990Y-70422306D01*
X129300990Y-70422306D02*
X129443847Y-70422306D01*
X129443847Y-70422306D02*
X129634323Y-70469925D01*
X129634323Y-70469925D02*
X129729561Y-70517544D01*
X129729561Y-70517544D02*
X129824800Y-70612782D01*
X129824800Y-70612782D02*
X129872419Y-70755639D01*
X129872419Y-70755639D02*
X129872419Y-70993734D01*
X129586704Y-70041353D02*
X129586704Y-69565163D01*
X129872419Y-70136591D02*
X128872419Y-69803258D01*
X128872419Y-69803258D02*
X129872419Y-69469925D01*
X127324800Y-71993734D02*
X127372419Y-71850877D01*
X127372419Y-71850877D02*
X127372419Y-71612782D01*
X127372419Y-71612782D02*
X127324800Y-71517544D01*
X127324800Y-71517544D02*
X127277180Y-71469925D01*
X127277180Y-71469925D02*
X127181942Y-71422306D01*
X127181942Y-71422306D02*
X127086704Y-71422306D01*
X127086704Y-71422306D02*
X126991466Y-71469925D01*
X126991466Y-71469925D02*
X126943847Y-71517544D01*
X126943847Y-71517544D02*
X126896228Y-71612782D01*
X126896228Y-71612782D02*
X126848609Y-71803258D01*
X126848609Y-71803258D02*
X126800990Y-71898496D01*
X126800990Y-71898496D02*
X126753371Y-71946115D01*
X126753371Y-71946115D02*
X126658133Y-71993734D01*
X126658133Y-71993734D02*
X126562895Y-71993734D01*
X126562895Y-71993734D02*
X126467657Y-71946115D01*
X126467657Y-71946115D02*
X126420038Y-71898496D01*
X126420038Y-71898496D02*
X126372419Y-71803258D01*
X126372419Y-71803258D02*
X126372419Y-71565163D01*
X126372419Y-71565163D02*
X126420038Y-71422306D01*
X127277180Y-70422306D02*
X127324800Y-70469925D01*
X127324800Y-70469925D02*
X127372419Y-70612782D01*
X127372419Y-70612782D02*
X127372419Y-70708020D01*
X127372419Y-70708020D02*
X127324800Y-70850877D01*
X127324800Y-70850877D02*
X127229561Y-70946115D01*
X127229561Y-70946115D02*
X127134323Y-70993734D01*
X127134323Y-70993734D02*
X126943847Y-71041353D01*
X126943847Y-71041353D02*
X126800990Y-71041353D01*
X126800990Y-71041353D02*
X126610514Y-70993734D01*
X126610514Y-70993734D02*
X126515276Y-70946115D01*
X126515276Y-70946115D02*
X126420038Y-70850877D01*
X126420038Y-70850877D02*
X126372419Y-70708020D01*
X126372419Y-70708020D02*
X126372419Y-70612782D01*
X126372419Y-70612782D02*
X126420038Y-70469925D01*
X126420038Y-70469925D02*
X126467657Y-70422306D01*
X127372419Y-69517544D02*
X127372419Y-69993734D01*
X127372419Y-69993734D02*
X126372419Y-69993734D01*
X121045838Y-71512106D02*
X120998219Y-71607344D01*
X120998219Y-71607344D02*
X120998219Y-71750201D01*
X120998219Y-71750201D02*
X121045838Y-71893058D01*
X121045838Y-71893058D02*
X121141076Y-71988296D01*
X121141076Y-71988296D02*
X121236314Y-72035915D01*
X121236314Y-72035915D02*
X121426790Y-72083534D01*
X121426790Y-72083534D02*
X121569647Y-72083534D01*
X121569647Y-72083534D02*
X121760123Y-72035915D01*
X121760123Y-72035915D02*
X121855361Y-71988296D01*
X121855361Y-71988296D02*
X121950600Y-71893058D01*
X121950600Y-71893058D02*
X121998219Y-71750201D01*
X121998219Y-71750201D02*
X121998219Y-71654963D01*
X121998219Y-71654963D02*
X121950600Y-71512106D01*
X121950600Y-71512106D02*
X121902980Y-71464487D01*
X121902980Y-71464487D02*
X121569647Y-71464487D01*
X121569647Y-71464487D02*
X121569647Y-71654963D01*
X121998219Y-71035915D02*
X120998219Y-71035915D01*
X120998219Y-71035915D02*
X121998219Y-70464487D01*
X121998219Y-70464487D02*
X120998219Y-70464487D01*
X121998219Y-69988296D02*
X120998219Y-69988296D01*
X120998219Y-69988296D02*
X120998219Y-69750201D01*
X120998219Y-69750201D02*
X121045838Y-69607344D01*
X121045838Y-69607344D02*
X121141076Y-69512106D01*
X121141076Y-69512106D02*
X121236314Y-69464487D01*
X121236314Y-69464487D02*
X121426790Y-69416868D01*
X121426790Y-69416868D02*
X121569647Y-69416868D01*
X121569647Y-69416868D02*
X121760123Y-69464487D01*
X121760123Y-69464487D02*
X121855361Y-69512106D01*
X121855361Y-69512106D02*
X121950600Y-69607344D01*
X121950600Y-69607344D02*
X121998219Y-69750201D01*
X121998219Y-69750201D02*
X121998219Y-69988296D01*
X123639819Y-71924772D02*
X124639819Y-71591439D01*
X124639819Y-71591439D02*
X123639819Y-71258106D01*
X124639819Y-70924772D02*
X123639819Y-70924772D01*
X124639819Y-70448582D02*
X123639819Y-70448582D01*
X123639819Y-70448582D02*
X124639819Y-69877154D01*
X124639819Y-69877154D02*
X123639819Y-69877154D01*
D10*
X121035714Y-100204819D02*
X121035714Y-101014342D01*
X121035714Y-101014342D02*
X121083333Y-101109580D01*
X121083333Y-101109580D02*
X121130952Y-101157200D01*
X121130952Y-101157200D02*
X121226190Y-101204819D01*
X121226190Y-101204819D02*
X121416666Y-101204819D01*
X121416666Y-101204819D02*
X121511904Y-101157200D01*
X121511904Y-101157200D02*
X121559523Y-101109580D01*
X121559523Y-101109580D02*
X121607142Y-101014342D01*
X121607142Y-101014342D02*
X121607142Y-100204819D01*
X122559523Y-100204819D02*
X122083333Y-100204819D01*
X122083333Y-100204819D02*
X122035714Y-100681009D01*
X122035714Y-100681009D02*
X122083333Y-100633390D01*
X122083333Y-100633390D02*
X122178571Y-100585771D01*
X122178571Y-100585771D02*
X122416666Y-100585771D01*
X122416666Y-100585771D02*
X122511904Y-100633390D01*
X122511904Y-100633390D02*
X122559523Y-100681009D01*
X122559523Y-100681009D02*
X122607142Y-100776247D01*
X122607142Y-100776247D02*
X122607142Y-101014342D01*
X122607142Y-101014342D02*
X122559523Y-101109580D01*
X122559523Y-101109580D02*
X122511904Y-101157200D01*
X122511904Y-101157200D02*
X122416666Y-101204819D01*
X122416666Y-101204819D02*
X122178571Y-101204819D01*
X122178571Y-101204819D02*
X122083333Y-101157200D01*
X122083333Y-101157200D02*
X122035714Y-101109580D01*
X123226190Y-100204819D02*
X123321428Y-100204819D01*
X123321428Y-100204819D02*
X123416666Y-100252438D01*
X123416666Y-100252438D02*
X123464285Y-100300057D01*
X123464285Y-100300057D02*
X123511904Y-100395295D01*
X123511904Y-100395295D02*
X123559523Y-100585771D01*
X123559523Y-100585771D02*
X123559523Y-100823866D01*
X123559523Y-100823866D02*
X123511904Y-101014342D01*
X123511904Y-101014342D02*
X123464285Y-101109580D01*
X123464285Y-101109580D02*
X123416666Y-101157200D01*
X123416666Y-101157200D02*
X123321428Y-101204819D01*
X123321428Y-101204819D02*
X123226190Y-101204819D01*
X123226190Y-101204819D02*
X123130952Y-101157200D01*
X123130952Y-101157200D02*
X123083333Y-101109580D01*
X123083333Y-101109580D02*
X123035714Y-101014342D01*
X123035714Y-101014342D02*
X122988095Y-100823866D01*
X122988095Y-100823866D02*
X122988095Y-100585771D01*
X122988095Y-100585771D02*
X123035714Y-100395295D01*
X123035714Y-100395295D02*
X123083333Y-100300057D01*
X123083333Y-100300057D02*
X123130952Y-100252438D01*
X123130952Y-100252438D02*
X123226190Y-100204819D01*
X124511904Y-101204819D02*
X123940476Y-101204819D01*
X124226190Y-101204819D02*
X124226190Y-100204819D01*
X124226190Y-100204819D02*
X124130952Y-100347676D01*
X124130952Y-100347676D02*
X124035714Y-100442914D01*
X124035714Y-100442914D02*
X123940476Y-100490533D01*
X131035714Y-100204819D02*
X131035714Y-101014342D01*
X131035714Y-101014342D02*
X131083333Y-101109580D01*
X131083333Y-101109580D02*
X131130952Y-101157200D01*
X131130952Y-101157200D02*
X131226190Y-101204819D01*
X131226190Y-101204819D02*
X131416666Y-101204819D01*
X131416666Y-101204819D02*
X131511904Y-101157200D01*
X131511904Y-101157200D02*
X131559523Y-101109580D01*
X131559523Y-101109580D02*
X131607142Y-101014342D01*
X131607142Y-101014342D02*
X131607142Y-100204819D01*
X132559523Y-100204819D02*
X132083333Y-100204819D01*
X132083333Y-100204819D02*
X132035714Y-100681009D01*
X132035714Y-100681009D02*
X132083333Y-100633390D01*
X132083333Y-100633390D02*
X132178571Y-100585771D01*
X132178571Y-100585771D02*
X132416666Y-100585771D01*
X132416666Y-100585771D02*
X132511904Y-100633390D01*
X132511904Y-100633390D02*
X132559523Y-100681009D01*
X132559523Y-100681009D02*
X132607142Y-100776247D01*
X132607142Y-100776247D02*
X132607142Y-101014342D01*
X132607142Y-101014342D02*
X132559523Y-101109580D01*
X132559523Y-101109580D02*
X132511904Y-101157200D01*
X132511904Y-101157200D02*
X132416666Y-101204819D01*
X132416666Y-101204819D02*
X132178571Y-101204819D01*
X132178571Y-101204819D02*
X132083333Y-101157200D01*
X132083333Y-101157200D02*
X132035714Y-101109580D01*
X133226190Y-100204819D02*
X133321428Y-100204819D01*
X133321428Y-100204819D02*
X133416666Y-100252438D01*
X133416666Y-100252438D02*
X133464285Y-100300057D01*
X133464285Y-100300057D02*
X133511904Y-100395295D01*
X133511904Y-100395295D02*
X133559523Y-100585771D01*
X133559523Y-100585771D02*
X133559523Y-100823866D01*
X133559523Y-100823866D02*
X133511904Y-101014342D01*
X133511904Y-101014342D02*
X133464285Y-101109580D01*
X133464285Y-101109580D02*
X133416666Y-101157200D01*
X133416666Y-101157200D02*
X133321428Y-101204819D01*
X133321428Y-101204819D02*
X133226190Y-101204819D01*
X133226190Y-101204819D02*
X133130952Y-101157200D01*
X133130952Y-101157200D02*
X133083333Y-101109580D01*
X133083333Y-101109580D02*
X133035714Y-101014342D01*
X133035714Y-101014342D02*
X132988095Y-100823866D01*
X132988095Y-100823866D02*
X132988095Y-100585771D01*
X132988095Y-100585771D02*
X133035714Y-100395295D01*
X133035714Y-100395295D02*
X133083333Y-100300057D01*
X133083333Y-100300057D02*
X133130952Y-100252438D01*
X133130952Y-100252438D02*
X133226190Y-100204819D01*
X133940476Y-100300057D02*
X133988095Y-100252438D01*
X133988095Y-100252438D02*
X134083333Y-100204819D01*
X134083333Y-100204819D02*
X134321428Y-100204819D01*
X134321428Y-100204819D02*
X134416666Y-100252438D01*
X134416666Y-100252438D02*
X134464285Y-100300057D01*
X134464285Y-100300057D02*
X134511904Y-100395295D01*
X134511904Y-100395295D02*
X134511904Y-100490533D01*
X134511904Y-100490533D02*
X134464285Y-100633390D01*
X134464285Y-100633390D02*
X133892857Y-101204819D01*
X133892857Y-101204819D02*
X134511904Y-101204819D01*
X111035714Y-110204819D02*
X111035714Y-111014342D01*
X111035714Y-111014342D02*
X111083333Y-111109580D01*
X111083333Y-111109580D02*
X111130952Y-111157200D01*
X111130952Y-111157200D02*
X111226190Y-111204819D01*
X111226190Y-111204819D02*
X111416666Y-111204819D01*
X111416666Y-111204819D02*
X111511904Y-111157200D01*
X111511904Y-111157200D02*
X111559523Y-111109580D01*
X111559523Y-111109580D02*
X111607142Y-111014342D01*
X111607142Y-111014342D02*
X111607142Y-110204819D01*
X112559523Y-110204819D02*
X112083333Y-110204819D01*
X112083333Y-110204819D02*
X112035714Y-110681009D01*
X112035714Y-110681009D02*
X112083333Y-110633390D01*
X112083333Y-110633390D02*
X112178571Y-110585771D01*
X112178571Y-110585771D02*
X112416666Y-110585771D01*
X112416666Y-110585771D02*
X112511904Y-110633390D01*
X112511904Y-110633390D02*
X112559523Y-110681009D01*
X112559523Y-110681009D02*
X112607142Y-110776247D01*
X112607142Y-110776247D02*
X112607142Y-111014342D01*
X112607142Y-111014342D02*
X112559523Y-111109580D01*
X112559523Y-111109580D02*
X112511904Y-111157200D01*
X112511904Y-111157200D02*
X112416666Y-111204819D01*
X112416666Y-111204819D02*
X112178571Y-111204819D01*
X112178571Y-111204819D02*
X112083333Y-111157200D01*
X112083333Y-111157200D02*
X112035714Y-111109580D01*
X113226190Y-110204819D02*
X113321428Y-110204819D01*
X113321428Y-110204819D02*
X113416666Y-110252438D01*
X113416666Y-110252438D02*
X113464285Y-110300057D01*
X113464285Y-110300057D02*
X113511904Y-110395295D01*
X113511904Y-110395295D02*
X113559523Y-110585771D01*
X113559523Y-110585771D02*
X113559523Y-110823866D01*
X113559523Y-110823866D02*
X113511904Y-111014342D01*
X113511904Y-111014342D02*
X113464285Y-111109580D01*
X113464285Y-111109580D02*
X113416666Y-111157200D01*
X113416666Y-111157200D02*
X113321428Y-111204819D01*
X113321428Y-111204819D02*
X113226190Y-111204819D01*
X113226190Y-111204819D02*
X113130952Y-111157200D01*
X113130952Y-111157200D02*
X113083333Y-111109580D01*
X113083333Y-111109580D02*
X113035714Y-111014342D01*
X113035714Y-111014342D02*
X112988095Y-110823866D01*
X112988095Y-110823866D02*
X112988095Y-110585771D01*
X112988095Y-110585771D02*
X113035714Y-110395295D01*
X113035714Y-110395295D02*
X113083333Y-110300057D01*
X113083333Y-110300057D02*
X113130952Y-110252438D01*
X113130952Y-110252438D02*
X113226190Y-110204819D01*
X114416666Y-110538152D02*
X114416666Y-111204819D01*
X114178571Y-110157200D02*
X113940476Y-110871485D01*
X113940476Y-110871485D02*
X114559523Y-110871485D01*
X84836779Y-91504819D02*
X84836779Y-92314342D01*
X84836779Y-92314342D02*
X84884398Y-92409580D01*
X84884398Y-92409580D02*
X84932017Y-92457200D01*
X84932017Y-92457200D02*
X85027255Y-92504819D01*
X85027255Y-92504819D02*
X85217731Y-92504819D01*
X85217731Y-92504819D02*
X85312969Y-92457200D01*
X85312969Y-92457200D02*
X85360588Y-92409580D01*
X85360588Y-92409580D02*
X85408207Y-92314342D01*
X85408207Y-92314342D02*
X85408207Y-91504819D01*
X85836779Y-91600057D02*
X85884398Y-91552438D01*
X85884398Y-91552438D02*
X85979636Y-91504819D01*
X85979636Y-91504819D02*
X86217731Y-91504819D01*
X86217731Y-91504819D02*
X86312969Y-91552438D01*
X86312969Y-91552438D02*
X86360588Y-91600057D01*
X86360588Y-91600057D02*
X86408207Y-91695295D01*
X86408207Y-91695295D02*
X86408207Y-91790533D01*
X86408207Y-91790533D02*
X86360588Y-91933390D01*
X86360588Y-91933390D02*
X85789160Y-92504819D01*
X85789160Y-92504819D02*
X86408207Y-92504819D01*
X87027255Y-91504819D02*
X87122493Y-91504819D01*
X87122493Y-91504819D02*
X87217731Y-91552438D01*
X87217731Y-91552438D02*
X87265350Y-91600057D01*
X87265350Y-91600057D02*
X87312969Y-91695295D01*
X87312969Y-91695295D02*
X87360588Y-91885771D01*
X87360588Y-91885771D02*
X87360588Y-92123866D01*
X87360588Y-92123866D02*
X87312969Y-92314342D01*
X87312969Y-92314342D02*
X87265350Y-92409580D01*
X87265350Y-92409580D02*
X87217731Y-92457200D01*
X87217731Y-92457200D02*
X87122493Y-92504819D01*
X87122493Y-92504819D02*
X87027255Y-92504819D01*
X87027255Y-92504819D02*
X86932017Y-92457200D01*
X86932017Y-92457200D02*
X86884398Y-92409580D01*
X86884398Y-92409580D02*
X86836779Y-92314342D01*
X86836779Y-92314342D02*
X86789160Y-92123866D01*
X86789160Y-92123866D02*
X86789160Y-91885771D01*
X86789160Y-91885771D02*
X86836779Y-91695295D01*
X86836779Y-91695295D02*
X86884398Y-91600057D01*
X86884398Y-91600057D02*
X86932017Y-91552438D01*
X86932017Y-91552438D02*
X87027255Y-91504819D01*
X87979636Y-91504819D02*
X88074874Y-91504819D01*
X88074874Y-91504819D02*
X88170112Y-91552438D01*
X88170112Y-91552438D02*
X88217731Y-91600057D01*
X88217731Y-91600057D02*
X88265350Y-91695295D01*
X88265350Y-91695295D02*
X88312969Y-91885771D01*
X88312969Y-91885771D02*
X88312969Y-92123866D01*
X88312969Y-92123866D02*
X88265350Y-92314342D01*
X88265350Y-92314342D02*
X88217731Y-92409580D01*
X88217731Y-92409580D02*
X88170112Y-92457200D01*
X88170112Y-92457200D02*
X88074874Y-92504819D01*
X88074874Y-92504819D02*
X87979636Y-92504819D01*
X87979636Y-92504819D02*
X87884398Y-92457200D01*
X87884398Y-92457200D02*
X87836779Y-92409580D01*
X87836779Y-92409580D02*
X87789160Y-92314342D01*
X87789160Y-92314342D02*
X87741541Y-92123866D01*
X87741541Y-92123866D02*
X87741541Y-91885771D01*
X87741541Y-91885771D02*
X87789160Y-91695295D01*
X87789160Y-91695295D02*
X87836779Y-91600057D01*
X87836779Y-91600057D02*
X87884398Y-91552438D01*
X87884398Y-91552438D02*
X87979636Y-91504819D01*
D12*
X137152219Y-60834080D02*
X137333647Y-60894556D01*
X137333647Y-60894556D02*
X137394124Y-60955032D01*
X137394124Y-60955032D02*
X137454600Y-61075984D01*
X137454600Y-61075984D02*
X137454600Y-61257413D01*
X137454600Y-61257413D02*
X137394124Y-61378365D01*
X137394124Y-61378365D02*
X137333647Y-61438842D01*
X137333647Y-61438842D02*
X137212695Y-61499318D01*
X137212695Y-61499318D02*
X136728885Y-61499318D01*
X136728885Y-61499318D02*
X136728885Y-60229318D01*
X136728885Y-60229318D02*
X137152219Y-60229318D01*
X137152219Y-60229318D02*
X137273171Y-60289794D01*
X137273171Y-60289794D02*
X137333647Y-60350270D01*
X137333647Y-60350270D02*
X137394124Y-60471222D01*
X137394124Y-60471222D02*
X137394124Y-60592175D01*
X137394124Y-60592175D02*
X137333647Y-60713127D01*
X137333647Y-60713127D02*
X137273171Y-60773603D01*
X137273171Y-60773603D02*
X137152219Y-60834080D01*
X137152219Y-60834080D02*
X136728885Y-60834080D01*
X137817457Y-60229318D02*
X138543171Y-60229318D01*
X138180314Y-61499318D02*
X138180314Y-60229318D01*
X139510790Y-60229318D02*
X139268885Y-60229318D01*
X139268885Y-60229318D02*
X139147933Y-60289794D01*
X139147933Y-60289794D02*
X139087457Y-60350270D01*
X139087457Y-60350270D02*
X138966504Y-60531699D01*
X138966504Y-60531699D02*
X138906028Y-60773603D01*
X138906028Y-60773603D02*
X138906028Y-61257413D01*
X138906028Y-61257413D02*
X138966504Y-61378365D01*
X138966504Y-61378365D02*
X139026981Y-61438842D01*
X139026981Y-61438842D02*
X139147933Y-61499318D01*
X139147933Y-61499318D02*
X139389838Y-61499318D01*
X139389838Y-61499318D02*
X139510790Y-61438842D01*
X139510790Y-61438842D02*
X139571266Y-61378365D01*
X139571266Y-61378365D02*
X139631743Y-61257413D01*
X139631743Y-61257413D02*
X139631743Y-60955032D01*
X139631743Y-60955032D02*
X139571266Y-60834080D01*
X139571266Y-60834080D02*
X139510790Y-60773603D01*
X139510790Y-60773603D02*
X139389838Y-60713127D01*
X139389838Y-60713127D02*
X139147933Y-60713127D01*
X139147933Y-60713127D02*
X139026981Y-60773603D01*
X139026981Y-60773603D02*
X138966504Y-60834080D01*
X138966504Y-60834080D02*
X138906028Y-60955032D01*
X140417933Y-60229318D02*
X140538886Y-60229318D01*
X140538886Y-60229318D02*
X140659838Y-60289794D01*
X140659838Y-60289794D02*
X140720314Y-60350270D01*
X140720314Y-60350270D02*
X140780790Y-60471222D01*
X140780790Y-60471222D02*
X140841267Y-60713127D01*
X140841267Y-60713127D02*
X140841267Y-61015508D01*
X140841267Y-61015508D02*
X140780790Y-61257413D01*
X140780790Y-61257413D02*
X140720314Y-61378365D01*
X140720314Y-61378365D02*
X140659838Y-61438842D01*
X140659838Y-61438842D02*
X140538886Y-61499318D01*
X140538886Y-61499318D02*
X140417933Y-61499318D01*
X140417933Y-61499318D02*
X140296981Y-61438842D01*
X140296981Y-61438842D02*
X140236505Y-61378365D01*
X140236505Y-61378365D02*
X140176028Y-61257413D01*
X140176028Y-61257413D02*
X140115552Y-61015508D01*
X140115552Y-61015508D02*
X140115552Y-60713127D01*
X140115552Y-60713127D02*
X140176028Y-60471222D01*
X140176028Y-60471222D02*
X140236505Y-60350270D01*
X140236505Y-60350270D02*
X140296981Y-60289794D01*
X140296981Y-60289794D02*
X140417933Y-60229318D01*
X141627457Y-60229318D02*
X141748410Y-60229318D01*
X141748410Y-60229318D02*
X141869362Y-60289794D01*
X141869362Y-60289794D02*
X141929838Y-60350270D01*
X141929838Y-60350270D02*
X141990314Y-60471222D01*
X141990314Y-60471222D02*
X142050791Y-60713127D01*
X142050791Y-60713127D02*
X142050791Y-61015508D01*
X142050791Y-61015508D02*
X141990314Y-61257413D01*
X141990314Y-61257413D02*
X141929838Y-61378365D01*
X141929838Y-61378365D02*
X141869362Y-61438842D01*
X141869362Y-61438842D02*
X141748410Y-61499318D01*
X141748410Y-61499318D02*
X141627457Y-61499318D01*
X141627457Y-61499318D02*
X141506505Y-61438842D01*
X141506505Y-61438842D02*
X141446029Y-61378365D01*
X141446029Y-61378365D02*
X141385552Y-61257413D01*
X141385552Y-61257413D02*
X141325076Y-61015508D01*
X141325076Y-61015508D02*
X141325076Y-60713127D01*
X141325076Y-60713127D02*
X141385552Y-60471222D01*
X141385552Y-60471222D02*
X141446029Y-60350270D01*
X141446029Y-60350270D02*
X141506505Y-60289794D01*
X141506505Y-60289794D02*
X141627457Y-60229318D01*
D10*
X111035714Y-120204819D02*
X111035714Y-121014342D01*
X111035714Y-121014342D02*
X111083333Y-121109580D01*
X111083333Y-121109580D02*
X111130952Y-121157200D01*
X111130952Y-121157200D02*
X111226190Y-121204819D01*
X111226190Y-121204819D02*
X111416666Y-121204819D01*
X111416666Y-121204819D02*
X111511904Y-121157200D01*
X111511904Y-121157200D02*
X111559523Y-121109580D01*
X111559523Y-121109580D02*
X111607142Y-121014342D01*
X111607142Y-121014342D02*
X111607142Y-120204819D01*
X112559523Y-120204819D02*
X112083333Y-120204819D01*
X112083333Y-120204819D02*
X112035714Y-120681009D01*
X112035714Y-120681009D02*
X112083333Y-120633390D01*
X112083333Y-120633390D02*
X112178571Y-120585771D01*
X112178571Y-120585771D02*
X112416666Y-120585771D01*
X112416666Y-120585771D02*
X112511904Y-120633390D01*
X112511904Y-120633390D02*
X112559523Y-120681009D01*
X112559523Y-120681009D02*
X112607142Y-120776247D01*
X112607142Y-120776247D02*
X112607142Y-121014342D01*
X112607142Y-121014342D02*
X112559523Y-121109580D01*
X112559523Y-121109580D02*
X112511904Y-121157200D01*
X112511904Y-121157200D02*
X112416666Y-121204819D01*
X112416666Y-121204819D02*
X112178571Y-121204819D01*
X112178571Y-121204819D02*
X112083333Y-121157200D01*
X112083333Y-121157200D02*
X112035714Y-121109580D01*
X113226190Y-120204819D02*
X113321428Y-120204819D01*
X113321428Y-120204819D02*
X113416666Y-120252438D01*
X113416666Y-120252438D02*
X113464285Y-120300057D01*
X113464285Y-120300057D02*
X113511904Y-120395295D01*
X113511904Y-120395295D02*
X113559523Y-120585771D01*
X113559523Y-120585771D02*
X113559523Y-120823866D01*
X113559523Y-120823866D02*
X113511904Y-121014342D01*
X113511904Y-121014342D02*
X113464285Y-121109580D01*
X113464285Y-121109580D02*
X113416666Y-121157200D01*
X113416666Y-121157200D02*
X113321428Y-121204819D01*
X113321428Y-121204819D02*
X113226190Y-121204819D01*
X113226190Y-121204819D02*
X113130952Y-121157200D01*
X113130952Y-121157200D02*
X113083333Y-121109580D01*
X113083333Y-121109580D02*
X113035714Y-121014342D01*
X113035714Y-121014342D02*
X112988095Y-120823866D01*
X112988095Y-120823866D02*
X112988095Y-120585771D01*
X112988095Y-120585771D02*
X113035714Y-120395295D01*
X113035714Y-120395295D02*
X113083333Y-120300057D01*
X113083333Y-120300057D02*
X113130952Y-120252438D01*
X113130952Y-120252438D02*
X113226190Y-120204819D01*
X114130952Y-120633390D02*
X114035714Y-120585771D01*
X114035714Y-120585771D02*
X113988095Y-120538152D01*
X113988095Y-120538152D02*
X113940476Y-120442914D01*
X113940476Y-120442914D02*
X113940476Y-120395295D01*
X113940476Y-120395295D02*
X113988095Y-120300057D01*
X113988095Y-120300057D02*
X114035714Y-120252438D01*
X114035714Y-120252438D02*
X114130952Y-120204819D01*
X114130952Y-120204819D02*
X114321428Y-120204819D01*
X114321428Y-120204819D02*
X114416666Y-120252438D01*
X114416666Y-120252438D02*
X114464285Y-120300057D01*
X114464285Y-120300057D02*
X114511904Y-120395295D01*
X114511904Y-120395295D02*
X114511904Y-120442914D01*
X114511904Y-120442914D02*
X114464285Y-120538152D01*
X114464285Y-120538152D02*
X114416666Y-120585771D01*
X114416666Y-120585771D02*
X114321428Y-120633390D01*
X114321428Y-120633390D02*
X114130952Y-120633390D01*
X114130952Y-120633390D02*
X114035714Y-120681009D01*
X114035714Y-120681009D02*
X113988095Y-120728628D01*
X113988095Y-120728628D02*
X113940476Y-120823866D01*
X113940476Y-120823866D02*
X113940476Y-121014342D01*
X113940476Y-121014342D02*
X113988095Y-121109580D01*
X113988095Y-121109580D02*
X114035714Y-121157200D01*
X114035714Y-121157200D02*
X114130952Y-121204819D01*
X114130952Y-121204819D02*
X114321428Y-121204819D01*
X114321428Y-121204819D02*
X114416666Y-121157200D01*
X114416666Y-121157200D02*
X114464285Y-121109580D01*
X114464285Y-121109580D02*
X114511904Y-121014342D01*
X114511904Y-121014342D02*
X114511904Y-120823866D01*
X114511904Y-120823866D02*
X114464285Y-120728628D01*
X114464285Y-120728628D02*
X114416666Y-120681009D01*
X114416666Y-120681009D02*
X114321428Y-120633390D01*
D12*
X85307143Y-120729318D02*
X85307143Y-121636461D01*
X85307143Y-121636461D02*
X85246666Y-121817889D01*
X85246666Y-121817889D02*
X85125714Y-121938842D01*
X85125714Y-121938842D02*
X84944285Y-121999318D01*
X84944285Y-121999318D02*
X84823333Y-121999318D01*
X86456190Y-121152651D02*
X86456190Y-121999318D01*
X86153809Y-120668842D02*
X85851428Y-121575984D01*
X85851428Y-121575984D02*
X86637619Y-121575984D01*
X87363333Y-120729318D02*
X87484286Y-120729318D01*
X87484286Y-120729318D02*
X87605238Y-120789794D01*
X87605238Y-120789794D02*
X87665714Y-120850270D01*
X87665714Y-120850270D02*
X87726190Y-120971222D01*
X87726190Y-120971222D02*
X87786667Y-121213127D01*
X87786667Y-121213127D02*
X87786667Y-121515508D01*
X87786667Y-121515508D02*
X87726190Y-121757413D01*
X87726190Y-121757413D02*
X87665714Y-121878365D01*
X87665714Y-121878365D02*
X87605238Y-121938842D01*
X87605238Y-121938842D02*
X87484286Y-121999318D01*
X87484286Y-121999318D02*
X87363333Y-121999318D01*
X87363333Y-121999318D02*
X87242381Y-121938842D01*
X87242381Y-121938842D02*
X87181905Y-121878365D01*
X87181905Y-121878365D02*
X87121428Y-121757413D01*
X87121428Y-121757413D02*
X87060952Y-121515508D01*
X87060952Y-121515508D02*
X87060952Y-121213127D01*
X87060952Y-121213127D02*
X87121428Y-120971222D01*
X87121428Y-120971222D02*
X87181905Y-120850270D01*
X87181905Y-120850270D02*
X87242381Y-120789794D01*
X87242381Y-120789794D02*
X87363333Y-120729318D01*
X88572857Y-120729318D02*
X88693810Y-120729318D01*
X88693810Y-120729318D02*
X88814762Y-120789794D01*
X88814762Y-120789794D02*
X88875238Y-120850270D01*
X88875238Y-120850270D02*
X88935714Y-120971222D01*
X88935714Y-120971222D02*
X88996191Y-121213127D01*
X88996191Y-121213127D02*
X88996191Y-121515508D01*
X88996191Y-121515508D02*
X88935714Y-121757413D01*
X88935714Y-121757413D02*
X88875238Y-121878365D01*
X88875238Y-121878365D02*
X88814762Y-121938842D01*
X88814762Y-121938842D02*
X88693810Y-121999318D01*
X88693810Y-121999318D02*
X88572857Y-121999318D01*
X88572857Y-121999318D02*
X88451905Y-121938842D01*
X88451905Y-121938842D02*
X88391429Y-121878365D01*
X88391429Y-121878365D02*
X88330952Y-121757413D01*
X88330952Y-121757413D02*
X88270476Y-121515508D01*
X88270476Y-121515508D02*
X88270476Y-121213127D01*
X88270476Y-121213127D02*
X88330952Y-120971222D01*
X88330952Y-120971222D02*
X88391429Y-120850270D01*
X88391429Y-120850270D02*
X88451905Y-120789794D01*
X88451905Y-120789794D02*
X88572857Y-120729318D01*
D10*
X131035714Y-110204819D02*
X131035714Y-111014342D01*
X131035714Y-111014342D02*
X131083333Y-111109580D01*
X131083333Y-111109580D02*
X131130952Y-111157200D01*
X131130952Y-111157200D02*
X131226190Y-111204819D01*
X131226190Y-111204819D02*
X131416666Y-111204819D01*
X131416666Y-111204819D02*
X131511904Y-111157200D01*
X131511904Y-111157200D02*
X131559523Y-111109580D01*
X131559523Y-111109580D02*
X131607142Y-111014342D01*
X131607142Y-111014342D02*
X131607142Y-110204819D01*
X132559523Y-110204819D02*
X132083333Y-110204819D01*
X132083333Y-110204819D02*
X132035714Y-110681009D01*
X132035714Y-110681009D02*
X132083333Y-110633390D01*
X132083333Y-110633390D02*
X132178571Y-110585771D01*
X132178571Y-110585771D02*
X132416666Y-110585771D01*
X132416666Y-110585771D02*
X132511904Y-110633390D01*
X132511904Y-110633390D02*
X132559523Y-110681009D01*
X132559523Y-110681009D02*
X132607142Y-110776247D01*
X132607142Y-110776247D02*
X132607142Y-111014342D01*
X132607142Y-111014342D02*
X132559523Y-111109580D01*
X132559523Y-111109580D02*
X132511904Y-111157200D01*
X132511904Y-111157200D02*
X132416666Y-111204819D01*
X132416666Y-111204819D02*
X132178571Y-111204819D01*
X132178571Y-111204819D02*
X132083333Y-111157200D01*
X132083333Y-111157200D02*
X132035714Y-111109580D01*
X133226190Y-110204819D02*
X133321428Y-110204819D01*
X133321428Y-110204819D02*
X133416666Y-110252438D01*
X133416666Y-110252438D02*
X133464285Y-110300057D01*
X133464285Y-110300057D02*
X133511904Y-110395295D01*
X133511904Y-110395295D02*
X133559523Y-110585771D01*
X133559523Y-110585771D02*
X133559523Y-110823866D01*
X133559523Y-110823866D02*
X133511904Y-111014342D01*
X133511904Y-111014342D02*
X133464285Y-111109580D01*
X133464285Y-111109580D02*
X133416666Y-111157200D01*
X133416666Y-111157200D02*
X133321428Y-111204819D01*
X133321428Y-111204819D02*
X133226190Y-111204819D01*
X133226190Y-111204819D02*
X133130952Y-111157200D01*
X133130952Y-111157200D02*
X133083333Y-111109580D01*
X133083333Y-111109580D02*
X133035714Y-111014342D01*
X133035714Y-111014342D02*
X132988095Y-110823866D01*
X132988095Y-110823866D02*
X132988095Y-110585771D01*
X132988095Y-110585771D02*
X133035714Y-110395295D01*
X133035714Y-110395295D02*
X133083333Y-110300057D01*
X133083333Y-110300057D02*
X133130952Y-110252438D01*
X133130952Y-110252438D02*
X133226190Y-110204819D01*
X134416666Y-110204819D02*
X134226190Y-110204819D01*
X134226190Y-110204819D02*
X134130952Y-110252438D01*
X134130952Y-110252438D02*
X134083333Y-110300057D01*
X134083333Y-110300057D02*
X133988095Y-110442914D01*
X133988095Y-110442914D02*
X133940476Y-110633390D01*
X133940476Y-110633390D02*
X133940476Y-111014342D01*
X133940476Y-111014342D02*
X133988095Y-111109580D01*
X133988095Y-111109580D02*
X134035714Y-111157200D01*
X134035714Y-111157200D02*
X134130952Y-111204819D01*
X134130952Y-111204819D02*
X134321428Y-111204819D01*
X134321428Y-111204819D02*
X134416666Y-111157200D01*
X134416666Y-111157200D02*
X134464285Y-111109580D01*
X134464285Y-111109580D02*
X134511904Y-111014342D01*
X134511904Y-111014342D02*
X134511904Y-110776247D01*
X134511904Y-110776247D02*
X134464285Y-110681009D01*
X134464285Y-110681009D02*
X134416666Y-110633390D01*
X134416666Y-110633390D02*
X134321428Y-110585771D01*
X134321428Y-110585771D02*
X134130952Y-110585771D01*
X134130952Y-110585771D02*
X134035714Y-110633390D01*
X134035714Y-110633390D02*
X133988095Y-110681009D01*
X133988095Y-110681009D02*
X133940476Y-110776247D01*
X111035714Y-100204819D02*
X111035714Y-101014342D01*
X111035714Y-101014342D02*
X111083333Y-101109580D01*
X111083333Y-101109580D02*
X111130952Y-101157200D01*
X111130952Y-101157200D02*
X111226190Y-101204819D01*
X111226190Y-101204819D02*
X111416666Y-101204819D01*
X111416666Y-101204819D02*
X111511904Y-101157200D01*
X111511904Y-101157200D02*
X111559523Y-101109580D01*
X111559523Y-101109580D02*
X111607142Y-101014342D01*
X111607142Y-101014342D02*
X111607142Y-100204819D01*
X112559523Y-100204819D02*
X112083333Y-100204819D01*
X112083333Y-100204819D02*
X112035714Y-100681009D01*
X112035714Y-100681009D02*
X112083333Y-100633390D01*
X112083333Y-100633390D02*
X112178571Y-100585771D01*
X112178571Y-100585771D02*
X112416666Y-100585771D01*
X112416666Y-100585771D02*
X112511904Y-100633390D01*
X112511904Y-100633390D02*
X112559523Y-100681009D01*
X112559523Y-100681009D02*
X112607142Y-100776247D01*
X112607142Y-100776247D02*
X112607142Y-101014342D01*
X112607142Y-101014342D02*
X112559523Y-101109580D01*
X112559523Y-101109580D02*
X112511904Y-101157200D01*
X112511904Y-101157200D02*
X112416666Y-101204819D01*
X112416666Y-101204819D02*
X112178571Y-101204819D01*
X112178571Y-101204819D02*
X112083333Y-101157200D01*
X112083333Y-101157200D02*
X112035714Y-101109580D01*
X113226190Y-100204819D02*
X113321428Y-100204819D01*
X113321428Y-100204819D02*
X113416666Y-100252438D01*
X113416666Y-100252438D02*
X113464285Y-100300057D01*
X113464285Y-100300057D02*
X113511904Y-100395295D01*
X113511904Y-100395295D02*
X113559523Y-100585771D01*
X113559523Y-100585771D02*
X113559523Y-100823866D01*
X113559523Y-100823866D02*
X113511904Y-101014342D01*
X113511904Y-101014342D02*
X113464285Y-101109580D01*
X113464285Y-101109580D02*
X113416666Y-101157200D01*
X113416666Y-101157200D02*
X113321428Y-101204819D01*
X113321428Y-101204819D02*
X113226190Y-101204819D01*
X113226190Y-101204819D02*
X113130952Y-101157200D01*
X113130952Y-101157200D02*
X113083333Y-101109580D01*
X113083333Y-101109580D02*
X113035714Y-101014342D01*
X113035714Y-101014342D02*
X112988095Y-100823866D01*
X112988095Y-100823866D02*
X112988095Y-100585771D01*
X112988095Y-100585771D02*
X113035714Y-100395295D01*
X113035714Y-100395295D02*
X113083333Y-100300057D01*
X113083333Y-100300057D02*
X113130952Y-100252438D01*
X113130952Y-100252438D02*
X113226190Y-100204819D01*
X114178571Y-100204819D02*
X114273809Y-100204819D01*
X114273809Y-100204819D02*
X114369047Y-100252438D01*
X114369047Y-100252438D02*
X114416666Y-100300057D01*
X114416666Y-100300057D02*
X114464285Y-100395295D01*
X114464285Y-100395295D02*
X114511904Y-100585771D01*
X114511904Y-100585771D02*
X114511904Y-100823866D01*
X114511904Y-100823866D02*
X114464285Y-101014342D01*
X114464285Y-101014342D02*
X114416666Y-101109580D01*
X114416666Y-101109580D02*
X114369047Y-101157200D01*
X114369047Y-101157200D02*
X114273809Y-101204819D01*
X114273809Y-101204819D02*
X114178571Y-101204819D01*
X114178571Y-101204819D02*
X114083333Y-101157200D01*
X114083333Y-101157200D02*
X114035714Y-101109580D01*
X114035714Y-101109580D02*
X113988095Y-101014342D01*
X113988095Y-101014342D02*
X113940476Y-100823866D01*
X113940476Y-100823866D02*
X113940476Y-100585771D01*
X113940476Y-100585771D02*
X113988095Y-100395295D01*
X113988095Y-100395295D02*
X114035714Y-100300057D01*
X114035714Y-100300057D02*
X114083333Y-100252438D01*
X114083333Y-100252438D02*
X114178571Y-100204819D01*
D11*
X57964285Y-58697419D02*
X57964285Y-59411704D01*
X57964285Y-59411704D02*
X57916666Y-59554561D01*
X57916666Y-59554561D02*
X57821428Y-59649800D01*
X57821428Y-59649800D02*
X57678571Y-59697419D01*
X57678571Y-59697419D02*
X57583333Y-59697419D01*
X58345238Y-58697419D02*
X58964285Y-58697419D01*
X58964285Y-58697419D02*
X58630952Y-59078371D01*
X58630952Y-59078371D02*
X58773809Y-59078371D01*
X58773809Y-59078371D02*
X58869047Y-59125990D01*
X58869047Y-59125990D02*
X58916666Y-59173609D01*
X58916666Y-59173609D02*
X58964285Y-59268847D01*
X58964285Y-59268847D02*
X58964285Y-59506942D01*
X58964285Y-59506942D02*
X58916666Y-59602180D01*
X58916666Y-59602180D02*
X58869047Y-59649800D01*
X58869047Y-59649800D02*
X58773809Y-59697419D01*
X58773809Y-59697419D02*
X58488095Y-59697419D01*
X58488095Y-59697419D02*
X58392857Y-59649800D01*
X58392857Y-59649800D02*
X58345238Y-59602180D01*
X59583333Y-58697419D02*
X59678571Y-58697419D01*
X59678571Y-58697419D02*
X59773809Y-58745038D01*
X59773809Y-58745038D02*
X59821428Y-58792657D01*
X59821428Y-58792657D02*
X59869047Y-58887895D01*
X59869047Y-58887895D02*
X59916666Y-59078371D01*
X59916666Y-59078371D02*
X59916666Y-59316466D01*
X59916666Y-59316466D02*
X59869047Y-59506942D01*
X59869047Y-59506942D02*
X59821428Y-59602180D01*
X59821428Y-59602180D02*
X59773809Y-59649800D01*
X59773809Y-59649800D02*
X59678571Y-59697419D01*
X59678571Y-59697419D02*
X59583333Y-59697419D01*
X59583333Y-59697419D02*
X59488095Y-59649800D01*
X59488095Y-59649800D02*
X59440476Y-59602180D01*
X59440476Y-59602180D02*
X59392857Y-59506942D01*
X59392857Y-59506942D02*
X59345238Y-59316466D01*
X59345238Y-59316466D02*
X59345238Y-59078371D01*
X59345238Y-59078371D02*
X59392857Y-58887895D01*
X59392857Y-58887895D02*
X59440476Y-58792657D01*
X59440476Y-58792657D02*
X59488095Y-58745038D01*
X59488095Y-58745038D02*
X59583333Y-58697419D01*
X60535714Y-58697419D02*
X60630952Y-58697419D01*
X60630952Y-58697419D02*
X60726190Y-58745038D01*
X60726190Y-58745038D02*
X60773809Y-58792657D01*
X60773809Y-58792657D02*
X60821428Y-58887895D01*
X60821428Y-58887895D02*
X60869047Y-59078371D01*
X60869047Y-59078371D02*
X60869047Y-59316466D01*
X60869047Y-59316466D02*
X60821428Y-59506942D01*
X60821428Y-59506942D02*
X60773809Y-59602180D01*
X60773809Y-59602180D02*
X60726190Y-59649800D01*
X60726190Y-59649800D02*
X60630952Y-59697419D01*
X60630952Y-59697419D02*
X60535714Y-59697419D01*
X60535714Y-59697419D02*
X60440476Y-59649800D01*
X60440476Y-59649800D02*
X60392857Y-59602180D01*
X60392857Y-59602180D02*
X60345238Y-59506942D01*
X60345238Y-59506942D02*
X60297619Y-59316466D01*
X60297619Y-59316466D02*
X60297619Y-59078371D01*
X60297619Y-59078371D02*
X60345238Y-58887895D01*
X60345238Y-58887895D02*
X60392857Y-58792657D01*
X60392857Y-58792657D02*
X60440476Y-58745038D01*
X60440476Y-58745038D02*
X60535714Y-58697419D01*
X58074628Y-108900376D02*
X58122247Y-108757519D01*
X58122247Y-108757519D02*
X58122247Y-108519424D01*
X58122247Y-108519424D02*
X58074628Y-108424186D01*
X58074628Y-108424186D02*
X58027008Y-108376567D01*
X58027008Y-108376567D02*
X57931770Y-108328948D01*
X57931770Y-108328948D02*
X57836532Y-108328948D01*
X57836532Y-108328948D02*
X57741294Y-108376567D01*
X57741294Y-108376567D02*
X57693675Y-108424186D01*
X57693675Y-108424186D02*
X57646056Y-108519424D01*
X57646056Y-108519424D02*
X57598437Y-108709900D01*
X57598437Y-108709900D02*
X57550818Y-108805138D01*
X57550818Y-108805138D02*
X57503199Y-108852757D01*
X57503199Y-108852757D02*
X57407961Y-108900376D01*
X57407961Y-108900376D02*
X57312723Y-108900376D01*
X57312723Y-108900376D02*
X57217485Y-108852757D01*
X57217485Y-108852757D02*
X57169866Y-108805138D01*
X57169866Y-108805138D02*
X57122247Y-108709900D01*
X57122247Y-108709900D02*
X57122247Y-108471805D01*
X57122247Y-108471805D02*
X57169866Y-108328948D01*
X58027008Y-107328948D02*
X58074628Y-107376567D01*
X58074628Y-107376567D02*
X58122247Y-107519424D01*
X58122247Y-107519424D02*
X58122247Y-107614662D01*
X58122247Y-107614662D02*
X58074628Y-107757519D01*
X58074628Y-107757519D02*
X57979389Y-107852757D01*
X57979389Y-107852757D02*
X57884151Y-107900376D01*
X57884151Y-107900376D02*
X57693675Y-107947995D01*
X57693675Y-107947995D02*
X57550818Y-107947995D01*
X57550818Y-107947995D02*
X57360342Y-107900376D01*
X57360342Y-107900376D02*
X57265104Y-107852757D01*
X57265104Y-107852757D02*
X57169866Y-107757519D01*
X57169866Y-107757519D02*
X57122247Y-107614662D01*
X57122247Y-107614662D02*
X57122247Y-107519424D01*
X57122247Y-107519424D02*
X57169866Y-107376567D01*
X57169866Y-107376567D02*
X57217485Y-107328948D01*
X58122247Y-106900376D02*
X57122247Y-106900376D01*
X58122247Y-106328948D02*
X57550818Y-106757519D01*
X57122247Y-106328948D02*
X57693675Y-106900376D01*
X58093835Y-103006749D02*
X58093835Y-103482939D01*
X58093835Y-103482939D02*
X57093835Y-103482939D01*
X57046216Y-101959130D02*
X58331930Y-102816272D01*
X58093835Y-101054368D02*
X57617644Y-101387701D01*
X58093835Y-101625796D02*
X57093835Y-101625796D01*
X57093835Y-101625796D02*
X57093835Y-101244844D01*
X57093835Y-101244844D02*
X57141454Y-101149606D01*
X57141454Y-101149606D02*
X57189073Y-101101987D01*
X57189073Y-101101987D02*
X57284311Y-101054368D01*
X57284311Y-101054368D02*
X57427168Y-101054368D01*
X57427168Y-101054368D02*
X57522406Y-101101987D01*
X57522406Y-101101987D02*
X57570025Y-101149606D01*
X57570025Y-101149606D02*
X57617644Y-101244844D01*
X57617644Y-101244844D02*
X57617644Y-101625796D01*
X53792419Y-106061353D02*
X54792419Y-105823258D01*
X54792419Y-105823258D02*
X54078133Y-105632782D01*
X54078133Y-105632782D02*
X54792419Y-105442306D01*
X54792419Y-105442306D02*
X53792419Y-105204211D01*
X54744800Y-104870877D02*
X54792419Y-104728020D01*
X54792419Y-104728020D02*
X54792419Y-104489925D01*
X54792419Y-104489925D02*
X54744800Y-104394687D01*
X54744800Y-104394687D02*
X54697180Y-104347068D01*
X54697180Y-104347068D02*
X54601942Y-104299449D01*
X54601942Y-104299449D02*
X54506704Y-104299449D01*
X54506704Y-104299449D02*
X54411466Y-104347068D01*
X54411466Y-104347068D02*
X54363847Y-104394687D01*
X54363847Y-104394687D02*
X54316228Y-104489925D01*
X54316228Y-104489925D02*
X54268609Y-104680401D01*
X54268609Y-104680401D02*
X54220990Y-104775639D01*
X54220990Y-104775639D02*
X54173371Y-104823258D01*
X54173371Y-104823258D02*
X54078133Y-104870877D01*
X54078133Y-104870877D02*
X53982895Y-104870877D01*
X53982895Y-104870877D02*
X53887657Y-104823258D01*
X53887657Y-104823258D02*
X53840038Y-104775639D01*
X53840038Y-104775639D02*
X53792419Y-104680401D01*
X53792419Y-104680401D02*
X53792419Y-104442306D01*
X53792419Y-104442306D02*
X53840038Y-104299449D01*
X64765004Y-106126028D02*
X65765004Y-105792695D01*
X65765004Y-105792695D02*
X64765004Y-105459362D01*
X65765004Y-105126028D02*
X64765004Y-105126028D01*
X64765004Y-105126028D02*
X64765004Y-104887933D01*
X64765004Y-104887933D02*
X64812623Y-104745076D01*
X64812623Y-104745076D02*
X64907861Y-104649838D01*
X64907861Y-104649838D02*
X65003099Y-104602219D01*
X65003099Y-104602219D02*
X65193575Y-104554600D01*
X65193575Y-104554600D02*
X65336432Y-104554600D01*
X65336432Y-104554600D02*
X65526908Y-104602219D01*
X65526908Y-104602219D02*
X65622146Y-104649838D01*
X65622146Y-104649838D02*
X65717385Y-104745076D01*
X65717385Y-104745076D02*
X65765004Y-104887933D01*
X65765004Y-104887933D02*
X65765004Y-105126028D01*
X65765004Y-104126028D02*
X64765004Y-104126028D01*
X64765004Y-104126028D02*
X64765004Y-103887933D01*
X64765004Y-103887933D02*
X64812623Y-103745076D01*
X64812623Y-103745076D02*
X64907861Y-103649838D01*
X64907861Y-103649838D02*
X65003099Y-103602219D01*
X65003099Y-103602219D02*
X65193575Y-103554600D01*
X65193575Y-103554600D02*
X65336432Y-103554600D01*
X65336432Y-103554600D02*
X65526908Y-103602219D01*
X65526908Y-103602219D02*
X65622146Y-103649838D01*
X65622146Y-103649838D02*
X65717385Y-103745076D01*
X65717385Y-103745076D02*
X65765004Y-103887933D01*
X65765004Y-103887933D02*
X65765004Y-104126028D01*
X61886214Y-102902307D02*
X61838595Y-102997545D01*
X61838595Y-102997545D02*
X61838595Y-103140402D01*
X61838595Y-103140402D02*
X61886214Y-103283259D01*
X61886214Y-103283259D02*
X61981452Y-103378497D01*
X61981452Y-103378497D02*
X62076690Y-103426116D01*
X62076690Y-103426116D02*
X62267166Y-103473735D01*
X62267166Y-103473735D02*
X62410023Y-103473735D01*
X62410023Y-103473735D02*
X62600499Y-103426116D01*
X62600499Y-103426116D02*
X62695737Y-103378497D01*
X62695737Y-103378497D02*
X62790976Y-103283259D01*
X62790976Y-103283259D02*
X62838595Y-103140402D01*
X62838595Y-103140402D02*
X62838595Y-103045164D01*
X62838595Y-103045164D02*
X62790976Y-102902307D01*
X62790976Y-102902307D02*
X62743356Y-102854688D01*
X62743356Y-102854688D02*
X62410023Y-102854688D01*
X62410023Y-102854688D02*
X62410023Y-103045164D01*
X62838595Y-102426116D02*
X61838595Y-102426116D01*
X61838595Y-102426116D02*
X62838595Y-101854688D01*
X62838595Y-101854688D02*
X61838595Y-101854688D01*
X62838595Y-101378497D02*
X61838595Y-101378497D01*
X61838595Y-101378497D02*
X61838595Y-101140402D01*
X61838595Y-101140402D02*
X61886214Y-100997545D01*
X61886214Y-100997545D02*
X61981452Y-100902307D01*
X61981452Y-100902307D02*
X62076690Y-100854688D01*
X62076690Y-100854688D02*
X62267166Y-100807069D01*
X62267166Y-100807069D02*
X62410023Y-100807069D01*
X62410023Y-100807069D02*
X62600499Y-100854688D01*
X62600499Y-100854688D02*
X62695737Y-100902307D01*
X62695737Y-100902307D02*
X62790976Y-100997545D01*
X62790976Y-100997545D02*
X62838595Y-101140402D01*
X62838595Y-101140402D02*
X62838595Y-101378497D01*
X62762564Y-108246906D02*
X62810183Y-108104049D01*
X62810183Y-108104049D02*
X62810183Y-107865954D01*
X62810183Y-107865954D02*
X62762564Y-107770716D01*
X62762564Y-107770716D02*
X62714944Y-107723097D01*
X62714944Y-107723097D02*
X62619706Y-107675478D01*
X62619706Y-107675478D02*
X62524468Y-107675478D01*
X62524468Y-107675478D02*
X62429230Y-107723097D01*
X62429230Y-107723097D02*
X62381611Y-107770716D01*
X62381611Y-107770716D02*
X62333992Y-107865954D01*
X62333992Y-107865954D02*
X62286373Y-108056430D01*
X62286373Y-108056430D02*
X62238754Y-108151668D01*
X62238754Y-108151668D02*
X62191135Y-108199287D01*
X62191135Y-108199287D02*
X62095897Y-108246906D01*
X62095897Y-108246906D02*
X62000659Y-108246906D01*
X62000659Y-108246906D02*
X61905421Y-108199287D01*
X61905421Y-108199287D02*
X61857802Y-108151668D01*
X61857802Y-108151668D02*
X61810183Y-108056430D01*
X61810183Y-108056430D02*
X61810183Y-107818335D01*
X61810183Y-107818335D02*
X61857802Y-107675478D01*
X62810183Y-107246906D02*
X61810183Y-107246906D01*
X61810183Y-107246906D02*
X61810183Y-107008811D01*
X61810183Y-107008811D02*
X61857802Y-106865954D01*
X61857802Y-106865954D02*
X61953040Y-106770716D01*
X61953040Y-106770716D02*
X62048278Y-106723097D01*
X62048278Y-106723097D02*
X62238754Y-106675478D01*
X62238754Y-106675478D02*
X62381611Y-106675478D01*
X62381611Y-106675478D02*
X62572087Y-106723097D01*
X62572087Y-106723097D02*
X62667325Y-106770716D01*
X62667325Y-106770716D02*
X62762564Y-106865954D01*
X62762564Y-106865954D02*
X62810183Y-107008811D01*
X62810183Y-107008811D02*
X62810183Y-107246906D01*
D10*
X131035714Y-120204819D02*
X131035714Y-121014342D01*
X131035714Y-121014342D02*
X131083333Y-121109580D01*
X131083333Y-121109580D02*
X131130952Y-121157200D01*
X131130952Y-121157200D02*
X131226190Y-121204819D01*
X131226190Y-121204819D02*
X131416666Y-121204819D01*
X131416666Y-121204819D02*
X131511904Y-121157200D01*
X131511904Y-121157200D02*
X131559523Y-121109580D01*
X131559523Y-121109580D02*
X131607142Y-121014342D01*
X131607142Y-121014342D02*
X131607142Y-120204819D01*
X132559523Y-120204819D02*
X132083333Y-120204819D01*
X132083333Y-120204819D02*
X132035714Y-120681009D01*
X132035714Y-120681009D02*
X132083333Y-120633390D01*
X132083333Y-120633390D02*
X132178571Y-120585771D01*
X132178571Y-120585771D02*
X132416666Y-120585771D01*
X132416666Y-120585771D02*
X132511904Y-120633390D01*
X132511904Y-120633390D02*
X132559523Y-120681009D01*
X132559523Y-120681009D02*
X132607142Y-120776247D01*
X132607142Y-120776247D02*
X132607142Y-121014342D01*
X132607142Y-121014342D02*
X132559523Y-121109580D01*
X132559523Y-121109580D02*
X132511904Y-121157200D01*
X132511904Y-121157200D02*
X132416666Y-121204819D01*
X132416666Y-121204819D02*
X132178571Y-121204819D01*
X132178571Y-121204819D02*
X132083333Y-121157200D01*
X132083333Y-121157200D02*
X132035714Y-121109580D01*
X133559523Y-121204819D02*
X132988095Y-121204819D01*
X133273809Y-121204819D02*
X133273809Y-120204819D01*
X133273809Y-120204819D02*
X133178571Y-120347676D01*
X133178571Y-120347676D02*
X133083333Y-120442914D01*
X133083333Y-120442914D02*
X132988095Y-120490533D01*
X134178571Y-120204819D02*
X134273809Y-120204819D01*
X134273809Y-120204819D02*
X134369047Y-120252438D01*
X134369047Y-120252438D02*
X134416666Y-120300057D01*
X134416666Y-120300057D02*
X134464285Y-120395295D01*
X134464285Y-120395295D02*
X134511904Y-120585771D01*
X134511904Y-120585771D02*
X134511904Y-120823866D01*
X134511904Y-120823866D02*
X134464285Y-121014342D01*
X134464285Y-121014342D02*
X134416666Y-121109580D01*
X134416666Y-121109580D02*
X134369047Y-121157200D01*
X134369047Y-121157200D02*
X134273809Y-121204819D01*
X134273809Y-121204819D02*
X134178571Y-121204819D01*
X134178571Y-121204819D02*
X134083333Y-121157200D01*
X134083333Y-121157200D02*
X134035714Y-121109580D01*
X134035714Y-121109580D02*
X133988095Y-121014342D01*
X133988095Y-121014342D02*
X133940476Y-120823866D01*
X133940476Y-120823866D02*
X133940476Y-120585771D01*
X133940476Y-120585771D02*
X133988095Y-120395295D01*
X133988095Y-120395295D02*
X134035714Y-120300057D01*
X134035714Y-120300057D02*
X134083333Y-120252438D01*
X134083333Y-120252438D02*
X134178571Y-120204819D01*
X121035714Y-110204819D02*
X121035714Y-111014342D01*
X121035714Y-111014342D02*
X121083333Y-111109580D01*
X121083333Y-111109580D02*
X121130952Y-111157200D01*
X121130952Y-111157200D02*
X121226190Y-111204819D01*
X121226190Y-111204819D02*
X121416666Y-111204819D01*
X121416666Y-111204819D02*
X121511904Y-111157200D01*
X121511904Y-111157200D02*
X121559523Y-111109580D01*
X121559523Y-111109580D02*
X121607142Y-111014342D01*
X121607142Y-111014342D02*
X121607142Y-110204819D01*
X122559523Y-110204819D02*
X122083333Y-110204819D01*
X122083333Y-110204819D02*
X122035714Y-110681009D01*
X122035714Y-110681009D02*
X122083333Y-110633390D01*
X122083333Y-110633390D02*
X122178571Y-110585771D01*
X122178571Y-110585771D02*
X122416666Y-110585771D01*
X122416666Y-110585771D02*
X122511904Y-110633390D01*
X122511904Y-110633390D02*
X122559523Y-110681009D01*
X122559523Y-110681009D02*
X122607142Y-110776247D01*
X122607142Y-110776247D02*
X122607142Y-111014342D01*
X122607142Y-111014342D02*
X122559523Y-111109580D01*
X122559523Y-111109580D02*
X122511904Y-111157200D01*
X122511904Y-111157200D02*
X122416666Y-111204819D01*
X122416666Y-111204819D02*
X122178571Y-111204819D01*
X122178571Y-111204819D02*
X122083333Y-111157200D01*
X122083333Y-111157200D02*
X122035714Y-111109580D01*
X123226190Y-110204819D02*
X123321428Y-110204819D01*
X123321428Y-110204819D02*
X123416666Y-110252438D01*
X123416666Y-110252438D02*
X123464285Y-110300057D01*
X123464285Y-110300057D02*
X123511904Y-110395295D01*
X123511904Y-110395295D02*
X123559523Y-110585771D01*
X123559523Y-110585771D02*
X123559523Y-110823866D01*
X123559523Y-110823866D02*
X123511904Y-111014342D01*
X123511904Y-111014342D02*
X123464285Y-111109580D01*
X123464285Y-111109580D02*
X123416666Y-111157200D01*
X123416666Y-111157200D02*
X123321428Y-111204819D01*
X123321428Y-111204819D02*
X123226190Y-111204819D01*
X123226190Y-111204819D02*
X123130952Y-111157200D01*
X123130952Y-111157200D02*
X123083333Y-111109580D01*
X123083333Y-111109580D02*
X123035714Y-111014342D01*
X123035714Y-111014342D02*
X122988095Y-110823866D01*
X122988095Y-110823866D02*
X122988095Y-110585771D01*
X122988095Y-110585771D02*
X123035714Y-110395295D01*
X123035714Y-110395295D02*
X123083333Y-110300057D01*
X123083333Y-110300057D02*
X123130952Y-110252438D01*
X123130952Y-110252438D02*
X123226190Y-110204819D01*
X124464285Y-110204819D02*
X123988095Y-110204819D01*
X123988095Y-110204819D02*
X123940476Y-110681009D01*
X123940476Y-110681009D02*
X123988095Y-110633390D01*
X123988095Y-110633390D02*
X124083333Y-110585771D01*
X124083333Y-110585771D02*
X124321428Y-110585771D01*
X124321428Y-110585771D02*
X124416666Y-110633390D01*
X124416666Y-110633390D02*
X124464285Y-110681009D01*
X124464285Y-110681009D02*
X124511904Y-110776247D01*
X124511904Y-110776247D02*
X124511904Y-111014342D01*
X124511904Y-111014342D02*
X124464285Y-111109580D01*
X124464285Y-111109580D02*
X124416666Y-111157200D01*
X124416666Y-111157200D02*
X124321428Y-111204819D01*
X124321428Y-111204819D02*
X124083333Y-111204819D01*
X124083333Y-111204819D02*
X123988095Y-111157200D01*
X123988095Y-111157200D02*
X123940476Y-111109580D01*
X58260714Y-77842319D02*
X58260714Y-78651842D01*
X58260714Y-78651842D02*
X58308333Y-78747080D01*
X58308333Y-78747080D02*
X58355952Y-78794700D01*
X58355952Y-78794700D02*
X58451190Y-78842319D01*
X58451190Y-78842319D02*
X58641666Y-78842319D01*
X58641666Y-78842319D02*
X58736904Y-78794700D01*
X58736904Y-78794700D02*
X58784523Y-78747080D01*
X58784523Y-78747080D02*
X58832142Y-78651842D01*
X58832142Y-78651842D02*
X58832142Y-77842319D01*
X59213095Y-77842319D02*
X59832142Y-77842319D01*
X59832142Y-77842319D02*
X59498809Y-78223271D01*
X59498809Y-78223271D02*
X59641666Y-78223271D01*
X59641666Y-78223271D02*
X59736904Y-78270890D01*
X59736904Y-78270890D02*
X59784523Y-78318509D01*
X59784523Y-78318509D02*
X59832142Y-78413747D01*
X59832142Y-78413747D02*
X59832142Y-78651842D01*
X59832142Y-78651842D02*
X59784523Y-78747080D01*
X59784523Y-78747080D02*
X59736904Y-78794700D01*
X59736904Y-78794700D02*
X59641666Y-78842319D01*
X59641666Y-78842319D02*
X59355952Y-78842319D01*
X59355952Y-78842319D02*
X59260714Y-78794700D01*
X59260714Y-78794700D02*
X59213095Y-78747080D01*
X60451190Y-77842319D02*
X60546428Y-77842319D01*
X60546428Y-77842319D02*
X60641666Y-77889938D01*
X60641666Y-77889938D02*
X60689285Y-77937557D01*
X60689285Y-77937557D02*
X60736904Y-78032795D01*
X60736904Y-78032795D02*
X60784523Y-78223271D01*
X60784523Y-78223271D02*
X60784523Y-78461366D01*
X60784523Y-78461366D02*
X60736904Y-78651842D01*
X60736904Y-78651842D02*
X60689285Y-78747080D01*
X60689285Y-78747080D02*
X60641666Y-78794700D01*
X60641666Y-78794700D02*
X60546428Y-78842319D01*
X60546428Y-78842319D02*
X60451190Y-78842319D01*
X60451190Y-78842319D02*
X60355952Y-78794700D01*
X60355952Y-78794700D02*
X60308333Y-78747080D01*
X60308333Y-78747080D02*
X60260714Y-78651842D01*
X60260714Y-78651842D02*
X60213095Y-78461366D01*
X60213095Y-78461366D02*
X60213095Y-78223271D01*
X60213095Y-78223271D02*
X60260714Y-78032795D01*
X60260714Y-78032795D02*
X60308333Y-77937557D01*
X60308333Y-77937557D02*
X60355952Y-77889938D01*
X60355952Y-77889938D02*
X60451190Y-77842319D01*
X61403571Y-77842319D02*
X61498809Y-77842319D01*
X61498809Y-77842319D02*
X61594047Y-77889938D01*
X61594047Y-77889938D02*
X61641666Y-77937557D01*
X61641666Y-77937557D02*
X61689285Y-78032795D01*
X61689285Y-78032795D02*
X61736904Y-78223271D01*
X61736904Y-78223271D02*
X61736904Y-78461366D01*
X61736904Y-78461366D02*
X61689285Y-78651842D01*
X61689285Y-78651842D02*
X61641666Y-78747080D01*
X61641666Y-78747080D02*
X61594047Y-78794700D01*
X61594047Y-78794700D02*
X61498809Y-78842319D01*
X61498809Y-78842319D02*
X61403571Y-78842319D01*
X61403571Y-78842319D02*
X61308333Y-78794700D01*
X61308333Y-78794700D02*
X61260714Y-78747080D01*
X61260714Y-78747080D02*
X61213095Y-78651842D01*
X61213095Y-78651842D02*
X61165476Y-78461366D01*
X61165476Y-78461366D02*
X61165476Y-78223271D01*
X61165476Y-78223271D02*
X61213095Y-78032795D01*
X61213095Y-78032795D02*
X61260714Y-77937557D01*
X61260714Y-77937557D02*
X61308333Y-77889938D01*
X61308333Y-77889938D02*
X61403571Y-77842319D01*
D13*
%TO.C,D504*%
X110390000Y-114750000D02*
X110390000Y-116750000D01*
X110390000Y-114750000D02*
X114400000Y-114750000D01*
X110390000Y-116750000D02*
X114400000Y-116750000D01*
%TO.C,Q501*%
X121750000Y-93190000D02*
X121100000Y-93190000D01*
X121750000Y-93190000D02*
X122400000Y-93190000D01*
X121750000Y-96310000D02*
X121100000Y-96310000D01*
X121750000Y-96310000D02*
X122400000Y-96310000D01*
X120587500Y-93240000D02*
X120347500Y-92910000D01*
X120827500Y-92910000D01*
X120587500Y-93240000D01*
G36*
X120587500Y-93240000D02*
G01*
X120347500Y-92910000D01*
X120827500Y-92910000D01*
X120587500Y-93240000D01*
G37*
%TO.C,Q500*%
X111750000Y-93190000D02*
X111100000Y-93190000D01*
X111750000Y-93190000D02*
X112400000Y-93190000D01*
X111750000Y-96310000D02*
X111100000Y-96310000D01*
X111750000Y-96310000D02*
X112400000Y-96310000D01*
X110587500Y-93240000D02*
X110347500Y-92910000D01*
X110827500Y-92910000D01*
X110587500Y-93240000D01*
G36*
X110587500Y-93240000D02*
G01*
X110347500Y-92910000D01*
X110827500Y-92910000D01*
X110587500Y-93240000D01*
G37*
%TO.C,SW200*%
X100500000Y-65760000D02*
X100500000Y-73739999D01*
X100500000Y-73739999D02*
X103666667Y-73740000D01*
X103666667Y-73380000D02*
X106833333Y-73380000D01*
X103666667Y-73740000D02*
X103666667Y-73380000D01*
X106833333Y-73380000D02*
X106833333Y-73740000D01*
X106833333Y-73740000D02*
X110000000Y-73740000D01*
X110000000Y-65760001D02*
X100500000Y-65760000D01*
X110000000Y-73740000D02*
X110000000Y-65760001D01*
%TO.C,R402*%
X83727500Y-106762742D02*
X83727500Y-107237258D01*
X84772500Y-106762742D02*
X84772500Y-107237258D01*
%TO.C,C101*%
X114740000Y-62859420D02*
X114740000Y-63140580D01*
X115760000Y-62859420D02*
X115760000Y-63140580D01*
%TO.C,R401*%
X88727500Y-106762742D02*
X88727500Y-107237258D01*
X89772500Y-106762742D02*
X89772500Y-107237258D01*
%TO.C,C301*%
X60465000Y-72778080D02*
X60465000Y-72496920D01*
X61485000Y-72778080D02*
X61485000Y-72496920D01*
%TO.C,D201*%
X70665000Y-58650000D02*
X70665000Y-60350000D01*
X70665000Y-58650000D02*
X73325000Y-58650000D01*
X70665000Y-60350000D02*
X73325000Y-60350000D01*
%TO.C,D507*%
X140390000Y-114750000D02*
X140390000Y-116750000D01*
X140390000Y-114750000D02*
X144400000Y-114750000D01*
X140390000Y-116750000D02*
X144400000Y-116750000D01*
%TO.C,R104*%
X117727500Y-54237258D02*
X117727500Y-53762742D01*
X118772500Y-54237258D02*
X118772500Y-53762742D01*
%TO.C,C500*%
X99609420Y-78990000D02*
X99890580Y-78990000D01*
X99609420Y-80010000D02*
X99890580Y-80010000D01*
%TO.C,J100*%
X100400000Y-50200000D02*
X109600000Y-50200000D01*
X100400000Y-58800000D02*
X100400000Y-50200000D01*
X100400000Y-64700000D02*
X100400000Y-63400000D01*
X102400000Y-64700000D02*
X100400000Y-64700000D01*
X108200000Y-65000000D02*
X109900000Y-65000000D01*
X109600000Y-50200000D02*
X109600000Y-64700000D01*
X109600000Y-64700000D02*
X107600000Y-64700000D01*
X109900000Y-65000000D02*
X109900000Y-63700000D01*
%TO.C,R103*%
X121162258Y-52727500D02*
X120687742Y-52727500D01*
X121162258Y-53772500D02*
X120687742Y-53772500D01*
%TO.C,R501*%
X99512742Y-91727500D02*
X99987258Y-91727500D01*
X99512742Y-92772500D02*
X99987258Y-92772500D01*
%TO.C,D601*%
X144750000Y-76890000D02*
X144750000Y-80900000D01*
X146750000Y-76890000D02*
X144750000Y-76890000D01*
X146750000Y-76890000D02*
X146750000Y-80900000D01*
%TO.C,D401*%
X81400000Y-112360000D02*
X81400000Y-109700000D01*
X81400000Y-112360000D02*
X83100000Y-112360000D01*
X83100000Y-112360000D02*
X83100000Y-109700000D01*
%TO.C,U511*%
X139250000Y-120000000D02*
X139250000Y-121500000D01*
X140500000Y-124000000D02*
X145000000Y-124000000D01*
X145000000Y-117500000D02*
X140500000Y-117500000D01*
X146250000Y-121500000D02*
X146250000Y-120000000D01*
D14*
%TO.C,PS100*%
X118250000Y-55850000D02*
G75*
G02*
X118000000Y-55850000I-125000J0D01*
G01*
X118000000Y-55850000D02*
G75*
G02*
X118250000Y-55850000I125000J0D01*
G01*
D13*
%TO.C,U503*%
X139250000Y-100000000D02*
X139250000Y-101500000D01*
X140500000Y-104000000D02*
X145000000Y-104000000D01*
X145000000Y-97500000D02*
X140500000Y-97500000D01*
X146250000Y-101500000D02*
X146250000Y-100000000D01*
%TO.C,R108*%
X138227500Y-94512742D02*
X138227500Y-94987258D01*
X139272500Y-94512742D02*
X139272500Y-94987258D01*
%TO.C,U509*%
X119250000Y-120000000D02*
X119250000Y-121500000D01*
X120500000Y-124000000D02*
X125000000Y-124000000D01*
X125000000Y-117500000D02*
X120500000Y-117500000D01*
X126250000Y-121500000D02*
X126250000Y-120000000D01*
%TO.C,R107*%
X145977500Y-94987258D02*
X145977500Y-94512742D01*
X147022500Y-94987258D02*
X147022500Y-94512742D01*
D11*
%TO.C,U203*%
X59365000Y-125715000D02*
X60635000Y-125715000D01*
X60000000Y-125715000D02*
X60000000Y-125080000D01*
X59550000Y-124525000D02*
X60450000Y-124525000D01*
X60450000Y-122990000D01*
X59550000Y-122990000D01*
X59550000Y-124525000D01*
G36*
X59550000Y-124525000D02*
G01*
X60450000Y-124525000D01*
X60450000Y-122990000D01*
X59550000Y-122990000D01*
X59550000Y-124525000D01*
G37*
X60635000Y-124445000D02*
G75*
G02*
X59365000Y-124445000I-635000J0D01*
G01*
X67000000Y-120000000D02*
G75*
G02*
X53000000Y-120000000I-7000000J0D01*
G01*
X53000000Y-120000000D02*
G75*
G02*
X67000000Y-120000000I7000000J0D01*
G01*
D13*
X60500000Y-120000000D02*
G75*
G02*
X59500000Y-120000000I-500000J0D01*
G01*
X59500000Y-120000000D02*
G75*
G02*
X60500000Y-120000000I500000J0D01*
G01*
D15*
X60250000Y-122990000D02*
G75*
G02*
X59750000Y-122990000I-250000J0D01*
G01*
X59750000Y-122990000D02*
G75*
G02*
X60250000Y-122990000I250000J0D01*
G01*
X60250000Y-124445000D02*
G75*
G02*
X59750000Y-124445000I-250000J0D01*
G01*
X59750000Y-124445000D02*
G75*
G02*
X60250000Y-124445000I250000J0D01*
G01*
D13*
%TO.C,C108*%
X69211252Y-89090000D02*
X67788748Y-89090000D01*
X69211252Y-90910000D02*
X67788748Y-90910000D01*
%TO.C,D404*%
X90400000Y-112360000D02*
X90400000Y-109700000D01*
X90400000Y-112360000D02*
X92100000Y-112360000D01*
X92100000Y-112360000D02*
X92100000Y-109700000D01*
%TO.C,J301*%
X51170000Y-53670000D02*
X52500000Y-53670000D01*
X51170000Y-55000000D02*
X51170000Y-53670000D01*
X51170000Y-56270000D02*
X51170000Y-61410000D01*
X51170000Y-56270000D02*
X53830000Y-56270000D01*
X51170000Y-61410000D02*
X53830000Y-61410000D01*
X53830000Y-56270000D02*
X53830000Y-61410000D01*
%TO.C,C104*%
X121065580Y-54490000D02*
X120784420Y-54490000D01*
X121065580Y-55510000D02*
X120784420Y-55510000D01*
%TO.C,R509*%
X125977500Y-94987258D02*
X125977500Y-94512742D01*
X127022500Y-94987258D02*
X127022500Y-94512742D01*
%TO.C,C106*%
X124538748Y-53840000D02*
X125961252Y-53840000D01*
X124538748Y-55660000D02*
X125961252Y-55660000D01*
%TO.C,U507*%
X139250000Y-110000000D02*
X139250000Y-111500000D01*
X140500000Y-114000000D02*
X145000000Y-114000000D01*
X145000000Y-107500000D02*
X140500000Y-107500000D01*
X146250000Y-111500000D02*
X146250000Y-110000000D01*
%TO.C,R106*%
X60015000Y-93227064D02*
X60015000Y-92772936D01*
X61485000Y-93227064D02*
X61485000Y-92772936D01*
%TO.C,Brd600*%
X111850000Y-65450000D02*
X139250000Y-65450000D01*
X111850000Y-92750000D02*
X111850000Y-65450000D01*
X112272000Y-68745000D02*
X135372000Y-68745000D01*
X112272000Y-85345000D02*
X112272000Y-68745000D01*
X120551000Y-65939000D02*
X120551000Y-68352000D01*
X120551000Y-65939000D02*
X130330000Y-65939000D01*
X130330000Y-65939000D02*
X130330000Y-68352000D01*
X130330000Y-68352000D02*
X120551000Y-68352000D01*
X135372000Y-68745000D02*
X138458000Y-68745000D01*
X135372000Y-85345000D02*
X112272000Y-85345000D01*
X135372000Y-85345000D02*
X138712000Y-85370000D01*
X138712000Y-68733000D02*
X138458000Y-68745000D01*
X138712000Y-85370000D02*
X138712000Y-68733000D01*
X139250000Y-65450000D02*
X139250000Y-92750000D01*
X139250000Y-92750000D02*
X111850000Y-92750000D01*
%TO.C,C302*%
X63334420Y-82852500D02*
X63615580Y-82852500D01*
X63334420Y-83872500D02*
X63615580Y-83872500D01*
%TO.C,R507*%
X115977500Y-94987258D02*
X115977500Y-94512742D01*
X117022500Y-94987258D02*
X117022500Y-94512742D01*
%TO.C,D509*%
X120490000Y-124750000D02*
X120490000Y-126750000D01*
X120490000Y-124750000D02*
X124500000Y-124750000D01*
X120490000Y-126750000D02*
X124500000Y-126750000D01*
%TO.C,R502*%
X99512742Y-96977500D02*
X99987258Y-96977500D01*
X99512742Y-98022500D02*
X99987258Y-98022500D01*
%TO.C,D503*%
X140390000Y-104750000D02*
X140390000Y-106750000D01*
X140390000Y-104750000D02*
X144400000Y-104750000D01*
X140390000Y-106750000D02*
X144400000Y-106750000D01*
%TO.C,R308*%
X57765000Y-67477064D02*
X57765000Y-67022936D01*
X59235000Y-67477064D02*
X59235000Y-67022936D01*
%TO.C,U600*%
X140365000Y-74612500D02*
X140365000Y-73112500D01*
X140365000Y-74612500D02*
X140365000Y-76112500D01*
X143585000Y-74612500D02*
X143585000Y-73112500D01*
X143585000Y-74612500D02*
X143585000Y-76112500D01*
X143740000Y-72640000D02*
X143410000Y-72400000D01*
X143740000Y-72160000D01*
X143740000Y-72640000D01*
G36*
X143740000Y-72640000D02*
G01*
X143410000Y-72400000D01*
X143740000Y-72160000D01*
X143740000Y-72640000D01*
G37*
%TO.C,R505*%
X99512742Y-84227500D02*
X99987258Y-84227500D01*
X99512742Y-85272500D02*
X99987258Y-85272500D01*
%TO.C,C306*%
X64240000Y-80640580D02*
X64240000Y-80359420D01*
X65260000Y-80640580D02*
X65260000Y-80359420D01*
%TO.C,D405*%
X79150000Y-112360000D02*
X79150000Y-109700000D01*
X79150000Y-112360000D02*
X80850000Y-112360000D01*
X80850000Y-112360000D02*
X80850000Y-109700000D01*
%TO.C,L100*%
X114087221Y-59990000D02*
X114412779Y-59990000D01*
X114087221Y-61010000D02*
X114412779Y-61010000D01*
%TO.C,C308*%
X57465000Y-72778080D02*
X57465000Y-72496920D01*
X58485000Y-72778080D02*
X58485000Y-72496920D01*
%TO.C,R601*%
X142590000Y-80177064D02*
X142590000Y-79722936D01*
X144060000Y-80177064D02*
X144060000Y-79722936D01*
%TO.C,C300*%
X63615580Y-72627500D02*
X63334420Y-72627500D01*
X63615580Y-73647500D02*
X63334420Y-73647500D01*
%TO.C,R101*%
X119262742Y-59727500D02*
X119737258Y-59727500D01*
X119262742Y-60772500D02*
X119737258Y-60772500D01*
%TO.C,U501*%
X119250000Y-100000000D02*
X119250000Y-101500000D01*
X120500000Y-104000000D02*
X125000000Y-104000000D01*
X125000000Y-97500000D02*
X120500000Y-97500000D01*
X126250000Y-101500000D02*
X126250000Y-100000000D01*
%TO.C,C600*%
X147490000Y-76890580D02*
X147490000Y-76609420D01*
X148510000Y-76890580D02*
X148510000Y-76609420D01*
%TO.C,Q100*%
X141750000Y-93190000D02*
X141100000Y-93190000D01*
X141750000Y-93190000D02*
X142400000Y-93190000D01*
X141750000Y-96310000D02*
X141100000Y-96310000D01*
X141750000Y-96310000D02*
X142400000Y-96310000D01*
X140587500Y-93240000D02*
X140347500Y-92910000D01*
X140827500Y-92910000D01*
X140587500Y-93240000D01*
G36*
X140587500Y-93240000D02*
G01*
X140347500Y-92910000D01*
X140827500Y-92910000D01*
X140587500Y-93240000D01*
G37*
%TO.C,J200*%
X67195000Y-50670000D02*
X68525000Y-50670000D01*
X67195000Y-52000000D02*
X67195000Y-50670000D01*
X67195000Y-53270000D02*
X67195000Y-60950000D01*
X67195000Y-53270000D02*
X69855000Y-53270000D01*
X67195000Y-60950000D02*
X69855000Y-60950000D01*
X69855000Y-53270000D02*
X69855000Y-60950000D01*
%TO.C,D513*%
X124015000Y-93265000D02*
X124015000Y-95550000D01*
X125485000Y-93265000D02*
X124015000Y-93265000D01*
X125485000Y-95550000D02*
X125485000Y-93265000D01*
%TO.C,C309*%
X52875000Y-74072500D02*
X56785000Y-74072500D01*
X56785000Y-72202500D02*
X52875000Y-72202500D01*
X56785000Y-74072500D02*
X56785000Y-72202500D01*
%TO.C,R600*%
X139765000Y-80177064D02*
X139765000Y-79722936D01*
X141235000Y-80177064D02*
X141235000Y-79722936D01*
%TO.C,U502*%
X129250000Y-100000000D02*
X129250000Y-101500000D01*
X130500000Y-104000000D02*
X135000000Y-104000000D01*
X135000000Y-97500000D02*
X130500000Y-97500000D01*
X136250000Y-101500000D02*
X136250000Y-100000000D01*
%TO.C,U504*%
X109250000Y-110000000D02*
X109250000Y-111500000D01*
X110500000Y-114000000D02*
X115000000Y-114000000D01*
X115000000Y-107500000D02*
X110500000Y-107500000D01*
X116250000Y-111500000D02*
X116250000Y-110000000D01*
%TO.C,C304*%
X64215000Y-75971920D02*
X64215000Y-76253080D01*
X65235000Y-75971920D02*
X65235000Y-76253080D01*
%TO.C,D510*%
X130490000Y-124750000D02*
X130490000Y-126750000D01*
X130490000Y-124750000D02*
X134500000Y-124750000D01*
X130490000Y-126750000D02*
X134500000Y-126750000D01*
%TO.C,D403*%
X83650000Y-112360000D02*
X83650000Y-109700000D01*
X83650000Y-112360000D02*
X85350000Y-112360000D01*
X85350000Y-112360000D02*
X85350000Y-109700000D01*
%TO.C,R307*%
X53012742Y-79227500D02*
X53487258Y-79227500D01*
X53012742Y-80272500D02*
X53487258Y-80272500D01*
%TO.C,D506*%
X130390000Y-114750000D02*
X130390000Y-116750000D01*
X130390000Y-114750000D02*
X134400000Y-114750000D01*
X130390000Y-116750000D02*
X134400000Y-116750000D01*
%TO.C,C502*%
X99609420Y-85990000D02*
X99890580Y-85990000D01*
X99609420Y-87010000D02*
X99890580Y-87010000D01*
%TO.C,Y600*%
X140000000Y-70650000D02*
X143300000Y-70650000D01*
X143300000Y-70650000D02*
X143300000Y-66650000D01*
%TO.C,R303*%
X53012742Y-82727500D02*
X53487258Y-82727500D01*
X53012742Y-83772500D02*
X53487258Y-83772500D01*
%TO.C,C102*%
X115211252Y-56590000D02*
X113788748Y-56590000D01*
X115211252Y-58410000D02*
X113788748Y-58410000D01*
%TO.C,D505*%
X120390000Y-114750000D02*
X120390000Y-116750000D01*
X120390000Y-114750000D02*
X124400000Y-114750000D01*
X120390000Y-116750000D02*
X124400000Y-116750000D01*
%TO.C,D202*%
X70665000Y-56150000D02*
X70665000Y-57850000D01*
X70665000Y-56150000D02*
X73325000Y-56150000D01*
X70665000Y-57850000D02*
X73325000Y-57850000D01*
%TO.C,D500*%
X110390000Y-104750000D02*
X110390000Y-106750000D01*
X110390000Y-104750000D02*
X114400000Y-104750000D01*
X110390000Y-106750000D02*
X114400000Y-106750000D01*
%TO.C,D206*%
X70665000Y-65150000D02*
X70665000Y-66850000D01*
X70665000Y-65150000D02*
X73325000Y-65150000D01*
X70665000Y-66850000D02*
X73325000Y-66850000D01*
%TO.C,R508*%
X108227500Y-94512742D02*
X108227500Y-94987258D01*
X109272500Y-94512742D02*
X109272500Y-94987258D01*
%TO.C,C105*%
X124538748Y-59340000D02*
X125961252Y-59340000D01*
X124538748Y-61160000D02*
X125961252Y-61160000D01*
%TO.C,C602*%
X143990000Y-68640580D02*
X143990000Y-68359420D01*
X145010000Y-68640580D02*
X145010000Y-68359420D01*
%TO.C,U200*%
X75570000Y-52470000D02*
X75570000Y-50870000D01*
X75890000Y-50800000D02*
X75890000Y-100800000D01*
X76230000Y-50253000D02*
X76230000Y-101347000D01*
X76500000Y-50190000D02*
X78990000Y-50190000D01*
X76500000Y-101410000D02*
X82900000Y-101410000D01*
X78990000Y-50190000D02*
X78990000Y-51103520D01*
X78990000Y-50190000D02*
X82265000Y-50190000D01*
X78990000Y-51103520D02*
X78990000Y-53496480D01*
X78990000Y-53496480D02*
X78990000Y-98103520D01*
X78990000Y-98103520D02*
X78990000Y-100496480D01*
X78990000Y-100496480D02*
X78990000Y-101410000D01*
X82265000Y-50190000D02*
X90735000Y-50190000D01*
X82390000Y-48790000D02*
X82390000Y-49710000D01*
X82390000Y-48790000D02*
X90610000Y-48790000D01*
X82390000Y-49710000D02*
X82600000Y-49710000D01*
X82600000Y-49710000D02*
X82600000Y-51106000D01*
X82600000Y-51106000D02*
X82600000Y-53494000D01*
X82600000Y-53494000D02*
X82600000Y-54710000D01*
X90100000Y-101410000D02*
X82900000Y-101410000D01*
X90100000Y-101410000D02*
X96500000Y-101410000D01*
X90400000Y-49710000D02*
X90400000Y-51106000D01*
X90400000Y-51106000D02*
X90400000Y-53494000D01*
X90400000Y-53494000D02*
X90400000Y-54710000D01*
X90400000Y-54710000D02*
X82600000Y-54710000D01*
X90610000Y-48790000D02*
X90610000Y-49710000D01*
X90610000Y-49710000D02*
X90400000Y-49710000D01*
X90735000Y-50190000D02*
X94010000Y-50190000D01*
X94010000Y-50190000D02*
X94010000Y-51103520D01*
X94010000Y-51103520D02*
X94010000Y-53496480D01*
X94010000Y-53496480D02*
X94010000Y-98103520D01*
X94010000Y-98103520D02*
X94010000Y-100496480D01*
X94010000Y-100496480D02*
X94010000Y-101410000D01*
X96500000Y-50190000D02*
X94010000Y-50190000D01*
X96770000Y-101347000D02*
X96770000Y-50253000D01*
X97110000Y-50800000D02*
X97110000Y-100800000D01*
X75890000Y-50800000D02*
G75*
G02*
X76500000Y-50190000I610000J0D01*
G01*
X76500000Y-101410000D02*
G75*
G02*
X75890000Y-100800000I-99J609901D01*
G01*
X96500000Y-50190000D02*
G75*
G02*
X97110000Y-50800000I0J-610000D01*
G01*
X97110000Y-100800000D02*
G75*
G02*
X96500000Y-101410000I-610000J0D01*
G01*
X81740000Y-52300000D02*
G75*
G02*
X79860000Y-52300000I-940000J0D01*
G01*
X79860000Y-52300000D02*
G75*
G02*
X81740000Y-52300000I940000J0D01*
G01*
X81740000Y-99300000D02*
G75*
G02*
X79860000Y-99300000I-940000J0D01*
G01*
X79860000Y-99300000D02*
G75*
G02*
X81740000Y-99300000I940000J0D01*
G01*
X93140000Y-52300000D02*
G75*
G02*
X91260000Y-52300000I-940000J0D01*
G01*
X91260000Y-52300000D02*
G75*
G02*
X93140000Y-52300000I940000J0D01*
G01*
X93140000Y-99300000D02*
G75*
G02*
X91260000Y-99300000I-940000J0D01*
G01*
X91260000Y-99300000D02*
G75*
G02*
X93140000Y-99300000I940000J0D01*
G01*
%TO.C,C311*%
X62240000Y-67109420D02*
X62240000Y-67390580D01*
X63260000Y-67109420D02*
X63260000Y-67390580D01*
%TO.C,R510*%
X118227500Y-94512742D02*
X118227500Y-94987258D01*
X119272500Y-94512742D02*
X119272500Y-94987258D01*
%TO.C,R306*%
X53012742Y-77477500D02*
X53487258Y-77477500D01*
X53012742Y-78522500D02*
X53487258Y-78522500D01*
%TO.C,D600*%
X144750000Y-76360000D02*
X144750000Y-72350000D01*
X144750000Y-76360000D02*
X146750000Y-76360000D01*
X146750000Y-76360000D02*
X146750000Y-72350000D01*
%TO.C,R301*%
X57227500Y-84737258D02*
X57227500Y-84262742D01*
X58272500Y-84737258D02*
X58272500Y-84262742D01*
D11*
%TO.C,BT600*%
X130750000Y-51750000D02*
X130750000Y-55750000D01*
X130750000Y-63750000D02*
X130750000Y-59750000D01*
X134850000Y-63750000D02*
X130750000Y-63750000D01*
X135250000Y-51750000D02*
X130750000Y-51750000D01*
D13*
%TO.C,D203*%
X70665000Y-53650000D02*
X70665000Y-55350000D01*
X70665000Y-53650000D02*
X73325000Y-53650000D01*
X70665000Y-55350000D02*
X73325000Y-55350000D01*
%TO.C,U508*%
X109250000Y-120000000D02*
X109250000Y-121500000D01*
X110500000Y-124000000D02*
X115000000Y-124000000D01*
X115000000Y-117500000D02*
X110500000Y-117500000D01*
X116250000Y-121500000D02*
X116250000Y-120000000D01*
%TO.C,C100*%
X112740000Y-62859420D02*
X112740000Y-63140580D01*
X113760000Y-62859420D02*
X113760000Y-63140580D01*
%TO.C,C601*%
X147490000Y-79859420D02*
X147490000Y-80140580D01*
X148510000Y-79859420D02*
X148510000Y-80140580D01*
%TO.C,R404*%
X79477500Y-106762742D02*
X79477500Y-107237258D01*
X80522500Y-106762742D02*
X80522500Y-107237258D01*
%TO.C,D101*%
X144015000Y-93265000D02*
X144015000Y-95550000D01*
X145485000Y-93265000D02*
X144015000Y-93265000D01*
X145485000Y-95550000D02*
X145485000Y-93265000D01*
%TO.C,D100*%
X110860000Y-76650000D02*
X108200000Y-76650000D01*
X110860000Y-78350000D02*
X108200000Y-78350000D01*
X110860000Y-78350000D02*
X110860000Y-76650000D01*
D11*
%TO.C,J400*%
X79540000Y-116750000D02*
X79540000Y-123250000D01*
X79540000Y-126750000D02*
X79540000Y-129000000D01*
X79540000Y-129000000D02*
X94340000Y-129000000D01*
D16*
X89540000Y-113250000D02*
X89540000Y-113250000D01*
X89540000Y-113450000D02*
X89540000Y-113450000D01*
D11*
X90440000Y-114500000D02*
X93440000Y-114500000D01*
X94340000Y-123250000D02*
X94340000Y-116750000D01*
X94340000Y-129000000D02*
X94340000Y-127250000D01*
D16*
X89540000Y-113250000D02*
G75*
G02*
X89540000Y-113450000I0J-100000D01*
G01*
X89540000Y-113450000D02*
G75*
G02*
X89540000Y-113250000I0J100000D01*
G01*
D13*
%TO.C,R500*%
X99512742Y-89477500D02*
X99987258Y-89477500D01*
X99512742Y-90522500D02*
X99987258Y-90522500D01*
%TO.C,C110*%
X57461252Y-89090000D02*
X56038748Y-89090000D01*
X57461252Y-90910000D02*
X56038748Y-90910000D01*
%TO.C,C107*%
X63840000Y-93961252D02*
X63840000Y-92538748D01*
X65660000Y-93961252D02*
X65660000Y-92538748D01*
%TO.C,R105*%
X71815000Y-93227064D02*
X71815000Y-92772936D01*
X73285000Y-93227064D02*
X73285000Y-92772936D01*
%TO.C,D501*%
X120390000Y-104750000D02*
X120390000Y-106750000D01*
X120390000Y-104750000D02*
X124400000Y-104750000D01*
X120390000Y-106750000D02*
X124400000Y-106750000D01*
%TO.C,U506*%
X129250000Y-110000000D02*
X129250000Y-111500000D01*
X130500000Y-114000000D02*
X135000000Y-114000000D01*
X135000000Y-107500000D02*
X130500000Y-107500000D01*
X136250000Y-111500000D02*
X136250000Y-110000000D01*
%TO.C,R304*%
X53012742Y-80977500D02*
X53487258Y-80977500D01*
X53012742Y-82022500D02*
X53487258Y-82022500D01*
%TO.C,C305*%
X65790000Y-73552500D02*
X65790000Y-77462500D01*
X67660000Y-73552500D02*
X65790000Y-73552500D01*
X67660000Y-77462500D02*
X67660000Y-73552500D01*
%TO.C,D512*%
X114015000Y-93265000D02*
X114015000Y-95550000D01*
X115485000Y-93265000D02*
X114015000Y-93265000D01*
X115485000Y-95550000D02*
X115485000Y-93265000D01*
%TO.C,R504*%
X99512742Y-80727500D02*
X99987258Y-80727500D01*
X99512742Y-81772500D02*
X99987258Y-81772500D01*
%TO.C,C310*%
X55990000Y-67109420D02*
X55990000Y-67390580D01*
X57010000Y-67109420D02*
X57010000Y-67390580D01*
%TO.C,R309*%
X60015000Y-67477064D02*
X60015000Y-67022936D01*
X61485000Y-67477064D02*
X61485000Y-67022936D01*
%TO.C,U500*%
X109250000Y-100000000D02*
X109250000Y-101500000D01*
X110500000Y-104000000D02*
X115000000Y-104000000D01*
X115000000Y-97500000D02*
X110500000Y-97500000D01*
X116250000Y-101500000D02*
X116250000Y-100000000D01*
%TO.C,R506*%
X99512742Y-87727500D02*
X99987258Y-87727500D01*
X99512742Y-88772500D02*
X99987258Y-88772500D01*
%TO.C,R512*%
X128227500Y-94512742D02*
X128227500Y-94987258D01*
X129272500Y-94512742D02*
X129272500Y-94987258D01*
%TO.C,C401*%
X86609420Y-107240000D02*
X86890580Y-107240000D01*
X86609420Y-108260000D02*
X86890580Y-108260000D01*
%TO.C,D402*%
X88150000Y-112360000D02*
X88150000Y-109700000D01*
X88150000Y-112360000D02*
X89850000Y-112360000D01*
X89850000Y-112360000D02*
X89850000Y-109700000D01*
%TO.C,R102*%
X114062258Y-52727500D02*
X113587742Y-52727500D01*
X114062258Y-53772500D02*
X113587742Y-53772500D01*
%TO.C,U100*%
X66940000Y-91640000D02*
X69660000Y-91640000D01*
X66940000Y-92620000D02*
X66940000Y-91640000D01*
X66940000Y-95380000D02*
X66940000Y-96360000D01*
X69520000Y-96360000D02*
X66940000Y-96360000D01*
X70310000Y-96540000D02*
X69830000Y-96540000D01*
X70070000Y-96210000D01*
X70310000Y-96540000D01*
G36*
X70310000Y-96540000D02*
G01*
X69830000Y-96540000D01*
X70070000Y-96210000D01*
X70310000Y-96540000D01*
G37*
%TO.C,D511*%
X140490000Y-124750000D02*
X140490000Y-126750000D01*
X140490000Y-124750000D02*
X144500000Y-124750000D01*
X140490000Y-126750000D02*
X144500000Y-126750000D01*
%TO.C,R403*%
X90727500Y-106762742D02*
X90727500Y-107237258D01*
X91772500Y-106762742D02*
X91772500Y-107237258D01*
%TO.C,D200*%
X110860000Y-74400000D02*
X108200000Y-74400000D01*
X110860000Y-76100000D02*
X108200000Y-76100000D01*
X110860000Y-76100000D02*
X110860000Y-74400000D01*
%TO.C,R400*%
X81727500Y-106762742D02*
X81727500Y-107237258D01*
X82772500Y-106762742D02*
X82772500Y-107237258D01*
%TO.C,J300*%
X56400000Y-52340000D02*
X56900000Y-52340000D01*
X56400000Y-53640000D02*
X55050000Y-53640000D01*
X56400000Y-53640000D02*
X56400000Y-52340000D01*
X56400000Y-55490000D02*
X55050000Y-55490000D01*
X56400000Y-56990000D02*
X56400000Y-55490000D01*
X56400000Y-62490000D02*
X56400000Y-58890000D01*
X56900000Y-50340000D02*
X62100000Y-50340000D01*
X56900000Y-52340000D02*
X56900000Y-50340000D01*
X61850000Y-64540000D02*
X56400000Y-64540000D01*
X62100000Y-50340000D02*
X62100000Y-52340000D01*
X62100000Y-52340000D02*
X62600000Y-52340000D01*
X62600000Y-52340000D02*
X62600000Y-53540000D01*
X62600000Y-55490000D02*
X62600000Y-60740000D01*
X62600000Y-62690000D02*
X62600000Y-62990000D01*
%TO.C,D508*%
X110490000Y-124750000D02*
X110490000Y-126750000D01*
X110490000Y-124750000D02*
X114500000Y-124750000D01*
X110490000Y-126750000D02*
X114500000Y-126750000D01*
%TO.C,C501*%
X99609420Y-82490000D02*
X99890580Y-82490000D01*
X99609420Y-83510000D02*
X99890580Y-83510000D01*
%TO.C,C109*%
X51890000Y-93961252D02*
X51890000Y-92538748D01*
X53710000Y-93961252D02*
X53710000Y-92538748D01*
%TO.C,D514*%
X134015000Y-93265000D02*
X134015000Y-95550000D01*
X135485000Y-93265000D02*
X134015000Y-93265000D01*
X135485000Y-95550000D02*
X135485000Y-93265000D01*
%TO.C,D205*%
X70665000Y-67650000D02*
X70665000Y-69350000D01*
X70665000Y-67650000D02*
X73325000Y-67650000D01*
X70665000Y-69350000D02*
X73325000Y-69350000D01*
D11*
%TO.C,U202*%
X59365000Y-110715000D02*
X60635000Y-110715000D01*
X60000000Y-110715000D02*
X60000000Y-110080000D01*
X59550000Y-109525000D02*
X60450000Y-109525000D01*
X60450000Y-107990000D01*
X59550000Y-107990000D01*
X59550000Y-109525000D01*
G36*
X59550000Y-109525000D02*
G01*
X60450000Y-109525000D01*
X60450000Y-107990000D01*
X59550000Y-107990000D01*
X59550000Y-109525000D01*
G37*
X60635000Y-109445000D02*
G75*
G02*
X59365000Y-109445000I-635000J0D01*
G01*
X67000000Y-105000000D02*
G75*
G02*
X53000000Y-105000000I-7000000J0D01*
G01*
X53000000Y-105000000D02*
G75*
G02*
X67000000Y-105000000I7000000J0D01*
G01*
D13*
X60500000Y-105000000D02*
G75*
G02*
X59500000Y-105000000I-500000J0D01*
G01*
X59500000Y-105000000D02*
G75*
G02*
X60500000Y-105000000I500000J0D01*
G01*
D15*
X60250000Y-107990000D02*
G75*
G02*
X59750000Y-107990000I-250000J0D01*
G01*
X59750000Y-107990000D02*
G75*
G02*
X60250000Y-107990000I250000J0D01*
G01*
X60250000Y-109445000D02*
G75*
G02*
X59750000Y-109445000I-250000J0D01*
G01*
X59750000Y-109445000D02*
G75*
G02*
X60250000Y-109445000I250000J0D01*
G01*
D13*
%TO.C,C307*%
X65790000Y-79262500D02*
X65790000Y-83172500D01*
X65790000Y-83172500D02*
X67660000Y-83172500D01*
X67660000Y-83172500D02*
X67660000Y-79262500D01*
%TO.C,D502*%
X130390000Y-104750000D02*
X130390000Y-106750000D01*
X130390000Y-104750000D02*
X134400000Y-104750000D01*
X130390000Y-106750000D02*
X134400000Y-106750000D01*
%TO.C,R511*%
X135977500Y-94987258D02*
X135977500Y-94512742D01*
X137022500Y-94987258D02*
X137022500Y-94512742D01*
%TO.C,R305*%
X53012742Y-75727500D02*
X53487258Y-75727500D01*
X53012742Y-76772500D02*
X53487258Y-76772500D01*
%TO.C,C400*%
X86609420Y-105490000D02*
X86890580Y-105490000D01*
X86609420Y-106510000D02*
X86890580Y-106510000D01*
%TO.C,L101*%
X124738748Y-56390000D02*
X125261252Y-56390000D01*
X124738748Y-58610000D02*
X125261252Y-58610000D01*
%TO.C,U510*%
X129250000Y-120000000D02*
X129250000Y-121500000D01*
X130500000Y-124000000D02*
X135000000Y-124000000D01*
X135000000Y-117500000D02*
X130500000Y-117500000D01*
X136250000Y-121500000D02*
X136250000Y-120000000D01*
%TO.C,U505*%
X119250000Y-110000000D02*
X119250000Y-111500000D01*
X120500000Y-114000000D02*
X125000000Y-114000000D01*
X125000000Y-107500000D02*
X120500000Y-107500000D01*
X126250000Y-111500000D02*
X126250000Y-110000000D01*
%TO.C,R100*%
X115977500Y-54237258D02*
X115977500Y-53762742D01*
X117022500Y-54237258D02*
X117022500Y-53762742D01*
%TO.C,R300*%
X58952500Y-84737258D02*
X58952500Y-84262742D01*
X59997500Y-84737258D02*
X59997500Y-84262742D01*
%TO.C,C103*%
X113965580Y-54490000D02*
X113684420Y-54490000D01*
X113965580Y-55510000D02*
X113684420Y-55510000D01*
%TO.C,R503*%
X99512742Y-99477500D02*
X99987258Y-99477500D01*
X99512742Y-100522500D02*
X99987258Y-100522500D01*
%TO.C,U101*%
X55190000Y-91640000D02*
X57910000Y-91640000D01*
X55190000Y-92620000D02*
X55190000Y-91640000D01*
X55190000Y-95380000D02*
X55190000Y-96360000D01*
X57770000Y-96360000D02*
X55190000Y-96360000D01*
X58560000Y-96540000D02*
X58080000Y-96540000D01*
X58320000Y-96210000D01*
X58560000Y-96540000D01*
G36*
X58560000Y-96540000D02*
G01*
X58080000Y-96540000D01*
X58320000Y-96210000D01*
X58560000Y-96540000D01*
G37*
%TO.C,D4*%
X70640000Y-70400000D02*
X70640000Y-72100000D01*
X70640000Y-70400000D02*
X73300000Y-70400000D01*
X70640000Y-72100000D02*
X73300000Y-72100000D01*
%TO.C,C303*%
X61915000Y-84452500D02*
X61915000Y-86322500D01*
X61915000Y-86322500D02*
X65825000Y-86322500D01*
X65825000Y-84452500D02*
X61915000Y-84452500D01*
%TO.C,R302*%
X55452500Y-84737258D02*
X55452500Y-84262742D01*
X56497500Y-84737258D02*
X56497500Y-84262742D01*
%TO.C,U300*%
X56590000Y-78387500D02*
X56590000Y-76187500D01*
X56590000Y-78387500D02*
X56590000Y-80587500D01*
X63360000Y-78387500D02*
X63360000Y-76187500D01*
X63360000Y-78387500D02*
X63360000Y-80587500D01*
X62900000Y-74527500D02*
X62660000Y-74197500D01*
X63140000Y-74197500D01*
X62900000Y-74527500D01*
G36*
X62900000Y-74527500D02*
G01*
X62660000Y-74197500D01*
X63140000Y-74197500D01*
X62900000Y-74527500D01*
G37*
%TO.C,J201*%
X67195000Y-62170000D02*
X68525000Y-62170000D01*
X67195000Y-63500000D02*
X67195000Y-62170000D01*
X67195000Y-64770000D02*
X67195000Y-72450000D01*
X67195000Y-64770000D02*
X69855000Y-64770000D01*
X67195000Y-72450000D02*
X69855000Y-72450000D01*
X69855000Y-64770000D02*
X69855000Y-72450000D01*
%TO.C,D400*%
X85900000Y-112360000D02*
X85900000Y-109700000D01*
X85900000Y-112360000D02*
X87600000Y-112360000D01*
X87600000Y-112360000D02*
X87600000Y-109700000D01*
%TO.C,Q502*%
X131750000Y-93190000D02*
X131100000Y-93190000D01*
X131750000Y-93190000D02*
X132400000Y-93190000D01*
X131750000Y-96310000D02*
X131100000Y-96310000D01*
X131750000Y-96310000D02*
X132400000Y-96310000D01*
X130587500Y-93240000D02*
X130347500Y-92910000D01*
X130827500Y-92910000D01*
X130587500Y-93240000D01*
G36*
X130587500Y-93240000D02*
G01*
X130347500Y-92910000D01*
X130827500Y-92910000D01*
X130587500Y-93240000D01*
G37*
%TD*%
D17*
%TO.C,J400*%
X81990000Y-125050000D03*
X89990000Y-125050000D03*
%TD*%
M02*
