%TF.GenerationSoftware,KiCad,Pcbnew,8.0.8*%
%TF.CreationDate,2025-04-26T14:11:05+03:00*%
%TF.ProjectId,rpi_pico_media_board,7270695f-7069-4636-9f5f-6d656469615f,rev?*%
%TF.SameCoordinates,Original*%
%TF.FileFunction,Copper,L4,Bot*%
%TF.FilePolarity,Positive*%
%FSLAX46Y46*%
G04 Gerber Fmt 4.6, Leading zero omitted, Abs format (unit mm)*
G04 Created by KiCad (PCBNEW 8.0.8) date 2025-04-26 14:11:05*
%MOMM*%
%LPD*%
G01*
G04 APERTURE LIST*
G04 Aperture macros list*
%AMRoundRect*
0 Rectangle with rounded corners*
0 $1 Rounding radius*
0 $2 $3 $4 $5 $6 $7 $8 $9 X,Y pos of 4 corners*
0 Add a 4 corners polygon primitive as box body*
4,1,4,$2,$3,$4,$5,$6,$7,$8,$9,$2,$3,0*
0 Add four circle primitives for the rounded corners*
1,1,$1+$1,$2,$3*
1,1,$1+$1,$4,$5*
1,1,$1+$1,$6,$7*
1,1,$1+$1,$8,$9*
0 Add four rect primitives between the rounded corners*
20,1,$1+$1,$2,$3,$4,$5,0*
20,1,$1+$1,$4,$5,$6,$7,0*
20,1,$1+$1,$6,$7,$8,$9,0*
20,1,$1+$1,$8,$9,$2,$3,0*%
%AMFreePoly0*
4,1,28,0.605014,0.794986,0.644504,0.794986,0.724698,0.756366,0.780194,0.686777,0.800000,0.600000,0.800000,-0.600000,0.780194,-0.686777,0.724698,-0.756366,0.644504,-0.794986,0.605014,-0.794986,0.600000,-0.800000,0.000000,-0.800000,-0.178017,-0.779942,-0.347107,-0.720775,-0.498792,-0.625465,-0.625465,-0.498792,-0.720775,-0.347107,-0.779942,-0.178017,-0.800000,0.000000,-0.779942,0.178017,
-0.720775,0.347107,-0.625465,0.498792,-0.498792,0.625465,-0.347107,0.720775,-0.178017,0.779942,0.000000,0.800000,0.600000,0.800000,0.605014,0.794986,0.605014,0.794986,$1*%
%AMFreePoly1*
4,1,28,0.178017,0.779942,0.347107,0.720775,0.498792,0.625465,0.625465,0.498792,0.720775,0.347107,0.779942,0.178017,0.800000,0.000000,0.779942,-0.178017,0.720775,-0.347107,0.625465,-0.498792,0.498792,-0.625465,0.347107,-0.720775,0.178017,-0.779942,0.000000,-0.800000,-0.600000,-0.800000,-0.605014,-0.794986,-0.644504,-0.794986,-0.724698,-0.756366,-0.780194,-0.686777,-0.800000,-0.600000,
-0.800000,0.600000,-0.780194,0.686777,-0.724698,0.756366,-0.644504,0.794986,-0.605014,0.794986,-0.600000,0.800000,0.000000,0.800000,0.178017,0.779942,0.178017,0.779942,$1*%
G04 Aperture macros list end*
%TA.AperFunction,ComponentPad*%
%ADD10O,2.500000X2.000000*%
%TD*%
%TA.AperFunction,ComponentPad*%
%ADD11O,2.500000X1.850000*%
%TD*%
%TA.AperFunction,ComponentPad*%
%ADD12R,4.600000X2.000000*%
%TD*%
%TA.AperFunction,ComponentPad*%
%ADD13O,4.200000X2.000000*%
%TD*%
%TA.AperFunction,ComponentPad*%
%ADD14O,2.000000X4.200000*%
%TD*%
%TA.AperFunction,ComponentPad*%
%ADD15C,2.000000*%
%TD*%
%TA.AperFunction,ComponentPad*%
%ADD16C,1.524000*%
%TD*%
%TA.AperFunction,ComponentPad*%
%ADD17R,1.700000X1.700000*%
%TD*%
%TA.AperFunction,ComponentPad*%
%ADD18O,1.700000X1.700000*%
%TD*%
%TA.AperFunction,ComponentPad*%
%ADD19R,1.600000X2.000000*%
%TD*%
%TA.AperFunction,ComponentPad*%
%ADD20O,1.600000X2.000000*%
%TD*%
%TA.AperFunction,ComponentPad*%
%ADD21RoundRect,0.200000X-0.600000X-0.600000X0.600000X-0.600000X0.600000X0.600000X-0.600000X0.600000X0*%
%TD*%
%TA.AperFunction,ComponentPad*%
%ADD22C,1.600000*%
%TD*%
%TA.AperFunction,ComponentPad*%
%ADD23FreePoly0,0.000000*%
%TD*%
%TA.AperFunction,ComponentPad*%
%ADD24FreePoly1,0.000000*%
%TD*%
%TA.AperFunction,ComponentPad*%
%ADD25C,0.500000*%
%TD*%
%TA.AperFunction,ViaPad*%
%ADD26C,0.700000*%
%TD*%
%TA.AperFunction,Conductor*%
%ADD27C,0.300000*%
%TD*%
%TA.AperFunction,Conductor*%
%ADD28C,0.500000*%
%TD*%
G04 APERTURE END LIST*
D10*
%TO.P,SW200,1*%
%TO.N,unconnected-(SW200-Pad1)*%
X108250000Y-72490000D03*
D11*
%TO.P,SW200,2*%
%TO.N,+RPI_VBUS*%
X108250000Y-69750000D03*
D10*
%TO.P,SW200,3*%
%TO.N,Net-(D200-A)*%
X108250000Y-67010000D03*
%TO.P,SW200,4*%
X102250000Y-67010000D03*
D11*
%TO.P,SW200,5*%
%TO.N,+RPI_VBUS*%
X102250000Y-69750000D03*
D10*
%TO.P,SW200,6*%
%TO.N,unconnected-(SW200-Pad6)*%
X102250000Y-72490000D03*
%TD*%
D12*
%TO.P,J100,1*%
%TO.N,VDC*%
X105000000Y-64000000D03*
D13*
%TO.P,J100,2*%
%TO.N,GND*%
X105000000Y-57700000D03*
D14*
%TO.P,J100,3*%
X100200000Y-61100000D03*
%TD*%
D15*
%TO.P,U511,1,1*%
%TO.N,Net-(R500-Pad2)*%
X139500000Y-118500000D03*
X146000000Y-118500000D03*
%TO.P,U511,2,2*%
%TO.N,Net-(D511-A)*%
X139500000Y-123000000D03*
X146000000Y-123000000D03*
%TD*%
%TO.P,U503,1,1*%
%TO.N,Net-(R500-Pad2)*%
X139500000Y-98500000D03*
X146000000Y-98500000D03*
%TO.P,U503,2,2*%
%TO.N,Net-(D503-A)*%
X139500000Y-103000000D03*
X146000000Y-103000000D03*
%TD*%
%TO.P,U509,1,1*%
%TO.N,Net-(R502-Pad2)*%
X119500000Y-118500000D03*
X126000000Y-118500000D03*
%TO.P,U509,2,2*%
%TO.N,Net-(D509-A)*%
X119500000Y-123000000D03*
X126000000Y-123000000D03*
%TD*%
D16*
%TO.P,U203,1,3V*%
%TO.N,+3.3VA_INMP*%
X63810000Y-120000000D03*
%TO.P,U203,2,GND*%
%TO.N,GND*%
X63810000Y-117460000D03*
%TO.P,U203,3,BCLK*%
%TO.N,I2S_INMP441_SCK*%
X56190000Y-122540000D03*
%TO.P,U203,4,DOUT*%
%TO.N,I2S_INMP441_DATA*%
X63810000Y-122540000D03*
%TO.P,U203,5,LRCLK*%
%TO.N,I2S_INMP441_SCL*%
X56190000Y-120000000D03*
%TO.P,U203,6,SEL*%
%TO.N,GND*%
X56190000Y-117460000D03*
%TD*%
D17*
%TO.P,J301,1,Pin_1*%
%TO.N,GND*%
X52500000Y-55000000D03*
D18*
%TO.P,J301,2,Pin_2*%
%TO.N,/[3]PCM5102/OUT_L*%
X52500000Y-57540000D03*
%TO.P,J301,3,Pin_3*%
%TO.N,/[3]PCM5102/OUT_R*%
X52500000Y-60080000D03*
%TD*%
D15*
%TO.P,U507,1,1*%
%TO.N,Net-(R500-Pad2)*%
X139500000Y-108500000D03*
X146000000Y-108500000D03*
%TO.P,U507,2,2*%
%TO.N,Net-(D507-A)*%
X139500000Y-113000000D03*
X146000000Y-113000000D03*
%TD*%
D19*
%TO.P,Brd600,1,GND*%
%TO.N,GND*%
X121630000Y-67150000D03*
%TO.P,Brd600,2,VCC*%
%TO.N,+3.3V*%
X124170000Y-67150000D03*
D20*
%TO.P,Brd600,3,SCL*%
%TO.N,I2C1_SCL*%
X126710000Y-67150000D03*
%TO.P,Brd600,4,SDA*%
%TO.N,I2C1_SDA*%
X129250000Y-67150000D03*
%TD*%
D15*
%TO.P,U501,1,1*%
%TO.N,Net-(R502-Pad2)*%
X119500000Y-98500000D03*
X126000000Y-98500000D03*
%TO.P,U501,2,2*%
%TO.N,Net-(D501-A)*%
X119500000Y-103000000D03*
X126000000Y-103000000D03*
%TD*%
D17*
%TO.P,J200,1,Pin_1*%
%TO.N,GND*%
X68525000Y-52000000D03*
D18*
%TO.P,J200,2,Pin_2*%
%TO.N,UART0_TX*%
X68525000Y-54540000D03*
%TO.P,J200,3,Pin_3*%
%TO.N,UART0_RX*%
X68525000Y-57080000D03*
%TO.P,J200,4,Pin_4*%
%TO.N,+3.3V*%
X68525000Y-59620000D03*
%TD*%
D15*
%TO.P,U502,1,1*%
%TO.N,Net-(R501-Pad2)*%
X129500000Y-98500000D03*
X136000000Y-98500000D03*
%TO.P,U502,2,2*%
%TO.N,Net-(D502-A)*%
X129500000Y-103000000D03*
X136000000Y-103000000D03*
%TD*%
%TO.P,U504,1,1*%
%TO.N,Net-(R503-Pad2)*%
X109500000Y-108500000D03*
X116000000Y-108500000D03*
%TO.P,U504,2,2*%
%TO.N,Net-(D504-A)*%
X109500000Y-113000000D03*
X116000000Y-113000000D03*
%TD*%
D21*
%TO.P,U200,1,GPIO0*%
%TO.N,UART0_TX*%
X77610000Y-51670000D03*
D22*
%TO.P,U200,2,GPIO1*%
%TO.N,UART0_RX*%
X77610000Y-54210000D03*
D23*
%TO.P,U200,3,GND*%
%TO.N,GND*%
X77610000Y-56750000D03*
D22*
%TO.P,U200,4,GPIO2*%
%TO.N,I2C1_SDA*%
X77610000Y-59290000D03*
%TO.P,U200,5,GPIO3*%
%TO.N,I2C1_SCL*%
X77610000Y-61830000D03*
%TO.P,U200,6,GPIO4*%
%TO.N,I2S_PCM5102_DATA*%
X77610000Y-64370000D03*
%TO.P,U200,7,GPIO5*%
%TO.N,I2S_PCM5102_SCK*%
X77610000Y-66910000D03*
D23*
%TO.P,U200,8,GND*%
%TO.N,GND*%
X77610000Y-69450000D03*
D22*
%TO.P,U200,9,GPIO6*%
%TO.N,I2S_PCM5102_SCL*%
X77610000Y-71990000D03*
%TO.P,U200,10,GPIO7*%
%TO.N,PCF8563_INT*%
X77610000Y-74530000D03*
%TO.P,U200,11,GPIO8*%
%TO.N,SPI1_SD_CARD_MISO*%
X77610000Y-77070000D03*
%TO.P,U200,12,GPIO9*%
%TO.N,SPI1_SD_CARD_CS*%
X77610000Y-79610000D03*
D23*
%TO.P,U200,13,GND*%
%TO.N,GND*%
X77610000Y-82150000D03*
D22*
%TO.P,U200,14,GPIO10*%
%TO.N,SPI1_SD_CARD_SCK*%
X77610000Y-84690000D03*
%TO.P,U200,15,GPIO11*%
%TO.N,SPI1_SD_CARD_MOSI*%
X77610000Y-87230000D03*
%TO.P,U200,16,GPIO12*%
%TO.N,SPI1_SD_CARD_CARD_DETECT*%
X77610000Y-89770000D03*
%TO.P,U200,17,GPIO13*%
%TO.N,I2S_INMP441_DATA*%
X77610000Y-92310000D03*
D23*
%TO.P,U200,18,GND*%
%TO.N,GND*%
X77610000Y-94850000D03*
D22*
%TO.P,U200,19,GPIO14*%
%TO.N,I2S_INMP441_SCK*%
X77610000Y-97390000D03*
%TO.P,U200,20,GPIO15*%
%TO.N,I2S_INMP441_SCL*%
X77610000Y-99930000D03*
%TO.P,U200,21,GPIO16*%
%TO.N,MACRO_PAD_BTN_COL_0*%
X95390000Y-99930000D03*
%TO.P,U200,22,GPIO17*%
%TO.N,MACRO_PAD_BTN_COL_1*%
X95390000Y-97390000D03*
D24*
%TO.P,U200,23,GND*%
%TO.N,GND*%
X95390000Y-94850000D03*
D22*
%TO.P,U200,24,GPIO18*%
%TO.N,MACRO_PAD_BTN_COL_2*%
X95390000Y-92310000D03*
%TO.P,U200,25,GPIO19*%
%TO.N,MACRO_PAD_BTN_COL_3*%
X95390000Y-89770000D03*
%TO.P,U200,26,GPIO20*%
%TO.N,MACRO_PAD_BTN_ROW_2*%
X95390000Y-87230000D03*
%TO.P,U200,27,GPIO21*%
%TO.N,MACRO_PAD_BTN_ROW_1*%
X95390000Y-84690000D03*
D24*
%TO.P,U200,28,GND*%
%TO.N,GND*%
X95390000Y-82150000D03*
D22*
%TO.P,U200,29,GPIO22*%
%TO.N,MACRO_PAD_BTN_ROW_0*%
X95390000Y-79610000D03*
%TO.P,U200,30,RUN*%
%TO.N,unconnected-(U200-RUN-Pad30)*%
X95390000Y-77070000D03*
%TO.P,U200,31,GPIO26_ADC0*%
%TO.N,USR_LED_0*%
X95390000Y-74530000D03*
%TO.P,U200,32,GPIO27_ADC1*%
%TO.N,USR_LED_1*%
X95390000Y-71990000D03*
D24*
%TO.P,U200,33,AGND*%
%TO.N,unconnected-(U200-AGND-Pad33)*%
X95390000Y-69450000D03*
D22*
%TO.P,U200,34,GPIO28_ADC2*%
%TO.N,USR_LED_2*%
X95390000Y-66910000D03*
%TO.P,U200,35,ADC_VREF*%
%TO.N,unconnected-(U200-ADC_VREF-Pad35)*%
X95390000Y-64370000D03*
%TO.P,U200,36,3V3*%
%TO.N,unconnected-(U200-3V3-Pad36)*%
X95390000Y-61830000D03*
%TO.P,U200,37,3V3_EN*%
%TO.N,unconnected-(U200-3V3_EN-Pad37)*%
X95390000Y-59290000D03*
D24*
%TO.P,U200,38,GND*%
%TO.N,GND*%
X95390000Y-56750000D03*
D22*
%TO.P,U200,39,VSYS*%
%TO.N,unconnected-(U200-VSYS-Pad39)*%
X95390000Y-54210000D03*
%TO.P,U200,40,VBUS*%
%TO.N,+RPI_VBUS*%
X95390000Y-51670000D03*
%TD*%
D15*
%TO.P,U508,1,1*%
%TO.N,Net-(R503-Pad2)*%
X109500000Y-118500000D03*
X116000000Y-118500000D03*
%TO.P,U508,2,2*%
%TO.N,Net-(D508-A)*%
X109500000Y-123000000D03*
X116000000Y-123000000D03*
%TD*%
D25*
%TO.P,J400,14*%
%TO.N,N/C*%
X81990000Y-125050000D03*
%TO.P,J400,15*%
X89990000Y-125050000D03*
%TD*%
D15*
%TO.P,U506,1,1*%
%TO.N,Net-(R501-Pad2)*%
X129500000Y-108500000D03*
X136000000Y-108500000D03*
%TO.P,U506,2,2*%
%TO.N,Net-(D506-A)*%
X129500000Y-113000000D03*
X136000000Y-113000000D03*
%TD*%
%TO.P,U500,1,1*%
%TO.N,Net-(R503-Pad2)*%
X109500000Y-98500000D03*
X116000000Y-98500000D03*
%TO.P,U500,2,2*%
%TO.N,Net-(D500-A)*%
X109500000Y-103000000D03*
X116000000Y-103000000D03*
%TD*%
D16*
%TO.P,U202,1,3V*%
%TO.N,+3.3VA_INMP*%
X63810000Y-105000000D03*
%TO.P,U202,2,GND*%
%TO.N,GND*%
X63810000Y-102460000D03*
%TO.P,U202,3,BCLK*%
%TO.N,I2S_INMP441_SCK*%
X56190000Y-107540000D03*
%TO.P,U202,4,DOUT*%
%TO.N,I2S_INMP441_DATA*%
X63810000Y-107540000D03*
%TO.P,U202,5,LRCLK*%
%TO.N,I2S_INMP441_SCL*%
X56190000Y-105000000D03*
%TO.P,U202,6,SEL*%
%TO.N,+3.3VA_INMP*%
X56190000Y-102460000D03*
%TD*%
D15*
%TO.P,U510,1,1*%
%TO.N,Net-(R501-Pad2)*%
X129500000Y-118500000D03*
X136000000Y-118500000D03*
%TO.P,U510,2,2*%
%TO.N,Net-(D510-A)*%
X129500000Y-123000000D03*
X136000000Y-123000000D03*
%TD*%
%TO.P,U505,1,1*%
%TO.N,Net-(R502-Pad2)*%
X119500000Y-108500000D03*
X126000000Y-108500000D03*
%TO.P,U505,2,2*%
%TO.N,Net-(D505-A)*%
X119500000Y-113000000D03*
X126000000Y-113000000D03*
%TD*%
D17*
%TO.P,J201,1,Pin_1*%
%TO.N,GND*%
X68525000Y-63500000D03*
D18*
%TO.P,J201,2,Pin_2*%
%TO.N,I2C1_SDA*%
X68525000Y-66040000D03*
%TO.P,J201,3,Pin_3*%
%TO.N,I2C1_SCL*%
X68525000Y-68580000D03*
%TO.P,J201,4,Pin_4*%
%TO.N,+3.3V*%
X68525000Y-71120000D03*
%TD*%
D26*
%TO.N,I2S_INMP441_DATA*%
X73000000Y-96250000D03*
%TO.N,GND*%
X68250000Y-83250000D03*
X74000000Y-54250000D03*
X114750000Y-65000000D03*
X87500000Y-105000000D03*
X129250000Y-54000000D03*
X112750000Y-65000000D03*
X68250000Y-77000000D03*
X57250000Y-78250000D03*
X130000000Y-59500000D03*
X73500000Y-89500000D03*
X129000000Y-59500000D03*
X101500000Y-80250000D03*
X55625000Y-68625000D03*
X89000000Y-110500000D03*
X118500000Y-52250000D03*
X74000000Y-70750000D03*
X64750000Y-89750000D03*
X93500000Y-125000000D03*
X113750000Y-92000000D03*
X76750000Y-106250000D03*
X131500000Y-59500000D03*
X66000000Y-60750000D03*
X137750000Y-80250000D03*
X80250000Y-125000000D03*
X109750000Y-96500000D03*
X115750000Y-65000000D03*
X61750000Y-89500000D03*
X121500000Y-56000000D03*
X145600003Y-83500000D03*
X143500000Y-129250000D03*
X123250000Y-129250000D03*
X52250000Y-90500000D03*
X55250000Y-77000000D03*
X148000000Y-82000000D03*
X81250000Y-104500000D03*
X67000000Y-85500000D03*
X82250000Y-110500000D03*
X122000000Y-59750000D03*
X86780331Y-110469669D03*
X72750000Y-72750000D03*
X62500000Y-77000000D03*
X143750000Y-92250000D03*
X74000000Y-68250000D03*
X51500000Y-76000000D03*
X61000000Y-77000000D03*
X57500000Y-71000000D03*
X55250000Y-80750000D03*
X83750000Y-56000000D03*
X129750000Y-96500000D03*
X65500000Y-83750000D03*
X85792893Y-104250000D03*
X119750000Y-96500000D03*
X57250000Y-77000000D03*
X105750000Y-66250000D03*
X65500000Y-90250000D03*
X74000000Y-56750000D03*
X148000000Y-74750000D03*
X57250000Y-79750000D03*
X90500000Y-104500000D03*
X101500000Y-83750000D03*
X80500000Y-116500000D03*
X62500000Y-78500000D03*
X61000000Y-79750000D03*
X59750000Y-95500000D03*
X91250000Y-110500000D03*
X93250000Y-116500000D03*
X60500000Y-85900000D03*
X61500000Y-71000000D03*
X84750000Y-62250000D03*
X139750000Y-96500000D03*
X80500000Y-88750000D03*
X74000000Y-59250000D03*
X80000000Y-110500000D03*
X57750000Y-54000000D03*
X84500000Y-110500000D03*
X61250000Y-54000000D03*
X53000000Y-89750000D03*
X58500000Y-77000000D03*
X73000000Y-62500000D03*
X133250000Y-129250000D03*
X112000000Y-53500000D03*
X111750000Y-57000000D03*
X73875000Y-65625000D03*
X59750000Y-77000000D03*
X112000000Y-55250000D03*
X87500000Y-108750000D03*
X101500000Y-87250000D03*
X68250000Y-79500000D03*
X51250000Y-80000000D03*
X132500000Y-59500000D03*
X73500000Y-97000000D03*
X120750000Y-63250000D03*
X65500000Y-89000000D03*
X53750000Y-89000000D03*
X62500000Y-79750000D03*
X112000000Y-129450000D03*
X140250000Y-72500000D03*
X64750000Y-78250000D03*
X73500000Y-99000000D03*
X51250000Y-81750000D03*
X68250000Y-78250000D03*
X133500000Y-92000000D03*
X64000000Y-90500000D03*
X123649997Y-92000000D03*
X144750000Y-66750000D03*
X143750000Y-66750000D03*
X119500000Y-58750000D03*
X73500000Y-101000000D03*
X117750000Y-58500000D03*
X128000000Y-54750000D03*
X113750000Y-65000000D03*
X84000000Y-115750000D03*
X51250000Y-83500000D03*
X139500000Y-69750000D03*
X53750000Y-90250000D03*
X51750000Y-73500000D03*
X72250000Y-86750000D03*
X63000000Y-69000000D03*
X59750000Y-79750000D03*
X54000000Y-69000000D03*
X71500000Y-95500000D03*
X128000000Y-60250000D03*
X58500000Y-79750000D03*
%TO.N,PCF8563_INT*%
X83750000Y-57000000D03*
X83750000Y-62250000D03*
%TO.N,Net-(D200-A)*%
X105750000Y-67210000D03*
%TO.N,I2S_INMP441_SCK*%
X73000000Y-98000000D03*
%TO.N,I2S_INMP441_SCL*%
X73250000Y-99930000D03*
%TO.N,SPI1_SD_CARD_CARD_DETECT*%
X80500000Y-89750000D03*
%TO.N,I2S_PCM5102_SCL*%
X73500000Y-73250000D03*
%TO.N,+3.3V*%
X129174717Y-54964700D03*
X91500000Y-104500000D03*
X82250000Y-105000000D03*
X66250000Y-61750000D03*
X144750000Y-83500000D03*
X136750000Y-80000000D03*
X86750000Y-104250000D03*
X77750000Y-106250000D03*
X53750000Y-70000000D03*
X73000000Y-61500000D03*
%TO.N,+5V*%
X60750000Y-89500000D03*
X114750000Y-92000000D03*
X124500000Y-92000000D03*
X144750000Y-92250000D03*
X119750000Y-63250000D03*
X134500000Y-92000000D03*
X72500000Y-89500000D03*
%TO.N,+3.3VA_PCM*%
X71250000Y-86750000D03*
X68750000Y-82500000D03*
%TO.N,Net-(R500-Pad2)*%
X142500000Y-129000000D03*
%TO.N,Net-(R501-Pad2)*%
X131975000Y-129225000D03*
%TO.N,Net-(R502-Pad2)*%
X121750000Y-129250000D03*
%TO.N,Net-(R503-Pad2)*%
X111000000Y-129250000D03*
%TO.N,/[1]Power/EN_3V3*%
X122500000Y-56250000D03*
X121500000Y-59000000D03*
%TO.N,/[3]PCM5102/XSMT*%
X55250000Y-78000000D03*
X61250000Y-85250000D03*
%TO.N,/[3]PCM5102/FMT*%
X60550000Y-84600000D03*
X55250000Y-79750000D03*
%TD*%
D27*
%TO.N,I2S_INMP441_DATA*%
X73000000Y-96250000D02*
X73250000Y-96250000D01*
X73250000Y-96250000D02*
X77190000Y-92310000D01*
X77190000Y-92310000D02*
X77610000Y-92310000D01*
%TO.N,PCF8563_INT*%
X83750000Y-57000000D02*
X83750000Y-62250000D01*
D28*
%TO.N,Net-(D200-A)*%
X105500000Y-67210000D02*
X105750000Y-67210000D01*
X102250000Y-67210000D02*
X105500000Y-67210000D01*
X105750000Y-67210000D02*
X108250000Y-67210000D01*
D27*
%TO.N,I2S_INMP441_SCK*%
X77000000Y-98000000D02*
X77610000Y-97390000D01*
X73000000Y-98000000D02*
X77000000Y-98000000D01*
%TO.N,I2S_INMP441_SCL*%
X77610000Y-99930000D02*
X73250000Y-99930000D01*
%TO.N,SPI1_SD_CARD_CARD_DETECT*%
X77610000Y-89770000D02*
X80480000Y-89770000D01*
X80480000Y-89770000D02*
X80500000Y-89750000D01*
%TO.N,I2S_PCM5102_SCL*%
X77610000Y-71990000D02*
X74760000Y-71990000D01*
X74760000Y-71990000D02*
X73500000Y-73250000D01*
D28*
%TO.N,+RPI_VBUS*%
X102250000Y-69750000D02*
X103250000Y-70750000D01*
X107250000Y-70750000D02*
X108250000Y-69750000D01*
X103250000Y-70750000D02*
X107250000Y-70750000D01*
%TO.N,+3.3V*%
X82750000Y-103000000D02*
X83250000Y-103500000D01*
X132500000Y-63000000D02*
X125250000Y-63000000D01*
X129250000Y-51250000D02*
X103000000Y-51250000D01*
X129189339Y-55000000D02*
X131750000Y-55000000D01*
X80010000Y-53010000D02*
X75740000Y-53010000D01*
X83750000Y-103000000D02*
X83250000Y-103500000D01*
X87000000Y-103000000D02*
X83750000Y-103000000D01*
X82250000Y-104500000D02*
X82250000Y-105000000D01*
X104750000Y-99500000D02*
X104750000Y-92750000D01*
X53750000Y-70000000D02*
X51000000Y-67250000D01*
X116000000Y-81500000D02*
X116000000Y-67250000D01*
X63000000Y-51750000D02*
X64750000Y-53500000D01*
X132500000Y-63000000D02*
X136750000Y-67250000D01*
X122250000Y-62000000D02*
X123250000Y-63000000D01*
X92500000Y-54250000D02*
X81250000Y-54250000D01*
X75250000Y-53500000D02*
X75250000Y-59250000D01*
X101240000Y-53010000D02*
X93740000Y-53010000D01*
X124170000Y-64080000D02*
X124170000Y-67150000D01*
X79625000Y-103000000D02*
X82750000Y-103000000D01*
X131750000Y-55000000D02*
X131750000Y-53750000D01*
X66250000Y-61750000D02*
X66250000Y-61810661D01*
X123250000Y-63000000D02*
X125250000Y-63000000D01*
X83250000Y-103500000D02*
X82250000Y-104500000D01*
X88000000Y-103000000D02*
X92000000Y-103000000D01*
X86750000Y-104250000D02*
X87500000Y-103500000D01*
X134750000Y-55000000D02*
X136500000Y-56750000D01*
X118750000Y-62000000D02*
X122250000Y-62000000D01*
X136500000Y-56750000D02*
X136500000Y-59000000D01*
X64750000Y-61060661D02*
X65439339Y-61750000D01*
X73000000Y-61500000D02*
X66500000Y-61500000D01*
X125250000Y-63000000D02*
X124170000Y-64080000D01*
X99750000Y-104500000D02*
X104750000Y-99500000D01*
X131750000Y-53750000D02*
X129250000Y-51250000D01*
X81250000Y-54250000D02*
X80010000Y-53010000D01*
X131750000Y-55000000D02*
X134750000Y-55000000D01*
X93000000Y-104500000D02*
X99750000Y-104500000D01*
X51000000Y-53750000D02*
X53000000Y-51750000D01*
X64750000Y-53500000D02*
X64750000Y-61060661D01*
X136750000Y-81000000D02*
X139750000Y-84000000D01*
X93000000Y-104000000D02*
X93000000Y-104500000D01*
X136750000Y-80000000D02*
X136750000Y-81000000D01*
X103000000Y-51250000D02*
X101240000Y-53010000D01*
X75250000Y-59250000D02*
X73000000Y-61500000D01*
X91500000Y-104500000D02*
X93000000Y-104500000D01*
X77750000Y-106250000D02*
X77750000Y-104875000D01*
X75740000Y-53010000D02*
X75250000Y-53500000D01*
X116000000Y-67250000D02*
X117000000Y-66250000D01*
X66500000Y-61500000D02*
X66250000Y-61750000D01*
X136500000Y-59000000D02*
X132500000Y-63000000D01*
X129174717Y-54964700D02*
X129174717Y-54985378D01*
X77750000Y-104875000D02*
X79625000Y-103000000D01*
X92000000Y-103000000D02*
X93000000Y-104000000D01*
X136750000Y-67250000D02*
X136750000Y-80000000D01*
X87500000Y-103500000D02*
X87000000Y-103000000D01*
X144250000Y-84000000D02*
X144750000Y-83500000D01*
X65439339Y-61750000D02*
X66250000Y-61750000D01*
X87500000Y-103500000D02*
X88000000Y-103000000D01*
X117000000Y-66250000D02*
X117000000Y-63750000D01*
X117000000Y-63750000D02*
X118750000Y-62000000D01*
X129174717Y-54985378D02*
X129189339Y-55000000D01*
X139750000Y-84000000D02*
X144250000Y-84000000D01*
X104750000Y-92750000D02*
X116000000Y-81500000D01*
X93740000Y-53010000D02*
X92500000Y-54250000D01*
X53000000Y-51750000D02*
X63000000Y-51750000D01*
X51000000Y-67250000D02*
X51000000Y-53750000D01*
%TO.N,+5V*%
X117500000Y-88500000D02*
X121750000Y-88500000D01*
X59750000Y-88000000D02*
X60750000Y-89000000D01*
X119750000Y-63250000D02*
X119750000Y-65000000D01*
X53000000Y-88000000D02*
X59750000Y-88000000D01*
X51000000Y-90000000D02*
X53000000Y-88000000D01*
X71000000Y-88000000D02*
X59750000Y-88000000D01*
X132125000Y-88875000D02*
X134500000Y-91250000D01*
X132125000Y-88625000D02*
X132125000Y-88875000D01*
X106250000Y-94000000D02*
X106250000Y-127000000D01*
X144750000Y-92000000D02*
X144750000Y-92250000D01*
X141250000Y-88500000D02*
X144750000Y-92000000D01*
X124500000Y-91250000D02*
X121750000Y-88500000D01*
X117500000Y-88500000D02*
X114750000Y-91250000D01*
X124500000Y-92000000D02*
X124500000Y-91250000D01*
X114750000Y-91250000D02*
X114750000Y-92000000D01*
X134500000Y-91250000D02*
X134500000Y-92000000D01*
X51000000Y-123250000D02*
X51000000Y-90000000D01*
X104250000Y-129000000D02*
X56750000Y-129000000D01*
X123000000Y-88500000D02*
X132000000Y-88500000D01*
X60750000Y-89000000D02*
X60750000Y-89500000D01*
X117500000Y-88250000D02*
X112000000Y-88250000D01*
X132250000Y-88500000D02*
X141250000Y-88500000D01*
X117500000Y-67250000D02*
X117500000Y-88250000D01*
X119750000Y-65000000D02*
X117500000Y-67250000D01*
X121750000Y-88500000D02*
X123000000Y-88500000D01*
X72500000Y-89500000D02*
X71000000Y-88000000D01*
X106250000Y-127000000D02*
X104250000Y-129000000D01*
X132000000Y-88500000D02*
X132125000Y-88625000D01*
X112000000Y-88250000D02*
X106250000Y-94000000D01*
X56750000Y-129000000D02*
X51000000Y-123250000D01*
X117500000Y-88250000D02*
X117500000Y-88500000D01*
X132125000Y-88625000D02*
X132250000Y-88500000D01*
%TO.N,+3.3VA_PCM*%
X71250000Y-85000000D02*
X68750000Y-82500000D01*
X71250000Y-86750000D02*
X71250000Y-85000000D01*
%TO.N,Net-(R500-Pad2)*%
X139500000Y-118500000D02*
X143000000Y-118500000D01*
X142750000Y-118250000D02*
X143000000Y-118500000D01*
X142500000Y-129000000D02*
X143000000Y-128500000D01*
X142750000Y-98500000D02*
X142750000Y-118250000D01*
X139500000Y-98500000D02*
X142750000Y-98500000D01*
X143000000Y-128500000D02*
X143000000Y-118500000D01*
X142750000Y-98500000D02*
X146000000Y-98500000D01*
X139500000Y-108500000D02*
X146000000Y-108500000D01*
X143000000Y-118500000D02*
X146000000Y-118500000D01*
%TO.N,Net-(R501-Pad2)*%
X129500000Y-98500000D02*
X132500000Y-98500000D01*
X132500000Y-98500000D02*
X136000000Y-98500000D01*
X132500000Y-118500000D02*
X136000000Y-118500000D01*
X129500000Y-118500000D02*
X132500000Y-118500000D01*
X132500000Y-128700000D02*
X132500000Y-118500000D01*
X129500000Y-108500000D02*
X136000000Y-108500000D01*
X132500000Y-98500000D02*
X132500000Y-118500000D01*
X131975000Y-129225000D02*
X132500000Y-128700000D01*
%TO.N,Net-(R502-Pad2)*%
X122500000Y-118500000D02*
X126000000Y-118500000D01*
X122500000Y-118250000D02*
X122250000Y-118500000D01*
X122250000Y-108500000D02*
X126000000Y-108500000D01*
X121750000Y-129250000D02*
X122000000Y-129250000D01*
X119500000Y-108500000D02*
X122250000Y-108500000D01*
X122250000Y-118500000D02*
X122500000Y-118500000D01*
X122500000Y-128750000D02*
X122500000Y-118500000D01*
X119500000Y-118500000D02*
X122250000Y-118500000D01*
X122500000Y-98500000D02*
X122500000Y-118250000D01*
X122500000Y-98500000D02*
X126000000Y-98500000D01*
X119500000Y-98500000D02*
X122500000Y-98500000D01*
X122000000Y-129250000D02*
X122500000Y-128750000D01*
%TO.N,Net-(R503-Pad2)*%
X112750000Y-118500000D02*
X116000000Y-118500000D01*
X109500000Y-108500000D02*
X116000000Y-108500000D01*
X109500000Y-98500000D02*
X112500000Y-98500000D01*
X112500000Y-98500000D02*
X116000000Y-98500000D01*
X111000000Y-129250000D02*
X112500000Y-127750000D01*
X112500000Y-118250000D02*
X112750000Y-118500000D01*
X109500000Y-118500000D02*
X112500000Y-118500000D01*
X112500000Y-118500000D02*
X112750000Y-118500000D01*
X112500000Y-98500000D02*
X112500000Y-118250000D01*
X112500000Y-127750000D02*
X112500000Y-118250000D01*
D27*
%TO.N,/[1]Power/EN_3V3*%
X122500000Y-56250000D02*
X122500000Y-58000000D01*
X122500000Y-58000000D02*
X121500000Y-59000000D01*
%TO.N,/[3]PCM5102/XSMT*%
X54250000Y-79000000D02*
X55250000Y-78000000D01*
X54750000Y-83000000D02*
X54250000Y-82500000D01*
X54250000Y-82500000D02*
X54250000Y-79000000D01*
X55250000Y-85250000D02*
X54750000Y-84750000D01*
X61250000Y-85250000D02*
X55250000Y-85250000D01*
X54750000Y-84750000D02*
X54750000Y-83000000D01*
%TO.N,/[3]PCM5102/FMT*%
X60550000Y-84600000D02*
X59350000Y-84600000D01*
X56000000Y-81250000D02*
X56000000Y-80500000D01*
X59350000Y-84600000D02*
X56000000Y-81250000D01*
X56000000Y-80500000D02*
X55250000Y-79750000D01*
%TD*%
%TA.AperFunction,Conductor*%
%TO.N,GND*%
G36*
X63193039Y-76519685D02*
G01*
X63238794Y-76572489D01*
X63250000Y-76624000D01*
X63250000Y-80126000D01*
X63230315Y-80193039D01*
X63177511Y-80238794D01*
X63126000Y-80250000D01*
X56874000Y-80250000D01*
X56806961Y-80230315D01*
X56761206Y-80177511D01*
X56750000Y-80126000D01*
X56750000Y-76624000D01*
X56769685Y-76556961D01*
X56822489Y-76511206D01*
X56874000Y-76500000D01*
X63126000Y-76500000D01*
X63193039Y-76519685D01*
G37*
%TD.AperFunction*%
%TD*%
M02*
