M48
; DRILL file {KiCad 8.0.8} date 2025-04-26T14:10:24+0300
; FORMAT={-:-/ absolute / metric / decimal}
; #@! TF.CreationDate,2025-04-26T14:10:24+03:00
; #@! TF.GenerationSoftware,Kicad,Pcbnew,8.0.8
; #@! TF.FileFunction,MixedPlating,1,4
FMAT,2
METRIC
; #@! TA.AperFunction,Plated,PTH,ViaDrill
T1C0.300
; #@! TA.AperFunction,Plated,PTH,ComponentDrill
T2C0.762
; #@! TA.AperFunction,Plated,PTH,ComponentDrill
T3C0.800
; #@! TA.AperFunction,Plated,PTH,ComponentDrill
T4C1.000
; #@! TA.AperFunction,Plated,PTH,ComponentDrill
T5C1.100
; #@! TA.AperFunction,NonPlated,NPTH,ComponentDrill
T6C1.200
; #@! TA.AperFunction,NonPlated,NPTH,ComponentDrill
T7C1.500
%
G90
G05
T1
X51.25Y-80.0
X51.25Y-81.75
X51.25Y-83.5
X51.5Y-76.0
X51.75Y-73.5
X52.25Y-90.5
X53.0Y-89.75
X53.75Y-70.0
X53.75Y-89.0
X53.75Y-90.25
X54.0Y-69.0
X55.25Y-77.0
X55.25Y-78.0
X55.25Y-79.75
X55.25Y-80.75
X55.625Y-68.625
X57.25Y-77.0
X57.25Y-78.25
X57.25Y-79.75
X57.5Y-71.0
X57.75Y-54.0
X58.5Y-77.0
X58.5Y-79.75
X59.75Y-77.0
X59.75Y-79.75
X59.75Y-95.5
X60.5Y-85.9
X60.55Y-84.6
X60.75Y-89.5
X61.0Y-77.0
X61.0Y-79.75
X61.25Y-54.0
X61.25Y-85.25
X61.5Y-71.0
X61.75Y-89.5
X62.5Y-77.0
X62.5Y-78.5
X62.5Y-79.75
X63.0Y-69.0
X64.0Y-90.5
X64.75Y-78.25
X64.75Y-89.75
X65.5Y-83.75
X65.5Y-89.0
X65.5Y-90.25
X66.0Y-60.75
X66.25Y-61.75
X67.0Y-85.5
X68.25Y-77.0
X68.25Y-78.25
X68.25Y-79.5
X68.25Y-83.25
X68.75Y-82.5
X71.25Y-86.75
X71.5Y-95.5
X72.25Y-86.75
X72.5Y-89.5
X72.75Y-72.75
X73.0Y-61.5
X73.0Y-62.5
X73.0Y-96.25
X73.0Y-98.0
X73.25Y-99.93
X73.5Y-73.25
X73.5Y-89.5
X73.5Y-97.0
X73.5Y-99.0
X73.5Y-101.0
X73.875Y-65.625
X74.0Y-54.25
X74.0Y-56.75
X74.0Y-59.25
X74.0Y-68.25
X74.0Y-70.75
X76.75Y-106.25
X77.75Y-106.25
X80.0Y-110.5
X80.25Y-125.0
X80.5Y-88.75
X80.5Y-89.75
X80.5Y-116.5
X81.25Y-104.5
X82.25Y-105.0
X82.25Y-110.5
X83.75Y-56.0
X83.75Y-57.0
X83.75Y-62.25
X84.0Y-115.75
X84.5Y-110.5
X84.75Y-62.25
X85.793Y-104.25
X86.75Y-104.25
X86.78Y-110.47
X87.5Y-105.0
X87.5Y-108.75
X89.0Y-110.5
X90.5Y-104.5
X91.25Y-110.5
X91.5Y-104.5
X93.25Y-116.5
X93.5Y-125.0
X101.5Y-80.25
X101.5Y-83.75
X101.5Y-87.25
X105.75Y-66.25
X105.75Y-67.21
X109.75Y-96.5
X111.0Y-129.25
X111.75Y-57.0
X112.0Y-53.5
X112.0Y-55.25
X112.0Y-129.45
X112.75Y-65.0
X113.75Y-65.0
X113.75Y-92.0
X114.75Y-65.0
X114.75Y-92.0
X115.75Y-65.0
X117.75Y-58.5
X118.5Y-52.25
X119.5Y-58.75
X119.75Y-63.25
X119.75Y-96.5
X120.75Y-63.25
X121.5Y-56.0
X121.5Y-59.0
X121.75Y-129.25
X122.0Y-59.75
X122.5Y-56.25
X123.25Y-129.25
X123.65Y-92.0
X124.5Y-92.0
X128.0Y-54.75
X128.0Y-60.25
X129.0Y-59.5
X129.175Y-54.965
X129.25Y-54.0
X129.75Y-96.5
X130.0Y-59.5
X131.5Y-59.5
X131.975Y-129.225
X132.5Y-59.5
X133.25Y-129.25
X133.5Y-92.0
X134.5Y-92.0
X136.75Y-80.0
X137.75Y-80.25
X139.5Y-69.75
X139.75Y-96.5
X140.25Y-72.5
X142.5Y-129.0
X143.5Y-129.25
X143.75Y-66.75
X143.75Y-92.25
X144.75Y-66.75
X144.75Y-83.5
X144.75Y-92.25
X145.6Y-83.5
X148.0Y-74.75
X148.0Y-82.0
T2
X56.19Y-102.46
X56.19Y-105.0
X56.19Y-107.54
X56.19Y-117.46
X56.19Y-120.0
X56.19Y-122.54
X63.81Y-102.46
X63.81Y-105.0
X63.81Y-107.54
X63.81Y-117.46
X63.81Y-120.0
X63.81Y-122.54
T3
X102.25Y-67.21
X102.25Y-69.75
X102.25Y-72.29
X108.25Y-67.21
X108.25Y-69.75
X108.25Y-72.29
T4
X52.5Y-55.0
X52.5Y-57.54
X52.5Y-60.08
X68.525Y-52.0
X68.525Y-54.54
X68.525Y-57.08
X68.525Y-59.62
X68.525Y-63.5
X68.525Y-66.04
X68.525Y-68.58
X68.525Y-71.12
X77.61Y-51.67
X77.61Y-54.21
X77.61Y-56.75
X77.61Y-59.29
X77.61Y-61.83
X77.61Y-64.37
X77.61Y-66.91
X77.61Y-69.45
X77.61Y-71.99
X77.61Y-74.53
X77.61Y-77.07
X77.61Y-79.61
X77.61Y-82.15
X77.61Y-84.69
X77.61Y-87.23
X77.61Y-89.77
X77.61Y-92.31
X77.61Y-94.85
X77.61Y-97.39
X77.61Y-99.93
X81.99Y-125.05
X89.99Y-125.05
X95.39Y-51.67
X95.39Y-54.21
X95.39Y-56.75
X95.39Y-59.29
X95.39Y-61.83
X95.39Y-64.37
X95.39Y-66.91
X95.39Y-69.45
X95.39Y-71.99
X95.39Y-74.53
X95.39Y-77.07
X95.39Y-79.61
X95.39Y-82.15
X95.39Y-84.69
X95.39Y-87.23
X95.39Y-89.77
X95.39Y-92.31
X95.39Y-94.85
X95.39Y-97.39
X95.39Y-99.93
X121.63Y-67.15
X124.17Y-67.15
X126.71Y-67.15
X129.25Y-67.15
T5
X109.5Y-98.5
X109.5Y-103.0
X109.5Y-108.5
X109.5Y-113.0
X109.5Y-118.5
X109.5Y-123.0
X116.0Y-98.5
X116.0Y-103.0
X116.0Y-108.5
X116.0Y-113.0
X116.0Y-118.5
X116.0Y-123.0
X119.5Y-98.5
X119.5Y-103.0
X119.5Y-108.5
X119.5Y-113.0
X119.5Y-118.5
X119.5Y-123.0
X126.0Y-98.5
X126.0Y-103.0
X126.0Y-108.5
X126.0Y-113.0
X126.0Y-118.5
X126.0Y-123.0
X129.5Y-98.5
X129.5Y-103.0
X129.5Y-108.5
X129.5Y-113.0
X129.5Y-118.5
X129.5Y-123.0
X136.0Y-98.5
X136.0Y-103.0
X136.0Y-108.5
X136.0Y-113.0
X136.0Y-118.5
X136.0Y-123.0
X139.5Y-98.5
X139.5Y-103.0
X139.5Y-108.5
X139.5Y-113.0
X139.5Y-118.5
X139.5Y-123.0
X146.0Y-98.5
X146.0Y-103.0
X146.0Y-108.5
X146.0Y-113.0
X146.0Y-118.5
X146.0Y-123.0
T6
X134.85Y-57.75
X142.35Y-57.75
T7
X59.5Y-54.94
X59.5Y-61.94
T4
G00X100.2Y-62.2
M15
G01X100.2Y-60.0
M16
G05
G00X106.1Y-57.7
M15
G01X103.9Y-57.7
M16
G05
G00X106.3Y-64.0
M15
G01X103.7Y-64.0
M16
G05
M30
