%TF.GenerationSoftware,KiCad,Pcbnew,8.0.8*%
%TF.CreationDate,2025-04-26T14:11:06+03:00*%
%TF.ProjectId,rpi_pico_media_board,7270695f-7069-4636-9f5f-6d656469615f,rev?*%
%TF.SameCoordinates,Original*%
%TF.FileFunction,Soldermask,Top*%
%TF.FilePolarity,Negative*%
%FSLAX46Y46*%
G04 Gerber Fmt 4.6, Leading zero omitted, Abs format (unit mm)*
G04 Created by KiCad (PCBNEW 8.0.8) date 2025-04-26 14:11:06*
%MOMM*%
%LPD*%
G01*
G04 APERTURE LIST*
G04 Aperture macros list*
%AMRoundRect*
0 Rectangle with rounded corners*
0 $1 Rounding radius*
0 $2 $3 $4 $5 $6 $7 $8 $9 X,Y pos of 4 corners*
0 Add a 4 corners polygon primitive as box body*
4,1,4,$2,$3,$4,$5,$6,$7,$8,$9,$2,$3,0*
0 Add four circle primitives for the rounded corners*
1,1,$1+$1,$2,$3*
1,1,$1+$1,$4,$5*
1,1,$1+$1,$6,$7*
1,1,$1+$1,$8,$9*
0 Add four rect primitives between the rounded corners*
20,1,$1+$1,$2,$3,$4,$5,0*
20,1,$1+$1,$4,$5,$6,$7,0*
20,1,$1+$1,$6,$7,$8,$9,0*
20,1,$1+$1,$8,$9,$2,$3,0*%
%AMFreePoly0*
4,1,28,0.605014,0.794986,0.644504,0.794986,0.724698,0.756366,0.780194,0.686777,0.800000,0.600000,0.800000,-0.600000,0.780194,-0.686777,0.724698,-0.756366,0.644504,-0.794986,0.605014,-0.794986,0.600000,-0.800000,0.000000,-0.800000,-0.178017,-0.779942,-0.347107,-0.720775,-0.498792,-0.625465,-0.625465,-0.498792,-0.720775,-0.347107,-0.779942,-0.178017,-0.800000,0.000000,-0.779942,0.178017,
-0.720775,0.347107,-0.625465,0.498792,-0.498792,0.625465,-0.347107,0.720775,-0.178017,0.779942,0.000000,0.800000,0.600000,0.800000,0.605014,0.794986,0.605014,0.794986,$1*%
%AMFreePoly1*
4,1,28,0.178017,0.779942,0.347107,0.720775,0.498792,0.625465,0.625465,0.498792,0.720775,0.347107,0.779942,0.178017,0.800000,0.000000,0.779942,-0.178017,0.720775,-0.347107,0.625465,-0.498792,0.498792,-0.625465,0.347107,-0.720775,0.178017,-0.779942,0.000000,-0.800000,-0.600000,-0.800000,-0.605014,-0.794986,-0.644504,-0.794986,-0.724698,-0.756366,-0.780194,-0.686777,-0.800000,-0.600000,
-0.800000,0.600000,-0.780194,0.686777,-0.724698,0.756366,-0.644504,0.794986,-0.605014,0.794986,-0.600000,0.800000,0.000000,0.800000,0.178017,0.779942,0.178017,0.779942,$1*%
%AMFreePoly2*
4,1,9,3.862500,-0.866500,0.737500,-0.866500,0.737500,-0.450000,-0.737500,-0.450000,-0.737500,0.450000,0.737500,0.450000,0.737500,0.866500,3.862500,0.866500,3.862500,-0.866500,3.862500,-0.866500,$1*%
G04 Aperture macros list end*
%ADD10RoundRect,0.225000X-0.225000X-0.375000X0.225000X-0.375000X0.225000X0.375000X-0.225000X0.375000X0*%
%ADD11RoundRect,0.150000X-0.587500X-0.150000X0.587500X-0.150000X0.587500X0.150000X-0.587500X0.150000X0*%
%ADD12O,2.500000X2.000000*%
%ADD13O,2.500000X1.850000*%
%ADD14RoundRect,0.200000X-0.275000X0.200000X-0.275000X-0.200000X0.275000X-0.200000X0.275000X0.200000X0*%
%ADD15RoundRect,0.225000X-0.250000X0.225000X-0.250000X-0.225000X0.250000X-0.225000X0.250000X0.225000X0*%
%ADD16RoundRect,0.225000X0.250000X-0.225000X0.250000X0.225000X-0.250000X0.225000X-0.250000X-0.225000X0*%
%ADD17RoundRect,0.112500X-0.187500X-0.112500X0.187500X-0.112500X0.187500X0.112500X-0.187500X0.112500X0*%
%ADD18RoundRect,0.200000X0.275000X-0.200000X0.275000X0.200000X-0.275000X0.200000X-0.275000X-0.200000X0*%
%ADD19RoundRect,0.225000X-0.225000X-0.250000X0.225000X-0.250000X0.225000X0.250000X-0.225000X0.250000X0*%
%ADD20R,4.600000X2.000000*%
%ADD21O,4.200000X2.000000*%
%ADD22O,2.000000X4.200000*%
%ADD23RoundRect,0.200000X0.200000X0.275000X-0.200000X0.275000X-0.200000X-0.275000X0.200000X-0.275000X0*%
%ADD24RoundRect,0.200000X-0.200000X-0.275000X0.200000X-0.275000X0.200000X0.275000X-0.200000X0.275000X0*%
%ADD25RoundRect,0.225000X-0.375000X0.225000X-0.375000X-0.225000X0.375000X-0.225000X0.375000X0.225000X0*%
%ADD26RoundRect,0.112500X0.112500X-0.187500X0.112500X0.187500X-0.112500X0.187500X-0.112500X-0.187500X0*%
%ADD27C,2.000000*%
%ADD28R,0.650000X0.300000*%
%ADD29R,1.100000X1.700000*%
%ADD30C,1.524000*%
%ADD31RoundRect,0.250000X0.325000X0.650000X-0.325000X0.650000X-0.325000X-0.650000X0.325000X-0.650000X0*%
%ADD32R,1.700000X1.700000*%
%ADD33O,1.700000X1.700000*%
%ADD34RoundRect,0.225000X0.225000X0.250000X-0.225000X0.250000X-0.225000X-0.250000X0.225000X-0.250000X0*%
%ADD35RoundRect,0.250000X-0.325000X-0.650000X0.325000X-0.650000X0.325000X0.650000X-0.325000X0.650000X0*%
%ADD36RoundRect,0.250000X0.450000X-0.262500X0.450000X0.262500X-0.450000X0.262500X-0.450000X-0.262500X0*%
%ADD37R,1.600000X2.000000*%
%ADD38O,1.600000X2.000000*%
%ADD39RoundRect,0.100000X-0.100000X0.712500X-0.100000X-0.712500X0.100000X-0.712500X0.100000X0.712500X0*%
%ADD40RoundRect,0.218750X-0.218750X-0.256250X0.218750X-0.256250X0.218750X0.256250X-0.218750X0.256250X0*%
%ADD41RoundRect,0.218750X-0.256250X0.218750X-0.256250X-0.218750X0.256250X-0.218750X0.256250X0.218750X0*%
%ADD42RoundRect,0.250000X0.450000X0.425000X-0.450000X0.425000X-0.450000X-0.425000X0.450000X-0.425000X0*%
%ADD43R,1.200000X1.400000*%
%ADD44RoundRect,0.200000X-0.600000X-0.600000X0.600000X-0.600000X0.600000X0.600000X-0.600000X0.600000X0*%
%ADD45C,1.600000*%
%ADD46FreePoly0,0.000000*%
%ADD47FreePoly1,0.000000*%
%ADD48RoundRect,0.225000X0.375000X-0.225000X0.375000X0.225000X-0.375000X0.225000X-0.375000X-0.225000X0*%
%ADD49C,1.200000*%
%ADD50R,4.000000X2.300000*%
%ADD51R,4.400000X2.300000*%
%ADD52RoundRect,0.125000X0.125000X0.125000X-0.125000X0.125000X-0.125000X-0.125000X0.125000X-0.125000X0*%
%ADD53R,0.700000X1.300000*%
%ADD54C,0.500000*%
%ADD55R,1.200000X2.000000*%
%ADD56RoundRect,0.250000X0.650000X-0.325000X0.650000X0.325000X-0.650000X0.325000X-0.650000X-0.325000X0*%
%ADD57RoundRect,0.250000X-0.425000X0.450000X-0.425000X-0.450000X0.425000X-0.450000X0.425000X0.450000X0*%
%ADD58RoundRect,0.225000X0.425000X0.225000X-0.425000X0.225000X-0.425000X-0.225000X0.425000X-0.225000X0*%
%ADD59FreePoly2,180.000000*%
%ADD60C,1.500000*%
%ADD61R,2.000000X1.500000*%
%ADD62RoundRect,0.250000X0.425000X-0.450000X0.425000X0.450000X-0.425000X0.450000X-0.425000X-0.450000X0*%
%ADD63RoundRect,0.250000X-0.375000X-0.850000X0.375000X-0.850000X0.375000X0.850000X-0.375000X0.850000X0*%
%ADD64RoundRect,0.250000X-0.450000X-0.425000X0.450000X-0.425000X0.450000X0.425000X-0.450000X0.425000X0*%
%ADD65RoundRect,0.100000X-0.100000X0.637500X-0.100000X-0.637500X0.100000X-0.637500X0.100000X0.637500X0*%
G04 APERTURE END LIST*
D10*
%TO.C,D504*%
X111100000Y-115750000D03*
X114400000Y-115750000D03*
%TD*%
D11*
%TO.C,Q501*%
X120812500Y-93800000D03*
X120812500Y-95700000D03*
X122687500Y-94750000D03*
%TD*%
%TO.C,Q500*%
X110812500Y-93800000D03*
X110812500Y-95700000D03*
X112687500Y-94750000D03*
%TD*%
D12*
%TO.C,SW200*%
X108250000Y-72490000D03*
D13*
X108250000Y-69750000D03*
D12*
X108250000Y-67010000D03*
X102250000Y-67010000D03*
D13*
X102250000Y-69750000D03*
D12*
X102250000Y-72490000D03*
%TD*%
D14*
%TO.C,R402*%
X84250000Y-106175000D03*
X84250000Y-107825000D03*
%TD*%
D15*
%TO.C,C101*%
X115250000Y-62225000D03*
X115250000Y-63775000D03*
%TD*%
D14*
%TO.C,R401*%
X89250000Y-106175000D03*
X89250000Y-107825000D03*
%TD*%
D16*
%TO.C,C301*%
X60975000Y-73412500D03*
X60975000Y-71862500D03*
%TD*%
D17*
%TO.C,D201*%
X71225000Y-59500000D03*
X73325000Y-59500000D03*
%TD*%
D10*
%TO.C,D507*%
X141100000Y-115750000D03*
X144400000Y-115750000D03*
%TD*%
D18*
%TO.C,R104*%
X118250000Y-54825000D03*
X118250000Y-53175000D03*
%TD*%
D19*
%TO.C,C500*%
X98975000Y-79500000D03*
X100525000Y-79500000D03*
%TD*%
D20*
%TO.C,J100*%
X105000000Y-64000000D03*
D21*
X105000000Y-57700000D03*
D22*
X100200000Y-61100000D03*
%TD*%
D23*
%TO.C,R103*%
X121750000Y-53250000D03*
X120100000Y-53250000D03*
%TD*%
D24*
%TO.C,R501*%
X98925000Y-92250000D03*
X100575000Y-92250000D03*
%TD*%
D25*
%TO.C,D601*%
X145750000Y-77600000D03*
X145750000Y-80900000D03*
%TD*%
D26*
%TO.C,D401*%
X82250000Y-111800000D03*
X82250000Y-109700000D03*
%TD*%
D27*
%TO.C,U511*%
X139500000Y-118500000D03*
X146000000Y-118500000D03*
X139500000Y-123000000D03*
X146000000Y-123000000D03*
%TD*%
D28*
%TO.C,PS100*%
X118450000Y-56500000D03*
X118450000Y-57000000D03*
X118450000Y-57500000D03*
X118450000Y-58000000D03*
X120550000Y-58000000D03*
X120550000Y-57500000D03*
X120550000Y-57000000D03*
X120550000Y-56500000D03*
D29*
X119500000Y-57250000D03*
%TD*%
D27*
%TO.C,U503*%
X139500000Y-98500000D03*
X146000000Y-98500000D03*
X139500000Y-103000000D03*
X146000000Y-103000000D03*
%TD*%
D14*
%TO.C,R108*%
X138750000Y-93925000D03*
X138750000Y-95575000D03*
%TD*%
D27*
%TO.C,U509*%
X119500000Y-118500000D03*
X126000000Y-118500000D03*
X119500000Y-123000000D03*
X126000000Y-123000000D03*
%TD*%
D18*
%TO.C,R107*%
X146500000Y-95575000D03*
X146500000Y-93925000D03*
%TD*%
D30*
%TO.C,U203*%
X63810000Y-120000000D03*
X63810000Y-117460000D03*
X56190000Y-122540000D03*
X63810000Y-122540000D03*
X56190000Y-120000000D03*
X56190000Y-117460000D03*
%TD*%
D31*
%TO.C,C108*%
X69975000Y-90000000D03*
X67025000Y-90000000D03*
%TD*%
D26*
%TO.C,D404*%
X91250000Y-111800000D03*
X91250000Y-109700000D03*
%TD*%
D32*
%TO.C,J301*%
X52500000Y-55000000D03*
D33*
X52500000Y-57540000D03*
X52500000Y-60080000D03*
%TD*%
D34*
%TO.C,C104*%
X121700000Y-55000000D03*
X120150000Y-55000000D03*
%TD*%
D18*
%TO.C,R509*%
X126500000Y-95575000D03*
X126500000Y-93925000D03*
%TD*%
D35*
%TO.C,C106*%
X123775000Y-54750000D03*
X126725000Y-54750000D03*
%TD*%
D27*
%TO.C,U507*%
X139500000Y-108500000D03*
X146000000Y-108500000D03*
X139500000Y-113000000D03*
X146000000Y-113000000D03*
%TD*%
D36*
%TO.C,R106*%
X60750000Y-93912500D03*
X60750000Y-92087500D03*
%TD*%
D37*
%TO.C,Brd600*%
X121630000Y-67150000D03*
X124170000Y-67150000D03*
D38*
X126710000Y-67150000D03*
X129250000Y-67150000D03*
%TD*%
D19*
%TO.C,C302*%
X62700000Y-83362500D03*
X64250000Y-83362500D03*
%TD*%
D18*
%TO.C,R507*%
X116500000Y-95575000D03*
X116500000Y-93925000D03*
%TD*%
D10*
%TO.C,D509*%
X121200000Y-125750000D03*
X124500000Y-125750000D03*
%TD*%
D24*
%TO.C,R502*%
X98925000Y-97500000D03*
X100575000Y-97500000D03*
%TD*%
D10*
%TO.C,D503*%
X141100000Y-105750000D03*
X144400000Y-105750000D03*
%TD*%
D36*
%TO.C,R308*%
X58500000Y-68162500D03*
X58500000Y-66337500D03*
%TD*%
D39*
%TO.C,U600*%
X142950000Y-72500000D03*
X142300000Y-72500000D03*
X141650000Y-72500000D03*
X141000000Y-72500000D03*
X141000000Y-76725000D03*
X141650000Y-76725000D03*
X142300000Y-76725000D03*
X142950000Y-76725000D03*
%TD*%
D24*
%TO.C,R505*%
X98925000Y-84750000D03*
X100575000Y-84750000D03*
%TD*%
D16*
%TO.C,C306*%
X64750000Y-81275000D03*
X64750000Y-79725000D03*
%TD*%
D26*
%TO.C,D405*%
X80000000Y-111800000D03*
X80000000Y-109700000D03*
%TD*%
D40*
%TO.C,L100*%
X113462500Y-60500000D03*
X115037500Y-60500000D03*
%TD*%
D16*
%TO.C,C308*%
X57975000Y-73412500D03*
X57975000Y-71862500D03*
%TD*%
D36*
%TO.C,R601*%
X143325000Y-80862500D03*
X143325000Y-79037500D03*
%TD*%
D34*
%TO.C,C300*%
X64250000Y-73137500D03*
X62700000Y-73137500D03*
%TD*%
D24*
%TO.C,R101*%
X118675000Y-60250000D03*
X120325000Y-60250000D03*
%TD*%
D27*
%TO.C,U501*%
X119500000Y-98500000D03*
X126000000Y-98500000D03*
X119500000Y-103000000D03*
X126000000Y-103000000D03*
%TD*%
D16*
%TO.C,C600*%
X148000000Y-77525000D03*
X148000000Y-75975000D03*
%TD*%
D11*
%TO.C,Q100*%
X140812500Y-93800000D03*
X140812500Y-95700000D03*
X142687500Y-94750000D03*
%TD*%
D32*
%TO.C,J200*%
X68525000Y-52000000D03*
D33*
X68525000Y-54540000D03*
X68525000Y-57080000D03*
X68525000Y-59620000D03*
%TD*%
D41*
%TO.C,D513*%
X124750000Y-93962500D03*
X124750000Y-95537500D03*
%TD*%
D42*
%TO.C,C309*%
X55825000Y-73137500D03*
X53125000Y-73137500D03*
%TD*%
D36*
%TO.C,R600*%
X140500000Y-80862500D03*
X140500000Y-79037500D03*
%TD*%
D27*
%TO.C,U502*%
X129500000Y-98500000D03*
X136000000Y-98500000D03*
X129500000Y-103000000D03*
X136000000Y-103000000D03*
%TD*%
%TO.C,U504*%
X109500000Y-108500000D03*
X116000000Y-108500000D03*
X109500000Y-113000000D03*
X116000000Y-113000000D03*
%TD*%
D15*
%TO.C,C304*%
X64725000Y-75337500D03*
X64725000Y-76887500D03*
%TD*%
D10*
%TO.C,D510*%
X131200000Y-125750000D03*
X134500000Y-125750000D03*
%TD*%
D26*
%TO.C,D403*%
X84500000Y-111800000D03*
X84500000Y-109700000D03*
%TD*%
D24*
%TO.C,R307*%
X52425000Y-79750000D03*
X54075000Y-79750000D03*
%TD*%
D10*
%TO.C,D506*%
X131100000Y-115750000D03*
X134400000Y-115750000D03*
%TD*%
D19*
%TO.C,C502*%
X98975000Y-86500000D03*
X100525000Y-86500000D03*
%TD*%
D43*
%TO.C,Y600*%
X142500000Y-69750000D03*
X142500000Y-67550000D03*
X140800000Y-67550000D03*
X140800000Y-69750000D03*
%TD*%
D24*
%TO.C,R303*%
X52425000Y-83250000D03*
X54075000Y-83250000D03*
%TD*%
D31*
%TO.C,C102*%
X115975000Y-57500000D03*
X113025000Y-57500000D03*
%TD*%
D10*
%TO.C,D505*%
X121100000Y-115750000D03*
X124400000Y-115750000D03*
%TD*%
D17*
%TO.C,D202*%
X71225000Y-57000000D03*
X73325000Y-57000000D03*
%TD*%
D10*
%TO.C,D500*%
X111100000Y-105750000D03*
X114400000Y-105750000D03*
%TD*%
D17*
%TO.C,D206*%
X71225000Y-66000000D03*
X73325000Y-66000000D03*
%TD*%
D14*
%TO.C,R508*%
X108750000Y-93925000D03*
X108750000Y-95575000D03*
%TD*%
D35*
%TO.C,C105*%
X123775000Y-60250000D03*
X126725000Y-60250000D03*
%TD*%
D16*
%TO.C,C602*%
X144500000Y-69275000D03*
X144500000Y-67725000D03*
%TD*%
D44*
%TO.C,U200*%
X77610000Y-51670000D03*
D45*
X77610000Y-54210000D03*
D46*
X77610000Y-56750000D03*
D45*
X77610000Y-59290000D03*
X77610000Y-61830000D03*
X77610000Y-64370000D03*
X77610000Y-66910000D03*
D46*
X77610000Y-69450000D03*
D45*
X77610000Y-71990000D03*
X77610000Y-74530000D03*
X77610000Y-77070000D03*
X77610000Y-79610000D03*
D46*
X77610000Y-82150000D03*
D45*
X77610000Y-84690000D03*
X77610000Y-87230000D03*
X77610000Y-89770000D03*
X77610000Y-92310000D03*
D46*
X77610000Y-94850000D03*
D45*
X77610000Y-97390000D03*
X77610000Y-99930000D03*
X95390000Y-99930000D03*
X95390000Y-97390000D03*
D47*
X95390000Y-94850000D03*
D45*
X95390000Y-92310000D03*
X95390000Y-89770000D03*
X95390000Y-87230000D03*
X95390000Y-84690000D03*
D47*
X95390000Y-82150000D03*
D45*
X95390000Y-79610000D03*
X95390000Y-77070000D03*
X95390000Y-74530000D03*
X95390000Y-71990000D03*
D47*
X95390000Y-69450000D03*
D45*
X95390000Y-66910000D03*
X95390000Y-64370000D03*
X95390000Y-61830000D03*
X95390000Y-59290000D03*
D47*
X95390000Y-56750000D03*
D45*
X95390000Y-54210000D03*
X95390000Y-51670000D03*
%TD*%
D15*
%TO.C,C311*%
X62750000Y-66475000D03*
X62750000Y-68025000D03*
%TD*%
D14*
%TO.C,R510*%
X118750000Y-93925000D03*
X118750000Y-95575000D03*
%TD*%
D24*
%TO.C,R306*%
X52425000Y-78000000D03*
X54075000Y-78000000D03*
%TD*%
D48*
%TO.C,D600*%
X145750000Y-75650000D03*
X145750000Y-72350000D03*
%TD*%
D18*
%TO.C,R301*%
X57750000Y-85325000D03*
X57750000Y-83675000D03*
%TD*%
D49*
%TO.C,BT600*%
X142350000Y-57750000D03*
X134850000Y-57750000D03*
D50*
X146750000Y-57750000D03*
D51*
X130750000Y-57750000D03*
%TD*%
D17*
%TO.C,D203*%
X71225000Y-54500000D03*
X73325000Y-54500000D03*
%TD*%
D27*
%TO.C,U508*%
X109500000Y-118500000D03*
X116000000Y-118500000D03*
X109500000Y-123000000D03*
X116000000Y-123000000D03*
%TD*%
D15*
%TO.C,C100*%
X113250000Y-62225000D03*
X113250000Y-63775000D03*
%TD*%
%TO.C,C601*%
X148000000Y-79225000D03*
X148000000Y-80775000D03*
%TD*%
D14*
%TO.C,R404*%
X80000000Y-106175000D03*
X80000000Y-107825000D03*
%TD*%
D41*
%TO.C,D101*%
X144750000Y-93962500D03*
X144750000Y-95537500D03*
%TD*%
D52*
%TO.C,D100*%
X110350000Y-77500000D03*
X108150000Y-77500000D03*
%TD*%
D53*
%TO.C,J400*%
X89500000Y-114500000D03*
X88400000Y-114500000D03*
X87300000Y-114500000D03*
X86200000Y-114500000D03*
X85100000Y-114500000D03*
X84000000Y-114500000D03*
X82900000Y-114500000D03*
X81800000Y-114500000D03*
D54*
X81990000Y-125050000D03*
X89990000Y-125050000D03*
D53*
X80700000Y-114500000D03*
D43*
X79600000Y-115350000D03*
D55*
X79180000Y-125050000D03*
X94700000Y-125050000D03*
D43*
X94280000Y-115350000D03*
%TD*%
D24*
%TO.C,R500*%
X98925000Y-90000000D03*
X100575000Y-90000000D03*
%TD*%
D31*
%TO.C,C110*%
X58225000Y-90000000D03*
X55275000Y-90000000D03*
%TD*%
D56*
%TO.C,C107*%
X64750000Y-94725000D03*
X64750000Y-91775000D03*
%TD*%
D36*
%TO.C,R105*%
X72550000Y-93912500D03*
X72550000Y-92087500D03*
%TD*%
D10*
%TO.C,D501*%
X121100000Y-105750000D03*
X124400000Y-105750000D03*
%TD*%
D27*
%TO.C,U506*%
X129500000Y-108500000D03*
X136000000Y-108500000D03*
X129500000Y-113000000D03*
X136000000Y-113000000D03*
%TD*%
D24*
%TO.C,R304*%
X52425000Y-81500000D03*
X54075000Y-81500000D03*
%TD*%
D57*
%TO.C,C305*%
X66725000Y-74512500D03*
X66725000Y-77212500D03*
%TD*%
D41*
%TO.C,D512*%
X114750000Y-93962500D03*
X114750000Y-95537500D03*
%TD*%
D24*
%TO.C,R504*%
X98925000Y-81250000D03*
X100575000Y-81250000D03*
%TD*%
D15*
%TO.C,C310*%
X56500000Y-66475000D03*
X56500000Y-68025000D03*
%TD*%
D36*
%TO.C,R309*%
X60750000Y-68162500D03*
X60750000Y-66337500D03*
%TD*%
D27*
%TO.C,U500*%
X109500000Y-98500000D03*
X116000000Y-98500000D03*
X109500000Y-103000000D03*
X116000000Y-103000000D03*
%TD*%
D24*
%TO.C,R506*%
X98925000Y-88250000D03*
X100575000Y-88250000D03*
%TD*%
D14*
%TO.C,R512*%
X128750000Y-93925000D03*
X128750000Y-95575000D03*
%TD*%
D19*
%TO.C,C401*%
X85975000Y-107750000D03*
X87525000Y-107750000D03*
%TD*%
D26*
%TO.C,D402*%
X89000000Y-111800000D03*
X89000000Y-109700000D03*
%TD*%
D23*
%TO.C,R102*%
X114650000Y-53250000D03*
X113000000Y-53250000D03*
%TD*%
D58*
%TO.C,U100*%
X70250000Y-95500000D03*
D59*
X70162500Y-94000000D03*
D58*
X70250000Y-92500000D03*
%TD*%
D10*
%TO.C,D511*%
X141200000Y-125750000D03*
X144500000Y-125750000D03*
%TD*%
D14*
%TO.C,R403*%
X91250000Y-106175000D03*
X91250000Y-107825000D03*
%TD*%
D52*
%TO.C,D200*%
X110350000Y-75250000D03*
X108150000Y-75250000D03*
%TD*%
D14*
%TO.C,R400*%
X82250000Y-106175000D03*
X82250000Y-107825000D03*
%TD*%
D60*
%TO.C,J300*%
X59500000Y-54940000D03*
X59500000Y-61940000D03*
D61*
X56000000Y-54540000D03*
X56000000Y-57940000D03*
X56000000Y-63440000D03*
X63000000Y-54540000D03*
X63000000Y-61740000D03*
X63000000Y-63940000D03*
%TD*%
D10*
%TO.C,D508*%
X111200000Y-125750000D03*
X114500000Y-125750000D03*
%TD*%
D19*
%TO.C,C501*%
X98975000Y-83000000D03*
X100525000Y-83000000D03*
%TD*%
D56*
%TO.C,C109*%
X52800000Y-94725000D03*
X52800000Y-91775000D03*
%TD*%
D41*
%TO.C,D514*%
X134750000Y-93962500D03*
X134750000Y-95537500D03*
%TD*%
D17*
%TO.C,D205*%
X71225000Y-68500000D03*
X73325000Y-68500000D03*
%TD*%
D30*
%TO.C,U202*%
X63810000Y-105000000D03*
X63810000Y-102460000D03*
X56190000Y-107540000D03*
X63810000Y-107540000D03*
X56190000Y-105000000D03*
X56190000Y-102460000D03*
%TD*%
D62*
%TO.C,C307*%
X66725000Y-82212500D03*
X66725000Y-79512500D03*
%TD*%
D10*
%TO.C,D502*%
X131100000Y-105750000D03*
X134400000Y-105750000D03*
%TD*%
D18*
%TO.C,R511*%
X136500000Y-95575000D03*
X136500000Y-93925000D03*
%TD*%
D24*
%TO.C,R305*%
X52425000Y-76250000D03*
X54075000Y-76250000D03*
%TD*%
D19*
%TO.C,C400*%
X85975000Y-106000000D03*
X87525000Y-106000000D03*
%TD*%
D63*
%TO.C,L101*%
X123925000Y-57500000D03*
X126075000Y-57500000D03*
%TD*%
D27*
%TO.C,U510*%
X129500000Y-118500000D03*
X136000000Y-118500000D03*
X129500000Y-123000000D03*
X136000000Y-123000000D03*
%TD*%
%TO.C,U505*%
X119500000Y-108500000D03*
X126000000Y-108500000D03*
X119500000Y-113000000D03*
X126000000Y-113000000D03*
%TD*%
D18*
%TO.C,R100*%
X116500000Y-54825000D03*
X116500000Y-53175000D03*
%TD*%
%TO.C,R300*%
X59475000Y-85325000D03*
X59475000Y-83675000D03*
%TD*%
D34*
%TO.C,C103*%
X114600000Y-55000000D03*
X113050000Y-55000000D03*
%TD*%
D24*
%TO.C,R503*%
X98925000Y-100000000D03*
X100575000Y-100000000D03*
%TD*%
D58*
%TO.C,U101*%
X58500000Y-95500000D03*
D59*
X58412500Y-94000000D03*
D58*
X58500000Y-92500000D03*
%TD*%
D17*
%TO.C,D4*%
X71200000Y-71250000D03*
X73300000Y-71250000D03*
%TD*%
D64*
%TO.C,C303*%
X62875000Y-85387500D03*
X65575000Y-85387500D03*
%TD*%
D18*
%TO.C,R302*%
X55975000Y-85325000D03*
X55975000Y-83675000D03*
%TD*%
D65*
%TO.C,U300*%
X62900000Y-75525000D03*
X62250000Y-75525000D03*
X61600000Y-75525000D03*
X60950000Y-75525000D03*
X60300000Y-75525000D03*
X59650000Y-75525000D03*
X59000000Y-75525000D03*
X58350000Y-75525000D03*
X57700000Y-75525000D03*
X57050000Y-75525000D03*
X57050000Y-81250000D03*
X57700000Y-81250000D03*
X58350000Y-81250000D03*
X59000000Y-81250000D03*
X59650000Y-81250000D03*
X60300000Y-81250000D03*
X60950000Y-81250000D03*
X61600000Y-81250000D03*
X62250000Y-81250000D03*
X62900000Y-81250000D03*
%TD*%
D32*
%TO.C,J201*%
X68525000Y-63500000D03*
D33*
X68525000Y-66040000D03*
X68525000Y-68580000D03*
X68525000Y-71120000D03*
%TD*%
D26*
%TO.C,D400*%
X86750000Y-111800000D03*
X86750000Y-109700000D03*
%TD*%
D11*
%TO.C,Q502*%
X130812500Y-93800000D03*
X130812500Y-95700000D03*
X132687500Y-94750000D03*
%TD*%
M02*
