%TF.GenerationSoftware,KiCad,Pcbnew,8.0.8*%
%TF.CreationDate,2025-04-26T14:11:06+03:00*%
%TF.ProjectId,rpi_pico_media_board,7270695f-7069-4636-9f5f-6d656469615f,rev?*%
%TF.SameCoordinates,Original*%
%TF.FileFunction,Soldermask,Bot*%
%TF.FilePolarity,Negative*%
%FSLAX46Y46*%
G04 Gerber Fmt 4.6, Leading zero omitted, Abs format (unit mm)*
G04 Created by KiCad (PCBNEW 8.0.8) date 2025-04-26 14:11:06*
%MOMM*%
%LPD*%
G01*
G04 APERTURE LIST*
G04 Aperture macros list*
%AMRoundRect*
0 Rectangle with rounded corners*
0 $1 Rounding radius*
0 $2 $3 $4 $5 $6 $7 $8 $9 X,Y pos of 4 corners*
0 Add a 4 corners polygon primitive as box body*
4,1,4,$2,$3,$4,$5,$6,$7,$8,$9,$2,$3,0*
0 Add four circle primitives for the rounded corners*
1,1,$1+$1,$2,$3*
1,1,$1+$1,$4,$5*
1,1,$1+$1,$6,$7*
1,1,$1+$1,$8,$9*
0 Add four rect primitives between the rounded corners*
20,1,$1+$1,$2,$3,$4,$5,0*
20,1,$1+$1,$4,$5,$6,$7,0*
20,1,$1+$1,$6,$7,$8,$9,0*
20,1,$1+$1,$8,$9,$2,$3,0*%
%AMFreePoly0*
4,1,28,0.605014,0.794986,0.644504,0.794986,0.724698,0.756366,0.780194,0.686777,0.800000,0.600000,0.800000,-0.600000,0.780194,-0.686777,0.724698,-0.756366,0.644504,-0.794986,0.605014,-0.794986,0.600000,-0.800000,0.000000,-0.800000,-0.178017,-0.779942,-0.347107,-0.720775,-0.498792,-0.625465,-0.625465,-0.498792,-0.720775,-0.347107,-0.779942,-0.178017,-0.800000,0.000000,-0.779942,0.178017,
-0.720775,0.347107,-0.625465,0.498792,-0.498792,0.625465,-0.347107,0.720775,-0.178017,0.779942,0.000000,0.800000,0.600000,0.800000,0.605014,0.794986,0.605014,0.794986,$1*%
%AMFreePoly1*
4,1,28,0.178017,0.779942,0.347107,0.720775,0.498792,0.625465,0.625465,0.498792,0.720775,0.347107,0.779942,0.178017,0.800000,0.000000,0.779942,-0.178017,0.720775,-0.347107,0.625465,-0.498792,0.498792,-0.625465,0.347107,-0.720775,0.178017,-0.779942,0.000000,-0.800000,-0.600000,-0.800000,-0.605014,-0.794986,-0.644504,-0.794986,-0.724698,-0.756366,-0.780194,-0.686777,-0.800000,-0.600000,
-0.800000,0.600000,-0.780194,0.686777,-0.724698,0.756366,-0.644504,0.794986,-0.605014,0.794986,-0.600000,0.800000,0.000000,0.800000,0.178017,0.779942,0.178017,0.779942,$1*%
G04 Aperture macros list end*
%ADD10O,2.500000X2.000000*%
%ADD11O,2.500000X1.850000*%
%ADD12R,4.600000X2.000000*%
%ADD13O,4.200000X2.000000*%
%ADD14O,2.000000X4.200000*%
%ADD15C,2.000000*%
%ADD16C,1.524000*%
%ADD17R,1.700000X1.700000*%
%ADD18O,1.700000X1.700000*%
%ADD19R,1.600000X2.000000*%
%ADD20O,1.600000X2.000000*%
%ADD21RoundRect,0.200000X-0.600000X-0.600000X0.600000X-0.600000X0.600000X0.600000X-0.600000X0.600000X0*%
%ADD22C,1.600000*%
%ADD23FreePoly0,0.000000*%
%ADD24FreePoly1,0.000000*%
%ADD25C,1.200000*%
%ADD26C,0.500000*%
%ADD27C,1.500000*%
G04 APERTURE END LIST*
D10*
%TO.C,SW200*%
X108250000Y-72490000D03*
D11*
X108250000Y-69750000D03*
D10*
X108250000Y-67010000D03*
X102250000Y-67010000D03*
D11*
X102250000Y-69750000D03*
D10*
X102250000Y-72490000D03*
%TD*%
D12*
%TO.C,J100*%
X105000000Y-64000000D03*
D13*
X105000000Y-57700000D03*
D14*
X100200000Y-61100000D03*
%TD*%
D15*
%TO.C,U511*%
X139500000Y-118500000D03*
X146000000Y-118500000D03*
X139500000Y-123000000D03*
X146000000Y-123000000D03*
%TD*%
%TO.C,U503*%
X139500000Y-98500000D03*
X146000000Y-98500000D03*
X139500000Y-103000000D03*
X146000000Y-103000000D03*
%TD*%
%TO.C,U509*%
X119500000Y-118500000D03*
X126000000Y-118500000D03*
X119500000Y-123000000D03*
X126000000Y-123000000D03*
%TD*%
D16*
%TO.C,U203*%
X63810000Y-120000000D03*
X63810000Y-117460000D03*
X56190000Y-122540000D03*
X63810000Y-122540000D03*
X56190000Y-120000000D03*
X56190000Y-117460000D03*
%TD*%
D17*
%TO.C,J301*%
X52500000Y-55000000D03*
D18*
X52500000Y-57540000D03*
X52500000Y-60080000D03*
%TD*%
D15*
%TO.C,U507*%
X139500000Y-108500000D03*
X146000000Y-108500000D03*
X139500000Y-113000000D03*
X146000000Y-113000000D03*
%TD*%
D19*
%TO.C,Brd600*%
X121630000Y-67150000D03*
X124170000Y-67150000D03*
D20*
X126710000Y-67150000D03*
X129250000Y-67150000D03*
%TD*%
D15*
%TO.C,U501*%
X119500000Y-98500000D03*
X126000000Y-98500000D03*
X119500000Y-103000000D03*
X126000000Y-103000000D03*
%TD*%
D17*
%TO.C,J200*%
X68525000Y-52000000D03*
D18*
X68525000Y-54540000D03*
X68525000Y-57080000D03*
X68525000Y-59620000D03*
%TD*%
D15*
%TO.C,U502*%
X129500000Y-98500000D03*
X136000000Y-98500000D03*
X129500000Y-103000000D03*
X136000000Y-103000000D03*
%TD*%
%TO.C,U504*%
X109500000Y-108500000D03*
X116000000Y-108500000D03*
X109500000Y-113000000D03*
X116000000Y-113000000D03*
%TD*%
D21*
%TO.C,U200*%
X77610000Y-51670000D03*
D22*
X77610000Y-54210000D03*
D23*
X77610000Y-56750000D03*
D22*
X77610000Y-59290000D03*
X77610000Y-61830000D03*
X77610000Y-64370000D03*
X77610000Y-66910000D03*
D23*
X77610000Y-69450000D03*
D22*
X77610000Y-71990000D03*
X77610000Y-74530000D03*
X77610000Y-77070000D03*
X77610000Y-79610000D03*
D23*
X77610000Y-82150000D03*
D22*
X77610000Y-84690000D03*
X77610000Y-87230000D03*
X77610000Y-89770000D03*
X77610000Y-92310000D03*
D23*
X77610000Y-94850000D03*
D22*
X77610000Y-97390000D03*
X77610000Y-99930000D03*
X95390000Y-99930000D03*
X95390000Y-97390000D03*
D24*
X95390000Y-94850000D03*
D22*
X95390000Y-92310000D03*
X95390000Y-89770000D03*
X95390000Y-87230000D03*
X95390000Y-84690000D03*
D24*
X95390000Y-82150000D03*
D22*
X95390000Y-79610000D03*
X95390000Y-77070000D03*
X95390000Y-74530000D03*
X95390000Y-71990000D03*
D24*
X95390000Y-69450000D03*
D22*
X95390000Y-66910000D03*
X95390000Y-64370000D03*
X95390000Y-61830000D03*
X95390000Y-59290000D03*
D24*
X95390000Y-56750000D03*
D22*
X95390000Y-54210000D03*
X95390000Y-51670000D03*
%TD*%
D25*
%TO.C,BT600*%
X142350000Y-57750000D03*
X134850000Y-57750000D03*
%TD*%
D15*
%TO.C,U508*%
X109500000Y-118500000D03*
X116000000Y-118500000D03*
X109500000Y-123000000D03*
X116000000Y-123000000D03*
%TD*%
D26*
%TO.C,J400*%
X81990000Y-125050000D03*
X89990000Y-125050000D03*
%TD*%
D15*
%TO.C,U506*%
X129500000Y-108500000D03*
X136000000Y-108500000D03*
X129500000Y-113000000D03*
X136000000Y-113000000D03*
%TD*%
%TO.C,U500*%
X109500000Y-98500000D03*
X116000000Y-98500000D03*
X109500000Y-103000000D03*
X116000000Y-103000000D03*
%TD*%
D27*
%TO.C,J300*%
X59500000Y-54940000D03*
X59500000Y-61940000D03*
%TD*%
D16*
%TO.C,U202*%
X63810000Y-105000000D03*
X63810000Y-102460000D03*
X56190000Y-107540000D03*
X63810000Y-107540000D03*
X56190000Y-105000000D03*
X56190000Y-102460000D03*
%TD*%
D15*
%TO.C,U510*%
X129500000Y-118500000D03*
X136000000Y-118500000D03*
X129500000Y-123000000D03*
X136000000Y-123000000D03*
%TD*%
%TO.C,U505*%
X119500000Y-108500000D03*
X126000000Y-108500000D03*
X119500000Y-113000000D03*
X126000000Y-113000000D03*
%TD*%
D17*
%TO.C,J201*%
X68525000Y-63500000D03*
D18*
X68525000Y-66040000D03*
X68525000Y-68580000D03*
X68525000Y-71120000D03*
%TD*%
M02*
